<?xml version="1.0" encoding="utf-8"?>
<!-- Generator: Adobe Illustrator 17.1.0, SVG Export Plug-In . SVG Version: 6.00 Build 0)  -->
<!DOCTYPE svg PUBLIC "-//W3C//DTD SVG 1.1//EN" "http://www.w3.org/Graphics/SVG/1.1/DTD/svg11.dtd">
<svg version="1.1" id="Layer_1" xmlns="http://www.w3.org/2000/svg" xmlns:xlink="http://www.w3.org/1999/xlink" x="0px" y="0px"
	 viewBox="0 0 900 300" enable-background="new 0 0 900 300" xml:space="preserve">
<g>
	<path fill="none" stroke="#684C7D" d="M826,275.3l-4.6-1.5l-3.9,0.6l-1-0.1l-1.8-0.5l-1.7-0.8l-1.2-0.5l-1.7-0.5l-1.3-0.7l-0.1-0.1
		l-1.3-0.8l-1.2-0.7l-2-1.1l-0.8-0.6l-1.4-1.4l-0.7-0.5l-0.3-0.1l-3-0.2l-2.2-0.3l-0.5,0.1l-1.2,1l-0.6,0.4l-0.8,0.1l-0.5,0.1
		l-0.3,0.2l-2.8,1.9l-1.4,1l-2,1.4l-0.4,0.3l-0.4,0.6l-0.8,1.5l-0.6,1l-1.9,1.3l-0.3,0.7l-1.9,3.8l-0.2,0.3l-0.3,0.2l-0.4,0.1h-1.3
		l-0.3,0.2l-0.7,0.6l-1.3,1.2l-0.3,0.2l-0.1,0.1v-0.1l-0.1,0.1l-0.5,0.3l-0.4,0.2l-0.3,1.3l-0.1,0.8l-0.3-0.1l-0.6-0.1h-0.8
		l-0.8,0.3l-0.4,0.2l-1.9,0.6l-1.7,0.8l-1,0.1l-1.6,0.1h-0.7l-1.3,0.2l-1.3,0.2l-0.2,0.1l-0.6,0.1l-0.8,0.1l-1.9-0.1l-1.7,0.3
		l-2.2,1.7l-0.8,0.2l-1.7-0.2h-0.1l-1.6-0.5l-2.3-0.8l-1.3-1l-0.6-0.5l-1.3-1.3l-0.1-0.1l-1.1-1l-1.3-1.3l-1.2-0.8l-1.2-1.1
		l-1.8-0.8l-1.4,2.7l-2.3,3.7l-1.5,2.4l-1.8,2.9l-0.3,0.3l-1,1.1l-0.4,0.4l-0.8,0.8l-1.5,0.5l-0.8,0.3l-1.8,1.1l-0.3,0.2l-0.1,0.1
		l-1.5,1.2l-1.3,0.4l-0.8,0.3l-4.6-2.9l-0.5-0.3l-0.9-0.6l-0.6-0.4l-1.3-0.8l-0.8-0.8l-0.1-0.1l-0.8-1l-0.4-0.4l-0.2-0.1l-1.8-0.3
		l-1.8-0.8l-0.7-0.5l-0.9-0.8l-1-2l-0.2-0.3l-1.7-2.7l-0.7-1.1l-1.3-1.9l-1.4-2.2l-1.2-1.5l-0.8-1l-0.1-1.1V276l-0.3-2.3l-0.1-0.6
		l-0.2-1.8l-0.3-1.8l-0.3-1.4l-1.1-1.5l-0.1-0.2l-1.1-1.3l-0.4-0.7l-0.6-0.7l-0.7-0.8l-0.3-0.3l-0.3-0.3l-0.4-0.5l-0.8-0.8l-1-1.1
		l-0.5-1l-0.5-1.8l-0.6-2.2l-0.3-1l-0.3-0.5l-0.5-0.6l-0.2-0.2l-1-1.1l-1.7-1.8l-0.4-0.6l-2.4-4.8l-0.3-0.4l-1-1.9l-0.3-0.6
		l-0.3-0.6l-0.2-0.3l-0.8-0.8l-1-1.1l-1-1.8l-0.2-0.3l-0.4-1.4l0.6-1.9v-0.4l-1.3-1.9l-0.2-0.7l0.2-3.2l0.4-1.4l0.8-2l3.4-3l0.9-1.7
		l-0.1-1.3l0.2-1.8l-2.3-4.2l-0.4-0.7l-0.8-0.9l-2.4-5.7L673,204l-0.8-1.8l-1.1-1.5l-0.3-0.3l-1-1.3l-0.1-0.8l0.4-1.1l0.1-0.4
		l-0.3-1.1l-0.3-0.8l-1.3-1.1l-0.8-0.6l-1.6-1.3l-0.1-0.1l-1.3-1.1l-0.6-0.8l-0.4-0.7l-0.3-0.4l-0.1-0.2l-0.3-0.4l-0.3-0.4l-0.4-0.4
		l-2.7-1.5l-0.5-0.5l-0.1-0.1l-0.3-0.4l-1.1-1.3l-1.7-1.9l-0.6-0.7l-1.1-1.3l-0.2-0.2l-0.4-0.5l-0.7-1l-0.2-0.6l-0.2,0.1l-0.3,0.5
		l-0.5,1.3l-0.3,0.7l-1.1,2l-0.3,0.4l-0.1,0.2l-0.2,0.3l-0.1,0.1l-0.2,0.3l-0.2,0.3l-0.3,0.3l-0.1,0.2l-0.2,0.3l-0.4,0.8l-0.4,0.7
		l-0.8,0.6l-1.7,0.5l-0.4,0.3l-0.3,0.3l-0.3,0.8V188l-0.3,0.9l-0.2,0.3l-0.3,0.4l-1.5,0.7l-2.8,1.3l-0.6,0.3l-0.4,0.3l-0.2,0.3
		l-1.4,1.9l-0.8,1.1l-0.4,0.7l-0.8,1.3l-0.3,0.6l-0.7,1.1l-5.6,4.6l-1.1,1l-0.8-0.1l-1.3-0.1l-0.8-0.1l-1.6-0.1h-0.8l-0.8,0.2
		l-0.2,0.1l-0.5,0.3l-0.7,0.4l-0.5,0.7l-0.8,0.9l-0.6-0.3l-0.2-0.1l-0.5-0.3h-0.1l-3.1-1.7l-4-1.2l-4.9-1.4l-3.3-1l-1.3-0.8l-2-1.1
		l-0.1-0.1l-0.2-0.1l-1.4-1l-0.3-0.2l-3.5-2.6l-2.3-1.6l-0.3-0.3l-0.2-0.2l-0.4-0.2l-0.8-0.6l-0.4-0.2l-1.1-0.4l-2.9-1l-0.9-0.3
		l-0.4-0.2l-0.4-0.3l-0.7-0.8l-0.3-0.3l-2.5-2.9l-1.4-2l-0.9,0.3l-1.8-0.2l-0.7-0.1l-1.3-0.2h-0.2l-1.8-0.2l-2.3-0.3h-1.4h-1.2
		l-1-0.2l-1.8-0.8l-0.7-0.2l-2-0.2l-1.8,0.7l-0.2,0.1h-0.2l-1,0.1l-0.6-0.2l-1.2-0.6l-1.7-1l-1.3-0.6l-1.1-0.5l-1-0.4h-0.1l-1.4-0.6
		l-1.9-0.3l-1.8-0.2l-2.3-0.1l-2.2-0.2l-2.5,0.1h-0.1l-0.4-0.2l-2.3-1.8l-0.4-0.3l-0.3-0.1l-2-0.3l-2.2-0.1l-1.4-0.1l-1.9-0.1
		l-0.6,0.2l-0.8,0.5l-1.3,0.7l-2.6,1.3l-0.8,0.2l-1.3-0.8l-1.9-1.4l-0.9-0.8l-0.4-0.5l-0.6-1.1l-1.3-1.8l-1.3-1.6l-0.1-0.1l-0.2-0.2
		l-0.1-0.1l-0.4-0.4l-0.3-0.3l-0.6-0.6l-0.2-0.2l-0.2-0.2l-0.4-0.3l-0.3-0.2h-0.3h-0.4h-0.4h-0.6h-0.8v-1.5v0.4v-0.9v-0.8v-0.1H508
		l-0.9,0.1h-0.6h-1.2h-0.8h-0.8h-0.3h-0.2l-0.8-0.1l-1.3-0.5l-0.3-0.2l-0.6-0.3l-2.1-0.5l-1.1-0.3l-2.8-0.7l-0.8-0.2l-0.3,0.3
		l-1,0.3l-0.8,0.3l-1.4,0.6l-1.3,0.6l-1,0.4l-1.1,0.2l-1.8-0.1l-1.1-0.1h-0.6l-0.8,0.2h-0.6l-0.8-0.6l-0.3-0.2l-1.8,0.1l-2.2-0.3
		l-1.8,0.4l-0.8,0.6l-0.6,0.3l-1.3,0.5l-1.8,0.6l-1.4,0.3l-3.5,0.3l-1.2,0.2l-0.8,0.3l-2.8,1.1l-1.1,0.7l-3.6,2l-2.3,1.1l-0.4,0.2
		l-1.1,0.3l-3-0.2l-1-0.1l-0.8-0.2l-1-0.3l-1.9-0.8l-0.3-0.2l-0.7-0.3l-2.5-1l-0.5-0.4l-0.2-0.3l-0.7-0.3l-1.2-0.5l-4.2-0.3h-0.3
		h-0.1l0.3-2.9l5.8-8.9l0.3-0.6l0.2-0.6l-0.1-1.8l-0.2-1.3l-0.4-1.3l-0.8-2.4l-4.9-6.3l-0.8-1.3l-1.3-3.2l-4.4-5.3l-1.3-2.6
		l-1.8-5.6l0.4-1.7l-0.4-3.2l-0.7-2.3l-3.6-11.9l1.7-1.7l3.3-5.7l-2.7-2.8l-0.1-0.1l-0.6-0.7l-0.1-0.1l-0.6-0.6l-0.3-0.2l-0.4-0.1
		l-0.7-0.2l-1.8-0.3h-0.2l-1.4-0.3l-1.9-0.3l-1.3-0.2l-1,0.1h-0.3l-1.5,0.2h-0.6l-0.3,0.1l-0.4,0.1l-1.6,0.3l-1.3,0.2l-1.1,0.2
		l-1,0.2l-0.5-0.6l-0.3-0.8l-0.1-0.3l-0.1-0.2l-0.1-0.1l-1.1,1H402h-0.6l-0.8-0.2l-0.2-0.1l-1.7-0.1l-1.3-0.3l-1-0.3l-2-0.2
		l-2.2,0.6l-1.3,0.6l-0.8,0.3l-0.8,0.1l-0.4-0.1l-0.8-0.3h-0.1l-0.5-0.2l-0.3-0.1l-1.3-0.5l-0.3-0.1l-0.7-0.3l-0.8-0.3l-0.3-0.1
		l-1.1-0.6l-0.3-0.1l-0.8-0.1l-1.1,0.1H377l-2.1-0.1h-1.1l-0.8-0.3l-2.3-1.2l-0.3-0.1l-2.4-0.3l-2.3-0.2l-1.3-0.2h-0.1l-0.4-0.1
		l-0.5-0.1l-2.7-0.3l-1.7-0.3l-0.8-0.1l-1.5-0.3l-2.1-0.3l-4.5-0.6l-0.8-0.2l-0.4-0.2l-2.8-1.4l-0.4-0.1l-0.6-0.2l-2.3-0.9l-2.3-1
		l-2.9-0.1l-2.2,0.3h-1.4l-0.6-2.2l-0.6-1.8l-0.4-1.6l0.3-7.6l-0.3-0.6l-0.3-0.6l-0.1-0.1l-0.5-0.8l-0.1-0.8v-0.8v-0.3v-0.8
		l-0.5-0.8l-1.8-1.9l-0.3-0.3l-0.8-0.5l-0.5-0.5l-0.4-0.3l-0.4-0.3l-0.9-0.2l-1.7-0.2l-1.3-0.7l-0.5-0.1h-0.4l-2.4,0.8l-0.6,0.2
		l-1.7,0.3l-1.5,0.1l-2.9,0.2l-0.2,0.1h-0.6l-4.2-1l-0.4-0.2l-0.3-0.3l-0.2-0.3l-0.1-0.8l-1.1-2.9l-0.3-1.6l0.3-1l-0.1-0.5l-0.3-0.3
		l-0.8-0.3l-1.3,0.2h-0.5l-0.8-0.1l-1.8,0.2l-0.9-0.1l-3.8-0.9h-0.8l-5,1l-2.8,0.2l-1.9,0.4h-0.5l-0.2-0.1l-0.4-0.8v-1l-0.1,0.6
		v-0.8L284,50l-0.5-0.2l-0.3-0.2l-0.8-1l-0.8-0.8l-0.3-0.5l-0.3-0.6l-0.6-1.5l0.3-1.3l-0.1-0.1h-2.6l-1.2-0.2l-0.6-0.2l-0.4-0.3
		l-0.5-0.4l-1-0.7l-1.1-0.7l-1-0.3l-0.8-0.2l-0.3-0.1l-1.6-0.3l-0.8-0.1h-0.4h-0.3h-0.5l-1.7-0.2l-1,0.3h-1.9l-0.4,0.2l-0.8,0.6
		l-0.4,0.3l-0.5,0.1l-2.6-0.3l-2.8-0.2l-2.3-0.2l-3.8,0.3l-3.6,0.4l-1.2,0.3l-1,0.3l-1.1,0.4l-1-0.1l-1.4-0.2l-1.9,0.1l-1-0.1
		l-0.3,0.1l-0.8,0.5l-0.8,0.7l-0.5,0.2l-0.5,0.1l-1.9-0.5l-1-0.1l-1-0.7l-1.4-0.3l0.1-0.9L229,41v-0.8l-0.1-0.5l-0.4-0.6l-0.1-0.3
		l-2,0.7l-1.1,0.4l-2.2,1l-1.3,0.8l-3.9,3.3l-0.7,0.4l-0.7,0.3l-1.9,0.6l-0.4,0.1l-0.8,0.3l-1.3,1.1l-0.4,0.3l-1.3,0.4l-1.9,0.5
		l-1.8,1.1l-0.8,0.3h-1.3l-1,0.2l-1.4,0.5l-1.1,0.1h-1.8l-0.8-0.1l-0.8-0.2l-2.3-1.3l-0.9-0.2l-1.9,0.2h-0.1l-1.5,0.2h-0.6l-0.4-0.1
		l-1.7-0.4l-0.5-0.1l-1,0.2l-0.9,0.2l-1.9,0.5l-3.8,1.4l-1.4,0.2l-1.5,0.2l-0.8,0.2l-1.7,0.2l-1.4,0.3l-1.7,0.6l-2.8-0.1h-0.3
		l-2,0.1l-2.3,0.2l-0.5,0.2l-0.9,0.5l-0.5,0.5l-0.3,0.2l-1.7,0.2l-0.6,0.2l-1.1,0.8l-0.8,0.4l-1,0.3h-0.8l-1.3-0.4l-0.4-0.1
		l-0.5,0.1l-1.4,0.6l-1.3,0.6l-0.5,0.1h-4.2l-0.5,0.1l-0.5-0.2l-0.9-0.6l-1.8-1.3l-0.8-0.5l-1.9-1.1l-2.3-1.4l-0.5-0.2l-0.8-0.3
		l-1.8-0.7l-0.6-0.2l-1-0.4l-1.1-0.6l-0.8-0.4l-2-1l-0.9-0.3l-1.3,0.1h-0.8l-2.3-0.4l-0.8-0.1l-4.1,0.4l-2.8-0.4l-0.8-0.1l-1.3-0.2
		l-0.8-0.1l-1.9,0.1l-0.8,0.3l-1.2,0.5l-0.8,0.3l-0.4,0.1l-2.7,0.1h-0.7h-1h-0.2l-1.6,0.2l-0.3,0.1l-0.2,0.1l-1.7,0.8l-1.7,0.8h-0.1
		l-2.5,1.2l-1.2,0.3l-1.6,0.2l-1.6,0.1v-0.7l0.1-0.8l-0.2-0.3l-0.2-0.3l-0.2-0.5L91.4,49l-0.6-1.8l-0.2-2.6l-0.2-1L90,43.3l-0.4-0.1
		l-1,0.2l-1.3,0.5l-1.1,0.3h-0.3l-0.8-0.3l-2-1.4l-0.8-0.7l-0.3-1l-0.3-1.3l-0.1-0.3l-0.2-0.4L81,38.5l-0.8-0.3l-0.3-0.7l-1.1-2.5
		l-1.3-1.3l-0.3-0.8L77,32.3L76.8,31l0.2-1.1v-0.6l-0.1-0.8l-0.1-0.3l-0.6-0.8l-0.3-0.5l-0.1-0.3l-0.2-2L75.5,24l-0.8-2l-0.1-0.4
		v-0.4l0.5-1.3v-0.4l-0.5-1.6v-0.3l0.6-1.8v-0.3L75.1,15l-1-2.6L74,12.2v-0.6l1-2.2L75.4,9l1.8-1.7l-0.3-0.4l-0.1-0.3l-0.3-2.5
		l-0.3-0.7l-1.3-1.8l-0.6-0.8L74,0.4V0.2"/>
</g>
</svg>
