<?xml version="1.0" encoding="utf-8"?>
<!-- Generator: Adobe Illustrator 17.1.0, SVG Export Plug-In . SVG Version: 6.00 Build 0)  -->
<!DOCTYPE svg PUBLIC "-//W3C//DTD SVG 1.1//EN" "http://www.w3.org/Graphics/SVG/1.1/DTD/svg11.dtd">
<svg version="1.1" id="Layer_1" xmlns="http://www.w3.org/2000/svg" xmlns:xlink="http://www.w3.org/1999/xlink" x="0px" y="0px"
	 viewBox="56.2 0 788 300.3" enable-background="new 56.2 0 788 300.3" xml:space="preserve">
<g>
	<path fill="none" stroke="#65AA6A" stroke-linecap="round" stroke-linejoin="round" d="M527.2,120.2l0.2-0.8l0.1-0.1l0.2-0.8l0-0.2
		l0-0.1l0.1-0.1l0.2-0.2l0.1-0.1l0.1-0.2l0.1-0.1v-0.1l0-0.3l0-0.1v-0.1l0.1-0.5v-0.2l0-0.3l-0.1-0.3l-0.2-0.7l0-0.1v0l0-0.1
		l0.2-0.4l0.1-0.3l0.6-1.3l-0.1-0.1l-0.3-0.2l-0.1,0l-0.1,0H528l-0.1,0l-0.3-0.2l0-0.1l0-0.1l0.1-0.1l0.2-0.1l0.2-0.1l0.3-0.5l0-0.2
		l0-0.3l-0.1-0.4l-0.4-0.5l-0.1-0.3l-0.1-0.5l-0.1-0.1l-0.1-0.1l-0.4-0.2l-0.2,0l-0.3,0l-0.2-0.4l0-0.5l0.3-0.5l0.1-0.2l0.1-0.3
		l0-0.2l0.1-0.5l0.2-0.1l0.4-0.2l0.2-0.3l0-0.1v-0.2l0.1-0.4l0-0.1l-0.2-0.2l-0.1-0.2v-0.1l0-0.1l0.1-0.1l0.1-0.1l0.3-0.7l0.1-0.3
		l0.1-0.6l0.1-0.2l0.1-0.3l0.3-0.4l-0.1-0.2l0.1-0.1l0.1-0.3l0.2-0.6v-0.2l-0.1-0.2l0-0.3v0l-0.1-0.1l-0.5-0.2l0-0.1l0.1-0.1
		l0.8-0.3l0,0V98l0.4-0.7l0-0.2l0.1-0.2l0.2-0.4l0.2-0.2l0.1-0.2l0.2-0.2l0.1-0.2l0-0.2l0.4-0.8l0-0.2l0.2-0.4l0.3-0.7l0.2-0.3
		l0-0.1l0.2-0.4l0.3-0.4l0.3-0.5l0.3-0.6l0.2-0.3l0-0.1v-0.1l0-0.1l0.2-0.2l0.2-0.4l0.4-0.5l0.2-0.2l0.2-0.4l0.3-0.5l0.1-0.1
		l0.2-0.2l0.1-0.2l0.1-0.3l0.1-0.4l0.1-0.5l0-0.2v-0.2l0-0.2l0-0.1l0.1-0.1l0.4-0.2l0.1-0.1l0.1-0.2l0.1-0.5l0-0.1l0.1-0.4l0.1-1
		l0,0l0.2-0.1l0.2-0.1l0,0v0l0.1-0.8l0-0.1l0.1-0.2l0-0.1l0,0l0.1-0.2l0.1-0.1l0.3-0.4l0-0.1v0l0.1-0.2l0-0.2v-0.1v-0.1v-0.1v0v-0.1
		l0.1,0l0.1-0.1l0.1-0.1l-0.1-0.1l0.1-0.1l0.1,0l0.2-0.1l0.1,0l0.3,0l0.1,0l0.2,0l0.1,0l0.4-0.1l0.1,0l0.1,0l0.2,0.1l0.4-0.2
		l0.6-0.4l0.6-0.3l0.2-0.1l0.2-0.3l0.3-0.4l0.1-0.2v0l0.3-0.4l0.1-0.1l-0.2-0.3l-0.1-0.1l-0.5-0.6l0,0l-0.2-0.3l-0.1-0.1l-0.2-0.3
		l-0.2-0.2l-0.4-0.3l-2-1.7l-0.1-0.1l-0.1-0.1l-0.1-0.6l0-0.1l-0.1-0.3l-0.2-0.7l-0.1-0.4l0-0.1l0-0.1l0-0.2l-0.3-1.1l-0.3-0.2
		l-0.6-0.4l-0.2-0.1l0-0.2l-0.8-1.4l-0.2-0.4l-1.6-4.5l1.6-0.4l0.8,0.1l1.3-0.3l2.8,0.4l0.7-0.2l0.2-0.1l0.1,0l0.2-0.1l0.2-0.1
		l0.1-0.1l1.5-0.7l0,0l1.4-0.7l0.8-0.4l0.3-0.1l0.4,0l0.1,0l0.2,0.1l0.4,0l0.7,0l1,0l1.6,0l0.6-0.2l0.1,0l0.4-0.3l0.1,0h0.1l1.1,0.2
		l0.1-0.3l0-0.1l0-0.1l0-0.1l0-0.1l0-0.2v0l0,0l0,0l-0.1,0l-0.2,0l-0.1,0l-0.1-0.1l-0.1-0.1l-0.1-0.1l-0.1-0.1L553,57h0l-0.1-0.1
		l-0.1-0.1l-0.5-0.4l-0.2-0.1l-0.1-0.1l-0.4-0.2l-0.1-0.1l-0.1,0l0-0.1l0-0.1l0.1-1.4l0.1-0.1l0.1-0.1l0.4-0.3l0-0.2l0-0.2l-0.2-0.9
		v-0.1v0v0l-0.1-0.3v-0.3v-0.1l-0.4-0.9l0-0.1l0-0.1l-0.1-0.1h-0.6l-0.1,0l-0.2,0l-0.5-0.3l-0.6-0.4l-0.1-0.1l-0.1-0.2l-0.1,0
		l0.1-0.3l0-0.6l0-0.1l-0.1-0.3l0.4-0.3l0.4-0.2l0.6-0.9l0.2-0.2l0.4-0.5l0-0.1l0.1-0.3l0.1-0.3v-0.2v0l0,0l0.1-0.1l0.2-0.2l0.3-0.2
		l0.4-0.6l1.1-1.1l0.1-0.2l0.2-0.3l0.3,0l0.2-0.1l0.2-0.1l0.1-0.1l0.7-0.7l0.2-0.3v0l0-0.2l0-0.3l0.1-0.2l0.3-0.3l0.2-0.1l0.1-0.1
		l0,0l0,0l0,0l0.1-0.3l0-0.3l0.1-0.3v0l0,0l0-0.1l0.4-0.2l0.2-0.1l0.4-0.3l0.4-0.3l0.1-0.1v-0.2v0l0-0.1l0.1-0.4l0-0.1l0,0v-0.1
		l0.2-0.4l0.1-0.2l0.1-0.1l0-0.2v-0.1l0-0.2v-0.4v-0.1v0l0-0.1v-0.1l0-0.3l0.2-0.5l0-0.1l0,0l0-0.1l-0.1-0.2l-0.1-0.1l0,0l0,0l0-0.1
		v-0.1v0v-0.1v-0.1v-0.1l0-0.2l-0.1-0.4l0-0.1l0-0.1l0,0l0.1-0.5l0.2-0.3l0.4-0.4l0,0l0-0.1l0-0.1l-0.1-0.1l0-0.1l0-0.1l0.2-0.6
		l0.1-0.3l0,0v-0.1l-0.1-0.2l0-0.1l-0.1-0.5l0.2-0.3v-0.1v-0.2l0,0l0,0v-0.2v-0.2v0v-0.1l0.1-0.4l0.2-0.3l0.1-0.2l0.1-0.2l0.1-0.3
		V25l0-0.2l0.3-0.3l0.1-0.3L560,24l0.2-0.7l0.1-0.8l0.2-0.4l0-0.1l0.2-0.6v-0.1v-0.2V21v-0.1l-0.1-0.2l0-0.1l0.2-0.8l0.1-1l-0.4-1.1
		l-0.2-0.2l-0.1-0.3l-0.2-0.5l-0.2-0.3l-0.1-0.2l-0.1-0.2l-0.3-0.3l0-0.1l-0.1-0.3l-0.5-0.7l-0.1-0.2l-0.1-0.2l-0.1-0.3l-0.1-0.1
		l0-0.2l0-0.2l0-0.1l-0.1-0.1l-0.9-0.6l0.5-1.1v0l0.2-0.5l0.1-0.3v-0.2l-0.1-0.3l-0.3-0.8l-0.1-0.2l-0.2-0.4L557,8.5V8.4l0-0.7
		l0-0.2v0V7.3l0.1,0l0.7-0.1l0.2-0.1l0.2-0.1l0.2,0l0.1-0.1l0-0.1l-0.1-0.2l0-0.1v0l0.2-0.3l0.1-0.1l0-0.1l0-0.1l0.1-0.3l0-0.1
		 M538.5,132.6l0,0.1l-0.2,0l0,0l-0.7,0.1h-0.1h-0.1l-0.3,0l-0.1,0.1l-0.1,0.1l0,0l-0.1,0l-0.1-0.2l0.1-0.1l0.1,0l0.1-0.1l0-0.1
		v-0.1l0-0.1l-0.3-0.1h-0.1l-0.2,0l-0.2,0.1l-0.1,0.1v0.2l0.1,0.2l0.1,0.5v0.1l-0.1,0.1l0,0.1l-0.2,0.2l-0.2,0.1l-0.2,0.2l0.8,0.9
		l-0.5,0.3l0,0.1l0,0.3l0,0.2l-0.1,0.3l-0.2,0.1l-0.2,0.1l-0.2,0.1l-0.2,0.2l-0.3,0.2l-1.2,0.9l-0.3,0.2l-0.1,0.1l-0.1,0.2l-0.1,0
		l0.1,0.1v0.8l0,1.4l-1-0.1l-1,0l-4.9,1l-0.4,0l-0.3-0.1l-0.3-0.1l-0.3,0l-0.7-0.1l-0.2,0l-0.7,0l-0.9,0l-0.1,0l-0.3,0.2l-0.4,0.1
		l-0.9,0.3l-0.2,0.1l-0.5,0.1l-1.8,0.4l-0.8,0.2l-0.7,0.4l-1,0.5l-0.3,0.3l-0.2,0.4l-0.1,0.1l-0.1,0l-0.4,0.1l-0.3,0.1l-0.2,0.1
		l-0.3,0l-0.5,0.2H513l-0.3,0l-0.3,0l-0.2,0.1l-0.2,0.2l-0.6,0.6l-0.2,0.4l-0.1,0.1l-0.3,0.2l1,1.2l0.2,0.2l0.3,1.1l-0.2,0.5
		l0.2,0.5l-0.2,0.3l-0.2,0.1l-0.2,0.2l-0.2,0.1l-0.3,0.5l-0.1,0.3l0,0.3l0,0.2l0.1,0.4l0.1,0.4v0.2l0,0.3l0.1,0.3l-0.9,1.8l0,0.5
		l-0.3,0.5l0,0.8l-0.2,0.2l-0.2,0.2l-0.2,0.1l-0.4,0.1l0.7,0.3l0.2,0.1l0.3,0.1l0.6,0.3l0.1,0.3l0.5,0.4l-0.1,0.2l-1.1,0.5l-0.2,0.2
		l-0.1,0.2l0.1,0.3l0.3,0.4l0,0.5l-0.2,0.3l-0.2,0.2l-0.2,0.1l-1.5,0.4l-1.1-0.1h0l-0.1,0.3l-0.1,0l-0.1,0l0,0l0,0.1l-0.1,0.3
		l-0.2,0l-0.1,0l-0.4,0.7l-0.5,0.2l0,0.1l0.3,0.5v0.1l-0.1,0.1l-0.2,0.1l-0.1,0.1l-0.2,0.2l-0.6,0l-0.2,0l-0.3,0l-0.2,0l0,0l0,0
		l-0.1,0l-0.3,0.2l-0.1,0.1l-0.1,0.1l-0.1,0.1l-0.1,0l-0.2,0l-0.1,0l-0.2,0l-0.1,0l-0.1,0.1l-0.1,0.1l-0.1,0.1l-0.2,0.2l0,0.1
		l-0.1,0.3l0,0.1l-0.2,0.1l-0.3,0.1l-0.4,0.3l-0.1,0l-0.1,0.2l0,0.1v0.4v-0.2l-0.1,0.9l0,0.2l0,0.1l-0.1,0.1l-0.1,0l0,0h-0.1h-0.2
		l-0.2,0l-0.5-0.2l-0.2,0h-0.2l-0.3,0l-0.4,0.2l-0.2,0l-0.4,0.1l-0.5,0.2l-0.2,0l-0.4,0l-0.3,0.1l-0.1,0.1l-0.1,0.1l-0.2,0.2
		l-0.1,0.1l-0.4,0.2l-0.2,0l-0.4,0l-0.3,0l-0.1,0l-0.4,0.2l-0.3,0.1l-0.2,0.1l-0.3,0l-0.2,0l-0.2,0.1l-0.1,0.1l-0.3,0.3l0,0l-0.1,0
		l-0.5,0.1l-0.3-0.1l-0.4,0h-0.1l-0.4-0.1l-0.1,0l-0.1,0l-0.3,0.2l-0.6,0.4l-0.3,0.2l-0.1,0l-0.1,0h-0.2l-0.3-0.1l-0.1,0l-0.1,0
		l-0.1,0l-0.3-0.1l-0.1,0l0,0l-0.3-0.1l0,0.1l-0.1,0.2l-0.1,0.3l-0.8-0.1l-3.6,0l-0.9-0.2l-0.7,0.5v0.6l0.3,0.6l-0.1,1.1l0,0.2
		l0.1,0.3l0.4,0.7l0,0.2l0.3,0.6l-0.1,0.8l0.1,0.1l0.1,0.1l0.1,0.2l-0.1,0.6l0.8,0.2l1.5,1.6l0.2,0.3l0.7,0.7l0.4,0.3l0.5,0.5l0.1,0
		l0,1.1L486,185l-0.2,0.3l0,0.2l0,0.6l0,0.4l0,0.1l0.5,0.9l0,0.1v0.4l0.1,0.4l-0.1,0.6l0,1.5l0.2,0.8l0,0.2v0.3l0,0.5l0,0.2l-0.1,0
		l-0.3,0.8l-0.1,0.2l-0.1,0.1l-0.2,0.3l-0.1,0.1l-0.2,0.1l-0.3,0.3l-0.2,0.2l-0.2,0.1l0,0.1l-0.1,0.9l-0.2,0l-0.1,0.1l-0.9-0.2
		l-0.4-0.1l-0.3,0h-0.1l-0.2,0l-0.5,0.1l-0.2,0l-0.3-0.1l-0.5,0.1l-0.6,0.1l-0.1,0.1l-0.2,0.2l-0.1,0.1l0,0.2l0,0.1l0.1,0.5
		l-0.2,0.2l-0.4,0.3l-0.1,0.1l-0.6,0.5l-0.1,0.2l-0.2,0.3h-0.2h-0.1l-0.3,0l-0.2,0h-0.3l-0.2,0h-0.4l-0.4,0l0-0.2l0-0.1l-0.2-0.2
		l-0.3-0.3l-0.3-0.2l-0.1-0.1l0-0.1V197l0,0.2v-0.3l0-0.1l0,0l-0.3-0.2l-0.6-0.1l-0.3-0.2l-0.2,0l0.2-0.4l0.1-0.3l0-0.2l-0.2-0.8
		v-0.2l0.1-0.3l-0.7,0.3l-0.2,0.1l-0.2,0.1v0l-0.1,0.1v0l0,0l0-0.2l-0.2,0l-0.6-0.2l-0.3-0.1l-0.2-0.1l-0.3,0h-0.2h-0.2l-0.2,0.1
		H470h-0.1l-0.5-0.1L469,194l-0.3,0.1h-0.1l-0.7-0.1l0,0l-1.1-0.2l-0.5-0.3l-0.3-0.3l-0.2-0.1l0,0l-0.2-0.1l-0.5,0l-0.3,0l-0.1,0
		l-0.1,0l-0.1-0.1l-0.1-0.2v0l-0.1-0.1l-0.1-0.1l-0.1,0H464l-0.2,0l-0.2,0l-0.3,0h0l-0.2,0H463l-0.1,0l-0.2-0.1l-0.2,0h-0.1l-0.1,0
		l-0.3,0h0l-0.3,0h-0.2l-0.1-0.4l0-0.2l-0.1-0.2l-0.1-0.1l0,0l0,0l0-0.1l-0.1-0.1l-0.1-0.1l-0.1-0.1l-0.3-0.1l-0.1,0l-0.3-0.2
		l-0.3-0.2l0,0l-0.1,0l-0.1,0l-0.1,0l-0.1,0l-0.1-0.1l-0.1-0.2l-0.2-0.5l0,0l-0.2-0.2l-0.3-0.4l-0.3-0.4l0,0l-0.4-0.3l-0.1-0.2
		l-0.1-0.2l0-0.2l-0.1,0l-0.1,0l-1.7,1.2l-0.1,0.1l0,0.2l-0.2,0.4l-0.2,0.2l-0.2,0.1l-0.1,0l-0.3,0.1l-0.4,0.2l-0.5-0.2l0,0l-0.1,0
		h-0.3l-0.1,0l0,0l-0.2,0.6l-0.1,0.5l-0.1,0.3l0,0.6l0,0.3l-0.1,0.3l-0.1,0.3h-0.1H452l-0.2,0l-0.2,0l-0.2,0l-0.3,0.1l-0.2,0l-0.2,0
		l-0.2,0h-0.2v0.7l-0.5,0.3l-0.7,0.6l-0.2,0.1l-0.2,0.1l-0.1,0.2l-0.3,0.2l-0.2,0.1l-0.7,0.2l0,0.2l-0.2,0.2l-0.4,0.6l-0.3,0.3
		l-0.1,0.2l-0.2,0l-0.3-0.2l-0.6-0.2l-0.1,0h-0.1l-0.3,0l-0.4,0.2l-0.3,0l-0.1,0.1l-0.3,0.3l-0.1,0.1l-0.1,0.2l-0.1,0.2l-0.1,0.1
		l-0.6,0.3l-0.4,0.2l-0.1,0l-0.4,0l-0.1,0l-0.4,0.3l-0.1,0.1l-0.6,0.3l-0.2,0l-0.4-0.2l-0.4,0l-0.1,0l-0.1,0l-0.1,0.1l-0.1,0.1
		l-0.2,0l-0.2,0l-0.3,0l-0.2,0.1l-2.7,0.9h0l0,0l0.4,1.2l0.1,0.3l0,0.3l0.1,1.5l0.1,0.2l0.7,1.3v0.4l-0.4,0.7l0.6,0.9l0,0.2l0,0.1
		l0,0.1l0.1,0.5l0.1,1.5l0,0.1l-0.3,0.3l-1,0.4l-0.2,0.1l-0.2,0.1l-0.2,0l-0.1,0l-0.3,0.3l-0.7,0.8l-0.5,0.3l-0.1,0l-0.5,0.1l-0.2,0
		l-0.1,0.1h-0.2h0l0,0l0,0.1l0,0.1l0.1,0.1v0l-0.1,0.1v0.1v0.5l-0.1,0.5l-0.1,0.1l-0.3,0.2l-0.3,0.4l-0.3,0.2l-0.1,0l-0.1,0l-0.1,0
		l-0.4-0.3l-0.1,0h-0.1l-0.6,0.3h-0.1l-0.4,0h-0.2l0,0l0,0.2l-0.1,0.1l-0.1,0.1l-0.1,0.1l-0.1,0l-0.2,0l-0.1,0l-0.1,0h-0.1l-1,0.7
		l-0.4,0.1l-0.1,0.1l-0.2,0l-0.1,0.1l-0.1,0.2l0,0.1l-0.1,0.1l-0.2,0.3l0.3,0.3l0,0.1l-0.1,0.3l0.1,1l0,0.1l-0.7,0.8l-0.9,1
		l-0.4,1.5l0,1.1l-0.1,0.3l0.1,0.8l-0.3,1.4l0,0.4v0.2l0.1,0.3l0,0.1l-0.6,1.1l-0.5,0.9l-0.1,0.2l-0.2,0.3l-0.3,0.5v0.5v0.5l0.2,0.8
		l0,0.1l0.1,0.1l0.3,0.2l0,0.1l0.1,0.4l0,0.1l-0.1,0.5l0.9-0.4l0.2,0l1,0.1l0.1,0.1l0.1,0.2l0.1,0.2l0.5,0.6l0.4,0.7l0.6,0.6
		l0.4,0.8l0.1,0.1l0.4,0.3l0.5,0.8l0.3,1l0.1,0.2l0,0.1l-0.1,0.4l0.1,0.8l0,0.2v0.2l-0.3,0.2l-0.5,0.3l-0.2,0.1l-0.4,0.2l-0.7,0.3
		l-0.6,0.2l-0.8,0.3l-0.2,0.1l-0.4,0l-0.3,0L423,242l0,0l-0.3-0.2l-0.2-0.1l-0.1,0h-0.1l-0.3,0.1l-0.7,0.2l-1.3,0.4l-1.1,0.3
		l-0.2,0.1l-0.4,0.1l-0.1,0l-0.4,0.1l-0.5,0.2l0.2,0.7l-0.2,0.2l-0.1,0.2l-0.1,0.1l-0.1,0.1l0,0.1l0,0.1l-0.3,0.4l0,0.1l0,0.1
		l0.3,0.4l0.2,0.1l0.1,0.1l-1.3,0.3l-0.1,0.1v0l-0.1,0.1l-0.1,0.1l-0.2,0.1l-0.1,0.1l-0.5,0.3l-0.3,0.1l-0.2,0.1l-0.2,0.1l-0.1,0.1
		L414,248l-0.1,0.1l-0.6,1l0,0.1l-0.1,0.3l-0.1,0.2l-0.1,0.1L413,250l-0.2,0.3l-0.1,0.2v0l-0.3,0.4l-0.2,0.4l-0.1,0.1l-0.1,0.1
		l-0.1,0.1l-0.1,0.1l-0.1,0.2l-0.4,0.6l0,0l0.3,0.4l0.1,0.2l0,0.3l-0.1,1.4l0,0.4v0.1l0.1,0.3l-0.5,0.1h-0.1l0,0.1l-1.3,0.1
		l-1.3,0.1l0.3,2.7l0,0l-0.2,0.3l-0.2,0.1l-0.1,0.1l-0.1,0.2l0,0.1l0.4,0.7l0,0.4l0.1,0.2h-0.2l-0.3,0.6l0,0.1l0.1,0.2l0.2,1.3
		l0.2,0.4l0.7,0.4l0.2,0.3l0,0.2l-0.4,0.4l0,0.1 M403.4,288.9l-0.5,0.2h-0.2h-0.1l-0.4-0.1l-0.1,0.3l0,0.2v0l-0.1,0.3l0,0.1l0,0.1
		l0,0l-0.1,0.1l-0.3,0.2l-0.1,0.1l-0.1,0.1l-0.1,0.1h-0.1l-0.1,0l0-0.1l0-0.1l0-0.1l0-0.1l0-0.1l0-0.1l0-0.2l0-0.2l0,0l0-0.1l0-0.1
		l0-0.1l0-0.1l-0.1-0.1l0-0.1l0-0.1l-0.2-0.4l0,0l-0.1-0.2l-0.1-0.1l-0.1-0.1l-0.2-0.2l-0.1-0.1l-0.1-0.1l-0.1-0.1l-0.1,0l0,0
		l-0.1,0l-0.1-0.1l-0.2-0.1h0l-0.3-0.1l-0.3-0.1h0h0h0l-0.5-0.1h0l-0.1,0l-0.1,0l-0.5-0.1L394,286l-0.2,0l-0.3-0.1l-2.3-0.6
		l-1.4-0.3l-0.7-0.2l-0.3-0.1l0,0l0,0l-1-0.2l0,0l-0.2,0l-0.1,0l-0.2,0l-0.4-0.1l-1.5-0.3l-0.5-0.1l-0.3-0.1l-0.2,0l-1.2-0.3
		l-0.6-0.1h0l-0.8-0.2l-0.1,0l-1.8-0.4h0l-0.2,0l-1.5-0.4l-0.6-0.1l-0.7-0.2l-0.5-0.1l-0.5-0.1l-0.6-0.1l-0.3-0.1l-0.1,0l-0.1-0.1
		l-0.1-0.1l-0.2-0.5l-0.1-0.1l-0.2-0.1l-0.4-0.2l-0.3,0.2l-0.5,0.3l-0.3,0.1l0,0l0,0l-0.2,0.3l0.1,0.2l0,0.1l-0.3,0l-0.1,0l-0.2,0.1
		l-0.2,0.1l-0.3,0.3l-0.1,0.1l-0.1,0l-0.3,0l-0.2,0l-0.2,0.1l-0.3,0.3l-0.1,0.1l0,0.3v0l-0.2,0l-0.3,0.1l-0.3,0.1l-0.2,0.1l-0.1,0
		l-0.2,0.2l-0.2,0.3l-0.1,0l0,0l-0.5,0.1l-0.2,0.1l-0.1,0l0,0l0.1,0.3v0l0,0.1l-0.1,0.2l0,0l-0.1,0.2l0,0l-0.1,0l-0.1,0l-0.3-0.3
		l0,0l-0.1,0l0,0l-0.1,0l-0.8-0.3l-0.2-0.1l-0.2,0h-0.2l-0.3,0h0l-0.1,0h-0.1l-0.2,0l-0.3-0.1l-0.1,0l-0.3,0h-0.2l-0.3,0l-0.1,0
		l-0.1,0l-0.1,0l-0.1,0l-0.1,0l-0.5-0.2l0,0l-0.3,0.2l-0.2,0.1l-0.1,0.1l-0.1,0.1l-0.1,0.1l-0.1,0.1l-0.1,0.1l-0.3,0.2l-0.1,0.1
		l-0.1,0.1l0,0.1l-0.1,0.2l0,0l-0.1,0.1l-0.1,0.1l-0.1,0.1l-0.2,0.2l-0.2,0.1l-0.1,0.1l-0.3,0.3l-0.3,0.3l0,0l0,0l-0.1,0.1l-0.1,0.1
		l-0.5,0.8l-0.1,0.2l0,0l-0.1,0.1l0,0.1l-0.1,0.1l-0.1,0.1l-0.3,0.2l0,0.1l-0.1,0.2l-0.1,0.3l0,0l-0.1,0.2l0,0.1l-0.1,0.3l0,0.3
		l0,0.1l-0.1,0.1l-0.1,0.1l-0.2,0.1l-0.1,0.1l-0.2,0.1l-0.1,0.1l-0.1,0.1l0,0.1v0.1l0.1,0.4l-0.2,0.1l-0.4,0.2l-0.3,0.1l-0.1,0
		l-0.5,0.3l-0.1,0l-0.3,0.2l-0.1,0.1l-0.1,0.1l-0.1,0h0h0h-0.1l-0.3,0h-0.1h-0.1h-0.1h-0.1h-0.2h-0.1l-0.5,0h-0.1h-0.2h-0.2h0h-0.1
		h-0.1h-0.1h0h0h-0.1h-0.1h-0.1h-0.1h-0.1h0h-0.1h-0.1H351h-0.1h-0.1h-0.1h-0.2l-0.1,0l-0.1,0l-0.1,0l-0.1,0l-0.4,0.1l-0.7,0.2
		l-0.6,0.2l0,0l0,0l-0.5,0.1l-0.1,0.1l0,0.1l0,0.1v0.2v0.3v-0.1v0.1l-0.2,0h0l-0.4,0.1l-0.2,0l-0.4,0.1l-0.7,0.1h-0.2l-0.2,0h-0.1
		l-0.4,0.1l-0.1,0h-0.1h0l0,0l-0.1,0.1l-0.1-0.1l-0.1-0.1l-0.1-0.1l-0.1-0.1l-0.1-0.1l-0.1-0.1l0-0.1l0-0.1v0l0-0.8v0v0.7V293v0.4
		l0-0.6l-0.1-0.1l-0.1-0.1l0,0l-0.1-0.1l-0.2,0.1l-0.1,0.1l-0.2,0.1l-0.2,0.1l-0.4,0.3l-0.2,0.1l-0.1,0l0,0l-0.1,0l0,0l-0.1,0h-0.3
		h-0.4h-0.3l-0.2,0l0,0l-0.3,0l-0.4,0h-0.1"/>
</g>
</svg>
