<?xml version="1.0" encoding="utf-8"?>
<!-- Generator: Adobe Illustrator 17.1.0, SVG Export Plug-In . SVG Version: 6.00 Build 0)  -->
<!DOCTYPE svg PUBLIC "-//W3C//DTD SVG 1.1//EN" "http://www.w3.org/Graphics/SVG/1.1/DTD/svg11.dtd">
<svg version="1.1" id="Layer_1" xmlns="http://www.w3.org/2000/svg" xmlns:xlink="http://www.w3.org/1999/xlink" x="0px" y="0px"
	 viewBox="0 0 900 300" enable-background="new 0 0 900 300" xml:space="preserve">
<g>
	<path fill="none" stroke="#3E966D" d="M885.7,125.6l0.1,0.3l0.1,0.1l0.2,0.2l0.1,0.2l0.1,0.4l0.1,0.1l0.6,0.5l0.2,0.1h0.2l2.5-0.4
		h0.4h0.3l0.5,0.2l0.8,0.3h0.8l1.6,0.4h0.1l0.9-0.2h0.3l1.2,0.3l0.9-0.1l0.4-0.1h0.4l0,0l0.1,0.2l0.1,0.2v0.1l0.1,0.3l0.1,0.1
		l0.1,0.9l-0.1,0.4l0.1,0.4v0.3l0.1,0.1v0.6l-0.2,0.6h0.1l-0.1,0.4v0.2v0.2v0.1l0,0l0,0v0.1v0.1l0.3,0.1h0.4l0.2,0.1l0.2,0.1
		l0.1,0.2v0.2v0.3l-0.2,0.3v0.2v0.3l-0.2,0.5l-0.1,0.1l-0.2,0.1l-0.2,0.2l0.2,0.6l-0.8,0.2l-0.1,0.1 M884.1,142.5L884.1,142.5
		l-0.2-0.1h-0.1h-0.2l-0.5-0.1H883l-0.8-0.5l-0.2-0.1l-0.3-0.2h-0.1h-0.3H881h-0.9l-1.1,0.1l-1.3,0.1h-0.2l-2.1,0.1H875h-0.2h-0.1
		l-0.5,0.1H874h-0.2h-0.1l-0.1,0.1l-0.6,1.9l-0.2,0.3l-0.2,0.2l-1.2,0.8l-0.1,0.1v0.1l-0.1,0.3l-0.1,2.1l-0.1-0.8v1.9v0.6v0.1v0.1
		l-0.1,0.2l-0.2,0.1l-0.4,0.2l-0.4,0.2l-0.2,0.1l-1.2,0.4l-1.2,0.4l-0.8,0.3l-0.2,0.1l-0.6,0.5l-0.4,0.2l-1.7,0.9l-1.1,0.6l-1,0.5
		l-0.4,0.3l-1.9,1.5l-0.7,0.6l-0.6,0.1l-0.7,0.4l-1,0.5l-0.3,0.3l-1.2,0.5l-1.2,0.3l0.3,0.4l1,1.9l0.9,0.5l0.5,0.4l0.9,0.3l0.2,0.3
		l0.4,0.1l-0.4,0.4l-0.2,0.6l-0.6,0.9l-3.1,2.5l-0.4,0.2l-0.4,0.1h-0.9H851l-0.9-0.1h-0.3v0.2v0.1v0.1v0.3v-0.2l-0.1,0.2l-0.2,0.1
		h-0.1l0,0h-0.1h-0.1l0.1,0.5l-0.3-0.2l-0.3,0.3l-0.1,0.1l-0.1,0.1l-0.2,0.2l-0.3,0.3l-0.1,0.1l0,0l0,0l-0.1,0.1h-0.1l-0.2,0.2
		l-0.2,0.2l0,0v0.1l-0.4,0.4l-0.2,0.2l-0.2,0.5l-0.7,1.2l-0.4,0.7l-0.7,1l-0.5,1.2l-2-0.1H842l-0.4-0.1l-0.6-0.1l-1.7-0.3l-0.4-0.1
		l-0.3-0.1l-1.8-0.4l-1.1-0.2l0,0l-0.8-0.3l-0.7-0.5l-0.8-0.7l-0.4-0.3l-0.4-0.3h-0.1l-0.5-0.4l-0.2-0.1h-0.3l-1.3,0.2l0,0l-1.7,0.2
		l-1.2,0.5H825l-0.5,0.1l-1.5,0.4l-0.7,0.2l-0.7,0.1h-0.8h-0.2h-0.1l-0.4,0.4l-0.2,0.2l-0.2,0.1h-0.2l-0.3-0.2l-0.5-0.3h-0.2
		l-1.9,0.6h-0.1l-0.1,0.1l-0.5,0.7v0.5v-0.4v0.6l-1.1,1.5l-0.1,0.1l-0.2,0.1l-0.4,0.2l-0.2,0.1l-0.2,0.1l-0.8,0.7l-0.1,0.1l-0.7,0.2
		l-0.1,0.1l-0.5-1.5l-0.1-0.3l-0.1-0.1l-0.1-0.1l-0.5-0.4l-0.3-0.3h-0.1l-0.6-0.2l-0.8-0.2l-0.9-0.6l-0.5-0.4l-0.4-0.3l-0.4-0.2
		l-0.6-0.3l-0.9-0.5l-0.4-0.1l-1.7-0.8l-0.4-0.1l-0.8-0.5l-1.2-0.6l0.4-1.1l0.2-0.2l0.1-0.3l-0.1-3l-0.1-0.9v-0.7l0.1-0.1l0.3-0.2
		l0.1-0.2l0.2-0.7l0.7-0.5l0.1-0.3l-0.2-0.5l0.1-0.5l-0.4-1l-0.7-0.4l-1.2-0.5l-1.1-0.6l-0.8-0.4l-0.5-0.2l-0.8-0.4h-0.3l-0.3-0.1
		l-0.1-0.1l-0.3-0.4l-0.1-0.3l-0.1-0.1l-0.7-0.5l-0.3-0.2l-0.6-0.3l-0.6-0.5h-1h-0.1l-1.2,0.1h-0.3h-0.3l-1.6-0.2l-1.8-0.2l-1.1,0.2
		H786l-0.7,0.1l-0.8,0.2l0,0l-0.3,0.1H784l-0.2,0.2l-0.2,0.1l-0.4,0.1l-0.9,0.1l-0.3-0.2l-0.6,0.1v0.1h-1.1l-1.6,0.1l-0.5-1.2
		l-0.1-0.1l-0.2-0.2l-1.6-1.4l-0.2-0.1l-0.2-0.1l-0.6-0.1l-1.4-0.2l-0.4-0.1l-0.3-0.1h-0.9h-0.7h-1.1l-1.3-0.1h-0.5h-1.2L767,153
		l-1.1-0.2l-1-0.2l-2.5-0.6l-1.6-0.9l-0.2-0.2l-0.1-0.2l-0.2-0.5h-0.2l0,0h-0.2h-0.1h-0.2h-0.3l-0.3-0.1l-0.3-0.1l-0.5-0.1h-0.1
		l-0.5-0.1l0,0l-0.6-0.1l-2-0.3l-0.9-0.1l-1.6-0.2l-2.7-0.4h-0.1l-0.2-0.1l-0.9-1.2l-0.2-0.2l-0.4-0.1l-0.8-0.1h-0.7l-0.9-0.3
		l-0.9-0.4l-0.4-0.1h-0.2h-0.3l0,0l-0.2,0.1l-0.4,0.1l-0.2,0.1l-0.2,0.2l-0.1,0.2l-0.1,0.1l-0.2,0.1l-0.4,0.1h-0.4l-0.6-0.1
		l-0.8-0.3l-0.7-0.5l-0.6-0.3l-0.2-0.1l-0.3-0.3l-0.4-0.2l-0.7-0.4l-0.4,0.3l-0.7,0.3l-0.1,0.1l-0.5,0.5l-0.2,0.2h-0.1l-0.4,0.3
		l-0.7,0.6l-0.2,0.1l-0.7,0.5l-0.5,0.4l-1.3,1l-1.6,1.1l-1.3,1l-0.3,0.3l-0.4-0.3l-0.4-0.2l-0.4-0.2h-0.3l-1-0.1l-2.8-0.5l-0.5-0.1
		l-1.2-0.5h-0.2l-1.1,0.1h-0.3l-0.4-0.1l-0.7-0.3l-0.5-0.2l-0.4-0.1h-0.2l-0.6,0.2h-0.1h0.1h-0.1l-0.4-0.1l-0.3-0.1L716,149
		l-0.5-0.6l-0.5-0.6l-0.7-0.7l-0.5-0.6l-0.2-0.1l-0.3-0.1l-1-0.1l-1.7,0.2H710l-1.6-0.1H708h-0.5l0,0v-0.1l-0.4-0.6l-0.3-0.5
		l-0.4-0.5l-0.3-0.2l-0.2-0.1v-0.2l-0.8-0.4h-0.1h-0.2h-0.1l0,0h-0.1h-0.3h-0.1H704h-0.2h-0.2h-0.2h-0.2h-0.2h-0.1h-0.1l0,0h-0.2
		l0,0v-0.3v-0.2v-0.1l-0.1-0.1l-1-1.8l-0.5-0.5l-0.3-0.4l-0.9-0.3l0.7-0.9l0.4-0.6v-0.1v-0.1l-0.1-0.1l-0.2-0.1l-0.1-0.1l-0.3-0.2
		l-0.1-0.1v-0.2v-0.4v-0.5v-0.1l-0.1-0.1l-0.4-0.1l-0.2-0.1l-0.4-0.5l-0.3-0.2l-0.5-0.2l-0.4-0.1h-0.2l-0.4-0.2l-0.5-0.2l-1.2-0.3
		l-0.4-0.1h-0.2l-0.8-0.1l-0.4-0.2l-0.7-0.4l-0.1-0.2l-0.2-0.3l-0.1-0.3l0.1-0.4l-0.1-0.2l-0.1-0.2l-0.2-0.3l0,0l-0.2-0.2l-0.5-0.2
		l-0.2-0.2l-0.2-0.1l-0.2-0.2h-0.2h-0.2h-0.1H690l-0.2-0.1l-0.1-0.1l-0.2-0.2l-0.2-0.2l-0.1-0.1l-0.3-0.1h-0.2l0.1,0.2l0.2,0.6v0.2
		l-0.1,0.2l-0.1,0.2l-0.1,0.1l-0.2,0.1l0,0h-0.2h-0.3H688h-0.2h-0.1h-0.2l-0.2-0.2l-0.2-0.3H687l-0.4-0.2l-0.4-0.5h-0.1l-0.2,0.1
		h-0.3h-0.8h-0.1l-0.9,0.1h-0.6H683l-0.1,0.1l-0.3,0.3l-0.5,0.3H682l-0.6,0.1H681l-0.9-0.3h-0.5l-0.4-0.1l-0.4-0.1h-0.4H678
		l-1.6,0.2l-0.5,0.1l-0.3,0.1l-0.8,0.2l-0.6-0.1h-0.4h-0.5l-0.4-0.1l-0.6-0.1l-0.6-0.2l-0.6-0.1h-0.2l-0.8,0.1h-0.3l-0.5-0.1h-0.1
		h-0.3l-0.6-0.2H668h-0.1l-0.3-0.1h-0.2l-0.3-0.1H667h-0.4l-1.1,0.2h-0.4h-0.6h-0.1l-0.8,0.3l0,0l-0.3-0.3v-0.7l-0.1-0.4v-0.1
		l-0.1-0.1l-0.1-0.3l-0.2-0.2l-0.2-0.1l-0.4-0.2h-0.1h-0.3l-0.3,0.1L661,129h-0.1h-0.2l0,0h-0.2l-0.5,0.1h-0.2l-0.2-0.1h-0.4
		l-0.5-0.1h-0.5l-0.3,0.1h-0.2l-1-0.2v-0.3h-0.3l-0.3-0.1l-0.2-0.1l-1.9-0.6h-0.5l-0.5,0.1l-0.5,0.1l-0.8,0.1h-0.5l-0.4-0.1
		l-0.2-0.1l-0.5-0.3l-0.3-0.1l-0.3-0.2l-0.4-0.2h-0.3l-0.2,0.1l-0.2,0.2l-0.1,0.1l-1,0.2l-0.3,0.1l-0.2,0.1h-0.4l-0.9,0.2l-0.5,0.1
		l-0.4,0.1l-0.3,0.1l-0.2,0.2l-0.6,0.4l-0.2,0.1l-0.5,0.1h-0.1l-0.3,0.1l-0.5,0.1h-0.1l-0.5-0.2h-0.2l-0.4,0.2l-0.3,0.2l-0.1,0.1
		l-0.2,0.1h-0.3l-0.3,0.1l-0.2,0.1l-0.5,0.6l-0.2,0.2l-0.2,0.1l-0.5,0.2l-0.3,0.1h-0.7l-0.6,0.1l-0.6,0.3l0,0l-0.8,0.3l-0.2,0.1
		h-0.4h-0.5h-0.1h-0.2h-0.1l-0.5,0.3l-0.8,0.9l-0.3,0.5l-0.1,0.1l-0.3,0.1l-0.7,0.3l-0.7,0.5l-0.3,0.3l-0.9,0.1h-0.4l0,0l-0.8-0.1
		h-0.5l-0.6-0.1H626l-0.3-0.1h-0.3l-0.9-0.1l-0.8-0.1h-0.5l-0.4-0.1l-0.4-0.2l-0.3-0.1l-0.6-0.2l-0.5-0.1l-0.1-0.3l-0.5-0.4
		l-0.3-0.1H620l-0.8-0.2l-0.6-0.3h-0.2h-0.2h-0.4h-0.5H617l-0.6-0.1h-0.3l-0.1-0.2l-0.1-0.1l-0.1,0.1l-0.5,0.2H615l-1.1,0.5
		l-0.2,0.1l-0.3,0.1l-0.3,0.1l-0.2,0.1l-0.2,0.1l0,0l-0.3,0.1h-0.2l-0.4,0.1l-0.1,0.1l-0.1,0.1v0.1h-0.1h-0.1h-0.2H611h-0.3h-0.3
		H610h-0.6h-0.2h-0.1l-0.4-0.2l-0.3-0.2l-0.2-0.1H608h-0.2l-0.4-0.1l-0.9-0.2h-0.1H606h-0.2l-0.9,0.2h-0.1h-0.4l-0.4-0.2l-0.6-0.2
		l-0.3-0.1l-0.5-0.1l-0.3-0.2l0,0l-0.4-0.1l-0.5-0.2h-0.3H601h-0.3h-0.9h-0.7l-1,0.4l-0.1,0.1l-0.2,0.1l-0.3,0.1l-0.5,0.2l-0.4,0.3
		l-0.4,0.2H596h-0.1l-0.3,0.1h-0.2l-0.3-0.1H595l-0.2-0.1l-0.6-0.3l-0.4-0.2l-0.7-0.4l-0.6-0.1l-0.2-0.1l-0.1-0.1l-0.1-0.1l-0.5-0.6
		l-0.1-0.1l-0.2-0.2l-0.1-0.2l0,0l-0.2-0.3l-0.6-0.6l-0.3-0.3l-0.3-0.2l0,0l0,0l-0.2-0.1l-0.3-0.1l-0.4-0.1l-0.2-0.1l-0.4-0.2
		l-0.1-0.1l-0.3-0.5h0l0,0l-0.2-0.1l-0.2-0.1l-0.4-0.2l-0.7,0.2H586l-0.5,0.1l-1,0.1h-0.1l-0.6-0.1l-0.8-0.1h-0.3l-0.4,0.1h-0.8
		h-0.7h-0.3l-0.5-0.1l0,0h-0.1l-0.3,0.1l-0.3,0.2l-0.3,0.2l-0.4,0.6l-0.2,0.3l-0.3,0.3l-0.3,0.2l-0.3,0.1l-1.3,0.6H576h-0.3
		l-0.4-0.1l-0.4-0.1h-0.4h-0.1l-0.3-0.1l-0.3-0.1h-0.1h-0.2l-0.2-0.2l-0.3-0.1l-0.2-0.1h-0.1l0,0l-0.4-0.1l-0.3-0.1l-0.2-0.1
		l-0.2-0.1h-0.1l-0.2-0.1l-0.3-0.1h-0.2l-0.1-0.1l-0.3-0.2l-0.1-0.1L570,129l-0.7-0.4l-0.3-0.1h-0.2h-0.3l-0.2,0.1l-0.3,0.2
		l-0.2,0.2l-0.2,0.3l-0.1,0.1l-0.1,0.3v0.1l-0.2,0.1l-0.3,0.2l-0.3,0.1h-0.2l-0.6-0.1h-0.3l-0.6,0.1h-0.3h-0.2l-0.2-0.1v-0.5v0.1
		v0.2v-0.4l-0.1-0.3l-0.1-0.1l-0.1-0.1l-0.9-0.3l-0.2-0.1h-0.3h-0.2l-0.3,0.1l-0.6,0.3l-1.2,0.5l-0.2,0.1l-0.3,0.2l-0.2,0.2
		l-0.2,0.2L559,131l-0.6,1.3l-0.1,0.6v-0.4v0.2l0.2,1l-0.2,0.3l-0.3,0.2l-1,0.4l-1.2,0.4l0,0l-0.1,0.1l-0.6,0.4l-0.2,0.4l-1.1,2.2
		l0.5,0.7l0.3,0.7v0.4l-0.6,0.3v0.1l-0.1,0.4l-0.4,0.5l-0.3,0.4l-0.2,0.3l-0.2,0.3l-0.1,0.2l-0.1,0.5l-0.1,0.3l-0.1,0.2l-0.6,0.6
		l-0.6,0.9v0.2l0.4,0.1l0.5,0.6v0.3l-0.2,0.2v0.1l-1.5-0.6l-0.2-0.1l-3,0.2h-0.3h-0.3l-1.2-0.5v0.5l0.1,0.4v0.2l-0.8,0.2l-0.2,0.1
		h-0.2h-0.2h-0.3l-0.8-0.1l-0.7-0.1l-0.8-0.2h-0.1l-0.6,0.1H540l-0.3,0.1h-0.4l-0.6,0.1l-0.7,0.1h-0.1l-0.3,0.1h-0.5h-0.3l-0.5,0.1
		l-0.2,0.1h-0.2l-0.4-0.1h-0.2h-0.1l-1,0.2l0,0l-1.8,0.4l-0.4,0.1h-0.4l-0.6-0.4l-0.8,0.1l-0.5,0.1l0,0h-0.5l-0.7,0.2l-1.1-0.1
		l-0.4,0.1v0.1v-0.1v0.2v0.1l-0.1,0.2v0.3l-0.2,0.3l-0.1,0.6l0.1,0.3l0.1,0.4l-0.1,0.2h-0.2l-0.4-0.1l-0.3-0.1l-0.4-0.1l-0.4-0.3
		l-0.1-0.1l-0.5-0.1h-0.9l-0.9-0.1l-0.4-0.1h-0.1l-0.3-0.2l-0.1-0.2l-0.1-0.2l-0.1-0.1l-0.6-0.4l-0.1-0.1l-0.6-0.1H520l-0.6,0.1
		l-0.8-0.1l-0.5-0.1l-0.2-0.1l-0.2-0.3h-0.1l-0.2-0.3l-0.3-0.2l-0.2-0.1l-0.6-0.1l-0.2-0.1l-0.2-0.2l-0.4-0.4l-0.1-0.3v-0.1
		l-0.1-0.3v-0.1l-0.1-0.2l-0.1-0.2l-0.1-0.2l-0.1-0.4l0,0v-0.1l-0.5,0.2l-0.9,0.2l-0.5-0.8l-0.1-0.2l-0.2-0.7l-0.1-0.3l-0.2-0.1
		h-0.6h-0.1l-0.5-0.2h-0.3l-0.6-0.2h-0.7h-0.1l-0.7-0.2l-0.2-0.1l-0.3-0.1h-0.1h-0.1H508l-0.1-0.1l0,0l-0.1-0.1l-0.2-0.1l-0.4-0.1
		H507h-0.9h-0.5l-0.3,0.1h-0.4l-0.6-0.1l-0.5-0.1h-0.5h-0.2h-0.7h-0.1l0,0l-0.6-0.1l-0.3-0.1h-0.2l-0.5-0.2l-0.3,0.7l-1,1.6v0.7
		l-0.4,1l-0.3,0.2l-0.8,0.4l-0.3,0.2l-0.3,0.6l-0.1,0.3l0.2,0.5l-0.1,0.4v1.3l0.1,0.1H497l-0.4-0.2l-0.5-0.3l-0.6-0.2L495,148h-0.4
		l-0.3-0.1l0.1-0.2l-0.1-0.2h-1l-0.3,0.1l-1.4,1l-0.2,0.1H491h-0.3v0.5l-0.2,0.4l-1.1-0.2l-0.7-0.1l-0.8,0.1h-0.4l-1.6-0.3h-0.3
		l-0.5,0.1l-0.9,0.4l-0.5,0.1l-0.3,0.1l-1.2,0.8l-1,0.4l-0.6-0.1l-0.3,0.1l-1.6,0.8l-0.2,0.1l-0.2,0.3l-0.2,0.1h-0.5l-0.3,0.2
		l-0.3,0.1h-0.3l-0.8,0.3l-0.6,0.5l-0.3,0.4l-0.5,0.3l-0.3,0.5l-0.4,0.4l-0.5,0.3l-0.2,0.2l-0.1-0.6l-0.1-0.2l-0.1-0.2v-0.2
		l-0.1-0.7l-0.1-0.4l-0.9-0.5l-0.4-0.4h-0.1l-0.4-0.4l-0.1-0.1l-0.1-0.2v-0.4v-0.1l-0.2-0.3l-0.1-0.3v-0.4l-0.1-0.6L470,149
		l-0.3-0.7l-0.1-0.6l-0.1-0.3l-0.1-0.2l-0.2-0.2l0.1-0.4v-0.2v-0.1l-0.1-0.2l-0.2-0.3l-0.2-0.2h-0.2l-0.6,0.1h-0.2h-0.2h-0.1
		l-0.2-0.1H467h-0.7H466l-0.6,0.2h-0.3H465h-0.5l-0.6,0.1h-0.3h-0.3l-0.3-0.2l-0.6-0.4l-0.6-0.5l-0.3-0.1l-0.8-0.3l-0.5-0.5
		l-0.8-0.4l-0.8-0.4l-1.2-0.2l0,0h-0.1l0,0h-0.1H457h-0.2l-0.5-0.1h-0.4l-0.4-0.2h-0.8h-0.4l-0.7-0.1h-0.2h-0.1l-0.1,0.1l-0.4,0.4
		l-0.2,0.1h-0.2l-0.6-0.1l-0.8-0.1l-0.5,0.1h-0.4H450h-0.1l-0.6-0.5l-0.5-0.2l-0.4-0.2l-0.5-0.1h-0.2l-0.3,0.1l-0.6,0.1l-1,0.1
		l-0.5,0.2l-1.1,0.5l-1,0.1l-0.1-0.2l-0.1-0.2h-1.6H441l-1,0.3l-0.4,0.1l-0.6,0.2l-0.4,0.1l-0.6,0.2l-1.2,0.6h-0.1l-0.2,0.3
		l-0.2,0.2l0.1,0.3v0.9v0.2l-0.4,0.6l-0.3,0.4v0.7l-0.6-0.3l-0.4-0.3l-1.2-0.8l-0.4-0.3L433,146l-0.2-0.5l-0.6-0.9l-0.1-0.2l0,0H432
		l-0.2,0.3l-0.3,0.2l-0.1,0.1l-0.1,0.2v0.7l-0.1,0.2l-0.3,0.2l-0.2,0.2l-1,0.7l-0.7,0.3l-0.7,0.3l-0.1,0.9l-0.2,0.2l-1.1,1l-0.2,0.1
		l-0.3,0.1l-0.4,0.1l-0.6,0.1l-0.1,0.2l-0.3,0.1l-0.9,0.8l-0.6,0.6l-0.8,0.7l-0.6,0.5l-0.6,0.7l-0.2,0.2l-0.4,0.3l-0.2,0.2l-1.3,1.5
		l-0.2-0.2l-0.2-0.1l-0.5-0.2l-0.6-0.4l-0.4-0.1l-0.4-0.1l-0.2-0.1l-0.2-0.1l-0.3-0.3v-0.6v-0.1l-0.1,0.5v-0.6l-0.3-0.2h-0.1h-0.1
		h-0.6l-0.7,0.2h-0.2h-0.7l-0.3-0.1l-0.9-0.4l-0.3-0.1l-0.9-0.5l-0.4-0.2l-0.3-0.1h-0.2l-0.7,0.1H409l-1.1,0.1h-0.5h-0.5l-1.5,0.2
		h-0.3h-0.5h-0.1l-0.6-0.4l-0.3-0.2h-0.5l-0.9-0.3l-0.4,0.1h-0.4l-1.1-0.1H400h-0.1l-0.2-0.1l-0.3-0.5l-0.2-0.2l-0.3-0.1h-0.1h-0.2
		L398,151l0,0l-0.9,0.7l-0.3,0.2l-0.3,0.2h-0.1h-0.7H395h0h-0.2h-0.4l-0.7-0.1h-0.3l-1,0.1l-0.9,0.1h-0.2l-0.5-0.2l-0.5-0.1h-0.4
		h-0.3h-0.3h-0.4h-0.1h-0.4h-0.2l-0.1-0.1l-0.2-0.2l-0.1,0.1l-0.3-0.1h-0.1v-0.1l-0.1-0.2l-0.1-0.2l-0.1-0.2l-0.1-0.2l-0.1-0.2h-0.1
		l-0.2-0.2l-0.2-0.3l-0.2-0.4l-0.2-0.2l-0.1-0.1l-0.6-0.4l-0.2-0.1l-0.1-0.1l-0.1-0.2v-0.4l0.1-0.8l0.1-0.8l0.2-0.3l-0.4-0.1
		l-0.5-0.1l-0.5-0.2l0,0l-0.4-0.2l-0.2-0.2l0,0l-0.4-0.2l-0.5-0.2l-0.3-0.1l-0.1-0.4l0,0l-0.1-0.2l-0.2-0.2l-0.3-0.2l-0.4-0.2h-0.1
		h-0.2l-0.9-0.1l-0.2-0.1l-0.2-0.2l-0.2-0.1l-0.4-0.1l-0.6-0.1h-0.1l-0.2-0.1l0.1-0.1l-0.1-0.2l-0.1-0.3l-0.3-0.9l-0.1-0.2l-0.3,0.3
		l-0.2,0.1l-0.4,0.1l-0.1,0.1L376,142l-0.4,0.4l-0.3,0.1H375l-0.3,0.2l-0.4,0.3l-0.4-0.5l-0.8-1l-0.1-0.2l-0.1-0.4l-0.1-0.1
		l-0.2-0.1l-0.8-0.3l-0.4-0.2h-0.3l-0.5,0.1h-0.2l-0.6-0.1L369,140l-0.4-0.1l-0.6-0.2l-0.9-0.4l-0.1-0.2l-0.2-0.3l-0.6-0.6l-0.3,0.3
		l-0.1,0.2l-0.1,0.3v0.1l-0.2,0.1l-0.3,0.2h-0.1h-0.2l-0.4-0.1h-0.1l-0.2,0.1l-0.7,0.4H363h-0.2l-0.5,0.4H362l-0.4,0.2l-0.4,0.1
		h-0.1l-0.3,0.3l-0.3,0.2l-0.3,0.2l-0.1,0.1H360l-0.2,0.1l-0.3,0.2l-0.1,0.2l-0.1,0.5l-0.1,0.2l-0.4,0.5l-0.1-0.1l-0.5-0.6l-0.1-0.1
		l-0.4-0.1l0,0l-0.1-0.1l-0.1-0.1l-0.5-0.6l-0.2-0.1l-0.3-0.1h-0.3L356,141l-0.2-0.3l-0.2-0.2l-0.4-0.6l-0.2-0.4l-0.2,0.4l-0.1,0.1
		l-0.1,0.1l-0.6,0.5l-0.1,0.1h-0.1l-0.3,0.2l-0.1,0.1l-1,0.4l-0.2,0.1l-0.6,0.4l-0.2,0.3l0.3,0.8v0.1l-0.1,0.1l-0.6,0.3l0,0.2v0.1
		v-0.3v0.5l-0.1,0.1l-0.7,0.3l-0.3,0.1l-0.5,0.3l-0.1,0.1l-0.1,0.2l-0.2,0.3l0,0.1h-0.1h-0.3l-0.6,0.3h-0.2l-0.1-0.1l-0.2-0.2
		l-0.1-0.2l-0.1-0.6v-0.1l-0.1-0.1H347h-0.7l-0.6-0.2l-0.2-0.1l-0.1-0.1v-0.4v0.3v-0.4l-0.4-0.5h-0.1l-1-0.2h-0.1l-0.3,0.1h-0.1
		l-0.2-0.1l-0.2-0.1l-0.2-0.2l-0.1-0.1l-0.7-0.1l-0.5-0.3l-0.6-0.1h-0.2h-0.2l-0.9,0.3h-0.4v0.3v0.2l-0.2,0.3l-0.2,0.4l-0.4,0.5
		l-0.1,0.9l-0.1,0.1l-0.3,0.3l-0.5,0.1l-0.5,0.3l-0.2,0.1l-0.1,0.3l-0.1,0.2l-0.4,0.4l-0.1,0.2v0.3v0.3l-0.1,0.1l-0.1,0.1h-0.2h-0.5
		h-0.3l-0.1,0.1l-0.1,0.1l-0.3,0.3l-0.2,0.2l-0.3,0.1l-0.3,0.2l-0.3,0.3l-0.2,0.3l-0.5,0.4l-0.4,0.2L332,150l-0.2,0.1h-0.1l-1,0.1
		h-0.1h-0.1h-0.2h-0.1l-0.4,0.1h-0.2h-0.1h-0.1l-0.3-0.1l-0.3-0.1l-0.2-0.1h-0.1l-0.1-0.1l-0.4-0.4l-0.1-0.1l-0.1-0.2l-0.2-0.2
		l-0.2-0.2l-0.1-0.1l-0.1-0.1l-0.1-0.1l-0.1-0.1l-0.1-0.1l-0.2-0.1l-0.3-0.1l-0.5-0.1h-0.2l-0.3,0.1l-1.3,0.2l-0.2,0.1l-0.6,0.4
		l-0.1,0.1l-0.6,0.1l-0.2,0.1l-0.1,0.1l-0.1,0.1l-0.1,0.2l-0.1,0.1l-0.3,0.3l-0.1,0.1l-0.5,0.2l-0.1,0.1l-0.6-0.3l-0.6-0.2l-0.9-0.3
		l-0.6-0.2l-0.4-0.1l-0.5-0.4l-0.2-0.1h-0.3l-0.6,0.1l-0.7,0.2l-0.2,0.1l-0.2,0.2l-0.5,0.6l-0.3,0.4l-0.1,0.1l-0.3,0.2l-0.4,0.3
		l-0.8,0.4l-0.3,0.2l-0.3,0.1l-1.8,0.6l-0.2,0.1l-0.1,0.1l-0.2,0.8l-0.1,0.2l-0.4,0.2h-0.1l-0.4,0.2l-1.3-0.4h-0.2h-0.5l-0.4,0.1
		l-0.3,0.1l-0.2,0.1l-0.3,0.2l-0.2,0.1h-0.2l-0.3-0.1l-0.7-0.4h-0.2h-0.5l-1-0.1l-0.6-0.1l-0.4-0.1l-0.6-0.7v-0.8l0.3-0.4l0.2-0.2
		l0.5-0.2l0.1-0.1l0.1-0.3v-0.3l0.1-0.3l-0.4-0.1l-0.2-0.2l-0.1-0.1l-0.1-0.1l-0.1-0.1l-0.2-0.3l-0.2-1.1l-0.1-0.2l-0.2-0.2
		l-0.1-0.2v-0.1v-0.5v-0.2l-0.2-0.2l-0.4-0.4l-0.1-0.2v-0.2v-0.4l-0.1-0.2l-0.4-0.3l-0.2-0.3l-0.2-0.4l-0.2-0.2h-0.2l-0.4,0.1H298
		h-0.1l-0.6-0.2h-0.2h-0.7h-0.7l-0.5,0.1l-0.4-0.1l-0.3-0.3v-0.2V143h-0.2l-0.9-0.1h-0.2h-0.3l-0.2-0.1l-0.4-0.3l0,0l-0.3-0.2
		l-0.4-0.2l-0.2-0.2l-0.2-0.2l-0.1-0.1h-0.2h-0.2h-0.2h-0.1l-0.1-0.1l-0.2-0.2l-0.1-0.1h-0.2l-0.6-0.1h-0.4l-0.6-0.2H288l-0.5,0.1
		l-0.5,0.1h-0.5h-0.7l-0.4,0.2l-0.6,0.4l-0.3,0.3l-0.1,0.1l-0.3,0.1l-0.2,0.1l-0.7,0.2l-1,0.4l-0.8,0.1h-0.3l-0.5-0.1h-0.2l-0.4-0.1
		l-0.1-0.1l-0.4-0.1h-0.2H279h-0.2l-1,0.3l-0.1,0.1l-0.2,0.2l0,0l-0.2-0.3l-0.1-0.2l-0.4-0.1l-0.8-0.1l-0.2-0.1l-0.3-0.1l-0.3-0.1
		l-0.5-0.1h-0.3l-0.2-0.1l-0.1-0.1l-0.3-0.2l-0.5-0.1l-0.2-0.1l-0.3-0.2l-0.1-0.1h-0.8h-0.3l-0.3,0.1l-0.5,0.1h-0.2h-0.3l-0.1-0.1
		l-0.4-0.3l-0.5-0.2l-0.3-0.3l-0.1-0.2l-0.2-0.1h-0.3l-0.6,0.1l-1.2-0.3h-0.2l-0.2,0.1l-0.3,0.3l-0.3,0.3l-0.5,0.7h-0.3h-0.1h-0.4
		l-0.5,0.1l-0.5-0.1h-0.2l-0.3-0.1l0,0h-0.2l-0.5-0.3l-0.5-0.6l-0.2-0.3l-0.1-0.1l-0.1-0.1l-0.4-0.6l-0.1-0.2l-0.1-0.1l-0.4-0.5
		l-0.2-0.2l-0.1-0.2l-0.1-0.2l-0.2-0.5l-0.1-0.1l-0.2-0.2l-0.2-0.1l-0.4-0.1h-0.3l-0.3,0.1h-0.2v-0.1v-0.1l-0.3-0.3l-0.3-0.3
		l-0.2-0.2l-0.1-0.1h-0.1l-0.2-0.2v-0.1l-0.1-0.1l-0.3-0.3l-0.1-0.1l-0.2-0.2h-0.1h-0.2h-0.1h-0.2h-0.1l-0.1-0.1H255l-0.5-0.2
		l-0.4-0.1h-0.2h-0.1l-0.3,0.2l-0.1,0.1h-0.1h-0.1h-0.1l-0.2-0.2h-0.1h-0.3h-0.3l-0.6-0.1l-1.4,0.1H250h-0.3l-0.6-0.1h-0.2l-0.4,0.1
		h-0.1h-0.1l-0.1-0.1l-0.1-0.1l-0.1-0.1l-0.2-0.2l-0.2-0.1h-0.2h-0.2l-0.1,0.1l-0.6,0.4l-0.3,0.1h-0.4h-0.5l-0.2,0.1l-0.1,0.1
		l-0.2,0.2l-0.1,0.1l-0.1,0.2l-0.1,0.1l-0.1,0.1l-0.2,0.1H244h-0.8l-0.4,0.1h-0.5h-0.7h-0.2h-0.8h-0.1l-0.7-0.1l-0.4-0.3l-0.4-0.2
		h-0.4l-0.8-0.1l-0.5-0.1l-0.2,0.5l0.8,0.1l-0.1,0.4l-0.3,0.4l-0.1,0.3l-0.1,0.1l-0.5-0.1l-0.2,0.1l-0.2,0.1l-0.2,0.3l-0.5,0.4
		l-0.2,0.3l-0.3,0.3l-0.2,0.2l-0.1,0.2l-0.1,0.3l-0.2,0.4l-0.2,0.3v0.3h-0.3h-0.1H234h-0.1l0,0l0,0h-0.3l-0.2,0.1l-0.5,0.2l-0.3,0.2
		l-0.1,0.1l-0.3,0.1h-0.2h-0.2l-0.3-0.1h-0.1l-0.5-0.5l-0.1-0.1l0,0l-0.1-0.1l0,0h-0.1l-0.5-0.3l-0.2-0.1l-0.5-0.1l-1-0.1h-0.5h-0.4
		l-0.6,0.1l-0.6,0.1l-1,0.1l-1.2,0.1h-0.3h-0.3h-0.6l-0.3-0.1l-0.3-0.1h-0.3l-1.4,0.2h-0.1l-0.1-0.1l-0.2-0.2l-0.1-0.1l-0.5-0.3
		l-0.1-0.1l-0.1-0.1l-0.2-0.5L219,138h-0.1l-0.8-0.1l-0.5-0.1l-0.4-0.2l-0.6-0.4h-0.2l-0.2-0.1l-0.2-0.2l-0.1-0.4h-0.3h-0.5
		l-0.8-0.2h-0.2h-0.6h-0.1l-0.3-0.1l-0.2-0.1l-0.3-0.2l-0.1-0.1l-0.1-0.2v-0.1v-0.2l-0.1-0.3l-0.1-0.1h-0.1l-0.4,0.1l-0.4,0.1h-0.1
		L211,135l-0.6-0.4h-0.2H210h-0.3l-0.2,0.1l-0.2,0.2l-0.4,0.6l-0.1,0.1h-0.1l-1-0.1l-0.3-0.1l-0.9-0.1h-0.1l-0.2,0.1l-0.7,0.4h-0.2
		H205h-0.5l-0.1,0.1l-0.2,0.2l-0.3,0.1h-0.6l-0.3-0.1h-0.1h-0.1l0.1,0.7l-0.1,0.2l-0.3,0.2l0,0l-0.7,0.5l-0.1,0.1l-0.1,0.4v0.1
		l-0.4,0.1l-0.2,0.1l-0.3,0.2l-0.2,0.1l-0.1,0.1h-0.4l-0.3,0.1h-0.3h-0.1l-0.3,0.2l-0.1,0.1l-0.3,0.2l-0.2,0.2L198,140l-0.4,0.2
		l-0.2,0.2l-0.1,0.2l-0.1,0.1l-0.2,0.2l-0.1,0.3v0.3l0.2,0.2v0.2L197,142l-0.2,0.2l-0.5,0.1h-0.1h-0.3h-0.1l-0.1,0.4v-0.2v0.3
		l-0.3,0.2l-0.2,0.3l-0.1,0.2l-0.4,0.2l-0.1,0.1l-0.3,0.1h-0.1l-0.1-0.1l-0.1-0.2l-0.1-0.1l-0.3-0.1h-0.7h-0.1l-0.3,0.3l-0.3,0.2
		L192,144l-0.2,0.1l-0.1,0.1l-0.1,0.2l-0.1,0.3v0.2l0.1,0.5l-0.1,0.2l-0.1,0.3l-0.6,0.3h-0.1l-0.1,0.3l-0.1,0.1l-0.4,0.3l-0.6,0.5
		l-0.1,0.1l-0.2,0.1l-0.5,0.6h-0.1h-0.5l-0.3,0.1l-0.1,0.1l-0.3,0.3h-0.1h-0.1l-0.2-0.1l-0.6-0.1h-0.1h-0.1l-0.2,0.4l-0.3,0.3
		l-0.2,0.5l-0.1,0.2l-0.2,0.1l-0.3,0.1h-0.3l-0.2-0.2l-0.1-0.1h-0.2h-0.2h-0.1l-0.4,0.1h-0.2l-0.1-0.1l-0.2-0.1l-0.3-0.2l-0.4-0.1
		H182h-0.2h-0.1h-0.1l-0.2-0.1l-0.2-0.1l-0.3-0.2l-0.2-0.3h-0.1l-0.5-0.1l-0.4-0.1l-0.2,0.1v-0.1l-0.1,0.4l-0.1,0.1h-0.1l-1,0.1
		l-0.1-0.1l-0.2-0.2l-0.2-0.1l-0.5,0.1l-0.5,0.1l-0.2,0.1h-0.2l-0.3,0.1l-0.2,0.1l-0.3-0.2l-0.1-0.1l-0.1-0.1v-0.1v-0.2v-0.1
		l-0.5-0.5l-0.1-0.1l-0.1-0.1l-0.6-0.2h-0.2h-0.1h-0.1l-0.2,0.1l-0.4,0.1h-0.4l-0.3,0.1l-0.4,0.1h-0.6l-0.2,0.1H171l-0.8-0.4h-0.1
		H170l-0.3,0.2l-0.3,0.1h-0.3l-0.2,0.1l-0.7,0.3l-0.2,0.2l-0.5,0.2l-0.2,0.1l-0.4,0.2l-0.3,0.1l-0.2,0.2l-0.2,0.1l-0.5,0.2v0.1v0.1
		v0.1l-0.2,0.2l-0.3,0.2l-0.2,0.4l0.1,0.4l-0.2,0.5v0.2v0.5l-0.1,0.1l-0.3,0.2v-0.2v-0.2v-0.1l-0.1-0.1h-0.2v-0.1l-0.1-0.2v-0.1
		v-0.1l0,0H164h-0.3l-0.2,0.1l-0.1,0.1h-0.2h-0.1H163v-0.1l0.1-0.2l0.1-0.1v-0.1l0,0H163l-0.1-0.1h-0.1l-0.1-0.1l0.1-0.1l0.2-0.2
		v-0.3v-0.1l0.3-0.2l0.1-0.1l-0.1-0.1h-0.1l-0.1-0.1v-0.2v-0.3v-0.1l0.2-0.1l0.3-0.1l0.1-0.1v-0.1l-0.1-0.1h-0.1l-0.2-0.1l-0.1-0.1
		l-0.1-0.1H163l-0.2-0.1l0,0l0,0l0.1-0.1l0.1-0.1V148l-0.1-0.1v-0.1v-0.1l-0.3-0.3l-0.3-0.2h-0.2l-0.1-0.1V147h0.1l0.2,0.1l0.1-0.1
		v-0.1l-0.1-0.1v-0.1h0.1v-0.1l-0.1-0.2v-0.1l-0.1-0.1v-0.1l-0.3,0.1h-0.2l-0.4,0.1l-0.1,0.1l-0.3,0.1h-0.1l-0.3,0.1l-0.2,0.1h-0.1
		h-0.8l-0.3-0.1l-0.4-0.2h-0.1l-0.5,0.1l-0.4,0.1l-1,0.5l-0.6,0.5l-0.1,0.1h-0.4h-0.2l-0.2-0.1l-0.2-0.1h-0.1l-0.3,0.2h-0.1h-0.1
		l-0.2-0.1h-0.1h-0.2l-0.2,0.1l-0.4,0.3l-0.5,0.3l-0.3,0.1h-0.4l-0.5,0.1l-0.7,0.1h-0.1h-0.1l-0.4,0.1l-0.7,0.1h-0.3l-0.1-0.1
		l-0.2-0.2l-0.2-0.1l-0.2-0.1h-0.5l-0.2,0.1l-0.2,0.1l0,0l-0.4,0.5l-0.1,0.1l-0.1,0.1H147l0,0l-0.6,0.1l-0.2,0.1l-0.1,0.2l-0.3,0.8
		l0.1,0.5v0.2l-0.4,0.3l-0.2,0.2l-0.4,0.9l-0.2,0.2l-0.2,0.1h-0.2h-0.2h-0.4l-0.2,0.1l-0.1,0.1l-0.2,0.1l-0.8,0.5l-0.1-0.1l-0.3-0.2
		l-0.2-0.1l-0.6-0.3l-0.2-0.1l-0.1-0.1l-0.2-0.1l-0.5-0.3l-0.4,0.5l-0.1,0.1l-0.1,0.1l-0.1,0.1l-0.1,0.2l0,0l-0.1,0.1l-0.6,0.3h-0.1
		l-0.1,0.1l-0.3,0.2l-0.2,0.1l-0.4,0.1l-0.5,0.2H137l-0.1,0.1l0,0l-0.1,0.1l-0.5,0.2l-0.7,0.3l-0.4,0.1h-0.1h-0.2h-0.2l-0.5-0.1
		l-0.4-0.1l-0.2-0.1l0,0l-1.1-0.3l0,0l-0.2-0.1l-0.8-0.2h-0.1h-0.3L131,154l-0.2-0.3l-0.1-0.3l-0.2-0.2l-0.1-0.2l-0.2-0.1h-0.3
		l-0.2-0.2v-0.1l-0.1-0.1v-0.1l-0.1-0.3l-0.2-0.1l-0.3-0.1l-0.4-0.3l-0.1-0.1l0.2-0.4l-0.1-0.3h-0.1h-0.2h-0.1H128l-0.4-0.1v-0.1
		h-0.2l-0.1-0.1l-0.2-0.1l0.1-0.2V150v-0.1v-0.1l-0.1-0.1v-0.1l-0.1-0.1l-0.3-0.1h-0.1h-0.1l-0.3,0.2h-0.6l-0.4,0.3h-0.1H125h-0.1
		h-0.1l-0.2-0.1h-0.2h-0.1h-0.1l-0.2,0.1h-0.1l-0.3,0.2l-0.2,0.2v0.2v0.1l-0.1,0.4l-0.1,0.1l-0.2,0.1h-0.1l-0.1,0.3l-0.1,0.2
		l-0.2,0.1l-0.2,0.2l-0.1,0.1H122l-0.2,0.1l-0.3,0.2h-0.3l-0.1,0.1H121l-0.3,0.1l-0.2,0.1h-0.2l-0.4,0.1h-0.4l-0.2-0.1l-0.1-0.1
		l-0.4-0.4h-0.1h-0.3l-0.9-0.2l-0.4-0.1l-0.1-0.1l-0.4-0.3l-0.7-0.3l-0.7-0.1L115,151h-0.6v0.2l-0.1,0.2l-0.1,0.2l-0.3,0.3l0.1,0.6
		v0.2l-0.1,0.1l-0.2,0.3v0.2l-0.5,0.1l-0.3,0.1l-0.2-0.1l-0.3-0.1L112,153h-0.1h-0.1l-0.5,0.1L111,153h-0.1l-0.5-0.3l-0.3-0.1
		l-0.2-0.1h-0.1l-0.5-0.1l-0.3,0.1l-0.3,0.1h-0.4h-0.2H108l-0.2,0.1l-0.2,0.1h-0.2h-0.2l-0.4-0.1h-0.5l-0.2,0.1l-0.2,0.1l-0.3,0.2
		l-0.2,0.1l-0.6,0.2h-0.1l-0.5-0.1H104l-0.6,0.2h-0.1h-0.1l-0.2-0.2h-0.1l-0.2-0.1l-0.2-0.2h-0.1h-0.1l-0.3,0.1l-0.4-0.1l-0.1-0.1
		l-0.2-0.4l-0.1-0.1l-0.1-0.1l-0.2-0.1h-0.3h-0.1h-0.2h-0.4l-0.3-0.1h-0.2l0,0l0,0h-0.1h-0.1l-0.1-0.1l-0.1-0.1l-0.2-0.1l-0.7-0.2
		H98h-0.2l-0.2,0.1l-0.2,0.1l-0.2,0.1l-0.3,0.1l-0.3,0.1l-0.1,0.1l-0.2,0.2h-0.1l-0.2,0.2l0,0l-0.1,0.1l-0.3,0.6l-0.1,0.1l-0.3,0.5
		l-0.2,0.2l-0.2,0.1l-1.1,0.3l0,0h-0.1l-0.4,0.1h-0.3l-0.5-0.2h-0.2h-0.6l-0.3,0.1l-0.2,0.1H91h-0.1h-0.1l-0.4,0.2l-0.2,0.1
		l-0.1,0.1l-0.1,0.1l-0.1,0.2l-0.5,0.3l-0.1-0.3l-0.2-0.3l-0.1-0.1l-0.2-0.2l-0.2-0.1l-0.2-0.1l-0.2-0.3l-0.3-0.3l-0.4-0.5l0.4-0.9
		l-0.3-0.4l-0.1-0.2l-0.1-0.2l-0.1-0.3l-0.3,0.1l0,0h-0.2h-0.1h-0.3h-0.1l-0.5-0.2l-0.5-0.1l-0.2-0.1l-0.1-0.1l0,0h-0.3h-0.1
		l-0.6,0.4h-0.2l-0.4,0.1l-0.2,0.1l-0.4,0.2h-0.1h-0.2l-0.1,0.1l-0.1,0.1v0.1l-0.1,0.7v0.2v-0.1v0.3l-0.2,0.2l-0.2,0.3l-0.1,0.1
		l-0.1,0.1l0.3,0.6l-0.2,0.5v0.5v0.2h-0.2h-0.1h-0.3h-0.3h-0.3l-0.2-0.1l-0.2-0.1l-0.3-0.2l-0.2-0.1h-0.4h-0.1l-0.2-0.2l-0.9-0.2
		l-0.3-0.1l-0.6-0.2h-0.1h-0.1l-0.5,0.2l-0.4,0.1l-0.3,0.1l-1,0.2h-0.2h-0.1l-0.3-0.2l-0.2-0.1h-0.2l-0.2,0.3l-0.2,0.2l-0.1,0.3v0.2
		l0.1,0.1l-0.1,0.2l-0.1,0.3l-0.3,0.1l-0.1,0.1v0.2v0.1v-0.2l-0.2,0.3l-0.5,0.4l-0.6,0.2l-0.7,0.3h-0.1l-0.3,0.1l-0.4,0.1l-1,0.3
		l-0.5,0.2l0,0l-0.2-0.4l-0.2-0.4l-0.3-0.4l-0.4-0.5l-0.2-0.1H67h-0.2h-0.2l-0.3-0.2l-0.3-0.2l-0.2-0.1l-0.2-0.1l-0.4-0.1h-0.1
		l-0.2,0.1h-0.1l-0.2,0.1h-0.4l-0.4-0.1h-0.3h-0.2h-0.1h-0.1l-0.2-0.1l-0.5-0.5l-0.1-0.1l-0.1-0.1h-0.1l-0.5,0.3h-0.1l-0.3-0.1
		l-0.2,0.2l-0.1,0.1l-0.3-0.1l-0.1,0.1v0.1h-0.1h-0.2h-0.1l0,0v0.1v0.2H60l-0.2-0.1l-0.3-0.2l-0.2-0.2l-0.2-0.2l-0.2-0.3l-0.4-0.8
		l-0.1-0.3l0,0l-0.1-0.4l-0.1-0.8l-0.1-0.1l-0.3-0.1l0,0l-0.3-0.1l-0.4,0.1l-0.3-0.1h-0.1l-0.1,0.1l-0.1,0.1h-0.1h-0.2H56h-0.1
		l-0.2,0.2v0.1v0.1l0.2,0.1l0.1,0.1v0.1h-0.1h-0.4h-0.1l-0.1,0.2v0.2l0.1,0.1v0.1h-0.1h-0.2H55l-0.1,0.2h-0.2l-0.1,0.1l-0.1,0.1
		l0.1,0.2v0.1h-0.1h-0.1l-0.2-0.3h-0.1h-0.2h-0.1v-0.1l0.2-0.3l0.4-0.3v-0.1l-0.1-0.4l-0.1-0.1l-0.2-0.1l-0.1-0.2h-0.4h-0.1
		l-0.1-0.1v-0.1l-0.1-0.1l-0.2-0.2l-0.1-0.1l-0.1-0.3l0.1-0.1h0.2l0.1-0.1l0.1-0.1v-0.6l0.1-1V150v-0.2l-0.1-0.1l-0.1-0.1l-0.4-0.3
		l-0.1-0.1l-0.3-0.1l-0.4-0.2l-0.2-0.1l-0.4-0.2l-0.1-0.1l-0.1-0.2l-0.1-0.1l-0.3-0.2l-0.3-0.2l-0.2-0.1l-0.3-0.1l-0.1-0.1l-0.1-0.2
		l-0.1-0.2v-0.2l-0.1-0.1l-0.1-0.1l-0.3-0.2l-0.2-0.2l-0.1-0.2v-0.3v-0.5v-0.2l-0.1-0.1h-0.1l-0.2,0.1h-0.2H48h-0.2l-0.3-0.3
		l-0.4-0.1l-0.2-0.1l-0.2-0.3l-0.3,0.2h-0.1l-0.1,0.2l-0.2,0.1h-0.1h-0.4l-0.2,0.1H45h-0.4l-0.2-0.1h-0.1l-0.1,0.1l-0.1,0.1H44h-0.1
		l-0.1-0.1l-0.1-0.1l-0.5,0.3l-0.2,0.1h-0.2h-0.4l-0.5-0.1l-0.4-0.2l-0.4-0.2l-0.5-0.1l-0.4-0.2l-0.1-0.1h-0.2l-0.4,0.2h-0.1
		l-0.2-0.1h-0.1l-0.2,0.1h-0.1l-0.1-0.1v-0.3l-0.1-0.3l0.1-0.2v-0.2l-0.2-0.2l-0.2-0.1h-0.2l-0.5,0.1h-0.1l-0.1,0.2l-0.1,0.1h-0.1
		l-0.1-0.1l0.1-0.1v-0.2l0.2-0.7l0.1-0.1v-0.1l-0.1-0.1h-0.3l-0.3-0.2l-0.2-0.2v-0.1l0.1-0.2l0.2-0.3l0.1-0.2l-0.1-0.2l-0.1-0.2
		v-0.1v0.1l-0.2-0.3l-0.4-0.5l-0.1-0.1l-0.4-0.1l-0.4-0.2l0,0l-0.5-0.3l-0.4-0.4l-0.1-0.1v-0.2l-0.1-0.2l-0.1-0.3l-0.1-0.1v-0.2
		v-0.2l-0.1-0.1v-0.1h0.2l0.1-0.1l0.4-0.4l-0.4-0.6l-0.1-0.1l-0.1-0.1l-0.2-0.1l-0.3-0.2l-0.2-0.2l-0.1-0.2l-0.3-0.4v-0.2l-0.1-0.1
		l-0.1-0.1l-0.2-0.1h-0.1l-0.2-0.2l-0.2-0.1l-0.2-0.1h-0.3l-0.2-0.1l-0.1-0.1l-0.3-0.2l-0.2-0.2l0,0l-0.3-0.2l-0.2-0.2l-0.2-0.2
		h-0.2h-0.1l-0.2-0.1l-0.1-0.1h-0.1l-0.3-0.1l-0.1-0.1l0,0l-0.1-0.1l-0.1-0.1l-0.1-0.2l-0.2-0.1l-0.2-0.1l-0.2-0.1l-0.2-0.1
		l-0.3-0.1l-0.3-0.1l-0.3-0.1l-0.3-0.1l-0.1-0.1l-0.1-0.1h-0.1l-0.3-0.1l-0.3-0.2l-0.3-0.1l-0.2-0.1l-0.1-0.1l-0.3-0.4l-0.7-0.3
		h-0.2l-0.2-0.2l-0.1-0.1l-0.1-0.1h-0.2h-0.2l-0.5,0.2h-0.3l-0.1-0.1h-0.1h-0.2h-0.1l-0.3-0.2h-0.4l-0.3-0.1l-0.1-0.1l-0.1-0.1
		l-0.3-0.1l-0.3-0.3l-0.8-0.7l-0.1-0.1H19h-0.3l-0.2-0.1h-0.1h-0.1l0.6,0.1l-0.7-0.3l-0.2-0.1l-0.5-0.1l-0.2-0.1l-0.1-0.1l-0.1-0.2
		l-0.4-0.5l-0.1-0.1h-0.3h-0.3l-0.2,0.2h-0.2l-0.5-0.2l-0.1-0.1l-0.1-0.1l-0.2-0.3l-0.1-0.1h-0.1l-0.6-0.1l-0.5-0.1h-0.3h-0.3h-0.1
		l-0.2,0.1h-0.2l-0.7-0.2h-0.1l-0.4,0.1l-0.8,0.1l-0.1,0.1h-0.1l-0.2,0.3l0,0L9.7,126l-0.4,0.4H9.2L9,126.3l-0.2,0.1H8.7l-0.2-0.1
		H8.3L8,126.4H7.7l-0.2,0.1l-0.3,0.1l-0.4,0.1l-0.2,0.1H6.2l-0.3,0.1H5.8l-0.1-0.1l-0.3-0.2v-0.1l0.1-0.2v-0.1H5.4H5.2L5,126.1
		L5,126.5H4.9l-0.1,0.1l-0.1-0.1l-0.3-0.4L4.3,126l-0.9-0.3H3.3l-0.1-0.1l-0.2-0.4l-0.3-0.4l-0.5-0.4l-0.2-0.2l-0.4-0.7l-0.2-0.2
		L1.1,123L1,122.9l-0.2-0.1H0.4l-0.3-0.2L0,122.4l-0.1-0.4v-0.5v-0.1"/>
</g>
</svg>
