<?xml version="1.0" encoding="utf-8"?>
<!-- Generator: Adobe Illustrator 17.1.0, SVG Export Plug-In . SVG Version: 6.00 Build 0)  -->
<!DOCTYPE svg PUBLIC "-//W3C//DTD SVG 1.1//EN" "http://www.w3.org/Graphics/SVG/1.1/DTD/svg11.dtd">
<svg version="1.1" id="Layer_1" xmlns="http://www.w3.org/2000/svg" xmlns:xlink="http://www.w3.org/1999/xlink" x="0px" y="0px"
	 viewBox="0 0 900 300" enable-background="new 0 0 900 300" xml:space="preserve">
<g>
	<path fill="none" stroke="#6599AA" stroke-miterlimit="10" d="M889,116.7v0.2l-0.2,0.1l-0.2,0.1l-1.9,0.9l-0.2,0.1l-1.8,0.4h-0.2
		l-0.4,0.1l0,0l-1.8,0.4l-0.4,0.1l-0.9,0.5l-0.1,0.1h-0.1l-0.7,0.1l-7.1-0.7h-0.4h-0.4l-0.2,0.1l-0.4,0.1h-0.1l-0.4,0.2l0,0l0,0l0,0
		l-0.2,0.1l-0.1,0.1l-0.8,0.4l-0.4,0.1l-0.1,0.1l-0.4,0.4l-0.1,0.4l-0.2,0.1l-2.8,3.1l0.1,0.9l4.1,4.6l0.1,0.2l0.1,5.4v1.3v1.5
		l-0.2,0.4l-0.4,0.6l-0.1,0.1l-0.1,0.1l-0.5,0.4l-0.1,0.2l0.1,0.9l0.4,2.1v1.6l-0.4,1.2l-0.7,1.1l-1.2,1.3l-0.4,0.1l-1.5,0.1h-0.2
		h-0.1l-1.3-0.8l-0.8-0.5l-1.6-1.1l-2-1.3h-0.1l-1.3-0.1l-0.4-0.1h-0.2l-0.4,0.1l-2.5,1.2l-0.1,0.1l-0.1,0.1l-0.1,0.1l-0.2,2.1l0,0
		l-0.2,1.6l0,0l-0.2,1.5l-0.1,0.6l-0.1,0.1l-0.1,0.1l-0.6,0.5l-1.5,1.3l-0.7,0.6l-0.7,0.6l-0.7,0.6l-1.4,1.2l0,0l-0.1,0.1h-0.1
		l-0.4,0.2l-0.2,0.4l-0.4,0.5l-0.1,0.2l-0.1,0.1l-0.1,0.1l-0.1,0.1l-0.1,0.1l-0.1,0.1h-0.1h-0.1h1.3h-0.2l-0.4-0.1l-1.6-0.4h-0.1
		h-0.1l-0.4,0.7l-0.1,0.4l-0.4,0.7l-0.4,0.4l-0.1,0.1l0,0l-0.1,0.1l-0.2,0.1l-0.4,0.4h-0.1h-0.2l-0.5,0.1l-0.5,0.1l-0.4,0.1
		l-0.5,0.1l-0.2,0.1l-1.1,0.2l-0.4,0.1l0,0l-0.9,0.1h-0.4h-0.7h-0.4l-0.5,0.1l-0.4,0.4h-0.2h-0.9l-0.1,0.1l-0.1,0.2l-0.4,0.4
		l-0.2,0.2l-0.4,0.4l-0.2,0.4l-0.2,0.2l-0.2,0.1v0.2l-0.4,0.2l-0.9,0.5l-0.9,0.2l-0.4,0.1l-0.4,0.1l-0.4,0.1l-0.2,0.1l0,0l-1.8,0.4
		l-0.4,0.1h0.1l-0.6-0.1h-0.2l-0.6-0.1l-0.7-0.1v0.4l-0.1,0.4l-0.4,0.9v0.1l-0.1,0.9v-0.4l-0.4,0.4h-0.4h-0.5H822v0.9h-1.5l-2.4-0.4
		h-0.4l-0.7,0.4l-0.7,0.4l-0.9,0.5l-0.4,0.4l-0.5,0.4l-0.2,0.1h-0.1l-0.6-0.4l-0.4-0.4l-0.1-0.1l-0.1-0.2l-0.1-0.2v-0.1l-0.1-0.1
		v-0.1v-0.1l-0.1-0.1h-0.1l-0.1-0.2l-0.1-0.1l-0.8-0.4l-0.1-0.1l-0.2-0.2l-0.2-0.2l-0.5-0.6v-0.1l-0.2-0.7v-0.1l-1.9-1.8l-0.9-0.9
		l-0.4-0.4H807h-0.4l-1.3-0.1l-0.8-0.1l-2-0.2l0,0l-0.6-0.2l-0.4-0.2l-0.1-0.1l-0.1-0.1l-0.7-1.4l-0.1-0.2l-0.1-0.2l-0.2-0.4
		l-0.1-0.2l-0.1-0.1v-0.1v-0.6v-0.4v-0.4l0.5-2.5l0.2-0.8v-1.5l0.2-1.3l-0.1-0.2l-0.1-0.1l-0.7-0.4l-0.6-0.4l-0.4-0.2l-0.2-0.1
		l-0.7-0.4l-0.2-0.1h-0.4h-0.1l-0.2-0.1l-0.4-0.4l-0.2-0.1l-0.2-0.1H796l-0.7,0.7l-0.1,0.1l-0.4,0.4l-0.2,0.1l-0.4,0.2l-0.4,0.1
		l-0.4,0.1l-1.1,0.1l-0.2,0.1l-0.2,0.1l-0.4,0.1l-0.4,0.1h-0.2h-0.5h-0.2h-0.1l-1.1,0.7l-0.2,0.1h1.3h-0.1l-0.9-0.1l-0.6-0.2h-0.4
		l-0.9,0.1H787h-0.1l-0.5,0.2h-0.1l-0.9,0.1h-0.1l-0.1,0.1l-0.9,0.6l-0.4,0.4l-0.2,0.1l-0.2,0.1l-0.2,0.1l-0.4,0.4l-0.1,0.1
		l-0.1,0.1l-0.1,0.1l-0.1-0.1l-0.1-0.1l-0.1-0.1l-0.1-0.1l-0.1-0.1l-0.1-0.1l-0.2-0.2l-0.1-0.1l-0.1-0.1l0,0l0,0l-0.2,0.2l-0.2,0.4
		l-0.2,0.4l-0.1,0.1l-0.4,0.2l-1.3,0.8l-0.8,0.5l-0.2,0.2l-0.4,0.4l-0.4,0.4l-0.2,0.4l0,0v0.4v0.4l0.2,0.8l0.1,0.6l-0.1,0.7
		l-0.4,0.5l-0.5,0.8l0.4,0.8l-0.1,0.2l-0.4,0.5l-0.2,0.5l-0.1,0.1v0.1h0.5h-0.1l-0.2,0.1h-0.1h-0.2l0,0H775h-0.2h-0.4h-0.4l-0.4,0.1
		l-0.2,0.1l-0.4,0.2l-0.6,0.4l-0.1,0.1l-0.4,0.4l-0.2,0.2l-0.4,0.2l-0.1,0.1l-0.1,0.1l-0.4,0.2l-0.1,0.1l-0.1,0.1h-0.9h0.6h-0.1
		h-0.1h-0.1h-0.1h-0.4h-0.4H769l-0.9-0.4l-0.4-0.2l-0.7-0.4l-1.3-0.6l-0.2-0.1l-0.4-0.2l-0.4-0.1l-0.1-0.1l-0.1-0.2v-0.8v-0.1
		l-0.1-0.2l-0.4-0.4l-0.4-0.4l-0.1-0.1l-0.1-0.1v-0.1l-0.1-0.2l-0.1-0.2l-0.1-0.2L763,162l-0.1-0.1l-0.4-0.1h-0.1h-0.2h-0.4h-0.4
		h-0.1h-0.2l-0.4-0.2l-2.4-1.3l-0.2-0.1l-2.2-0.4h-0.1l0,0l0,0l-0.2-0.2l-1.1-0.9l-0.2-0.1l-0.1-0.1l-0.1-0.1l-0.4-0.1h-0.6H753
		h-0.2h-0.1h-0.1l0,0h-0.2l-0.7,0.2h-0.4l-0.4,0.1h-0.2h-0.4l-0.2-0.1H750h-0.2l-0.4,0.1l-0.4,0.2h-0.4h-0.6l-0.1,0.1l-0.4,0.4
		l-0.6,0.2h-0.2v-0.1l-0.4-0.6l0.1-0.1v-0.1l-0.4-0.1l-0.2-0.2v-0.1l-0.1,0.1l-0.1,0.2l-0.1,0.1l-0.1,0.1l-0.1,0.1l-0.1,0.1L745,159
		h-0.1h-0.1l-0.4-0.1h1.2h-0.1l-0.4,0.1l-0.4,0.1h-0.4h-0.1l-0.2-0.1l-0.4-0.1l-0.1-0.1l-0.4-0.1l-0.1-0.1l-0.1-0.1l-0.1-0.2
		l-0.2-0.4l-0.1-0.1l-0.1-0.1v-0.1v-0.2v-0.1l-0.1-0.1l-0.1-0.1l-0.1-0.1l0,0l-0.2-0.2l-0.1-0.2l0,0l-0.2-0.2l-0.1-0.1l-0.1-0.1
		h-0.1l-0.4-0.2l-0.2-0.1l-0.4-0.2h-0.1H740h-0.2h-0.4h-0.2H739l-0.2-0.1l0,0h-0.1h-0.1h-0.1l-0.2-0.1l0,0l0,0l-0.1-0.1l-0.1-0.1
		h-0.1l0,0l0,0l-0.1-0.1l-0.1-0.1l-0.2-0.1l-0.8-0.2l-0.2-0.1l-0.1,0.1l-0.1,0.1l-0.1-0.1l0,0h-0.1l-0.1-0.1h-0.1v0.8l0.1-0.2h-0.1
		l-0.2-0.1l0.4-0.4h-0.1h-0.1h-0.1l-0.1-0.1l-0.2-0.1l-0.1-0.1l1.3-0.1l-0.1-0.1l-0.1-0.1l-0.1-0.1l-0.1-0.2l-0.4-0.4l-0.4-0.4
		l-0.1-0.2l-0.1,0.1l-0.2,0.1l-0.1,0.1h-0.1h-0.6h-0.8h-0.2l-0.2-0.1l-0.4-0.1l-0.4-0.1l-0.5-0.2l-0.4-0.1h-0.5l-1.1-0.4l-0.1-0.1
		l-0.1-0.1l-0.1-0.4l-0.1-0.4l-0.1-0.2l-0.5-0.4l-0.2-0.1l-0.4-0.4l-0.4-0.4l-0.4-0.4l-0.5-0.2l-0.4-0.2l0.2-0.2v-0.5l0.4-0.4
		l-0.8-0.6l-0.5-0.4l-0.8-0.4l-0.4-0.1l0,0l-0.4-0.2h-0.1l-0.4-0.1l-0.6-0.1l-1.1-0.1h0.2h-0.5l-0.7,0.1l-0.7,0.1l0,0l-0.4,0.1
		l-0.5,0.1l-0.5,0.1l0,0l-0.9-1.1v-0.4l0.1-0.2v-0.2l-0.1-0.1l-1.4-0.4l-0.1-0.1l-0.4-0.4l-0.2-0.1l-0.4-0.1l-0.4-0.1h-0.1h-0.2
		l-0.4-0.1l-0.7-0.1h-0.1l-0.4,0.1l-0.4-0.1h-0.2h0h-0.1l-0.4,0.1H712h-0.5h-0.5h-0.4l-0.5,0.1l-0.7-0.1h-0.4l0,0l-0.6,0.4l-0.1,0.1
		l-0.2,0.4l-0.1,0.2l-0.2,0.2l-0.2,0.1l0,0h-0.4h-0.1h-0.1l-0.1,0.1l-0.1,0.2l-0.1,0.1l-0.2,0.1l-0.9,0.2h-0.1l-0.4,0.1l-0.1,0.1
		h-0.4l-0.4-0.2l-0.1-0.1l-0.1-0.1l0,0l-0.4-0.2l-0.2-0.1h-0.1l-0.2-0.1l-0.6-0.2h-0.1h-0.1h-0.1l-0.1,0.1h-0.1l-0.2,0.1h-0.1h-0.4
		l-0.9-0.4l-0.1-0.1l0,0l-0.1-0.1h-0.1l-0.4-0.1l-0.4-0.1h0.6l-0.4-0.1l0,0l-0.2-0.1l0,0h-0.1l-0.2-0.1l-0.2-0.1v0.4l-0.4-0.4
		l-0.2-0.2l-1.1-0.4l-0.2-0.1l-0.2-0.2l-0.2-0.2l-0.4-0.4l-0.7-0.8l-0.4-0.5l-0.4-0.4l-0.7-0.8l-0.1-0.1l-0.4-0.4l-0.1-0.1l-0.4-0.4
		l-0.2-0.1l-0.1-0.1l-0.1-0.2v-0.2l0.1-0.1v-0.2l-0.2-0.1l-0.4-0.1l-0.2-0.1l-0.1-0.1l0,0l-0.4-0.4l-0.4-0.4l-0.5-0.8l-0.4-0.5
		l-0.4-0.8l-0.1-0.4l-0.1-0.2l-0.5-0.8v0.5l-0.2-0.4l-0.1-0.1l-0.4-0.6l-0.2-0.2l-0.8-0.6v-0.1l-0.2-0.4l-0.2-0.4v-0.1l-0.2-0.7
		l-0.1-0.4l-0.4,0.1l-0.6,0.2l0,0l-0.5,0.2l-0.5,0.2l-0.1-0.2l-0.2-0.1l-0.9-0.6l-0.1-0.1v-0.1v-0.5l0.1-0.4l0.4-0.6l-0.2-0.1
		l-0.4-0.2l-0.6-0.4l-0.8-0.2l-0.9-0.2l-0.5-0.4l-0.2-0.1l-0.2-0.1h-0.2h-0.9h-0.4h-0.4h0.8h-0.2l-0.2-0.1H678h-0.5h-0.1l-0.9-0.4
		l-0.5-0.1h-0.5l-0.4,0.1l-0.4-0.1h-0.4H674l-0.9,0.2l-0.4,0.1l-0.6-0.2l-0.4-0.2l-0.7-0.4l-0.5,0.4l-0.4,0.2l-0.4,0.2l-0.7,0.6
		l-0.2,0.1h-0.5H668l-0.9,0.1l-0.4,0.1l-0.4,0.1l-0.5,0.2l-0.6,0.2l-0.6,0.2l-0.6,0.2l-0.2,0.1l-0.5,0.1H663h-0.4H662l-0.2-0.1
		l-0.4-0.2h-0.1h-0.1H661l-0.8,0.1h-0.4l-0.5,0.1l-0.2,0.1h-0.2h-0.2l-0.4,0.1l-0.4,0.1l-0.4,0.1l-0.4,0.1l-0.2,0.1l-0.2,0.2
		l-0.2,0.1l-0.2,0.1l-0.4,0.2l-0.4,0.4h-0.1h-0.9h-0.4l-0.4-0.1h-0.1h-0.1l0,0h0.4h-0.4l0,0h-0.2h-0.2H653h-0.1h-0.1l0,0h-0.1h0.1
		h-0.1l-0.2-0.1h-0.1l-0.2-0.1l-0.5-0.2h-0.5h-0.4l-0.2-0.1h-0.7h-0.2l-0.2-0.1l-0.2-0.1l-0.4-0.2h-0.1h-0.2h-0.4l-0.2-0.2h-0.1
		l-0.2,0.1l-0.4,0.1l-0.2,0.2v0.1v0.2l0,0h-0.5l-0.9-0.2h-0.4l-0.1-0.1l-0.2-0.1l-0.2-0.1l-0.5,0.5l-0.1,0.1l-0.1,0.1l-0.1,0.2v0.2
		l-0.1,0.4l-0.1,0.4v0.1l-0.1,0.4v0.1l-0.2-0.1l-0.4-0.2l-0.2-0.1l-0.2-0.1l-0.4-0.1l-0.8-0.2l-0.6-0.1l-0.5-0.1l-0.4-0.1l-0.5-0.1
		H639l-0.2-0.1h-0.1l-0.4-0.2l0,0l-0.2-0.1h-0.1h-0.4h-0.4h0.2l0.1-0.7l-0.2,0.1l-0.5,0.2l-0.4,0.1l-0.2,0.1h-0.4h-0.4H635l0,0
		l-0.4-0.1l-0.4-0.4l-0.4-0.2l-0.4-0.4l-0.1-0.1l-0.2-0.1l-0.4-0.1l-0.4-0.1l-0.2-0.1l-0.1-0.1V126l-0.5-0.2l-0.4-0.1l-0.2-0.1h-0.2
		h-0.1h-0.4h-1.2h-0.1l-0.2-0.1l-0.4-0.2h-0.1h-0.2l-0.4,0.1h-0.4l-0.4-0.1l-0.5-0.1l-0.2-0.1l-0.4-0.2l-0.1-0.1l-0.1-0.1l-0.2-0.2
		l-0.2-0.1l-0.1-0.6v-0.2v-0.1l0.1-0.2v-0.2l-0.1-0.5v-0.6l-0.2-0.2l-0.1-0.2l-0.1-0.2l-0.4-0.5l-0.2-0.2l-0.1-0.1l-0.5-0.4
		l-0.5-0.4l-0.4-0.2l-0.4-0.4l0,0l-0.4-0.2l-0.5-0.5l-0.5-0.4l-0.5-0.4l-0.4-0.2h-0.1h-0.1H620l-0.4,0.4l-0.1,0.1h0.4l-0.1-0.1
		l-0.2-0.2l-0.2-0.1L619,117l-0.1-0.1l-0.1-0.1l-0.4-0.4l-0.2-0.1l-0.4-0.1l-0.4-0.1l-0.1-0.1l-0.1-0.1v-0.1l-0.1-0.1l-0.8,0.2
		l-1.2,0.4L615,116h-0.1l-1.2-0.2h-0.6l-0.6,0.1h0.2l-0.1-0.1l-0.5-0.2h-0.1l-0.1-0.1l-0.1-0.2l-0.1-0.1l-0.1-0.1l-0.1-0.1l-0.1-0.4
		v-0.2l-0.1-0.2v-0.2H611l-0.1-0.1l-0.5-0.4l-0.1-0.1h0.1l-0.4-0.1h-0.2l-0.4-0.1h-0.1l-0.2-0.1l-0.4-0.2l-0.2-0.1l-0.2-0.1
		l-0.4-0.1l-0.2-0.1l-0.7-0.4l-0.2-0.1h0.1h-0.2l-0.1-0.1l-0.1-0.1l-0.1-0.1h-0.1h-0.1h-0.2l-0.2-0.1l-0.1-0.1l-0.4-0.4l-0.4-0.2
		l-0.2-0.2l-0.2-0.4l-0.6-0.5l-0.4-0.4v-0.1l-0.2-0.1l-0.5-0.2l-0.6-0.4l-0.2-0.1h-0.2h-0.1h-0.4H601h-0.4l-0.5,0.1l0,0h-0.4
		l-0.5-0.2l-0.2-0.1h-0.2l-0.4-0.4l-0.2-0.1h-0.1h0.5l-0.4-0.1H598l-0.2-0.1l-0.4-0.1l-0.1-0.1l-0.1-0.1H597l-0.5-0.2l-0.2-0.1
		l-0.2-0.1l-0.2-0.1l-0.4-0.2l-0.1-0.1l-0.6-0.4l-0.2-0.1l-0.5-0.1l-0.2-0.1l-0.1-0.1l-0.1-0.1l-0.1-0.1h-0.1l-0.2-0.2l-0.2-0.1
		l-0.1-0.1l-0.4-0.7v-0.1l-0.1-0.1l-0.1-0.1l-0.1-0.1l-0.2-0.1h-0.1l-0.1-0.1l-0.4-0.2l-0.4-0.2l-0.5-0.4h-0.2l-0.9-0.2l-0.5-0.1
		h-0.4h-0.2H588h-0.4h-0.2l-0.2,0.1h-0.1l-0.8,0.1h-0.4h-0.2l-0.4-0.1l-0.4-0.1h0.8h-0.2h-0.4l-0.4,0.1h-0.2l-0.2,0.1h-0.1h-0.1
		l-0.2-0.1l-0.4-0.1h-0.1h-0.2h-0.4h-0.1l-0.4-0.1l-0.4-0.1h-0.2h-0.2v0.1l0.6,0.4l0.4,0.6v0.1l-0.1,0.4l0.1,0.4v0.2h-0.1h-0.2l0,0
		H582h-0.1l-0.1-0.1l-0.1-0.1l-0.1-0.1h-0.1l-0.2-0.1h-0.1h-0.1l-0.8-0.1H580h-0.2h-0.2l-0.4-0.1l-0.4-0.1h-0.2l-0.8-0.2l-0.4-0.1
		h-0.2h-0.1h-0.2h-0.1h-0.1h-0.2h-0.1l-0.4,0.1h-0.2l-0.4,0.1l-0.1,0.1h-0.1h-0.2h-0.2l0,0v0.1v2.6l-0.1,0.1l-0.1,0.1l-0.1,0.1
		l-0.2,0.4l-0.1,0.4l0,0l-0.1,0.1v0.4l-0.1,0.2l-0.1,0.1l-0.1,0.4v0.9l-0.1,0.1l-0.1,0.1l-0.2,0.1l0,0v0.1h-0.2h1.3l0,0l0,0h-0.1
		h-0.1h-0.1l-0.4,0.1h-0.2h-0.2l0,0h-0.6h-0.5h-0.2l-0.2-0.1l0,0l-0.8-0.4h0l-0.2-0.1l-0.7-0.1v0.2l0.2,0.4v0.1V109l0.2,0.4l0.1,0.1
		l0.2,0.1l0.1,0.1l0.1,0.1l0.4,0.2l0.1,0.4l0.2,0.4l0.2,0.4l0.1,0.2v0.8l0.1,0.1l-0.1,0.1l-0.1,0.1h-0.1h-0.1h-0.1h-0.1h-0.2
		l-0.8,0.1h-0.1l-0.4-0.4h-0.2h-0.4h-0.4h-0.1l-0.2,0.1h-0.1l-0.5-0.1l-0.6,0.2l-0.2,0.1l-0.4,0.4h-0.1h-0.6h-0.2l-0.2,0.1l-0.4,0.5
		h-0.1h-0.1h-0.9h-0.1l-0.5,0.5l-0.4,0.4l-0.2,0.6h-0.1l0,0l-0.1,0.2l0.2,0.4v0.5l0.1,0.2l-0.1,0.1l-0.1,0.1l-0.4,0.1h-0.4h-0.4
		h-0.2l-0.2-0.1h0.1h-0.4l-0.6-0.1l-0.4-0.1l-0.4,0.1l-0.2,0.1h-0.4l-0.1,0.1l-0.4,0.4l-0.2,0.1H558l-0.4-0.1l-0.1,0.1l-0.2,0.1
		l-2.2,1.8l-0.4-0.4l-0.4-0.1l-0.4-0.1l-0.4,0.1h-0.2l-0.4-0.1v0.4l-0.1,0.4v0.4l0.2,0.4v0.4l0.4,0.6l-0.9,0.5l0.5,1.3l-0.2,0.4
		h-0.1h0.1l-0.1,0.1l-0.1,0.2l-0.2,0.4l-0.2,0.2l-0.2,0.1l-0.1-0.1l-0.5,0.4l0.4,0.6l0.4,0.7l0.2,0.4l0.6,0.6l-0.2,0.1l-0.2,0.1
		l-0.8,0.2h-0.4l-0.7-0.2v0.4l-0.1,0.4l0.1,0.4l-0.1,0.4v0.8l0.1,0.4l0.1,0.4l-0.1,0.1l-0.2,0.1H550h-0.5l0,0l0,0h-0.2h0H549
		l-0.4,0.1h-0.2l-0.4,0.1h-0.1l-0.4,0.1l0,0l0,0l-0.5,0.1l-0.4,0.2h-0.4l-0.2,0.1h-0.2h-0.6l-0.4,0.2l-0.2,0.1l-0.2,0.1h0.1
		l-0.5,0.1l-0.7,0.2l-0.6,0.2h-0.2h-0.1l-0.2,0.1l-0.4,0.1h-0.2l-0.1-0.1l-0.4-0.1l0,0l-0.6-0.4l-0.4-0.1l-0.1-0.1L540,131v-0.8
		l-0.1-0.4l-0.2-0.4l-0.1-0.1l-0.1-0.1h-0.4l-0.5,0.1v-0.1l-0.1-0.4v-0.2h-0.2h-0.4h-0.1l-0.2-0.1l-0.1-0.1l-0.1-0.1l-0.1-0.1l0,0
		l-0.1-0.1H537h-0.1h-0.2h-0.2l-0.4,0.2l-0.9,0.4l-0.4,0.2h-1.5v-0.4v-0.1l-0.4-0.9l-0.2-0.4l-0.1-0.5l-0.1-0.6v-0.2l-0.1-0.4v-0.1
		v-0.1l0.6,0.2l-0.2-0.2l-0.1-0.1l-0.1-0.4l-0.2-0.4l-0.2-0.4l-0.1-0.1l-0.1-0.2l0.1-0.2l0.1-0.2l0.1-0.4v-1.6v-0.1l-0.2-0.4h-0.1
		l-0.4-0.1h-0.1l-0.2-0.1l-0.1-0.1l-0.1-0.1l-0.2-0.1l-0.2-0.1l-0.1-0.2l-0.4-0.2l-0.1-0.1l-0.2-0.1l-0.2-0.1l-0.6-0.4l-0.2-0.2
		v-0.1v-0.1v-0.1v-0.1l-0.2-0.2l-0.1-0.1h-0.1h-0.1l-0.2,0.1h-0.1h0.7h-0.2l-0.9,0.5v-0.1l0.1-0.4l0.4-0.4l0.1-0.2v-0.6v-0.1v-0.1
		h-0.4H527l0,0h-0.1l-0.1,0.1l-0.2,0.1l-0.2,0.1h-0.1H526l0,0h-0.1l0,0h-0.1h0l-0.4,0.4h-0.4l-0.4,0.1h-0.1l-0.1,0.1h-0.1l-0.2-0.2
		l-0.4-0.2l-0.4-0.1h-0.1h-0.2l-0.4,0.1h-0.1h-0.2h-0.2l0.1,0.2l-0.4,0.1h-0.2l-0.4,0.1h-0.1h-0.4h-0.2h-0.4h-0.2h-0.1h-0.1h-0.1
		l-0.4,0.1l-0.2,0.1h-0.2h-0.1l0,0h-0.1l-0.2,0.1l-0.2,0.1l-0.2,0.1h-0.1h-0.5h-0.1h-0.6h-0.1h-0.4h-0.4h-0.4h-0.2h-0.4l-0.2,0.1
		h-0.2h-0.7h-0.4h-0.2l0,0h-0.4l-0.4-0.1h-0.2h-0.2l-0.4,0.1h-0.2H511l-0.2-0.1l-0.1-0.1h-0.1h0l-0.2,0.1l-0.1,0.1h-0.1h-0.5
		l-0.4-0.1H509l-0.7,0.1h-0.1h-0.2h-0.2h-0.1l-0.4-0.1l-0.4-0.2l-0.4-0.1l-0.7-0.2l-0.2-0.1h-0.2h-0.6h-0.1h0l0,0h-0.4h-0.1
		l-0.4-0.2l-0.4-0.2l-0.6-0.2h-0.2h-0.1l-0.6,0.2h-0.1l-0.4-0.1h-0.1l-0.2,0.1l-0.2,0.2l-0.1,0.1h-0.4h-0.1l-0.1,0.1h-0.1h-0.9
		l-0.4,0.1h-0.2h0.2l-0.1-0.1l-0.2-0.1h-0.4l-0.7-0.1L497,117l-0.6-0.1h-0.4h-0.4h-0.1h-0.4h0h-0.1l-0.6,0.4l-0.5,0.2l-0.5,0.2h-0.4
		h-0.8h-0.7h-0.1l-1.1,0.4l-0.6,0.2h-0.2h-0.5h-0.1l-0.6,0.1h-0.1l-0.2,0.1l-0.1,0.1l-0.1,0.1l-0.1-0.1l-0.1-0.2l-0.4-0.4l-0.4-0.4
		l-0.1-0.1l-0.1-0.1l-0.4-0.1h-0.2l-0.2-0.1l-0.4-0.1h-0.4h-0.7h-0.1l-0.4-0.1l-0.4-0.1l-0.1-0.1l-0.1-0.2l-0.1-0.1l-0.9-0.4h-0.1
		l-0.1-0.1l-0.4-0.4l-0.5-0.4l-0.1-0.1h-0.4h-0.1l-0.4-0.2l-0.4-0.2l-0.4-0.4l-0.4-0.5l-0.1-0.2l-0.4-0.4l-0.4-0.4l-0.2-0.2
		l-0.4-0.4l0.8,0.2l-0.4-0.2l-0.1-0.1l-0.1-0.1l-0.1-0.2l-0.1-0.1l-0.1-0.1h-0.1h-0.1h0h-0.4h-0.1H477l-0.2,0.1h-0.1h-0.1h-0.1h0
		h-0.2H476h-0.1l-0.8-0.2h-0.2h-0.1l-0.2-0.4l-0.2-0.2l-0.1-0.1l-0.1-0.2v-0.1l-0.1-0.2l-0.1-0.1l-0.2-0.1l-0.1-0.1l-0.4,0.2
		l-0.4,0.2l0.7,0.7l-0.4,0.4l-0.1,0.1l0,0l-0.4,0.4l-0.9,0.6l-0.2,0.2l-0.1,0.1L471,113l-0.4,0.4l-0.5,0.4l-0.1,0.1l-0.4,0.4
		l-0.5,0.4l-0.2,0.1l-0.4,0.1h-0.2l-0.4,0.1H468l-0.4,0.6l-0.4,0.4l-0.2,0.2l-0.2,0.1l-0.4,0.4l-0.1,0.1l-0.2,0.1l-0.6,0.4l-0.4-0.4
		l-0.1-0.1l0,0l-0.2-0.1l-0.2-0.1h-0.2H464h-0.1h0.8h-0.4h-0.2l-0.4,0.1h-0.2h-0.2h-2h-0.1h-0.4h-0.4h-0.6l0,0h-0.6l-0.5-0.1
		l-0.9-0.1h-0.2l-0.6-0.1h-0.6h-0.2H456l-0.5-0.1l-0.4-0.1l-0.8-0.1l-0.6-0.1h-0.4h-0.4l-0.2-0.1h-0.5h-0.1H452h-0.2l-0.2-0.1
		l-0.5-0.1l-0.2-0.1h-0.1l-0.7,0.1h-0.2h-0.4h0h-0.1h-0.1h-0.2h-0.5h-0.2l-0.9-0.1h-0.2l-0.9,0.4l-0.4,0.1l-0.4,0.1h-0.1h-0.1h-0.1
		h-0.2l-0.5-0.2l-0.4-0.1h-0.5h-0.2L442,115v-0.1l0,0v-0.4v-0.2v-0.1v-0.1v-0.4l0.1-0.5l0.1-0.2v-0.1v-0.1l0.2-0.2v-0.1v-0.1v-0.2
		l0.1-0.1l0.1-0.4l0.2-0.2l0.1-0.4v-0.4l0.1-0.4h-0.2l-0.4,0.2l-0.2,0.1h-0.1l-0.2,0.1h-0.1h-0.1h-0.2h-0.1h-0.1h-0.2h-0.2h-0.4
		l-0.4,0.1l-0.2,0.2l-0.1,0.1l-0.1,0.1l-0.4,0.1h-0.1H439l-0.5,0.2h0.4h-0.1l-0.4-0.1l0,0l-0.4-0.1h-0.2l-0.4-0.1l-0.1-0.1l-0.2-0.1
		l-0.2-0.1l0.4-0.5l0.2-0.1l0.2-0.1l0.4-0.2l0.1-0.1v-0.2v-0.1l0.1-0.4l0.4-0.4l-0.4-0.4l-0.2-0.7l-0.1-0.1v-0.1l-0.1-0.1l-0.1-0.1
		l-0.1-0.1h-0.1v0.6l-0.1-0.1v-0.1v-0.1v-0.4l0.2-0.5l-0.4-0.2l-0.2-0.1h-0.1h-0.1l-0.1,0.1l-0.2,0.1h-0.1l-0.4-0.2l-0.2-0.2h-0.1
		l-0.2-0.1h-0.1l-0.4-0.4l-0.1-0.1l0.6,0l-0.1-0.1v-0.1v-0.1l-0.1-0.4l-0.1-0.2l-0.4-0.4l0,0h-0.2l-0.1,0.1h-0.1H434l0.1,0l-0.6-0.5
		l-0.1-0.1h-0.1h-0.2H433h-0.4H432l-0.1-0.1l-0.2-0.1l-0.1-0.1l-0.1-0.1h-0.1l-0.2,0.1H431h-0.2h-0.1h-0.2h-0.2h-0.2h-0.1l-0.6,0.1
		h-0.1H429l-0.4,0.2l-0.2,0.1h-0.1L428,104l-0.2,0.1l-0.2,0.1l-0.4,0.2v-0.1v-0.1l-0.1-0.2l-0.1-0.1v-0.1l0.1-0.4h-0.4h-0.4l0,0H426
		h-0.4h-0.4v-0.1l-0.2-0.1L425,103l-0.4-0.2l-0.1-0.1l-0.2-0.1l-0.5-0.4l-0.1-0.1l-0.4,0.2l-0.6,0.4l-0.4,0.1h-0.2h-0.4l-0.4,0.1
		l-0.2,0.1l-0.2,0.1l-0.1,0.1h-0.4l-0.2-0.1h0.9l-0.8-0.1h-0.5l-0.2-0.2v-0.1l-0.1-0.1l-0.1-0.1l-0.5-0.2h-0.1l-0.1,0.1l-0.1,0.1
		h-0.4h-0.1h-0.2h-0.1l-0.4,0.1l-0.4,0.4l-0.2,0.4l-0.1,0.4l-0.1,0.1l-0.1,0.4l-0.6,0.2h-0.1l-0.2,0.1h-0.2l-0.1,0.1l-0.1,0.1
		l-0.1,0.1h-0.4h-0.2l-0.5-0.1l-0.4,0.2l-0.2,0.2l-0.4,0.2h-0.1l-0.1,0.1l-0.2,0.4l-0.1,0.2v0.4v0.2v0.1v0.1l-0.1,0.1l-0.4,0.4h-0.1
		l-0.4,0.1l-0.5,0.4l-0.2,0.1h-0.1l-0.1,0.1l-0.1,0.1l-0.2,0.1l-0.2,0.1l-0.4,0.1h-0.1l-0.4,0.2l-0.1,0.1l-0.4,0.1l-0.2,0.1
		l-0.2,0.1l-0.1,0.1l-0.1,0.2l-0.1,0.4v0.5l-0.1,0.1l-0.4,0.1l-0.1-0.4l-0.1,0.1l-0.1,0.1l-0.1,0.1l-0.1,0.1l-0.1,0.1h-0.1h-0.4
		l0.2,0.5l0.1,0.2h-0.2l-0.4-0.1l-0.4-0.2l-0.1-0.1l-0.2-0.1l-0.1-0.1h-0.6l-0.2-0.1l-0.4-0.1h-0.2l-0.2-0.1h-0.1h-0.2h-0.5h-0.1
		h-0.2h-0.1H402h-0.1l0,0h-0.1h1.8h-0.1l-0.2,0.1h-0.1l-0.4-0.4h-0.1h-0.1l-0.4-0.1H402h-0.1l-0.1-0.1h-0.2h-0.4h0l-0.1-0.1
		l-0.2-0.1l-0.1-0.1l-0.1-0.1h-0.4l-0.2,0.1h0h-0.2h-0.2h-0.4l-0.2-0.1l-0.1-0.1h-0.1l-0.1-0.1l-0.2-0.1h-0.2l-0.1-0.1l-0.1-0.1
		l-0.2,0.1l0,0v0.1l0,0l-0.4,0.2l-0.1,0.1v0.4v0.4h-0.1l-0.4,0.1h-0.1h-0.1h-0.2h-0.1h-0.4h-0.1h-0.1l-0.1-0.1l-0.1-0.1l-0.2-0.2
		l-0.1-0.2l-0.1-0.1h-0.1l-0.2-0.1h-0.1l-0.4-0.1l-0.1-0.2l0.1-0.1l0.2-0.4v-0.8l-0.1-0.1h-0.1h-0.2h-0.2h-0.1h-0.1h-0.1H393h-0.2
		l-0.4-0.1h-0.1l-0.5-0.1h-0.2l0.1-0.1v-0.1l-0.1-0.1v-0.2l-0.1-0.4l0.1-0.4V106l-0.2-0.4l-0.1-0.2l0.1-0.5v-0.2v-0.2v-0.1l-0.1,0.1
		l0,0h-0.1H391h-0.1h-0.1l0,0h-0.2h-0.1h-0.1l-0.6,0.1l-0.2,0.1l-0.2,0.1h-0.1H389h-0.1l-0.4-0.1h-0.1h-0.1l-0.4,0.1v-0.5v-0.2
		l-0.1,0.1l-0.1,0.2l-0.1,0.1l-0.4,0.1l-0.4-0.1l-0.1-0.1v-0.4h-0.2l0,0l0,0l-0.2-0.1l0,0h-0.1l-0.2-0.1l-0.2,0.1l-0.2-0.4l0.1-0.2
		l0.1-0.2l0.1-0.4l0.4-0.4l0.1-0.4v-0.5l0.2-0.4v-0.4v-0.1V100l0.1-0.4l-0.1-0.1l-0.1-0.1l-0.1-0.2l-0.4-0.2h-0.2l-0.1-0.1l-0.2-0.1
		h-0.1h-0.4l0.1-0.2l-0.2-0.8v-0.2l0.2-0.2l0.2-0.2l-0.1-0.4l-0.2-0.4l-0.2-0.2l-0.2-0.1h-0.1h-0.2h-0.2l-0.4,0.1h1.3l0,0h-0.4h-0.4
		h-0.1l-0.5-0.1l-0.1-0.1l-0.1-0.1h-0.1H383h-0.1l0,0l-0.4,0.1l-0.2,0.1h0.1l0,0l-0.1,0.1l-0.1,0.1l0,0l-0.1,0.1l-0.2,0.1l-0.4,0.1
		h-0.2h-0.1l0,0l-0.1,0.4v0.1l-0.1,0.1h-0.1h-0.2h-0.1l-0.1-0.1l0,0l-0.1-0.1h-0.2h0.1l0,0h-0.1h-0.1h-0.1l-0.4,0.1l-0.2,0.1
		l-0.4,0.2h-0.2l-0.2-0.1l-0.5-0.1h-0.1l-0.2,0.1h-0.4h-0.2l0,0l-0.1,0.1v0.1v0.1l-0.1,0.1v0.1h-0.1l-0.1,0.1v0.2v0.4l-0.1,0.1h-0.1
		h-0.1l0,0l-0.2,0.2l-0.2,0.2h-0.1h-0.4h-0.5h-0.1h-0.1l-0.5-0.4h-0.1h0.4h-0.1h-0.2h-0.2h-0.2h-0.1l-0.2-0.2l-0.1-0.1h-0.2h-0.1
		l-0.4-0.1h-0.1l-0.4,0.1l-0.6,0.1h-0.2h-0.1l-0.4,0.1h-0.1l-0.1,0.1l-0.1,0.2L370,99l-0.1,0.1h-0.1h-0.1l-0.2-0.1h-0.1h-0.1
		l-0.2,0.2l0,0l-0.1,0.1l-0.2,0.1l-0.4,0.4l0,0l-0.1,0.2v0.1v0.1v0.4v-0.1v0.4L368,101l-0.1,0.1h-0.1h0.6l-0.2-0.1H368h-0.1
		l-0.4,0.2l-0.2,0.2h-0.1l-0.2,0.1h-0.1h-0.1l-0.4,0.1h-0.1h-0.1H366l-0.1-0.1l-0.1-0.1l0.2-0.7h-0.4h-0.4l-0.2-0.1l-0.2-0.1l0,0
		l0,0l-0.2-0.1l-0.4-0.1l-0.2,0.1h-0.1h-0.1h-0.1h-0.1h0.1l-0.4-0.2l-0.2-0.1l-0.1-0.1v-0.1v-0.4l-0.1-0.2V99v-0.1l-0.1-0.1
		l-0.1-0.1l-0.1-0.1l-0.1-0.2v-0.2l-0.1,0.1h-0.1h-0.4h-0.2l-0.2,0.1l-0.2,0.1h0.2H361h-0.2h-0.1l-0.2,0.1l-0.1,0.1l-0.1,0.2
		l-0.1,0.1l-0.2,0.1l-0.1,0.1l-0.1,0.1h-0.1l-0.2,0.1l-0.1,0.1h-0.2l-0.2,0.1l-0.4,0.2h-0.1l-0.4,0.1l-0.2,0.1l-0.4,0.4l-0.4,0.2
		h-0.2h-0.4h-0.2l-0.4,0.1l0.1,0.9l0.1,0.4l-0.1,0.4l-0.1,0.2l-0.1,0.2l-0.4,0.2v0.2l0.2,0.4v0.2l-0.2,0.4v0.2l-0.1,0.1h-0.2
		l-0.1,0.1l-0.6,0.4l-0.1,0.2l-0.2,0.4l-0.2,0.2l-0.4,0.1l-0.4,0.4l-0.2,0.1l-0.1,0.1l-0.2,0.4v0.4l-0.1,0.1l-0.1,0.1h0.9h-0.1h-0.1
		l-0.2-0.2h-0.1l-0.4-0.1l-0.2-0.1h-0.4h-0.4h-0.4h-0.1l-0.4,0.1l-0.4,0.1h-0.1h-0.1l-0.4,0.2h-0.1h-0.4h-0.2l-0.4-0.1h-0.2h-0.4
		h-0.4l-0.4,0.1h-0.1h-0.4v0.1l-0.2,0.2l-0.4-0.4l-0.2-0.2l-0.4-0.2l-0.4-0.1l-1.2-0.4l-0.2-0.1l0,0h-0.1l0,0h-0.1l0,0l-0.4-0.1
		l-0.2-0.1l-0.4-0.1l-0.4-0.2L342,106l-0.4-0.4l-0.2-0.2l-0.4-0.1l-0.6-0.4h-0.1l-0.4-0.2l-0.2-0.1l-0.5-0.4l-0.2-0.1l-0.2-0.1
		l-0.4-0.1h-0.4h-0.4h-0.4h-1.5h-0.2l-0.6-0.1l-0.5-0.1l-0.7-0.1h-0.5l-1.8,0.2h-0.4l-0.9,0.1H330v0.7l-0.4-0.1h-0.6l-0.1,0.1h-0.2
		l-0.4,0.1H328l-0.6-0.1l-0.1-0.1l-0.2-0.1l-0.2-0.1l-0.1-0.2l-0.1-0.2h-0.1l-0.4-0.1H326l-0.4,0.1h-0.1l-0.2,0.4l-0.1,0.1l-0.2,0.1
		l-0.2,0.1l-0.2,0.1h-0.1h-0.2h-0.4l-0.2-0.2l-0.2-0.2v-0.2l0,0l-0.1-0.1l-0.2-0.1h1.9h-0.1l-0.1,0.1l-0.1,0.1h-0.1h-0.1l-0.2,0.2
		l-0.1-0.2h-0.1h-0.2h0.1h-0.4h-0.2l-0.4,0.1h-0.4H322l-0.4-0.1h-0.4l-0.4-0.1h-0.1h-0.1l-0.2,0.2l-0.1,0.2l-0.1,0.1h-0.1l-0.2,0.1
		l-0.2,0.1l-0.4,0.2h-0.4v0.2l0.1,0.2l0.1,0.1v0.1l-0.4,0.2l-0.2,0.2l0.2,0.4l0.1,0.2l-0.1,0.4l0.4,0.4l0.1,0.4v0.2v0.1v0.5v0.9
		l-0.2,0.4l-0.1,0.4l-0.2,0.1h-0.2l-0.2,0.1h-0.1l-0.1,0.1l-0.1,0.1l-0.1,0.2v0.4v-0.2l-0.1,0.4l-0.2,0.1l-0.4,0.4l-0.1,0.4v-0.4
		v0.1l-0.2,0.4v0.2l-0.2,0.4l-0.1,0.1H316h-0.1h-0.2h-0.4h-0.1l-0.4,0.1l-0.1,0.1l-0.1,0.1v0.4v0.1l-0.5,0.4H314l-0.1,0.2l-0.4,0.2
		h-0.1l-0.2-0.1h-0.4h-0.1l-0.1,0.1l-0.2,0.1l-0.5,0.4l-0.4,0.1h-0.4h-0.5l-0.4-0.4h0.4h-0.4l-0.1,0.4l-0.1,0.1l-0.1,0.1h-0.1h-0.1
		l-0.1,0.1h-0.2h-0.4H309h-0.4l-0.2,0.4h-0.2H308l-0.2,0.1h-0.1l-0.2,0.1l-0.6-0.1h-0.4h-0.6l-0.4,0.1l-0.6,0.4h-0.2h-0.1h0.2h-0.6
		h-0.5h-0.4h-0.4h-0.2h-0.2l0,0l0,0h-0.1h-0.2l-0.8-0.1h-0.1l-0.2,0.1H301h-0.4l-0.4,0.1h-0.1l-0.1-0.1l-0.6-0.4l-0.1-0.1l-0.2-0.1
		l-0.1-0.1h0h-0.2h-0.6h-0.4h-0.2h-0.2h-0.2h-0.2l-0.6,0.2l-0.5,0.1l-0.5,0.1l-0.8,0.1l-0.2,0.1l-0.4,0.1l-0.4,0.2l-0.4,0.1H293
		h-0.1l-0.5,0.1l-0.5,0.2l-0.4,0.1l-0.5,0.2l-0.2,0.1h-0.2h0.1h-0.2l-0.2-0.1l-0.4-0.4l-0.1-0.1h-0.2h-0.2l0,0H289h-0.4h-0.2
		l-0.2,0.1l-0.4,0.1l-0.9,0.4l-0.5,0.1L286,118l0,0l0,0l0,0h-0.4h-0.4l0,0h-0.5l-0.8-0.1h-0.2h-0.1h-0.2H283l-0.6-0.1l-0.4-0.1l0,0
		l-0.4-0.1h-0.2h-0.4h-0.2l-0.4-0.1L280,117l-0.1-0.1h-0.1l-0.2-0.1l0,0l-0.2-0.1l0,0l-0.2-0.1h-0.2h-0.2l-0.6,0.2l-0.2-0.7h-0.4
		h-0.1l0,0H277l0,0h-0.1l-0.4-0.1l-0.4-0.1l-0.1-0.1h-0.1l0,0h-0.1l-0.1-0.1l-0.2-0.1h-0.2h0.2h-0.1l-0.4-0.2l-0.1-0.1l-0.2-0.1
		l-0.2-0.1l-0.1,0.1l-0.2,0.2l-0.2,0.1l-0.8,0.4l-0.4,0.1h-0.4L272,116h-0.1h-0.2h-0.1l0,0l-0.2-0.1h-0.1l-0.1-0.1l-0.2-0.1h-0.1
		h-0.1l-0.2,0.2l-0.1-0.1l-0.1,0.1h0.6h-0.1h-0.1l-0.2,0.1l0,0l-0.1,0.1l0,0l-0.1,0.2l-0.1,0.1l-0.1,0.1h-0.1l-0.2,0.1l0,0l-0.1,0.1
		l0,0l-0.1,0.1L269,117l-0.1,0.1h-0.1v0.1l-0.5,0.1l0,0l0.1-0.1l0,0v-0.1h-0.1H268h-0.1l-0.1,0.1l-0.1,0.1h-0.1h-0.1h-0.1h-0.1
		l0-0.1l0,0l0,0h-0.1H267h-0.1l0,0h-0.2l0,0l0,0v0.1l0,0l-0.1,0.1l-0.1,0.1l-0.1,0.1h-0.1h-0.1h0l0,0h-0.1l-0.2-0.1l-0.2-0.1
		l-0.1-0.1l-0.1-0.1v-0.1l-0.1-0.1H265l0,0h-0.1h-0.1l-0.2-0.2v-0.1l-0.1-0.1l-0.2-0.4l-0.5-0.6l-0.2-0.1l-0.4-0.2l-0.4-0.2
		l-0.4-0.4h-0.1h-0.1h-0.4H261h-0.2l-0.2,0.1l-0.2,0.1l-0.1,0.1l-0.1,0.1h-0.1l-0.9,0.1h-0.1h-0.1h-0.1h-0.1l-0.2-0.2l-0.2-0.1h-0.2
		l-0.1-0.1l-0.2-0.1l-0.2-0.1l-0.2-0.1l-0.2,0.1h-0.1l-0.1,0.1h-0.2l-0.2,0.1h-0.2h-0.1l-0.1-0.1h1.1v0.4l-0.1,0.4h-0.1h-0.2h-0.1
		h-0.1l-0.1,0.1l-0.1,0.2l0,0l-0.5,0.2l-0.2,0.1l-0.1,0.1l-0.1,0.1l-0.1,0.1l-0.1,0.2l-0.4,0.2l-0.2,0.1h-0.1h-0.2h-0.4l-0.2,0.1
		l-0.1,0.1l-0.1,0.2l-0.2,0.1l-0.1,0.1l-0.2,0.1h-0.1l-0.2,0.1l-0.2,0.1l-0.4,0.2l-0.2,0.1l-0.2,0.1l-0.4,0.2l-0.1,0.1l-0.2,0.1
		l-0.5,0.1h-0.4l-0.1,0.2v0.2v0.2v0.1l-0.1,0.2l-0.1,0.1l-0.1,0.1l-0.1,0.1v0.2h0.9h-0.2h-0.1l-0.1,0.1h-0.2h-0.1h-0.4l-0.4,0.1
		l-0.4,0.1h-0.1h-0.1h-0.1h-0.1l-0.1,0.1l-0.1,0.1l-0.2,0.2l0,0l-0.4,0.4l-0.1,0.1l-0.1,0.1l-0.4,0.2l-0.4,0.1h-0.1l-0.1,0.1
		l-0.2-0.1h-0.2h-0.1l-0.2-0.1l-0.2-0.1l-0.1-0.1l0.1-0.4v-1.1l0.1-0.2l-0.1-0.5l-0.2-0.2l0,0v-0.1v-0.1l-0.1-0.1l-0.1-0.1l-0.1-0.1
		l-0.2-0.4l-0.4-0.4v-0.1l-0.1-0.2l0.1-0.2l0.2-0.1l0.1-0.2v-0.1l-0.1-0.1l-0.2-0.1l-0.1-0.1h-0.1h-0.1l0,0l-0.2-0.4l0.1-0.2v-0.1
		l-0.1-0.1v-0.2l-0.1-0.1v-0.1l-0.1-0.1v0.2v-0.1v0.2v-0.2v-0.1l-0.4-0.1l-0.1-0.2l0.1-0.2l-0.1-0.1l-0.1-0.1h-0.1l-0.1,0.1h-0.1
		h-0.1h-0.2l0.2-0.4v-0.1l-0.1-0.1l-0.1-0.1v-0.1V114v-0.1l-0.2-0.1h-0.1l-0.1,0.1h-0.1l0,0l-0.1-0.2h-0.1h-0.2h-0.4l-0.1-0.1h-0.1
		h-0.1H239v0.2h-0.1l-0.1-0.1h-0.1l0,0v-0.1l-0.1-0.1l-0.1-0.2l-0.1-0.2l-0.1-0.1l-0.1-0.2v-0.1v-0.2V112v-0.1l-0.1-0.1l0,0
		l-0.1-0.1l0,0h-0.1l0,0l-0.1-0.1v-0.1l-0.1-0.1h1.5l-0.4,0.2h-0.1l-0.1-0.1v-0.2h-0.1h-0.1l0,0V111l-0.1-0.1l0,0l-0.4,0.1l-0.1,0.1
		l-0.1,0.1l-0.1,0.1h-0.1h-0.4h-0.2l0,0l-0.1,0.1h-0.2l-0.2-0.1l0,0l-0.1,0.1l-0.4-0.1l-0.2,0.1l-0.1-0.1l-0.1-0.1v0.1l-0.1-0.2
		l-0.1-0.2l-0.4-0.4l-0.4-0.4l0.1-0.4v-0.2l0.2-0.2v-0.1l0,0l-0.1-0.1h-0.1L234,109v-0.1v0.1l0.1-0.2l-0.2-0.1h-0.1h-0.1l-0.1-0.1
		l-0.2-0.1l-0.2-0.1h-0.1l-0.4,0.2l-0.1,0.1h-0.1l0,0l-0.2,0.4l-0.4,0.2l-0.1,0.2l-0.1,0.1h-0.2l-0.4-0.2l-0.1-0.1h-0.1l-0.4,0.1
		h-0.1l-0.2-0.1h-0.1l-0.2,0.4l-0.1,0.2l-0.1,0.1l-0.4,0.2l-0.4,0.1l-0.4,0.2l-0.1,0.1l-0.1,0.1l-0.2,0.2l0,0l-0.1,0.2l-0.1,0.1
		h-0.1l-0.4,0.1l-0.4,0.2l-0.1,0.1l-0.1,0.5v0.2v0.4l0.4,0.4v0.4l0.2,0.4l-0.2,0.2l-0.1,0.2l-0.2,0.1v0.1l0.2,0.1l0.1,0.2l0.4,0.4
		l-0.1,0.2l-0.4,0.1l-0.1,0.2l0.1,0.4v0.1h-0.2l-0.1,0.2l-0.2,0.1l-0.1,0.1l0.1,0.1v0.1l-0.1,0.1l-0.1,0.1h-0.1h-0.1l0,0h-0.2h-0.1
		l0.2,0.5l-0.1,0.1h-0.1l-0.1-0.1v-0.2h-0.1l-0.2-0.1l-0.1-0.1h-0.1h1.4l-0.1,0.1h-0.1h-0.1l-0.1,0.1l-0.1,0.1v0.4l-0.1,0.4
		l-0.1,0.4l-0.1,0.8l-0.2,0.2l-0.1,0.1l-0.2,0.2l-0.1,0.1h-0.1h-0.2l-0.1,0.1l-0.1,0.2h-0.2h0.1h-0.1h-0.1l-0.2,0.1H223h-0.1
		l-0.1-0.1l-0.1-0.1l-0.2-0.2l-0.1-0.1l-0.1-0.1L222,120l-0.2-0.1h-0.1h-0.1h-0.4h0.2l-0.1,0.1l-0.4,0.2l-0.1,0.2l-0.2,0.2l-0.1,0.1
		l-0.1,0.1v0.2l-0.1,0.4l-0.1,0.4l0,0l-0.4,0.4l-0.2,0.4l-0.1,0.1l-0.1,0.1H219h-0.1l-0.1,0.1l-0.1,0.1v0.1l-0.1,0.1l-0.1,0.1
		l-0.2,0.1l-0.2,0.2h-0.2h-0.2h-0.1l0,0l0,0l-0.4-0.2l-0.1-0.1h-0.1l-0.2,0.1h-0.1l-0.1-0.1l-0.1-0.4h-0.1H216v0.2l0.7-1.3l-0.1,0.1
		l-0.1,0.1l-0.1,0.1l-0.1,0.1h-0.4h-0.1l0,0l-0.2,0.1h-0.1l-0.4-0.1h-0.4h-0.1l-0.4-0.2l-0.1-0.1l-0.2-0.1h-0.1h-0.1l-0.1,0.1
		l-0.1,0.1h-0.1l-0.1-0.2l0,0l-0.1-0.1h-0.1h0.2l-0.2,0.1l-0.1,0.1l-0.1,0.1l-0.1,0.1l-0.1,0.2l-0.2,0.1v0.1l0.1,0.1v0.1l0.2,0.4
		l-0.2,0.2h-0.2l-0.2,0.1l-0.1,0.1l-0.1,0.1l-0.1,0.1h-0.2l-0.2,0.4v0.1l0,0l-0.2,0.1l-0.1,0.1l-0.1,0.2l-0.1,0.1l-0.1,0.2v0.1h-0.1
		l-0.1-0.1v-0.1v-0.1L210,125l-0.4-0.1l-0.1-0.1h-0.1v0.2l-0.2,0.2h0.5h-0.1l-0.1,0.1l0.1,0.2l-0.1,0.2l-0.2,0.2l-0.2,0.1v0.1v0.1
		l-0.1,0.2l-0.1,0.1l-0.1,0.1h-0.1h-0.1h-0.2H208l-0.1,0.1l-0.1,0.2l0.1,0.2v0.2l-0.1,0.1h-0.1l-0.2,0.1h-0.2l-0.2,0.1l0,0l-0.2,0.1
		l-0.1,0.1v0.2h-0.4h-0.1l-0.1,0.1v0.4v0.1l-0.2,0.1l-0.1,0.1l-0.1,0.1v0.1l-0.2,0.4v0.1l0.2,0.2l0.5,0.4h0.2l0.1,0.1l-0.2,0.4
		l-0.2,0.1v0.2h-0.1l-0.4-0.1h-0.1v0.1l0.2,0.1l0.2,0.1l-0.1,0.4l-0.1,0.1l-0.1,0.2l-0.1,0.1l-0.1,0.2l-0.1,0.1l-0.4,0.2l-0.2,0.1
		l-0.1,0.1v0.1h-0.1h0.7h-0.1l-0.1,0.1h-0.1v-0.2v-0.1h-0.1l-0.1,0.2l0.1,0.2l-0.1,0.2v0.2l-0.1,0.1l-0.2,0.2l-0.1,0.1l-0.1,0.1v0.2
		l-0.2,0.2l0.1,0.4l-0.4,0.2h-0.1H203l-0.1-0.2l-0.1-0.1h-0.1l-0.2,0.1l0,0v0.2l-0.1,0.1h0.2h-0.2l-0.1,0.1l-0.1,0.2v0.1l-0.1,0.1
		h-0.1l-0.1,0.1l-0.1,0.1l0.1,0.1v0.1h-0.1l-0.4,0.1l-0.1,0.2l0,0h-0.1l-0.1-0.1h-0.2h-0.1l-0.2,0.1h-0.1h-0.1l-0.1,0.1l-0.1,0.1
		l-0.1,0.1v0.1v0.1h-0.1h-0.1l-0.2-0.1h-0.1l-0.2,0.1l-0.2,0.1l-0.2,0.1h0.6l-0.1,0.1l-0.2,0.1v0.2v-2.6v0.1h-0.1l-0.1-0.1h-0.2
		l-0.1,0.1l-0.1,0.2l-0.4,0.1l-0.4,0.2h-0.2l-0.2,0.1v0.1l-0.1,0.1l-0.2,0.1l-0.1,0.1l0.4-0.1h-0.1l-0.6-0.1l-0.1-0.2l0.1-0.2
		l0.1-0.4l-0.1-0.1h-0.1h-0.4h-0.1l-0.2,0.1h-0.1h-0.1l-0.1-0.1l-0.1-0.1V136v-0.2l-0.6,1.2l0.1-0.4v-0.1l-0.4-0.1h-0.1l-0.1-0.1
		l-0.4-0.4l-0.2-0.1l-0.2-0.2l-0.1-0.1h-0.2h-0.1l-0.2,0.1h-0.2l-0.1-0.2l-0.1-0.1h0.4h-0.2l-0.2-0.1l-0.4,0.1h-0.1V135v-0.1h-0.1
		l-0.1-0.1l-0.2-0.1l-0.1-0.1h-0.1h-0.1l-0.2,0.1h-0.1h-0.1h-0.1l-0.1-0.1v-0.1l-0.1-0.1l0.2,0.6l-0.2-0.1h-0.2l-0.1-0.1l-0.2-0.1
		l-0.1-0.1v-0.2l-0.2-0.1l-0.2-0.2l-0.1-0.1l-0.1-0.1l-0.1-0.2l-0.2-0.1l-0.4-0.4l-0.1-0.1l-0.1,0.1l-0.2,0.1v0.1l0.1,0.5l-0.4,0.2
		v0.2l-0.4,0.4l-0.1,0.1l-0.1,0.4l-0.1,0.1h-0.1h0.4l-0.2,0.1l-0.4,0.1v0.2l-0.1,0.1l-0.1,0.1v0.2l-0.1,0.1l-0.1,0.2l-0.1,0.1
		l-0.1,0.1h0.1h-0.2l0,0l-0.1,0.2l-0.1,0.1l-0.1,0.1l-0.1,0.1v0.1v0.2l-0.1,0.1l-0.4,0.1l-0.1,0.1l-0.4,0.4l-0.1,0.2l-0.1,0.1H183
		h-0.2l-0.2,0.1v0.1v0.4h-0.2h-0.1l-0.1,0.2l-0.1,0.1v0.1l-0.1,0.2l-0.1,0.2l-0.1,0.1v0.1h-0.1l-0.2-0.2l-0.1-0.2v-0.4l-0.1-0.2
		l0.1-0.4v-0.1h0.4h-0.1H181h-0.1l-0.2-0.1h-0.1l-0.2,0.1l-0.2-0.1h-0.1l-0.2,0.2l-0.4,0.1v0.1v0.2l-0.1,0.2v0.4v0.1l-0.2,0.2h0.1
		H179l-0.1,0.1l-0.1,0.1v0.1l-0.1,0.1v0.1l-0.1,0.1l0.1,0.2v0.1h-0.1h-0.2l-0.1,0.1v0.1l-0.1,0.1h-0.1h-0.1h-0.2l-0.1-0.1v-0.2h-0.1
		h-0.1l-0.1-0.1H177l-0.2,0.2l-0.1,0.1h-0.1h-0.1h0.4l-0.1,0.2h-0.1h-0.1h-0.1l-0.2-0.1h-0.1l-0.2,0.1l-0.1,0.4l0.2,0.1l-0.1,0.4
		l-0.1,0.1h-0.1l-0.2-0.1h-0.1l-0.1,0.1l-0.1,0.2l-0.2,0.2v0.2l0.2,0.4v0.1l0,0l-0.2,0.1l-0.1,0.1l0,0h-0.1h-0.1l-0.1-0.1l-0.1-0.1
		l-0.1-0.1v-0.2l-0.1-0.1l-0.1-0.1l-0.2-0.1l-0.1-0.1l-0.1-0.4v-0.1l0,0l-0.4-0.1h-0.1l-0.2,0.1h-0.1h-0.1l-0.1-0.1l-0.1-0.1h-0.1
		l-0.4,0.1h-0.1l-0.1,0.1l-0.1,0.1l-0.1,0.1L171,143v0.1v0.1h-0.1h-0.2l-0.4,0.2v0.1l0.1,0.1v0.1l-0.1,0.1v0.2l-0.1,0.2v0.4H170
		h-0.4h-0.1v0.2v-0.7l-0.2,0.2v0.2v0.1l0.1,0.1l0.2,0.1l0.1,0.1l-0.1,0.4l-0.2,0.2l-0.2,0.1l-0.1,0.1l0.2,0.4l0.2,0.2l0.1,0.4
		l-0.2,0.2l0.2,0.4v0.2l-0.1,0.5l-0.2,0.2l0.1,0.4l0.4,0.1v0.1l1.1-0.1l0.1,0.2l-0.1,0.2l0.1,0.2l0.4,0.1l0.7,0.2l0.1,0.2l-0.1,0.4
		v0.2l0.4,0.4v0.2l-0.2,0.4l-0.1,0.1v0.4l-0.4,0.2l-0.2,0.5l-0.1,0.2l-0.2,0.2l-0.4,0.1l-0.4,0.1l-0.2,0.2l-0.2,0.8l-0.1,0.2v0.4
		l-0.1,0.1l-0.1,0.2l0.1,0.4l-0.4,0.4l-0.2,0.1l-0.1,0.1l-0.1,0.2l-0.1,0.1l-0.1,0.1l-0.1,0.1l-0.1,0.1v0.1l-0.1,0.1l-0.2,0.1
		l-0.1,0.2l-0.1,0.1h-0.4h-0.2l-0.2,0.1l-0.5,0.2l-0.4,0.4l-0.1,0.1l-0.1,0.1l-0.2,0.1h-0.2h-0.4l-0.4,0.1l-0.5,0.1l0.7-0.2
		l-0.5,0.1l-0.1,0.1v0.4l-0.2,0.2v0.4l0.1,0.4l-0.1,0.2l-0.6,0.2l0,0h-0.1h0.4l-0.2-0.2h-0.4l-0.2-0.1h-0.1h-0.1l-0.2-0.1h0.1
		l-0.2,0.1h-0.1h-0.1l-0.2-0.1h-0.1h-0.1l-0.4,0.1l-0.2,0.1L161,161v0.1v0.4v0.1l-0.5,0.5l0.2,0.2v0.1l-0.1,0.1l-0.4,0.2l-0.1,0.1
		v0.1l0.2,0.2l0.1,0.2v0.1l-0.1,0.1v0.2l-0.1,0.1h0h-0.1l-0.2-0.1h-0.2h-0.2l-0.2,0.1H159h-0.2h-0.1l-0.2,0.1h-0.2H158l0,0v0.2v0.2
		h-0.1l-0.2,0.1l0.2-1.6l-0.4,0.1v0.1v0.2l-0.2,0.1H157h-0.2l-0.1,0.1l-0.1,0.1v0.1l-0.1,0.2l-0.1,0.1l-0.1,0.1v0.1v0.4l-0.1,0.2
		l-0.1,0.1l-0.2,0.1l-0.2,0.1h-0.1h0.2l-0.1-0.2l-0.2-0.1L155,165l-0.1-0.1h-0.1l-0.4,0.1H154h-0.2l-0.1-0.1l-0.4-0.7l0,0h-0.1h-0.4
		l-0.2-0.1h-0.1l-0.2,0.2H152h-0.2h0.2h-0.1h-0.2l-0.2,0.1h-0.1l-0.2-0.1l-0.4,0.1h-0.1l-0.2-0.2l-0.1-0.1h-0.1l-0.4,0.1l-0.4-0.1
		l-0.2,0.1l-0.2,0.1l-0.1,0.1l-0.1,0.1h-0.2l-0.4,0.1h0.4l-0.2-0.1h-0.1H148v0.1l-0.1,0.1l-0.1,0.2l-0.1,0.4l-0.4,0.2h0l-0.1,0.1
		v0.2v0.1l-0.2,0.1l-0.2,0.1l-0.1,0.1v0.1v0.2l-0.1,0.1l0,0h-0.1l-0.5-0.1h-0.1l-0.1,0.1l-0.1,0.1v0.2l-0.1,0.2v0.2l-0.1,0.1
		l-0.2,0.2l-0.1,0.2l-0.2,0.1l-0.2,0.1l-0.2,0.1v0.2l-0.1,0.2v0.1l0.2,0.2l-0.1,0.1v0.2l-0.4,0.2l-0.1,0.1v0.1l0,0l-0.1,0.1
		l-0.2,0.1l0,0l-0.2,0.1l-0.1,0.1l-0.1,0.4l-0.1,0.1l-0.1,0.1l-0.4,0.1l-0.4-0.1l-0.4,0.2v0.1h-0.2l-0.4,0.4v0.2l-0.2,0.1h-0.2h0.8
		l0.1,0.4v0.1l-0.1,0.1h-0.1H141h-0.1l-0.1,0.1v0.1l-0.1,0.1v0.2l-0.2,0.2l-0.1,0.1l0,0l-0.1,0.1l-0.1,0.4v0.1l-0.1,0.1l-0.1,0.1
		l-0.2,0.2l-0.1,0.2l0.1,0.4h0.2l0.1,0.1l-0.1,0.1h-0.1l-0.1-0.1l-0.2,0.1l-0.1,0.2l0.1,0.2v0.1l-0.2,0.1l-0.1,0.1l-0.1,0.2
		l-0.1,0.1l-0.2,0.2h-0.2h-0.1h-0.4l-0.2,0.4l0.2,0.4v0.1l-0.2,0.1l-0.1,0.2l-0.1,0.2h-0.2l-0.2,0.4l-0.4,0.1l-0.2,0.2h-0.1
		l-0.1,0.1v0.2l-0.1,0.1v0.1v0.1l-0.4,0.2l0.1,0.4l-0.1,0.1h-0.1l0,0v-0.2l-0.1-0.1l-0.1-0.1l-0.2-0.1h-0.1l-0.2,0.1h0.9l-0.2-0.1
		l-0.1-0.1h-0.1H135l-0.1,0.1l-0.1,0.1h-0.1h-0.2h0l-0.1,0.1h-0.1h-0.1l-0.2-0.1h-0.1l-0.1,0.1l-0.1,0.1h-0.1h-0.1h0H133l-0.2,0.1
		h-0.1l-0.4-0.1h-0.1h-0.1l-0.4,0.1l-0.1,0.2l-0.2,0.6l-0.4,0.2l-0.2,0.2v0.2h-0.1h-0.2h-0.2l-0.1,0.1l-0.1,0.2h-0.1h-0.1l-0.4-0.1
		h-0.1H129h-0.4h-0.4l-0.4,0.1l0.1,0.1l-0.1,0.2l-0.4,0.4h-0.1h-0.1h-0.2l-0.4,0.2h0.6l0,0l-0.4-0.2l-0.1-0.1h-0.2h-0.1l-0.2-0.1
		h-0.1l-0.2-0.1h-0.1l-0.4-0.1h-0.1l-0.1,0.1L125,183l0,0v-0.1l-0.2-0.4v-2.9l-0.1-0.1l-0.1-0.1h-0.1h-0.1l-0.1,0.1h-0.1l-0.2-0.2
		V179l-0.1-0.1l-0.1-0.1v-0.4l-0.1-0.1h-0.2l-0.4-0.1l-0.2,0.1l-0.2-0.1l-0.1-0.1l-0.1-0.1v-0.2l0.1-0.2l-0.1-0.2V177v-0.4l-0.1-0.1
		v-0.4l-0.2-0.1l-0.1-0.1l-0.2-0.2v-0.1v-0.1l0,0l0,0v-0.2l-0.1-0.1l-0.1-0.2l-0.1-0.1v-0.2l0.1-0.1v-0.1l-0.2-0.1l-0.1-0.1l0,0h0.6
		l-0.5-0.2h-0.2l-0.1-0.1l0.1-0.4l-0.1-0.1l-0.4-0.2v-0.1v-0.1v0.9l-0.4-0.1l-0.2-0.1l-0.1-0.1l0.1-0.2l-0.1-0.1l-0.4-0.1h-0.1
		l-0.4-0.4l0,0h-0.1l0,0l0,0l-0.1-0.1l-0.2-0.1l-0.1-0.1l0,0l-0.4-0.1l-0.2,0.1h-0.4h-0.1H117h-0.1l-0.2,0.1h-0.1l-0.2-0.1L116,172
		l-0.2-0.1h-0.1l-0.2,0.1v-0.2l0.1-0.2v-0.2l-0.1-0.1l-0.4-0.1h-0.1l0.7,0.2l-0.1-0.1l-0.1-0.1V171l-0.1-0.4v-0.1l-0.1-0.1h-0.2
		h-0.1l-0.1-0.1l0,0v-0.1V170l-0.1-0.1l0,0v-0.4l-0.1-0.1l-0.1-0.2v-0.6l0.1-0.1l0.2-0.2l0.1-0.1h0.2l0.1-0.1l-0.1-0.1v-0.2v-0.1
		l-0.1-0.1l-0.1-0.1h-0.2l-0.2-0.1v-0.1l-0.1-0.1v-0.1l-0.1-0.1v-0.1l0.2-0.1h0.2l0.5-0.1l0.2,0.1h0.1l0.2-0.1v-0.1l0,0l-0.1-0.1
		v-0.4l0.1-0.1l0.1-0.1v-0.1l-0.1-0.1h0h-0.1l-0.1,0.1l-0.2,0.1H115l-0.1-0.1h-0.1l-0.2,0.1h-0.1l-0.1-0.1l-0.1-0.1v-0.2l-0.1-0.1
		v-0.1l-0.1-0.1h-0.2l-0.2-0.1h-0.1h-0.1l-0.1,0.2L113,165h-0.1l-0.2-0.1h-0.1h-0.4h-0.1L112,165l-0.1,0.1h-0.1l-0.5,0.1h-0.1
		l-0.4,0.2h-0.1l-0.2-0.1h-0.1l-0.4,0.2l-0.2,0.1h-0.4l-0.6-0.1h-0.4l-0.2,0.1l-0.1,0.1l-0.1,0.1l-0.8,0.4l-0.4,0.1l-0.2,0.1
		l-0.1,0.1l-0.1,0.1v0.4v0.1l-0.1,0.1l-0.4,0.4l-0.5,0.6l-0.4,0.1l-0.1,0.1v0.1l-0.1,0.4v0.4v0.1l-0.1,0.1l-0.2,0.1h-0.2l-0.4-0.1
		h1.2l-0.2,0.1l-0.1,0.1l-0.1,0.1l-0.2,0.1l-0.7,0.1h-0.4l-0.4-0.1h-0.2h-0.4l-0.2,0.1l-0.2,0.1h-0.1h-0.1l-0.4-0.1H101l-0.4,0.1
		l-0.4-0.1H100l-0.4,0.2l-0.4,0.1l-0.4-0.1l0.2,0.1l0.2,0.4l0.1,0.1v0.2l-0.1,0.1v0.1l-0.1,0.1l-0.2,0.1l-0.1,0.1l-0.1,0.2l-0.4,0.1
		l-0.2,0.1l-0.2,0.2l-0.2,0.1l-0.2,0.2l-0.1,0.1H97l0.2,0.2l0.2,0.4l-0.1,0.4v1.3l0.1,0.4l-0.2,0.6v0.4l0.2,0.2l0.1,0.1v0.2l0.1,0.2
		l0.4,0.4v0.5l0.1,0.1l0.2,0.1l0.1,0.2v0.5l0.2,0.4v0.4l0.1,0.2l0.5,0.4l0.4,0.6l0.1,0.4l-0.1,0.1l0,0l0,0l0,0v0.1l0,0l0,0l0,0h-0.1
		l0,0l0,0l0,0l0,0l0,0l0,0l0,0l0,0l0,0l0,0l0,0l0,0l-0.1,0.1l-0.1,0.1l-0.1,0.1l-0.1,0.1H99h-0.1h-0.1l-0.2,0.1v0.1l0,0l0,0v0.1
		h-0.1l-0.2,0.2l-0.1,0.1v0.1l-0.1,0.2l-0.2,0.4l-0.1,0.4v0.1l-0.1,0.1l-0.2,0.1l-0.4,0.1h-0.2l-0.2,0.1h-0.2l-0.1,0.1H96l-0.1,0.1
		l-0.1,0.1l-0.1,0.1l-0.1,0.1l-0.2,0.1l-0.4,0.4v0.2l-0.1,0.4h-0.1h-0.1h1.1l0,0h-0.1l-0.1,0.1l-0.4,0.4l-0.2,0.1l-0.1,0.1l-0.2,0.1
		l0,0l0,0l0,0h0l0,0h0.1l0,0h-0.1h-0.1h-0.1l-0.1,0.1l-0.1,0.1l-0.1,0.1v0.1l-0.1,0.2l0.1-0.4v0.2h-0.1v-0.1l0,0v0.4l0.1,0.1v0.4
		l-0.1,0.1v0.1l-0.1,0.2h0.1l0.2-0.1l0.1,0.1v0.2L94,189l-0.4,0.4h-0.1l-0.2,0.1l-0.2,0.1h-0.2h-0.2l-0.1,0.1l0.1,0.2v0.1v0.1
		l0.1,0.1l-0.2,0.1l-0.1,0.1v0.1l0.1,0.1l0.1,0.2h0.1l0,0l-0.1,0.2h0.1l0,0h-0.1h-0.1l-0.1,0.1h-0.2h-0.2h-0.1v0.1l-0.1,0.1h-0.1
		l-0.4,0.1l-0.2,0.1h-0.4h-0.1l-0.1,0.1l-0.2,0.1l-0.1,0.1v0.1v0.1l-0.1,0.1v0.1l-0.1,0.2l-0.2,0.4l-0.2,0.1h-0.1l-0.4,0.1h-0.2
		l-0.1,0.1v0.1v0.1l-0.1,0.1v0.1v0.1v0.4v0.1l-0.1,0.1l-0.1,0.2h-0.2h-0.4l-0.2,0.1v0.1h-0.1l-0.1,0.1l-0.1,0.2v0.1h-0.1l0,0l0,0
		l-0.1,0.1h-0.1h-0.1l-0.1-0.1l-0.4,0.1v0.1v0.1l0,0v0.2l0.1,0.2v0.1l-0.1,0.1l-0.1,0.1l-0.2,0.1l-0.2,0.1l-0.2,0.2v0.1l0.1,0.1v0.2
		l-0.2,0.1h1.2h-0.1H86l-0.1,0.1l-0.4,0.2l-0.1-0.2l-0.1-0.1l-0.1-0.1l0,0l-0.4-0.2h-0.1h-0.1l0,0l-0.1,0.1l-0.2,0.1H84h-0.1h-0.1
		h-0.1h-0.2l-0.4,0.1h-0.1l-0.1-0.1h-0.1v-0.1l-0.1-0.1l-0.1-0.1l-0.1-0.1h-0.1l-0.1-0.1H82h-0.1h-0.1h-0.2l-0.2,0.2H81h-0.1v0.2
		v0.1h-0.1l0.7-2.9l0,0l0,0h-0.1l-0.1-0.1H81l-0.1,0.1h-0.1l-0.2-0.1h-0.1h-0.1h0l-0.1-0.4l-0.2-0.2V194l0,0l-0.1-0.1l-0.2-0.1l0,0
		l-0.1-0.1l-0.1-0.1h-0.1h-0.1l0,0.1v-0.2v-0.2v-0.1l0.1-0.1v-0.1v-0.1l-0.1-0.1l-0.1-0.1l-0.1,0.1l0,0h-0.1h-0.1l-0.4,0.1h-0.1l0,0
		l0,0H78v0.1l-0.4,0.1l-0.4,0.1H77h-0.1h-0.1l-0.1,0.1l-0.2,0.1h-0.1l-0.1,0.1l-0.1,0.1l-0.1,0.2l-0.1,0.1l-0.1,0.1h-0.1h-0.1h-0.2
		h-0.1l-0.2,0.2h-0.1h-0.2h-0.1l-0.1,0.1h-0.1h-0.1h-0.2h-0.4h-0.2l-0.1-0.1l-0.1-0.1h-0.1h-0.1h-0.1l-0.4,0.1l-0.4,0.1l-0.2,0.1
		l-0.1,0.1h-0.1h-0.1l-0.4,0.2h1.1l0,0H72h-0.1l-0.4-0.1h-0.4h-0.1h-0.4l-0.1,0.1l-0.2,0.2l-0.1,0.1l-0.4-0.1l-0.7-0.1l-0.4-0.1
		h-0.2h-0.1h-0.4l-0.1-0.1l-0.7,0.1h-0.5l-0.4-0.1h-0.4l-0.4-0.1h-0.1h-0.5h-0.4h-0.1h0.4h-0.1h-0.1l-0.4,0.1h-0.2l-0.4,0.2l0-0.1
		l-0.4,0.2v0.1l-0.1,0.1l0,0l-0.2-0.1h-0.2v-0.1h-0.1h-0.1l-0.2-0.1h-0.2l-0.1-0.1H62l-0.1-0.1h-0.1h-0.1l-0.2-0.1h-0.1l-0.6,0.1
		l-0.1,0.1l0,0h-0.2h-0.1l0.5-0.2h-0.2l-0.4,0.1h-0.2h-0.1h0.6l-0.2-0.1h-0.2h-0.1l-0.1,0.1l0,0l0.2,0.2l0,0h-0.4h-0.4l0,0l0.1,0.1
		h0.1h0.1l0,0h-0.1h-0.1h-0.1h-0.1h0.1h-0.1l-0.1,0.1h-0.2l0,0l0.1-0.2l0,0l-0.1,0.2l-0.2,0.1v0.1l0.1,0.1h0.1h0.1h-0.1l-0.1,0.1
		l0,0h-0.1h-0.2H58h0h-0.1l0,0l0.1-0.1v-0.1l-0.1,0.1l-0.2,0.1l-0.4,0.1h-0.2h-0.1h-0.1h-0.4h-0.4l-0.4-0.1l-0.4-0.1l-0.1,0.1
		l-0.1,0.1l-0.1,0.1L55,196h-0.1h-0.1l-0.1,0.1l0,0l0,0l0,0l-0.4-0.1h0.2h-0.1l-0.1,0.1l-0.2,0.1h-0.2h-0.1V196v-0.1v-0.1v-0.1
		l-0.1-0.1v-0.1l-0.1-0.1l0,0l0.1-0.1l0,0l0,0l0,0h-0.1h-0.1h-0.1l-0.1-0.1L53,195h-0.1h-0.2l-0.4-0.1l-0.2-0.1l-0.4-0.2l-0.1-0.1
		h-0.1l-0.1-0.1h-0.1l-0.1-0.1L51,194v-0.1v-0.2v-0.1v-0.1l0,0v0.2l0,0h-0.1l0,0l0,0v-0.1v-0.1h-0.1h-0.1h-0.1h-0.1l0,0l0.1-0.1l0,0
		l0,0h-0.1l0,0v-0.1v-0.1V193l-0.1-0.1l0.1-0.1H51l0.1-0.1l0,0l-0.1,0.1h-0.1l-0.1-0.1v-0.2l0,0l-0.1-0.1l0.1-0.1V192v-0.1l0,0
		l0.2-0.1l0.4-0.4v-0.1l0.4-0.1l0.1,0.1h0.1v-0.1l0,0H52h0.1l0.1-0.1h0.2l0,0h-0.1h-0.2V191l0.9-0.9l-0.1-0.1l-0.1-0.1l-0.1-0.1
		l-0.5-0.4l-0.7-0.1l-0.5-0.2l-0.1-0.1l-0.1-0.1v-0.1l0.1-0.2v-0.2l-0.2-0.1l-0.2-0.1h-0.2l-0.2-0.1h-0.1l-0.1,0.1l-0.2,0.1
		l-0.4,0.1l-0.8,0.1l-0.5,0.1l-0.4,0.1h-0.1l-0.2,0.2l-0.9,0.4l-0.4,0.4l-0.7,0.5l-0.6,0.4l-0.5,0.2l-0.2,0.2l-0.1,0.1l-0.4,0.2
		l-0.5,0.4l-0.2,0.1l-0.2,0.2l-0.4,0.4l-0.4,0.2l-0.1,0.1l-0.1,0.1l-0.4,0.2l-0.4,0.1l-0.2,0.1l-0.2,0.1l-0.2,0.1H40h-0.4l-0.4,0.1
		h-0.1l-0.2-0.1h-0.1l-0.4,0.1h-0.1h0.8l-0.2-0.1h-0.1h-0.1h-0.1h-0.2v-0.1l0,0h-0.2l-0.2-0.1l-0.2-0.1h-0.1l-0.1-0.1l-0.4-0.1h-0.2
		h-0.4h-0.2l-0.1,0.1H36h-0.2l-0.1-0.1l-0.1-0.2l-0.2-0.1h-0.2h0.6l0,0h-0.1l-0.2-0.2l-0.1-0.1l-0.1-0.1H35l0,0v-0.1l-0.1-0.1
		l-0.1-0.1l-0.1-0.2l-0.1-0.1l-0.1-0.1l-0.1-0.1l-0.1-0.1l0,0l0,0l0,0l-0.2-0.2l-0.1-0.1h-0.1h-0.1h-0.1h-0.1h-0.1h-0.1h0.2l0,0
		h-0.1h-0.1H33h-0.1l-0.1,0.1l-0.1,0.1l-0.1,0.1l-0.1,0.1h-0.1h-0.1h0l0,0H32h-0.1l-0.4-0.1h-0.1l-0.2-0.1h-0.1l-0.2-0.1h-0.2l0,0
		h-0.1h-0.1l-0.1,0.1l-0.2,0.1h-0.1h-0.4h-0.4l-0.6,0.1l0,0h-0.1l-0.4,0.1H28l-0.9,0.5l-0.2,0.1l-0.6,0.1l-0.4,0.1l-0.2,0.1h-0.1
		h-0.2l-0.4,0.1l-0.4,0.1h0.5l0,0h-0.2l-0.6,0.1H24h-0.1l-0.4,0.1h-0.1h-0.2l-0.1,0.1l-0.1,0.1h-0.1l-0.6,0.4h-0.1l-0.5,0.2
		l-0.1,0.2v0.1l0.7,0.8v0.1l-0.1,0.6l0.1,0.8v0.2l-0.1,0.4v0.1v0.1L22,197l-0.1,0.1l-0.4,0.4l0,0l-0.1,0.1l-0.9,0.6l-0.1,0.1
		l-0.1,0.2l-0.1,0.4v0.1v0.2v0.4v0.2v0.1v0.4v0.1l-0.2,0.4l0,0l-0.1,0.2l-0.2,0.2v0.1v0.4h-0.4h-0.1h-0.4l-0.1,0.1l-0.4,0.2
		l-0.1,0.1v0.1v0.1v0.1l-0.1,0.2l0.4-0.6l0,0l-0.1,0.1v0.1l-0.1,0.1v0.1l-0.2,0.1l-0.1,0.1l-0.2,0.2l-0.1,0.1h-0.1l0,0l-0.1,0.1
		l-0.1,0.2l-0.1,0.1l-0.2,0.1l-0.1,0.1h-0.1l0,0h0.4l-0.6-0.4l-0.4-0.1l-0.2-0.1h-0.2h-0.2h-0.1l-0.2,0.2l-0.2,0.1h-0.8h-0.1
		l-0.1,0.1l-0.1,0.1l-0.1,0.2l-0.1,0.2h-0.1H13l-0.4-0.1l-0.4-0.1h-0.4h-0.1h-0.1l-0.1-0.1l0.6-0.9l-0.4-0.4l-0.4-0.2h-0.1l-0.1-0.1
		l-0.1-0.2L11,202"/>
</g>
</svg>
