<?xml version="1.0" encoding="utf-8"?>
<!-- Generator: Adobe Illustrator 17.1.0, SVG Export Plug-In . SVG Version: 6.00 Build 0)  -->
<!DOCTYPE svg PUBLIC "-//W3C//DTD SVG 1.1//EN" "http://www.w3.org/Graphics/SVG/1.1/DTD/svg11.dtd">
<svg version="1.1" id="Layer_1" xmlns="http://www.w3.org/2000/svg" xmlns:xlink="http://www.w3.org/1999/xlink" x="0px" y="0px"
	 viewBox="0 0 900 300" enable-background="new 0 0 900 300" xml:space="preserve">
<g>
	<path fill="none" stroke="#C3B264" d="M899.7,35.5l-0.2,0.2l-0.7,0.4l-1.2,0.8l-0.8,0.2h-1l-1.5-0.3l-0.8-0.1H893l-0.7,0.1
		l-0.8,0.1l-1.2,0.3l-0.5,0.2l-0.7,0.4l-1.1,0.6l-0.8,0.8l-0.3,0.3l-0.3,0.3l-0.7,0.7l-0.4,0.5l-0.2,0.3l-0.1,0.9l-0.3,1.1l-0.4,0.9
		v0.1l-0.1,0.3l-0.3,0.9l-0.4,1v0.7l0.3,0.7l0.8,1.2l0.3,2.1l-0.2,0.5l-1.5,1l-1.2,1.4l-0.3,0.2l-0.3,0.1l-2.1,0.5h-0.2l-2.2,1
		l-1.3,0.5l-0.4,0.3l-0.7,1.4l-0.2,0.5l-0.5,0.8l-0.1,0.2l-0.5,1l-0.1,0.1l-0.5,1.2l-0.1,0.6v-0.1l-0.3,0.6l-0.3,0.3l-1.1,0.9
		l-1.7,1.2l-1.1,0.8l-0.6,0.6l-0.6,0.2l-1.3,0.5l-2.1,0.6l-0.4,0.2l-0.1,0.1l-1.2,0.8l-1,0.5l-0.7,0.3L860,70l-0.2,0.3l-0.2,0.5
		L859,71l-0.3,0.1l0.3,0.7V72l-0.1,0.3l-0.2,0.2v0.3l0.3,0.9l-0.1,1.3v1.1l-0.2,0.4l-0.6,0.5l-0.2,0.4l-0.4,1.3l-0.8,1l-0.8,1
		l-1.1,0.7l-0.2,0.4v0.4v0.6l-0.3,0.4l-0.3,0.3l-0.3,0.2l-1.2,0.4l-0.2,0.2l-0.2,0.2l-0.2,0.7l-0.2,0.5v0.2v0.9l-0.3,0.7l-1,1.5
		l-1.1,1l-0.7,0.8v0.1l-0.4,0.6l-1,1.4l-0.3,0.4l-1.1,1l-1.2,0.7l-1,0.8l-1.3,0.9l-0.7,0.7l-0.2,0.2l-0.8,1.5v0.3l0.4,0.7v0.5
		l-0.1,0.7l-0.7,1.7l-0.2,0.3l-0.5,0.4l-0.2,0.2l-0.5,1.5l-0.2,2.2l-0.5,1.5l-0.2,1.3l-0.9,2.6l-0.2,0.4l-2,1.7l-0.5,0.7l-0.8,0.8
		l-0.5,0.7l-0.3,0.4l-0.2,0.2l-0.4,0.1l-0.9,0.1l-1.1,0.5l-0.5,0.3l-0.2,0.3l-1.3,3.1l-0.3,0.2l-0.4,0.2h-1.8h-1.9h-4.3H819
		l-0.4,0.2l-1.2,1.3l-0.9,0.6l-1.7,0.5l-1.8,1.1l-2.3,1.3l-0.2,0.1l-2,1.3l-0.1,0.3H808l-1,0.1l-0.6-0.1l-0.5-0.1l-1.8-0.7l-0.5-0.1
		h-1l-1.2-0.1l-4.3,0l0.1,0.5v0.5l-0.4,1.1l0.3,1.1l2.2,1.9l0.1,0.5l-0.1,0.4l-0.2,0.5l-0.7,0.9l-0.4,0.8l-0.5,0.6l-0.5,0.5
		l-0.6,0.3l-1.8,0.6l-2.3,0.5l-0.8,0.3l-0.5,0.4l-0.2,0.3l-0.3,0.7l-0.5,0.6l-0.2,0.1l-2.8,1.2l-0.7,0.5l-0.3,0.4l-0.3,0.3l-0.7,0.5
		l-0.3,0.1H784l-1.1-0.1l-0.3,0.1l-0.3,0.2l-0.2,0.2l-0.2,0.3l-0.1,1.7l-0.2,0.4l-0.4,0.3l-1.1,0.4h-0.5l-2-0.8l-0.5-0.1h-0.5
		l-0.5,0.2l-0.3,0.3l-0.5,1.8l-0.1,0.9l-0.8,0.9l-1.9,3.5l-0.3,0.2l0.6,1.1l0.3,3.3v0.4l-0.1,0.3l-0.6,1.3l-0.4,1.3l-0.3,0.6
		l-0.3,1.4l0.3,0.5l0.9,1.6l1.4,1.6l-0.1,0.2l-1.3-0.2h-1h-0.8l-0.4,0.1l-0.3,0.1l-0.6,0.5l-0.9,0.5l-0.3,0.3l-0.5,0.3l-0.4,0.2
		h-0.1l-0.5,0.2l-0.4,0.2l-1.7,0.5l-0.7,0.3l-0.5,0.1l-1.3,0.1l-1.1-0.3l-1.1-0.4h-0.3l-0.3,0.1h-0.2l-0.3,0.3l-0.3,0.7l-0.4,0.5
		l-0.5,0.3l-1,0.3v0.6l0.1,1.7l0.1,1.2l-0.3,1.1l-0.8,1.6l-0.2,0.3L755,180l-0.2,0.2l-0.7,0.8l-0.8,1.6l-1.1,1.9l-0.2,0.9l-0.5,0.9
		l-0.2,0.8l-0.6,1.5l0.2,3.1l-0.2,0.8l-1.1-0.2l-2.7-0.6h-0.3l-0.8,0.2l-0.2-0.1l-0.4-0.4l-0.2-0.1h-0.4l-0.3-0.1l-0.3-0.1l-0.1-0.2
		l-0.2-0.7l-0.2-0.2l-0.1-0.1l-0.4-0.1l-0.8,0.2H742l-0.2-0.1l-2.7-1.4l-0.6-0.3l-0.4-0.4l-0.3-0.1l-0.5-0.1l-0.7,0.2h-0.2l-0.2-0.2
		v-0.3V187l-0.2-0.4l-0.3-0.2l-0.3-0.2l-0.3,0.1l-0.4,0.5l-0.5,0.2H733h-0.3l-0.3,0.2l-0.3,0.2l-1.7-0.2l-0.1,0.5l-0.2,0.4l-1.3,1.4
		l-0.3,0.9l-0.8,1.4l-0.6,0.8l-0.7,0.4l-0.5,0.1h-0.5l-0.9-0.2h-0.6l-1.5,0.3l-0.6,0.1h-0.6l-0.3-0.1l-1.1-0.7l-0.8-0.4l-0.5-0.1
		l-1,0.2l-0.8-0.1H716l-0.6-0.5l-1.1-0.6l-0.4-0.3h-0.2l-0.5,0.3h-0.6l-0.7,0.3l-1.3,0.4h-0.2l-0.1-0.1v-0.2l0.2-0.5v-0.1l-0.4-0.1
		l-0.3,0.1h-0.3l-0.3,0.2l-1.1,0.7l-0.6,0.2H707l-0.7-0.4H706h-0.5l-0.4,0.3h-0.2l-1.5,0.2l-0.3-0.1l-0.3-0.2h-0.2l-0.5,0.1h-0.5
		l-0.1-0.2l-0.2-0.7l-0.1-0.1l-0.6-0.4l-0.9-0.4h-0.3l-0.7,0.2l-1.3,0.5h-0.8l-0.6-0.1l-0.7,0.2l-0.3-0.1h-0.4l0.5,1.6v0.3l-0.2,0.5
		l-0.7,0.6l-1.8,2l-0.8,0.6l-0.4,0.4l-0.5,0.9l-1.1,1.3l-1.2,2.1l-0.2,0.4l-0.2,0.5l-0.1,1.1l-0.3,1.3l-0.1,1l-0.4,1.5l0.1,0.6
		l-0.2,0.4v0.4l0.3,0.6l0.9,0.5l0.1,0.2l0.2,2.1l-0.4,0.6l-0.5,0.9l-0.3,0.6H687h-0.5h-0.2l-1.2,0.9l-0.2,1l0.3,1.1l-0.3,0.8
		l-0.9,2.2v0.4v0.9l-0.1,0.8l-0.7,1.5l-0.2,0.2l-2.6,1.2l-0.5,0.7l-0.8,0.7l-1.1,1.4l-0.1,0.2l-0.2,0.9l-0.1,0.1l-0.3,0.2l-0.5,0.2
		l-1,0.2l-0.6,0.4l-0.2,0.5l0.1,0.7l-1,2l-0.5,0.8l-1.8,1.8l-0.3,0.6l-0.5,0.7l-0.7,0.7l-0.2,0.2l-1.4,1.5l-0.3,0.4l-1.1,1.2
		l-0.4,1.2l-0.2,0.6l-0.2,0.8v1.3l-0.2,0.6l-0.4,0.8l-0.2,0.7v2.6l-0.3,0.7l-0.2,0.5l-0.3,0.8l-1.2,2.3l0.1,0.9l0.4,1.1l-0.2,2
		l-0.8,0.3l-0.8,0.1l-2.6,0.2h-0.6l-1-0.2H658l0,0l0,0l-0.5-0.1l0,0l0,0l-1.5-0.4v-0.1l-1.2-0.3v0.1l-0.4-0.2l-0.1-0.1l-1-0.5
		l-0.8-0.2l-1-0.5l-0.8-0.3l-2.6-0.2l-1.1-0.3l-2.1-0.7l-1.2-0.2l-2.8-0.5l-0.7-0.2l-0.4-0.2l-4.2-3.2l-0.4-0.9l1.6-0.9l0.7-0.7
		l0.3-0.6l-0.1-0.7l1-1.4l0.4-0.7l0.5-0.7l-0.5-0.4l-1.2-0.5l-0.3-0.2l-0.2-0.5l-0.4-0.7l-0.2-0.2l-1.2-0.7l-1.2-1l-0.5-0.3
		l-0.8-0.3l-1.1-0.8l-0.5-0.2l-0.5-0.1l-1-0.3l-0.2-0.3v-0.1l-0.1-0.5l-0.1-0.3l-0.8,0.5l-1.2,0.3l-1.1,0.3l-0.7,0.2l-0.5,0.5
		l-0.3,0.3l-0.6,0.9l-0.2,0.4l-0.3,0.5l-0.1,0.2l-0.2,0.5l-0.1,0.4l-0.2,0.4l-0.2,0.3l-0.4,0.5l0,0l-0.5-0.1l-0.6-0.2l0,0l-0.3-0.1
		l-0.5-0.2h-0.3l0.4-0.3l-1.3-0.3l-0.3-0.1l-0.5-0.1h-0.2H618h-0.7h-1.2l-0.7,0.1L615,241l-0.5,0.2l-0.2,0.1l-0.3,0.1l-0.7,0.3h-0.7
		H612h-0.7h-0.6h-0.5H610h-0.5h-0.3h-0.1h-0.5l-0.3,0.1l-0.5,0.1l-0.6,0.1h-0.1h-0.4h-0.4H606h-0.2l-0.3,0.2l-0.2,0.3l-0.2,0.3
		L605,243l-0.3,0.4l-0.3,0.3l-0.2,0.3l-0.5,0.6l-0.2,0.3l-0.1,0.1l-0.6,0.3h-0.1l-0.5,0.3l-0.4,0.2l-0.5,0.3l-0.8,0.4l-0.2,0.1
		l-0.5,0.3l-1.1,0.6h-0.1l-0.3,0.3l-0.1,0.1l-0.3,0.3l0,0l-0.2,0.1l-0.1-0.1h-0.2h-0.3h-0.4h-0.5l-0.5,0.1l-0.9,0.1l-0.8,0.1
		l-0.5,0.2l-0.6,0.3l-0.8,0.6l-0.3,0.2l-0.2,0.1H590l-1.6-0.1l-1.5-0.1h-0.6l-1.6-0.1l-0.4-0.1l-1-0.4l-0.5-0.2l-3.2,0.7l-1,0.3
		l-1,0.2h-0.7l-0.8-0.2l-1-0.5l-0.7-0.2l-3.6-0.6h-1.3l-0.5-0.3l-0.7-0.2l-0.5-0.3l-1-0.8l-1.2-0.3l-0.5,0.7l-0.5,0.4l-0.4,0.2
		l-1.2,0.5l-1.1-0.2h-0.6l-0.7,0.2l-0.5,0.2h-0.2l-0.7-0.6l-0.6-0.2h-0.4l-0.5,0.1l-0.2,0.1l-0.5,0.3l-0.1,0.1l-0.7,0.5l-0.7,0.5
		l-0.8,0.5l-0.6,0.2l-1,0.2l-1.9,0.7l-0.4,0.2l-1.1,0.9l-1,0.8l-0.2,0.2l-1.3,1.1l-0.6,0.3l-1.2,0.6l-1.4,1.1l-0.2,0.2l-0.3-0.1
		l-0.2-0.1l-1.4-0.8l-0.3-0.3l-0.7-0.9l-0.2-0.3l-1.2-0.9l-0.2-0.2l-1-0.3l-0.7-0.5l-0.3-0.1h-0.3l-0.6,0.1l-0.5-0.2l-0.7-0.3h-0.5
		l-0.1-0.9l0.7-0.8l0.5-0.2l-0.4-1l-0.3-0.5l-0.4-0.2l-0.3-0.1l-1.6-0.8l-0.6-0.2l-1.3-0.5l-0.5-0.4l-1-0.5l-0.3-0.2l-0.5-0.6
		l-0.3,0.3l-1.4,0.9l-1.6,0.8l-0.5,0.3l-0.3,0.5l-0.2,0.2l-0.5,0.5l-0.2,0.2l-0.6,1.5l-0.4-0.2l-0.9-0.4l-0.4-0.3l-0.2-0.4l0.2-0.3
		V248l-0.9-1l-0.9-0.9l-0.8-0.4l-1,1.2l-0.8,1l0.1,1.1v0.4l-0.1,0.2l-0.3,0.3l-0.5,0.4l-1,0.9l-0.6,1l-0.8,0.9l-0.6,0.8l-0.5,0.4
		l-0.8,0.6l-0.6,0.6l-0.2,0.3l-1.1-0.2l-0.5-0.2l-1.5-0.5l-1.1-0.1l-1.1-0.3l-1-0.5l-0.1,0.1l-0.1,0.5l-0.4,0.9l-0.3,0.4l-0.3,0.4
		l-1.1,0.8l-0.7,0.8l-0.2,0.3l-0.8-0.2l-0.7-0.3l-2.3-0.5l-1.4,0.4l-1.1,0.2l-2.2,0.2h-0.9l-1-0.2l-0.6,0.2l-0.2,1.5l0.1,1.5
		l-1.9,0.5l-1,0.2l-4.3-0.9l-1.6-0.4h-0.8l-1.2-0.1l-0.3-0.2l-0.8-0.7l-0.3-0.1l-0.8,0.1l-1.1-0.1l-1.8,1.2l-0.8,0.7l-0.3,0.3
		l-0.8,0.7l-0.9,0.6l-0.5,0.6l-0.5,0.5l-0.8,0.7l-2-1.1l-1-0.5l-1.6-0.7l-0.5-0.2h-0.1l-1.1-0.2l-2-0.3l-1.5-0.2l-0.1-0.3l-0.7-1.1
		l-0.3-0.2l-0.5-0.2l-0.3-0.3l-0.3-0.4l-0.2-0.2l-0.2,0.2l-0.5,0.2l-0.2-0.2l-0.1-0.4l-0.6-0.4l-0.6-0.3l-0.2-0.2l-0.2-0.3l-0.5-0.8
		l-0.3-0.6L454,255l-0.1-0.2l-0.2-0.1l-0.8-0.2l-0.3-0.1l-0.4-0.3l-0.9-1.7l-0.8-1.4l-0.4-0.6l0.1-0.3l-0.2-0.9V249l0.4-1.2l0.6-1.2
		l-0.1-0.3l-1.3,0.8l-0.3-0.4l-1-1l-0.4-0.3l-0.5-0.2l-0.5-0.1l-1.3-0.1l-0.4-0.2l-0.6-0.8l-0.3-0.4l-0.2-0.2l-0.4-0.7l-0.2,0.6
		l-0.6,1.3l-0.4,0.5l-2.1-0.8l-0.4-0.2l-1-0.2l-0.3-0.1l-2.3-0.6l-0.7-0.2l-0.2-0.2l-0.4-1.1l-0.1-0.3l0.1-0.7l-0.3-0.8l-0.1-1.1
		l0.3-1.8l-0.5-1.3l-0.2-0.2l-0.2-0.1l-0.5-0.4l-1.2-1l0,0l-0.7-0.5l-0.9-0.6l-0.6-0.4l-1.1-0.7l-0.4-0.2l-0.6-0.4l-0.2-0.1
		l-0.4-0.2l0,0l-0.8-0.6l-2.2-1.4l-0.6-0.3l-0.2-0.1l-0.6-0.2l-1-0.4l-0.5-0.4l-0.2-0.3l-0.2-1l-0.1-0.9l-0.7-2.5l0.2-1h-0.5h-0.3
		h-0.1l-0.3-0.1l-0.7-0.2l-1.2-0.5l-2.3-0.9l-1.1-0.4l-0.8-0.4l-1-0.3l-1.5-0.2h-0.5l-0.3,0.1l-1.5,0.5h-0.9h-0.2h-0.7l-0.3-0.1
		l-1-0.9l-0.7-0.5l-0.6-0.3l-0.5-0.3l-0.5-0.5l-0.9-0.7l-0.7-0.5l-2.1-0.6l-0.5-0.2l-0.3-0.3l-0.5-0.8l-0.2-0.4l-0.5,0.2h-0.2h-0.5
		l-0.6-0.2l-1.5-0.2h-0.2l-0.3,0.2l-1.1,0.7l-1.6,0.6h-0.3l-1-0.2l-0.6-0.3l-0.3-0.4l-1.2-0.3h-0.4l-1.3,0.1h-0.9l-1.7-0.8l-2.3,2.3
		l-0.8,1.6l-0.3,0.3l-1.2,0.4l-2.5,0.3l-1.2,0.2l-1.5-0.3l-2.4,0.1l-0.3-0.1l-0.8-0.3l-1.3-0.6l-0.5-0.1l-0.6-0.1h-0.6l-0.2,0.1
		l-0.3,0.2l-0.2,0.2l-0.5,0.5v0.3v0.5l-0.3,0.1l-0.8,0.1H365h-0.6h-0.9h-0.3h-1.1h-0.6h-0.3l0,0h-0.5l-0.7,0.2l-0.5,0.2h-0.1h-0.1
		l-0.3,0.1l-0.2,0.1l-0.4,0.1h-0.1l-0.5,0.2h-0.1l-0.4,0.1l-0.4,0.2l0,0l0,0l0,0l0,0l-1.1,0.4l-1.5,0.5l-0.4,0.1l-0.4-0.1l-0.2-0.1
		l-0.7-0.4l-0.4-0.1h-0.3l-0.6,0.3l-1,0.5h-0.8l-0.3-0.2l-1.5-0.8l-1.8-0.1h-0.7l-0.7,0.2l-0.9,0.1l-1.1-0.2l-0.5-0.2l0.1-0.2
		l-0.2-0.4l-0.8-0.3l-0.3-0.1l-0.2-0.2l-2.1-2.3l-0.2-0.6l-0.5-0.8v-0.3l-0.2-0.2l-0.3-0.2l-1-0.2l0.1-0.2v-0.3l-0.4-0.7l-0.2-0.2
		l-0.2-0.2l-0.8-0.1l-0.8-0.2l-1.5-0.3l-1.1-0.1H331h-0.8h-0.7h-0.9l-1.7,0.2l-2.6,0.3h-1l0,0l-2.3-0.2l-1.1-0.1l-0.6-0.2h-0.1
		l-0.6-0.2l-1-0.6l-1.8-1.1l-1.2-0.7l-2.5-1.6l-0.5-0.5l-0.2-0.2l-0.5-0.3l-0.8-0.2l-0.8-0.2l-1.3-0.2l-1-0.3l-1.2-0.7l-0.5-0.3
		l-2.6-1.4l-0.8-0.2l-1.3-0.2l-1.3-0.2l-0.6-0.1l-2.8-0.3l-1.3-0.2l-0.8-0.1h-0.2l-3.9-0.5l-0.6-0.1l-2-0.2l-0.5-0.1l-1.2-0.2
		l-3.2-0.7l-0.7-0.1h-0.7h-0.6l-2,0.3h-0.5l-1-0.1l-1.1-0.3l-0.7-0.2h-0.1l-0.8-0.2l-0.5-0.3l-1-1l-1-1l-0.3-0.2l-1-0.7l-0.2-0.1
		l-0.5-0.3l-0.7-0.7l-0.8-0.7l-0.5-0.5l-0.6-0.6l-2-1.6l-0.4-0.2h-1.2h-0.2l-0.6,0.1L261,192l-0.3,0.2l-0.2,0.2l-1,1.7l-0.4,0.5
		l-0.6,0.4l-0.3,0.2l-1.2,0.7l-0.7,0.4l-0.5,0.2l-1,0.2h-0.7l-1.6-0.2h-0.2l-0.6-0.1h-0.2l-1.2-0.1l-1-0.1l-0.8-0.1l-1.2-0.2
		l-0.9-0.2l-0.3-0.1l-0.3-0.1l-2.3-0.5l-1.5-0.3h-0.9l-0.8,0.1H240l-0.6,0.1l-0.9,0.1h-0.3h-0.4l-0.2-0.1l-0.3-0.2l-1.8-0.9
		l-0.2-0.1l-0.4-0.3l-0.1-0.1l-0.4-0.3l-0.1-0.2l-0.7-0.7l-0.7-0.7l-0.4-0.2l-0.8-0.3l-0.8-0.3l-0.5-0.2l-0.3-0.1h-0.2l-0.3,0.1
		l-0.5,0.1l-0.6-0.1l-2-0.4h-0.3l-0.8,0.3l-0.3,0.1H225l-0.1,0.1l-0.5,0.2l-0.2,0.1l-0.2,0.1l-0.2,0.1l-1,0.3h-0.5h-0.4h-0.3h-0.5
		h-0.3h-0.2h-0.3l-1.5,0.2l-0.4,0.1l-0.8,0.1h-0.5h-0.5l-0.8,0.1h-0.1l-0.7,0.1l-1.8,0.3h-0.4h-0.2h-0.2h-0.2h-0.3l-0.7,0.2
		l-0.3,0.1l-0.5,0.2l-0.9,0.3l-0.5,0.2l-0.5,0.2l-0.5,0.2l-0.7,0.2l-0.2,0.1l-0.4,0.1l-0.4,0.2h-0.1l-0.1-0.2l-0.3,0.1l0.1,0.1
		l-0.1,0.1l-0.3,0.1l-0.5,0.2l-0.7,0.2l-0.1-0.2l-0.2-0.3l-0.2-0.5l-0.2-0.2l-0.2-0.2l-0.3-0.3l-0.2-0.2l-0.4-0.2l-0.3-0.1H202
		l-0.5-0.2l-0.7-0.4h-0.1l-0.6-0.4l-0.4-0.1l-1.2-0.2l-0.8-0.1l-0.5-0.1l-0.5-0.3l-0.6-0.7l-0.3-0.4l-0.6-1.6l-0.5-1.5l-0.5-1.4
		l-0.3-1l-0.3-0.8l-0.3-0.4l-0.5-0.5l-0.3-0.3l-0.6-0.7l-0.2-0.2l-1-1l-0.3-0.3l-0.2-0.2l0,0l-2.5-2.4l-0.8-0.3h-1.3h-1.2l-0.6-0.2
		l-1.9-0.6h-0.2l-1,0.2l-1.4,0.3l-0.7,0.3l-0.9,0.6l-0.3,0.2L177,178l-1.1-0.2h-0.5l-0.8,0.3l-1,0.3l-1.3,0.1l-1.2,0.2l-0.7,0.1
		l-0.5,0.1l-0.5-0.1l-1-0.4l-1.7-0.7l-0.6-0.2l-0.8-0.2l-0.5-0.3l-0.5-0.3l-0.7-0.8l-1.4-1.5l-1.3-1.2l-0.4-0.3l-0.7-0.3l-1.5-0.5
		l-0.5-0.2l-0.7-0.4l-1.5-1.2l-1.5-1.1l-1.6-1.5l-0.1-0.1l-0.4-0.2h-0.3l-1.6,0.2l-2.6-0.1l-1.2,0.3l-0.7,0.6l-0.2,0.1h-0.4
		l-1.4-0.3h-0.3l-0.5,0.2l-1,0.6l-0.3,0.1l-0.5-0.1l-0.2-0.2l-0.3-0.4l-0.1-0.2l-0.2-0.3l-0.5-0.2h-3.6h-1.4h-1.5l-0.3,0.2l-0.4,0.3
		l-0.5,0.5l-0.6,0.4l-1.7,0.8h-0.5l-0.5-0.2l-0.6-1.1l-0.3-0.5l-0.5-0.4l-0.8-0.5l-1.1-0.6l-1-0.5l-0.6-0.1h-0.4l-1.1,0.1l-1.1-0.2
		v-0.5l-0.2-1.4l-0.2-1.2l-0.1-0.3l-0.2-0.3l-0.8-0.6l-0.5-0.4l-0.6-0.1l-0.1-0.1l0.1-0.7l-0.3-0.6l-1.4,1l-0.2,0.2l-0.6,0.3
		l-0.4,0.1h-0.5h-0.6h-0.5l-0.4,0.1l-0.2,0.1l-0.7,0.6l-0.4,0.1l-0.4-0.1l-2.9-1.2l-1-0.5h-0.5l-1.3-0.1l-0.9,1l-2.6-1.4h-0.1
		l-2.1-0.6l-2,0.2l-0.6,0.1l-1,0.3l-0.6,0.1h-0.4l-0.3-0.2l-0.2-0.4l-0.1-0.2l-0.2-0.4l-0.6-0.3l-0.2-0.7l-0.5-0.7l-1-0.5l-0.4-0.2
		l-0.4-0.2l-0.2-0.3l-0.1-0.8l-0.1-0.2l-1.1-0.8l-0.7-0.2l-0.3-0.3l-0.1-0.2v-0.8v-0.2l-0.1-0.2l-0.3-0.2l-0.4-0.1h-0.6l-0.5-0.3
		l-0.3-0.2l-0.2-0.3v-0.4l0.2-0.4l-0.1-0.9l0.1-0.2l0.7-0.5l-0.1-0.7l-0.1-0.2l-0.5-0.3l-0.2-0.3l-0.5-0.3l-0.3-0.6l-0.1-0.7
		l-0.3-0.6l-0.3-1.1l-0.5-0.5l-0.4-0.2l-0.1-0.6v-0.3v-0.7l-0.1-0.4v-0.7l-0.1-0.2l-0.7-0.5l-0.1-0.8l-0.2-0.5l-0.3-0.8v-0.1
		l-0.2-0.3l-0.7-0.6l0.5-1.5v-0.1l-0.2-0.3l-0.2-0.5l-0.2-0.2l-0.6-0.6l-0.5-0.2l-0.2-0.1h-0.2l-1.2-0.6l-0.3-0.2l-0.4-0.2l-0.5-0.1
		h-0.8l-0.3-0.1l-0.4-0.5l-0.1-0.3l-0.2-0.2l-0.3-0.4l-0.1-0.3l-0.7-0.5l-0.2-0.6l-0.4-0.2l-0.2-0.4l-0.6-0.4l-0.3-0.4l-0.3-0.2
		l0.1-0.3l-0.4-0.3l-0.4-0.5L72,126l-0.5-0.3l-0.2-0.4l-0.2-0.5l-0.9-0.8l-0.3-0.5l-0.1-0.7l-0.2-0.6l-0.5-0.6l-0.5-0.4l-0.2-0.3
		v-0.2l-0.3-0.2l-1.2-1v-0.4l-0.1-0.2h-0.2l-0.2,0.1l-0.7-0.4l-0.5-0.3l-0.2-0.4l-0.3-0.2l-1.6-0.7l-1.4-0.4l-0.6-0.2l-0.5,0.1h-0.3
		l-0.9-0.2l-0.4-0.1l-1-0.3l-0.3-0.1l-0.1-0.1l-0.4-0.3l-0.3-0.1l-0.1-0.1l-0.7-0.5l-0.7-1.1l-0.6-0.6l-0.2-0.2v-0.4v-0.2l-0.3-0.2
		l-0.2-0.4l-0.4-0.2l-0.4-0.2l-0.3-0.3l-0.2-0.3l-0.3-0.4l-0.1-0.1l-0.1-0.2l-0.2-0.3l-0.1-1.8v-0.2l0.1-1.3l-0.2-0.4v-0.1l-0.1-0.1
		v-0.1l-0.1-0.2l-0.1-0.2l-0.4-0.7v-0.1l-0.1-0.1l-0.1-0.1l0.3-2.7l0.1-0.3v-0.1l-0.1-0.1l-0.9-0.6l-0.3-0.1H50l-0.2-0.1l-0.8-0.3
		l-0.9-0.1l-0.4-0.2l-0.4-0.4l-0.5-0.6l-0.2-0.2v-0.2l0.5-1.3l0.3-0.9l0.1-0.1l-0.2-0.2l-0.5-0.6l-0.3-0.3l-0.2-0.2l-0.6-0.4
		l-0.6-0.6l-0.3-0.3l-0.1-0.1l-0.2-0.3l-0.4-0.3l-0.5-0.4l-0.4-0.3l-0.1-0.1v-0.2v-0.2L43,91.2l-0.5-0.3l-0.4-0.3l-0.4-0.3L41.3,90
		l-0.5-0.3l-0.3-0.2l-0.7-0.1h-0.3h-0.1l-0.8-0.1h-0.2h-0.3l-0.8-0.2L36.8,89h-0.5H36l-1.2-0.1l-0.3-0.1l-0.9-0.4l-2.4-0.9l-1-0.4
		l-1-0.4L27.4,86l-0.3-0.1l-0.8-0.3l-1-0.3h-0.1L24,84.8l-0.9-0.4H23l-0.9-0.6l-1.8-1.5l-0.4-0.4l-0.5-0.5l-1.3-0.9l-1-0.6l-0.8-0.6
		l-0.5-0.7l-0.6-0.8l-0.8-1.2l-0.2-0.4l-0.1-0.5v-0.4l0.2-0.7v-0.4l-0.1-0.4L14,73.4l-0.5-0.6l-0.3-0.3l-0.6-0.4l-0.8-0.4L11,71.4
		l-0.5-0.3l-1.9-1.8L8,69l-0.6-0.2l-2.8-0.3l-0.5-0.1l-0.4-0.1l-0.4-0.2L3,67.8l-0.2-0.3l-0.1-0.3l-0.3-1.8l-0.5-1l-0.2-0.3
		l-0.1-0.3l-0.1-0.4l-0.1-1.1l-0.3-0.6l-0.8-0.8l0.3-0.5v-0.3l0.2-0.7l0.1-0.2L2,58.4l2.3-1L6.5,56l0.3-0.3l0.1-0.2l0.5-2.7l0.1-0.2
		l1.4-1.3L9,51v-0.3l-0.2-0.2l-0.2-0.1l-2.1-0.6l-0.3-0.2L6,49.4l-0.1-0.5l-0.2-0.4l-1.3-1l-0.3-0.4L4,46.7l0.1-0.9v-0.2"/>
</g>
</svg>
