<?xml version="1.0" encoding="utf-8"?>
<!-- Generator: Adobe Illustrator 17.1.0, SVG Export Plug-In . SVG Version: 6.00 Build 0)  -->
<!DOCTYPE svg PUBLIC "-//W3C//DTD SVG 1.1//EN" "http://www.w3.org/Graphics/SVG/1.1/DTD/svg11.dtd">
<svg version="1.1" id="Layer_1" xmlns="http://www.w3.org/2000/svg" xmlns:xlink="http://www.w3.org/1999/xlink" x="0px" y="0px"
	 viewBox="0 0 900 300" enable-background="new 0 0 900 300" xml:space="preserve">
<g>
	<path fill="none" stroke="#AF7556" d="M342.2,300l0.1-0.2l0.6-0.3l0.1-0.1l0.3-0.3l0.8-1.3l0.3,0.4l0.4,0.4l0.5,0.2l0.7,0l0.6-0.2
		l1.1-0.8l0.7-0.5l0.3-0.2l0.3-0.2l0.6-0.5l0.3-0.2l0.3-0.3l0.2-0.2l0.3-0.2l0.9-0.5l0.5-0.3l0.1,0l0.5-0.1l0.2,0l1.6-0.4l0.4-0.2
		l0.6-0.2l0.2-0.6l0-0.1l0-0.1l0.1-0.3l0.1-0.2l0,0l0.1-0.3l0.3-0.3l0.1-0.3l0.1-0.2l0.2-0.6l0.7,0.2l0.4,0.1h0.3l0.2,0l0-0.2l0,0
		l0.4-0.4l0.3-0.3l0,0l0.5-0.6l0.2-0.1l0-0.1l0,0l0-0.1l0-0.3l0-0.1l-0.1-0.2l-1.2-1.3l-0.2-0.2l-0.1-0.1l-1.1-0.6l-0.1-0.1
		l-0.5-0.9l0-0.1l-0.3-0.6l-0.7-1.2l-0.3-0.5l-0.9-1.2l0-0.1l0-0.1l0.1-0.6l0.1-0.7l0.1-0.9l0.1-0.4l0.1-0.3l0.2-0.6l0.1-0.1
		l0.1-0.2l0-0.3l0-0.5l0-0.1l0.1-0.3l0.6-0.3l0.6-0.3l0-0.1l0-0.2l0.1-0.1l0.2-0.1l0.2-0.1l0.6-0.1l0.2-0.1l0.4-0.3l0.6-0.4l0,0
		l0.2-0.4l0.2-0.3l0.1-0.1l0,0l0.1-0.1l0.4,0l0.7,0.1l1.2,0.1l0.3,0.1h0.1l0.3-0.1l0.1-0.5l0.1-0.5l0.3,0l0,0l0,0l0.2-0.2l0.5-0.4
		l0.1-0.3l0-0.1l0,0l0.2-0.3l0-0.1l0.1-0.3l0.4-0.4l0.2-0.2l0.1-0.1l0.1-0.2l0.3-0.3l0,0l0,0l0.2-0.2l0.4-0.4l0.3-0.3l0.2-0.2
		l0.1-0.1l0.1-0.1l0.2-0.1l0.1-0.1l0,0l0,0l0.2-0.2l0.1-0.1l0.2-0.3l0.2-0.2l0.1-0.2l0.2-0.3l0.3-0.4l0.2-0.2l0.1-0.2l0.3-0.5l0-0.1
		l0.4-0.6l0.2-0.3l0.3-0.5l0.3-0.4l0.4-0.6l0.1-0.1l0-0.1l0.5-0.8l0.1-0.1l0,0l0,0l0.5-0.6l0.3-0.2l0.1,0l0.6-0.5l0.2-0.2l0.5-0.5
		l0.2-0.2l0.1-0.2l0.1-0.7l0.1-0.1l0.4-0.3l0.3-0.4l0.2-0.2l0.2-0.1l0.7-0.3l0.1-0.9l0.1-0.2l0.2-0.4l0.9-1.4l0.1-0.2l0.6-0.8
		l0.1-0.2l0-0.3l-0.1-0.7l0,0l0-0.2l-0.1-0.2l-0.2-0.8l-0.6-0.8l-0.6-0.7l-0.3-0.4l-0.3-0.4l-0.1-0.2l-0.3-0.7l0,0l-0.1-0.3
		l-0.1-0.1l-0.1-0.2l-0.1-0.2l-0.2-0.2l-0.4-0.5l-0.1-0.1l-0.2-0.3l-0.1-0.2l-0.4-0.8l-0.1-0.2l-0.1-0.2l-0.1-0.4l-0.1-0.2l-0.1-0.4
		l-0.1-0.3l0-0.2l0.1-0.3l0-0.1l0-0.4l0-0.2v0l-0.1-0.5l-0.2-0.7l-0.3-1l0-0.2l-0.2-0.6l-0.2-0.7l-0.2-0.7v0l-0.2-0.6l0-0.1l0.5-0.5
		l0.1-0.2l0.1-0.2l0.2-0.3l0.2-0.4l0.1-0.1l0.3-0.5l0.2-0.3l-0.1-0.1l0.1-0.7l0.1-0.2l0.2-0.1l0.5-0.1h0l0.3-0.1l0.2-0.1l0.1-0.1
		l0.3-0.4l0.1-0.2l0-0.2l-0.2-0.8l0-0.1l-0.1-0.1l-0.4-0.5l-0.1-0.5l0-0.4l0-0.3l0-0.2l0-0.1l-0.3-0.4l-0.2-0.4l-0.1-0.2v-0.4l0-0.3
		l0-0.1l0-0.1l-0.1-0.3l-0.2-0.2l-0.2-0.2l-0.1-0.2l-0.2-0.2l-0.1-0.1l-0.1-0.1l-0.1-0.2l0.4-0.3l0.2-0.1l0.2-0.1l0.2-0.1l0.2-0.1
		l0.2-0.1l0.2-0.1l0.2-0.1l0.2-0.1l0.2-0.1l0.2-0.1l0.2-0.1l0.3-0.3l0.1-0.1l0.2-0.2l0.4-0.4l0.1-0.2l0.3-0.4l0.1-0.1l0.1-0.1
		l0.2-0.1l0,0l0.1-0.1l0.4-0.5l0.4-0.6l0-0.1l0.2-0.2l0,0l0.4-0.5l0.2-0.2L378,220l0,0v0l0-0.1l0-0.1l0.1-0.1l0.2-0.2l0.2-0.2
		l0.1-0.1v0.2l-0.1-0.2l-0.2-0.1l-0.8-0.5l-0.2-0.1l-0.1-0.2l0-0.3l0-0.1l0-0.1l-0.2-0.4l-0.2-0.4l-0.4-1l-0.1-0.2l-0.1-0.1
		l-0.1-0.1v-0.1l0.3-0.5l0.1-0.5l0-0.5l-0.3-1.1l-0.2-0.6l0-0.2l0-0.2l0.1-0.2l0.3-0.3l0.2-0.2l0.4-0.2l0.1-0.1l0-0.1l0-0.1l0-0.2
		v-0.2l0-0.1l-0.1-0.2l-0.1-0.2l0-0.2l-0.2-0.5l-0.1-0.2l0-0.4l0-0.2h0.1l0.2,0l0.3-0.2l0.1-0.1v-0.3l-0.2-0.5l-0.1-0.1l-0.3-0.3
		l-0.1-0.2l-0.1-0.3l0-0.2l0.1-0.2l0-0.1l0.1-0.2l1-0.4l0.1-0.2l0.2-0.6l0.1-0.4v-0.4l-0.1-0.3l0-0.1l0-0.1l0.1-0.1l0.2-0.2l0.5-0.6
		l-0.1-0.1l-0.2-0.2l-0.3-0.3l-0.1-0.1l-0.2-0.1l-0.4-0.2l-0.1-0.1l-0.1-0.5l-0.1-0.6l-0.1-0.1l-0.1-0.1l-0.1-0.1l-0.3-0.1l-0.6-0.2
		l0,0l-0.2-0.1l-0.3,0l-0.3,0l-0.4-0.3l-0.3-0.2l-0.1-0.1l-0.1-0.2l-0.3-0.5l-0.2-0.1l-0.3-0.1l-0.4,0l0.1-0.2l0-0.2l0-0.1l0.1-0.2
		l0.1-0.4v-0.1l0-0.1l0-0.2l0.1-0.2l0-0.3l0.2-0.2l0.1-0.1l0-0.1l0-0.2l-0.1-0.3l-0.3-0.3l-0.7-0.5l-0.1-0.1l0-0.1l0.2-0.2l0.5-0.7
		l0.3-0.3l0.2-0.3l0.1-0.1l0.6-0.2l1.1-0.4l0.5,0l0.8,0.1l0.6-0.2l0.1,0l0.4-0.1l0.9,0l0.4,0.4l0.1,0l0.4-0.1l0.3,0l0.3-0.1l0.2-0.2
		l0.4,0h-0.3l0.4,0l0.2-0.1l0.2-0.2l0.1-0.1l0.1-0.2l0.1,0l0.5,0l0.2-0.2l0.2-0.4l0.3-0.5l0.1,0l0.5,0.1l0.7,0.1h1.1l0.4-0.2
		l0.3-0.2l0.7-0.3l0.1,0l0.5,0.1l0.5,0l0.4-0.3l0.3,0.8l0.3-0.2l0.2-0.1l0.5-0.3l0.2-0.1l0.1-0.1l0.3-0.5l0.1-0.1l0.2-0.1l0.7-0.1
		l0.7-0.1l0.4,0l0.2-0.1l0.3-0.2l0.3-0.3l0.5-0.2l0.5-0.2l0.4-0.1l2-0.3l0.3-0.1l0.2-0.1l0.4-0.5l0.2-0.3l0.2-0.1l0.6-0.2h0.3
		l0.1-0.2l0.3,0.1l0.1,0l0.4,0l0.5,0l1.3,0l0.7-0.1h0.3l0.4,0l0.3,0l0.6-0.3l0.2-0.2l0.2-0.3l0-0.5l0.1-0.2l0.2-0.3l0.2-0.3l0.1-0.3
		l0.8-0.3l-0.2-0.4l-0.2-0.6l-0.3-0.8l0-0.1v-0.2l0.1-0.5l0-0.7L405,178l0.1-0.1l0.3-0.5l0.1-0.2l0-0.1l0.1-0.4l0.1-0.5l0-0.2l0-0.2
		l0-0.1l0.1,0l0.2-0.1l0,0l0.2-0.1l0.2-0.1l0.1-0.1l0.5-0.3l0.2-0.1l0,0l0.1,0l0.1,0l0,0l0.3,0l0.2,0l0.2,0l0.2,0l0.2-0.1l0.4-0.1
		l0.2,0l0.2,0l0.2,0l0.2,0l0-0.2l0-0.3l0-0.1l0.6-0.4l0.3-0.1l0.2-0.2l0.1-0.2l0.1-0.3l0.2-0.2l0.7-0.2h0.4l0.2,0l0.3,0l0.2-0.1
		l0.5-0.1l0.4-0.2l0.1-0.1l0.1-0.1v-0.2l0-0.1l0,0l0.3-0.1l0.2-0.1l0.5-0.5l0.3-0.3l0.2-0.2l0.3-0.1l0.1-0.1l0-0.1l0-0.2l-0.1-0.3
		l0-0.1l0-0.1l0.1-0.3l0.1-0.3l0.3-0.4l0.1-0.1v-0.5l0.1-0.3l0-0.2l-0.2-0.6v-0.1l0.1-0.1l0.1-0.1l0.2-0.1l0.3-0.1l0.4,0l0.6,0.2
		l0.3,0l0.9-0.3l0.3-0.1l0.4-0.3l0.2-0.2l0.3-0.3l0.3-0.4l0.3-0.5l0.2-0.4l0-0.1l0-0.1l-0.3-0.5l-0.2-0.4l-0.2-0.3l0-0.1v-0.1
		l0.1-0.3l0.2-0.5l0.1-0.2l0.1-0.2l0.1-0.4v-0.3l0-0.5l0.2-1.6l-0.1-1.2l-0.1-1l-0.1-0.6l0-0.3l0-0.1l-0.1-0.1l-0.1-0.2l-0.1-0.3
		l-0.1-1l0-0.2l0.3-0.1l0.2-0.1l0.4-0.1l0.6-0.2l0.6-0.2l0.2-0.1l0.1-0.1l0.1-0.1l0.1-0.1l0.2,0l0.8,0l1.1,0.4l0.5,0.2l0.4,0.4
		l2,0.3l1.4,0l0.9-0.6l0.8-1.1l0.7-0.9l0.2-0.2l0.1-0.1l0.2-0.1l1.1-0.5l0.9-0.5l0.4-0.2l0.5-0.3l0.3-0.2l0,0l0.2-0.1h0l0.1,0l1.7-1
		l0.4-0.2l1.4-0.8l0.3-0.1l0.1-0.1l0.4-0.2l0.3-0.1h0l0.1,0l0.2-0.1l0.7-0.3l0.3-0.2l0.4-0.2l1-0.6l0.3-0.2l0.6-0.5l0.1-0.1l0.2-0.2
		l0.2-0.1l0.5-0.1l0.7-0.1l0.3-0.2l0.3-0.3l0.2-0.1l0.1-0.1l0.8-0.3l0.6-0.2l0.9-0.5l0.6-0.3l0,0l0.9-0.5l0.3-0.2l0.4-0.2l1.2-0.6
		l0.3-0.1l0.4-0.1l0.1,0l0.7-0.2l0.3-0.1l0.3-0.1l0.2-0.1l0.1,0l0.4-0.4l0.3-0.3l0.1-0.3l0.8-0.6l0.1-0.3l0.1-0.4l0.2-0.2l0.3-0.3
		l0.4-0.2l0.2,0l0.1,0l0.4,0l0.5,0l0.4,0l0.3-0.1l0.2-0.1l0.1-0.2l0-0.1l0.3-0.4l0.2-0.2l0.1-0.1l0.1-0.2l0.1-0.2l0.1-0.1l0,0
		l0.1-0.3l0.1-0.2l0-0.1l0-0.4l0-0.1l0-0.2l-0.2-0.4l0-0.1l-0.2-0.4v0l0-0.2l0-0.1l0-0.1l0-0.1v0l0-0.1l0.1-0.3l0.1-0.1l0.1,0
		l0.4-0.2l0.4-1.6l0.2-0.6l0-0.1l-0.2-0.2l0-0.2l-0.2-0.3l-0.1-0.2l-0.1-0.2l-0.3-0.3l-0.1-0.3v-0.2l0-0.3l0-0.1l0.1-0.2l0-0.2v-0.1
		l0-0.1l0-0.3l0-0.3l0-0.2l0.3-0.1l1.1-0.1l0.8,0.3l0.6,0l0.3,0.2l0.6-0.3l0.7-0.2l0.2-0.1l0.1-0.1l0.1-0.1l0.1-0.1l0-0.9l0-0.1l0,0
		l0,0l0,0l0,0l0-0.1l0.1-0.1l0.2-0.1l0.1,0l0.3-0.2l0.1-0.1l0.1-0.3l0.2-0.5l0.1-0.1l0.2-0.1l0.4-0.2l0.1-0.1l0.4-0.1l0.3-0.1
		l0.2-0.1l-0.2-0.1l-0.1-0.1l-0.1-0.1l-0.1-0.2l-0.1-0.2l-0.2-0.5l-0.1-0.2l-0.1-0.1v0l0.2-0.1h0.2l0.4,0l0.3-0.1l0,0l0.3-0.2l0,0
		l0.2-0.1l0.2,0l0.4,0.1h0.5l0.3-0.1l0.6-0.3l0.3,0l0.4,0l0-0.1l-0.1-0.1l0-0.1v0l0.1-0.3l0-0.1l0-0.2l-0.1-0.1l-0.1-0.1l0-0.1
		l0-0.2l0,0l0.1-0.2l0.3-0.3l0.1-0.1l0.2-0.2l0-0.4l0.1-0.1l0.3-0.1l0.1-0.2l0.1-0.3l0.1-0.2l0.2-0.4v-0.1l0.1-0.7l0.1-0.3l0,0l0,0
		h0.1l0.7,0.3l0.3,0.2l0.2,0.2l0.2,0.2l0.1,0.3l0.3,0.2l0.6,0.2l0.3,0.1l0.2,0l0.5,0l0.3,0.1l0-0.3V114v-0.1l0-0.1l0.1-0.1l0-0.1
		l-0.1-0.1l-0.2-0.1l-0.1-0.2l-0.1-0.2l0-0.2l0.1-0.3l0.1-0.1l0.1-0.1l0.2-0.7l0-0.2l0.1-0.3l0,0l0-0.1l0.1-0.2l0.1-0.1l0.1-0.1
		l0-0.2l0-0.3l0-0.1l0-0.1l0-0.1l0.2-0.4l0.1-0.2l0.1-0.1l0-0.2v0l0-0.5l0-0.3v-0.3l0-0.1l0-0.1l0-0.1l0-0.1l0-0.3l0-0.2l0.3-0.5
		l0.1-0.2h0.4l0.5,0l0.2-0.1l0.2-0.1l0.2-0.1l0.2-0.3l0-0.1l0.1-0.4l-0.4-0.2v-0.5v0v-0.2v-0.2l-0.2-0.4l-0.1-0.2l-0.1-0.3l0.1,0
		l0.1,0l0.1,0l0.2-0.5l0.1-0.2l0-0.1l0.1-0.1l0.2-0.1l0.5-0.3l0.1-0.1l0.4-0.4l0.1-0.1l0.1-0.1l0.1-0.1l0.2-0.1l0.7,0l0.8,0l0.2,0
		l0.1-0.1l0.3-0.4l0,0l0.1-0.1l0,0l0.1-0.1l0,0l0.3-0.2l0.2,0h0.6l0.6,0.1l0.2,0l0.6-0.5l0.3-0.2l0.7-0.2h0.2l0.9,0.1l0.1,0l0.2-0.1
		l0.1-0.1l0.3,0h0.5l0.3,0l0.2,0l0.1,0.1l0.4,0.3l0.2,0.1l1-0.1h-0.1l0.5,0l0.2,0l0.3,0.1l0.1,0l0.2-0.1l0.3,0l0.2-0.2l0.1-0.1
		l-0.1-0.2l0-0.3v-0.3l0-0.5l0-0.2l0-0.1l-0.2-0.2l-0.2-0.3l-0.4-0.7l-0.1-0.5l0-0.1l-0.1-0.1l-0.3-0.2l0-0.1l-0.1-0.2l0,0l-0.2-0.1
		l-0.2-0.1l-0.2-0.2l-0.2-0.3l-0.1-0.4l0-0.3l-0.1-0.3l-0.1-0.3l0-0.3l0.1-0.7l-0.2-0.6l-0.1-0.2l-0.1-0.1l-0.4-0.1l-0.1-0.1
		l-0.1-0.1l-0.2-0.7l0-0.1v-0.2l0.1-0.1l0.1-0.1l0.4-0.2l0.3-0.2l0.3-0.2l0.1-0.1l0-0.3v-0.4l0-0.2l0.1-0.2l0.1-0.3l0.3-0.4l0.3-0.5
		l0-0.2l0-0.3l0-0.3l0-0.1l0.1-0.2l0.1-0.1l0.3-0.1l0.4-0.3l0.2-0.1l0.1,0l0.4-0.1l0.2-0.1l0-0.1l0.1-0.1l0-0.1l0.2-0.7l0-0.2
		l0.1-0.2l0.3-0.2L497,82l0.1-0.1l0.3-0.3l0.1-0.1l0.3-0.2l0.1-0.1L498,81l0.1-0.1l0.8-0.5l0.3-0.3l0.4-0.3l0.1-0.1l0.4-0.4l0.2-0.2
		l0.1-0.1l0.3-0.1l0.3-0.1l0.2-0.2l0.1-0.1l0.3-0.1l0.6-0.1l0.7-0.3l-0.1-0.2l-0.1-0.1l-0.1-0.4l-0.2-0.4l-0.2-1l-0.2-0.6l-0.6-0.7
		l0-0.1l0-0.1l0.1-0.2l0.1-0.1l0.5-0.1l0.9-0.4l0.2-0.2l0.2-0.4l0.2-0.1l0.6,0l0.2,0h-0.4h-0.3l1-0.1l0.2-0.1l0.3-0.2l0.2-0.1
		l0.3-0.2l0.2-0.2l0.1-0.2l0.1-0.3l0.1-0.2l0-0.1l0-0.2l-0.2-0.7l0.2-1l0-0.2l-0.1-0.3l0-0.1l0.2-0.5l0.4-0.4v-0.2l-0.1-0.3
		l-0.2-0.3l-0.2-0.2l-0.1-0.1l-0.6-0.9l-0.3-0.5l-0.1-0.2l0-0.3l-0.1-0.4l0-0.3l0-0.2l0.1-0.1l0.5-0.7l0.1-0.2v0l0.1-0.5l0.1-0.3
		l0.7-0.1l0.1,0l0.5-0.5l0.3-0.3l0.4-0.3l0.1-0.1l0-0.4l0-0.1l0.2-0.2l0.2-0.1l0.5-0.3L509,59l0.3-0.4l0-0.1v-0.1v-0.5l-0.1-0.2
		l-0.3-0.4l0-0.1l0-0.6l0.1-0.2l0.1-0.2l0.2-0.1l0.6-0.2l0.1-0.1l0.1-0.1l0.1-0.3v-0.2l0-0.4l-0.2-1.6l0-0.3l-0.2-0.6v-0.2l0.1-0.6
		l0.1-0.5l0-0.2l0-0.8l0.1-0.6l0-0.9l0.1-0.5l-0.2-0.2l-0.1-0.2l0-0.1l0.1-0.3l0-0.1l0.2-0.6l0.2-0.4l0.2-0.3l0.1-0.2l0.2-0.6
		l0.1-0.8l-0.1-0.3l-0.3-0.8l-0.3-0.4l0.5-0.4l0-0.1l0.1-0.2l0.2-0.6l0.1-0.2l0.2-0.3l0-0.1l0-0.1l0-0.2v-0.1l0-0.2l0.1-0.4v-0.1
		l-0.1-0.3v-0.1l0-0.2l0.2-0.3l0.6-0.7l-0.3-0.1l-0.2,0l-0.1,0l-0.2,0l-0.4,0l-0.1-0.2l0-0.1l0-0.3l-0.1-0.5v-0.1v-0.2v-0.2l0.4-1.6
		l0.6-1l0-0.3L512,33l0-0.7l0.3-0.2l0.5-0.1l0.8-0.2l1.3-0.4h0.3l0.2,0.1l0.2,0.1l0.3,0.1L517,32l0.7,0.2h0.3l0.9-0.3l0.3-0.2
		l0.4-0.2l0.3-0.1l0.5-0.2l0.4-0.1l0.6-0.1h0.5l0.5-0.1l0.7,0l0.2,0.1l0.5,0.3l0.5,0.2l0.9,0.2h0.2l0.5,0l0.9,0l0.1,0l0.1,0.1l0-0.1
		l-0.1-0.1l0.4-0.1h0.8l0.3-0.1l0.6-0.1l0.3,0l0.1-0.1l0.3-0.2l0.7-0.2l0.5,0.2h0.5l0.6,0.1l0.3,0.1l-0.1,0.3l0.1,0.3l0.6,0.6
		l0.2,0.2l0.6,1l0.2,0.5l0.3,0.2l0.7,0.4l0.2,0.2l0.1,0.2l0.5,0.4l0.2-0.1l0.2-0.2l0,0l0.3-0.5l0.1-0.2v-0.1l0-0.1l0-0.2l0-0.1
		l0-0.1v-0.3l0-0.2l0.1-0.2l0.1-0.1l0.3-0.2l0.3-0.1l0.3-0.1l0.1-0.1l0.4-0.2l0.2-0.1l0.4-0.1l0.2,0l0.1,0l0.2-0.1l0.2-0.2L541,30
		l0.2-0.1l0.3-0.2l0.1,0l0.2-0.1l0.2-0.1l0.1,0l0.1-0.1l0.9-0.8l0.9-0.8l0.2-0.2l0.1-0.2l0.1-0.4l0.3-0.6l0.5-0.6l0.3-0.4l0.2-0.2
		l0.3-0.1l0.2-0.1l0.3-0.1l3.1-1.5l1.1-0.6l0.7-0.4l0.1,0l0.1-0.1l0.1-0.1l0.3-0.2l0,0l0.1,0l0.2-0.1l0.2-0.2l0.3-0.3l0.4-0.4
		l0.3-0.2l0.3-0.2l0.5-0.2l0.2,0h0.2l-0.1-0.1l-0.5-0.4l-0.3-0.2l-0.3-0.1l-0.3-0.2l-0.2-0.2l-0.2-0.2l-0.1-0.1l-0.1-0.1l-0.5-0.6
		l-0.2-0.3l0-0.3l0-0.2l0-0.1l-0.1-0.3l-0.4-1.1l-0.1-0.3l0-0.2l0-0.5l0-0.1l0-0.1l-0.1-0.1l-0.2-0.1l-0.2,0l-0.3-0.1l0.1-0.3l0-0.4
		l0-0.3l0-0.3l0-0.2l-0.2-0.4l0-0.1l-0.1-0.4L550,11l0-0.5l0-0.4l0.2-0.3l0.1-0.2l0.2-0.3l0.1-0.5l0.1-0.2l0.1-0.3l0.1-0.3l0.1-0.1
		l0-0.1l0-0.4l0-0.3l0.1-0.2l0.4-0.5l0.1-0.5l0.3-0.4l0.2-0.2l0.1-0.1l0.9-0.3l0.1-0.1l0.1-0.1l0.2-0.3l0-0.3l-0.2-0.6l0-0.2l0-0.1
		l0-0.2l0-0.2l0.2-0.2l0.6-0.2l0.3-0.1l0.7-0.3l0.5-0.2l0.1-0.1l0.3-0.3l0.1,0l0.4-0.2l0.8-0.6l0.2-0.2l0.2-0.2 M550.1,14.2
		l-0.2,0.6l-0.6,0.8l-0.4,0.6l-0.1,0.8l-0.5,1l-0.2,0.2l-1,0.6l-0.4,0.8l0.2,0.6l-0.1,0.5l0,0.5l0,0.6l0.1,0.2h-0.4l-0.2-0.2
		l-0.8-0.3l-0.8-0.3h-0.4l-0.3-0.1l0-0.1l-0.1-0.2l-1,0l-0.2,0l-1.4,1l-0.2,0.1l-0.4,0l-0.2,0.1l0,0.5l-0.1,0.4l-1.9-0.3l-0.9,0.1
		l-1.8-0.3l-0.3,0l-0.8,0.3l-0.5,0.2l-0.6,0.2l-1.4,1l-0.8,0.3l-0.7,0l-1.5,0.8l-0.4,0.2l-0.3,0.4l-0.3,0.1l-0.4,0l-0.8,0.2l-0.4,0
		l-0.8,0.3l-0.6,0.5l-0.2,0.3l-0.5,0.3l-0.4,0.6l-0.4,0.3l-0.4,0.2l-0.2,0.3L523,29l-0.1,0.1h-0.3l-0.6,0.2l-0.3,0.3l0.1,0.3l0,0.3
		l-0.1,0.6"/>
</g>
</svg>
