<?xml version="1.0" encoding="utf-8"?>
<!-- Generator: Adobe Illustrator 17.1.0, SVG Export Plug-In . SVG Version: 6.00 Build 0)  -->
<!DOCTYPE svg PUBLIC "-//W3C//DTD SVG 1.1//EN" "http://www.w3.org/Graphics/SVG/1.1/DTD/svg11.dtd">
<svg version="1.1" id="Layer_1" xmlns="http://www.w3.org/2000/svg" xmlns:xlink="http://www.w3.org/1999/xlink" x="0px" y="0px"
	 viewBox="0 0 900 300" enable-background="new 0 0 900 300" xml:space="preserve">
<g>
	<path fill="none" stroke="#AC4C5E" stroke-miterlimit="10" d="M899.5,68.6l-0.3,0.1l-0.8,0.8l-0.9,0.8l-0.5,0.2l-0.8,0.2l-0.8,0.3
		l-0.8,0.2l-2.1,0.7l-1.4,0.2l-0.2,0.2l-0.2,0.2l-0.8,0.6l-0.3,0.2l-0.4,0.1l-2.6-0.1l-3-0.9l-1.2-0.2l-2.9-0.2l-0.5,0.1l-0.6,0.4
		l-0.9,1.1l-0.4,0.5l-0.2,0.5l-0.2,0.4l-0.5,0.9l-0.4,0.2h-2.5h-0.5h-1.1l-1.8,0.1H869l-0.5-0.1l-2.1-1.4l-0.9-0.5l-0.8-0.1
		l-3.4-0.2l-2.2-0.2l-3.5,2.1l-0.4,0.2l-0.2,0.1h-1.1l-1.7,1l-0.5,0.1l-0.9-0.2l-0.6-0.2h-0.4l-0.8,0.5l-0.5,0.1h-1.7l-0.8,0.2
		l-1.3,0.9l-0.2,0.1l-0.1,0.1l-0.3,0.2l-2.5,1.6l-0.8,0.6l-1.2,0.4l-0.5,0.1l-0.9,0.2h-1.1l-0.8,0.4l-0.9,0.2l-0.5,0.4l-0.4,0.8
		l-1.4,1l-0.6,0.2l-1.1-0.1l-0.5,0.5l-1.2,1.1l-0.5,0.1l-1.6,0.2l-0.5,0.2l-0.8,0.5l-0.9,0.6l-1.5,1l-0.4,0.1h-0.8l-2,0.1l-1.1-0.2
		l-2.1-0.9l-2-0.6l-0.5,0.1l-2.1,0.8l-1.1,0.1l-0.9-0.2l-1.6-1.1l-0.5-0.1l-0.4,0.1l-1.1,1l-0.7,0.4l-0.6,0.2l-0.6,0.1l-0.8,0.1
		l-2.5,0.9l-0.6,0.2l-0.5,0.4l-0.9,1.5l-0.9,1.3l-0.8,0.5l-3.5,0.8l-1.3,0.3l-0.7,0.1l-0.6,0.2l-3.9,0.9l-0.6,0.2l-0.9,0.7l-0.6,0.2
		l-0.8,0.1l-0.6-0.3l-0.9-1l-0.9-1l-1-0.8l-0.3-0.3l-0.9-0.5l-2.1-0.1l-1.9-0.4l-0.8-0.2l-0.7,0.1l-0.4,0.1l-1.4,0.4l-1.9,0.3
		l-1.4,0.5l-1.1,0.2l-1.6,0.2l-0.3,0.1l-1.3,0.9l-0.5,0.1l-0.6,0.1l-0.9-0.2l-0.5-0.3l-0.8-0.4l-0.7-0.8l-0.2-0.1l-0.4-0.1l-1.9-0.5
		l-0.9-0.2l-0.8-0.2l-0.8-0.2h-0.8l-1.6,0.4l-0.2,0.1l-0.4,0.1l-1.6,0.4l-3.2,0.6l-0.8,0.2l-4.6,2.6l-1.7,0.9l-1.3,0.7l-1.1,0.5
		l-0.9,0.2l-0.8,0.1l-1.6-0.1l-2.3-0.1l-2-0.2l-1.8-0.1l-1.4-0.1h-0.4l-1,0.2l-1.6,0.6l-0.3-0.1l-0.5-0.2h-0.1l-0.6,0.2l-0.4,0.4
		l-0.3,0.9l-0.1,0.3l-0.2,0.6l-0.2,0.1l-0.2-0.1h-0.7H722h-0.2l-0.6-0.1h-0.1l-0.7-0.1l-1.1-0.2l-0.2-0.1l-0.4-0.1l-0.6-0.1
		l-0.9-0.1l-2.2-0.1l-6.5,0.3l-0.8-0.1l-0.6-0.2l-0.9-0.6l-1.4-0.8l-0.9-0.4l-1.1-0.2l-3.7-0.3l-2.5-0.1h-0.2l-3.3-0.2h-2.4
		l-2.9,0.4l-1.9,0.3l-1.6,0.3l-3.3,0.5l-3.9,0.3h-0.5l-0.4,0.1l-1.3,0.1l-0.2-1.2l-0.1-0.4v-0.2l-0.1-0.8l-0.8-1.1l-0.5-0.7
		l-0.5-0.6l-0.6-0.1l-1.8-0.8l-1.5-0.4l-0.5-0.1l-1.1,0.1l-0.4-0.1l-2.2-1.5l-0.5-0.2h-2.5l-0.5-0.2l-0.8-0.9l-0.5-0.2l-0.6-0.1
		l-0.5,0.1l-1.8,0.8h-0.6l-0.8-0.1l-1.5-0.2l-0.8-0.3l-0.5-0.4l-1.6-1.6l-0.7-0.4l-2.6-1.5l-1.3-1.1l-0.9-1.3l-0.6-0.4l-0.6-0.2
		l-0.4,0.1l-1.4,0.6l-0.6,0.3l-0.1,0.1l-0.9,0.2l-2.9,0.6l-0.7,0.2l-0.5,0.1l-0.5,0.2l-0.8,0.6l-1.1,0.7l-1.1,0.2l-0.9,0.2l-1.2-0.5
		l-2,0.5h-0.9L628,88l-0.8-0.8l-2,0.1l-0.2,0.1l-0.5,0.5l-0.7,0.2l-0.1,0.1l-0.1,0.1v0.2l0.1,3.8l0.6,1.3v0.6l-0.6,1.2l-0.2,1.4
		l-0.2,2.1l-0.3,2l-0.3,1.1l-0.5,0.9l-0.2,0.2l-0.1,0.1l-0.1,0.1l-1,0.9l-0.5,0.6l-0.3,0.8l-0.2,0.8l-0.1,0.4l-0.9,0.5h-1.5
		l-0.8,0.1l-0.6,0.2l-1.9,1l-0.8,0.4l-1.5,0.8l-2.1,1.1l-0.5,0.2h-0.6l-1.2-0.4l-0.6-0.2l-1-0.2l-0.9,0.1l-0.9,0.1l-1.5,0.4
		l-2.4,0.6l-0.8,0.2l-1.6-0.2l-1.2,0.1l-0.9,0.1l-0.6-0.1l-1.4-0.4l-3.5-1.1h-0.1l-1.1-0.3l-2.8-0.2l-0.9-0.1l-1.9-0.4l-2.2-0.2
		h-0.8l-0.5,0.2l-2.3,1.9l-0.5,0.2h-1.2l-0.6,1.1l-1.6,1.4l-0.1,0.1l-0.5,0.5l-0.9,1.8l-2.8,5.4l-0.6,1.4l-0.4,0.6l-0.1,0.2l-2,2.4
		l-0.9,0.9l-0.6,0.5l-2.3,2.1l-0.2,0.3v0.7v1.1l0.1,0.7l-1.1,0.1l-0.3,0.9l-0.1,0.2v-0.1l-0.7-0.5l-1.4-0.4l-0.3-0.2h-1.1l-0.5,0.2
		v-0.1l-0.9,0.4l-0.4,0.3l-1.1,1.7l-0.3,0.7l-0.3,0.7l-0.7,0.8l-0.1,0.8l-0.1,0.4l-0.8,0.6l-1.3,0.7l-0.6,0.7l-0.6,0.8l-0.2,0.4
		l-0.8,0.6l-0.8,0.6l-0.9,0.6l-0.3,0.4l-0.1,0.4L546,145l-0.4,1.2l-0.2,0.6l-0.1,0.6l-0.1,0.2l-0.2,0.7l-0.6-0.1l-0.8-0.1l-0.5-0.2
		l-0.3,0.7l-0.1,0.4l-0.2,0.5l-0.1,0.1l-0.1,0.5l-0.2,0.4l-0.1,0.3l-0.1,0.1l-0.1,0.4l-0.6,1.1l-0.1,0.1l-0.3,0.5l-0.7,0.6l-0.9,0.6
		l-0.6,0.3l-0.1,0.1l-1.4,0.9l-0.6,0.5l-0.5,0.6l-0.4,0.9l-0.1,0.1l-0.7,1l-0.4,0.4l-0.6,0.6l-1.5,1.7l-0.4,0.5l-0.1,0.1l0,0.2
		l-0.4,0.5l-0.5,0.7l-0.5,0.8l-0.3,0.7l-0.2,0.5l-0.2,0.5l-0.5,0.8l-0.5,0.2l-4.5,1.2l-2.5,0.7l-1.3,0.4l-0.9,0.4l-0.8,0.5l-0.3,0.2
		l-1.4,0.1h-2.6l-2.2,0.1l-3.8,0.1l-3.1-0.3l-1.5-0.4l-1-0.4l-1-0.3L501,169h-0.9l-0.6,0.3l-0.5,0.6l-0.7,0.2h-0.6l-0.8-0.5
		l-0.6-0.1l-0.4,0.1l-1.3,0.9l-0.4,0.1l-2.2,0.1l-3.6-0.4l-0.5-0.3l-1.4-1.3l-0.2-0.1H486l-1.5,0.8l-0.3-0.1l-0.4,0.1l-0.2-0.1
		l-0.4-0.2l-0.4-0.2l-1.2,0.1l-0.8,0.3l-0.9,0.5l-0.7,0.5l-1,0.2l-0.4,0.5l-0.3,0.3l-2.5,0.4l-0.3,0.2l-0.2,0.1l-0.7-0.3l-0.2,0.1
		l-2.1,0.8l-0.4,0.2l-0.2,0.1l-0.6,0.9l-0.5,0.3l-1.2,0.4l-0.7,0.2l-0.5,0.1l-2.6,0.6l-2.5-0.1h-1.9h-1.1l-0.1,0.1l-1,0.6l-0.8,0.7
		l-0.3,0.4l-0.7,0.7l-0.5,0.2l-0.8-0.1l-1-0.4L452,177l-1.2-0.3l-0.6,0.2l-0.4,0.2l-1,0.8l-0.5,0.6l-0.3,0.4l-0.1,1l-0.5,0.4
		l-1.2,0.3l-0.3,0.3l-0.2,0.3l-0.2,0.3l-0.2,0.7l0.2,1l0.1,0.6l-0.3,0.4l-0.4,0.3l-1.2,0.2l-0.6,0.4l-0.2,0.3l-0.4,1.4l-0.3,0.4
		l-0.2,0.1l-0.6-0.1l-1.7-0.9h-0.4l-0.9,0.2l-0.9,0.3l-0.7-0.1l-1.9-0.6l-0.8-0.2l-0.9,0.1l-0.6,0.3l-0.4,0.2l-0.3,0.4l-1.3,2.5
		l-0.8,0.5l-0.3,0.3l-0.7,0.8l-0.4,0.2l-1.9,0.8l-1.5,0.8l-1.4,0.4l-0.7,0.4l-1.1,0.8l-0.7,0.3l-1.6,0.2l-0.5,0.4l-1.6,1.5l-1.5,0.7
		l-0.5,0.3l-0.2,0.2l-1.1,1.7l-0.5,1.4l-2.6,3.1l-1.4,1.2l-1.3,1.6l-0.7,0.8h-0.1l-1.1,1.4l-1.4,2.6l-0.9,1l-0.9,0.8h-0.8l-0.9-0.1
		l-0.2,0.1l-0.3,0.2l-0.2,0.2l-0.5,1.1l-0.3,0.5l-1.2,1l-1.4,0.9l-0.6,1.1l-0.3,0.2l-2,0.4l-0.3,0.2l-1.1,1l-1.2,0.5l-0.5,0.9
		l-1.1,2.8l-0.8,1.1l-0.6,0.6l-1.6,1.2l-1.1,1.1l-0.6,0.9l-0.8-0.4l-1.1-0.7l-0.3-0.4l-0.5-1l-0.4-0.7l-1.3-2.3l-0.6-1.2l-0.6-0.5
		l-0.6-1.1l-0.8-0.7l-0.6-0.4l-0.3-0.5l-1.9,1.8l-0.9,1.8l-1.3,0.7l-0.7,0.4l-0.3,0.4l-0.1,0.7l0.2,1.1v0.7l-0.2,0.4l-0.3,0.2
		l-1.7,0.6l-0.8,0.4l-0.8,0.5l-0.9,0.6l-0.5,0.8l-0.2,0.4l-0.1,0.1l-0.1,0.1l-0.1,0.2l-0.5-0.2l-2.1-0.1h-1.8h-0.6l-0.1-0.2
		l-0.3-0.8l0.1-0.4l1.2-1l0.5-1.2l-0.1-0.3l-1.3-1.9l-0.4-0.6l-0.5-0.5l-0.6-0.7l-0.7-0.4l-0.5-0.2l-0.1-0.1l-0.4-0.6L358,222
		l-0.8-0.4l-0.3-0.2l-0.3-0.1h-0.5l-0.5,0.2l-0.5,0.5l-0.2,0.2l-0.3-0.1l-0.5-0.4l-1.5,0.1l-1.2-0.1l-0.2,0.1l-0.1,0.5l-0.9,0.7
		l-0.8,0.3l-0.6-0.1l-0.6-0.2l-0.4,0.2v-0.1l-0.5,0.1l-0.7-0.2l-0.5,0.1l-0.6,0.3l-1.1,0.6l-0.5,0.1l-0.4,0.2l-0.8,0.9l-0.4,0.2
		l-0.9,0.1l-0.8-0.2h-0.5l-0.5,0.3l-0.1,0.5l-0.1,0.2l-0.6,0.6l-0.4,0.7l-0.2,0.2l-0.8,0.4l-1.5-0.6l-1.1-1.6l-0.4-0.6l-0.9-1.4
		l-0.9,0.2l-0.2,0.1l-0.5-0.3l0.4-0.9l-0.1-1l-1.1-0.6l-0.4-0.1l-0.5,0.1l-0.9,0.1l-0.1,0.5l-0.1,0.5l-0.2,0.4l-0.5,0.3l-0.6,0.2
		l-0.5-0.1l-0.3-0.2l-0.6-0.1l-0.3-0.1l-0.1-0.3l-0.3-0.4v-0.1l-0.4-0.2l-1-0.6l-0.2-0.6l-0.1-0.5l-0.2-0.8v-0.4L323,218l-0.1-0.2
		l-0.3-0.5l-0.4-0.3l-1.4-0.6l-0.4-0.3l-1.2-1.2l-1.1-0.2l-0.5-0.5l-0.6-0.2l-0.9-0.2l-0.8-0.5l-0.1-0.1l-0.2-0.1l-0.5-0.2l-1.1-0.2
		l-2.9-0.1h-0.4l-3.6-0.1h-1.3l-1.5,0.3h-1h-2.1l-3.3-0.2l-1.9,0.7l-1.2,0.4l-2.8,0.1l-0.9,0.4l-1-0.1l-0.5,0.2h-0.7l-0.9-0.2
		l-1.5-0.1l-0.3,0.1l-0.8,0.4l-0.5,0.1h-0.5l-0.9-0.2l-1.1,0.3l-0.3-0.4l-0.2-0.1l-0.8-0.2h-1.1l-0.5,0.2l-1.2,0.8l-0.2,0.1
		l-1.1-0.2l-0.6-0.4h-0.2l-0.2,0.2h-0.2l-0.2-0.1l-0.1-0.3l-0.1-0.1l-0.6,0.2l-0.4-0.5l-0.2,0.1l-0.6,0.5h-0.5l-0.3,0.2l-0.2,0.1
		l-0.5-0.2h-0.9l-0.1-0.3l0.3-0.4l0.2-0.4v-0.8l-0.3-0.3l0.2-0.4v-0.5l0.6-1.2l-0.3-0.5l-0.4-0.1l-0.1-0.2l0.2-0.3l-0.1-0.2h-0.4
		l-0.6-0.1l-0.7,0.5l-0.6,0.4l-0.2,0.1l-0.1-0.1l-0.1-0.6l-0.3-0.6l-0.3-0.8l-0.2-0.7l-0.4-0.9l-0.1-0.1l-0.9-0.3l-2.2,0.5l-0.2,0.1
		l-0.8,0.2h-0.3l-0.6-0.4l-0.2-0.1l-0.6-0.2H261l-0.2,0.2l-0.2,0.1l-0.4,0.1l-1.2-0.2l-0.1-0.1h-1.8l-0.6,0.1l-1.1-0.1l-0.4,0.1
		l-1.4-0.1h-1.2h-0.8l-1.9-0.2l-2.1-0.5h-1.1l-1-0.5h-0.9l-0.6-0.1l-0.4,0.1l-1.2,0.6l-1.1,0.3l-1.7,0.6l-0.5,0.1l-1.3,0.7l-0.9,0.2
		l-0.6,0.1l-0.5-0.5l-0.2-0.2h-0.9l-0.5-0.4l-0.5-0.3l-0.1-0.1l-0.3-0.2l-0.2-0.4l-0.3-0.4l-0.1-0.5l-0.2-0.2l-0.2-0.3l0.2-0.6
		l-0.2-0.6l-0.1-0.1l-1.1-0.2l-0.2-0.1l-0.1-0.2l-0.2-0.6l-0.2-0.8l0.1-1.4l-0.4-1.1l-0.3-0.1l-0.4,0.4l-0.2,0.1l-0.7,0.5h-0.6
		l-0.3-0.1l-0.2-0.1l-0.2-0.3l-0.1-0.6l-0.4-0.7l0.3-1.4l0.1-1.4V194l-0.1-0.8l-0.1,0.1v-0.7l-0.1,0.1l-0.1-0.6l-0.1-0.2l-0.2-1.6
		l-0.1-0.4L226,188l-0.2-0.6l-0.8-0.1l-0.4-0.1l-0.6-0.1l-0.6-0.2l-1.4-0.6l-0.4-0.2l-1-0.6l-1.2-0.5l-0.5-0.2l-0.4-0.1l-0.6-0.5
		l-0.6-0.2l-0.8-0.3l-0.2-0.1l-0.9,0.7l-0.1,0.1l-0.5,0.1l-0.6-0.2l-0.5-0.1h-0.6l-0.2-0.1l-0.6-0.8l-0.5-0.5l-0.6,0.3l-0.2,0.2
		l-0.8,0.8l-0.2,0.2l-0.2,0.2l-0.1,0.1l-0.2,0.1l-0.8,0.4l-0.6,0.1l-0.5-0.2h-0.2l-0.9,0.3l-0.2-0.9l-0.3-0.1l-0.6-0.2l-0.8-0.2
		l-0.5-0.3l-0.4,0.1h-0.4l-0.6-0.3l-0.6-0.1l-2.6,0.5h-0.1h-0.1l-0.5,0.1l-0.8,0.3l-0.3,0.7l-0.2,0.2l-0.3,0.1l-1.6,0.2l-0.4,0.2
		l-0.4,1l-0.2,0.2l-0.6,0.3h-0.1l-0.7-0.2l-0.4-0.1l-0.9-0.3l-0.8-0.1l-0.6,0.1l-0.9,0.4l-0.5,0.4l-0.2,0.3l-0.5,0.4l-0.5,0.3
		l-0.3,0.4l-0.3,0.4l-0.6,0.6l-0.4,0.2h-0.2l-0.6-0.1l-1.5-0.2l-1.2,0.5l-0.5-0.1l-0.8-0.4l-0.2-0.1l-0.8-0.3v-0.1l-0.2-0.1
		l-1.2-0.1l-0.4-0.1l-0.4-0.2l-0.7-0.5l-0.2-0.4l-0.8-0.4l-0.8-0.8l-0.3-0.8l-0.1-0.4l-0.3-0.2l-1.3,0.1l-0.4-0.1l-0.6,0.3h-0.4
		l-0.5-0.3l-1.1,1.8l-0.2,0.4l-0.2,0.8l0.4,0.6l1.2,1.8l0.2,0.5l0.1,1.3l-0.3,0.4l-1.1,0.4l-1.1,0.3l-0.4,0.1l-1.4,0.4l-0.6,0.4
		l-0.5,0.5l-0.1,0.1l-1.6,1.1l-0.6,0.5l-2.6,1.8l-0.5,0.4l-0.2,0.1L161,199l-1,0.5l-1.4,0.3l-0.8,0.2l-1.1,0.1l-0.5-0.1l-0.8-0.2
		l-1.1-0.3l-2-0.1l-0.4-0.1l-0.6-0.1l-0.4-0.1h-0.6l-0.8,0.2l-0.6-0.1l-0.6,0.4l-0.6,0.2l-0.4,0.3l-0.3,0.1l-0.8-0.1l-0.4,0.1
		l-0.2,0.2l-0.3,0.6l-0.4,0.1h-0.3l-0.2-0.1l-0.6-0.3l-1-0.2l-0.3-0.1l-0.5,0.1l-0.3-0.1h-1.8l-1.8,0.1l-0.9,0.4l-0.1,0.1l-0.6,0.2
		l-0.6,0.6l-0.4,0.2l-0.6,0.3l-4.3,0.6l-1.5,0.2h-0.6h-0.3h-1h-0.9l-1.9-0.2l-0.8,0.1l-0.3,0.1l-1.1,0.2l-1.9,0.2l-0.9,0.4l-1,0.4
		l-1.9,0.3l-1.1,0.3l-0.9,0.2l-0.8,0.1h-0.3h-0.6h-0.7l-0.6-0.1h-0.1l-2.2-0.1l-0.7,0.1l-0.5,0.2l-1.4,0.6l-0.5,0.1h-0.8l-1.7-0.1
		h-0.2l-1.7-0.2l-2.1-0.4l-2-0.6l-0.5-0.3l-0.4-0.5l-0.3-0.8l-0.2-0.4l-0.1-0.1l-0.8-0.9l-0.3-0.6l0.3-0.8l0.3-0.9l0.2-0.9l-0.4-0.5
		l-0.5-0.8l-0.3-0.7l-0.1-0.4l-0.3-1.1l-3.9-0.1h-1.2l-0.5,0.1l-1.3,1.1l-0.2-0.1l-0.6-0.2l-2-0.5h-0.1l-0.5-0.1l-2.9-0.7l-2.5-0.6
		l-1.1-0.7l-0.9-0.1l-1.4-0.1h-0.5l-1.4,0.5l-0.1,0.1l-0.1,0.6l-0.3,0.3l-0.6,0.4l-0.7,1l-1.4,1l-1.1,0.2h-0.2l-0.8-0.4l-0.4-0.2
		l-0.8-0.4l-1.5-0.4l-0.2-0.1l-0.3,0.2l-0.5,0.1l-0.6,0.1l-2.8-0.6l-2.5-1.2l-0.3-0.1l-0.9,0.3l-0.7-0.3l-0.2-0.4v-1l0.3-0.7
		l-0.1-1.6l-0.4-0.8v-2.7l1.1-0.9l1.1-0.5l0.9-0.1l0.2-0.2l-1-0.2l-1.5-0.4l-1.2-0.4l-2.3-0.8l-0.2-0.1h-0.1l-0.4-0.1l-0.3-0.1
		l-1.2-0.3l-2.2-0.6l-0.6-0.4l-0.4-0.5l-0.3-1.2l-1.1-1l-0.5-0.3l-0.8-0.2l-2.5-0.7l-0.2-0.1l-0.5-0.2l-1.8-0.5l-1.4-0.4l-1.5-0.5
		l-0.6-0.3l-1.6-1l-0.9-0.1l-0.7,0.2l-0.6,0.3l-2.3,0.6l-1.2,0.1l-1.4-0.3l-2.1-0.9l-0.4-0.1l-0.5,0.1l-0.8,0.8l-0.8,0.6l-0.8,0.6
		l-0.1,0.2l0.1,0.3l0.8,0.5l0.8,0.4l0.2,0.4v0.3l-0.3,0.4l-0.5,0.1l-0.9-0.1l-0.6-0.2l-0.5-0.3l-0.4-0.3l-0.8-1.4l-0.9-0.5l-0.3-0.1
		l-0.1-0.3v-0.4l0.4-0.8l-0.1-0.6l-0.5-0.3l-0.6-0.2l-0.9-0.1l-1.6-0.2l-1.7-0.9l-0.6-0.8l-0.2-1.2l0.4-0.4l0.8-0.4h0.6l0.5-0.3
		v-0.3l-0.2-0.3l-1.3-0.3l-0.3-0.3l0.3-0.9l-0.7-1.4l-0.5-0.4l-0.6-1.2l-0.3-0.3h-0.2l-0.2,0.1l-0.1,0.9l-0.2,0.5l-0.3,0.2h-0.6
		l-0.3-0.3L9.8,165l-0.5-0.4L8,164.4L7.3,164H6.8l-0.3-0.1l-1.4-1.6l-0.5-0.9L4.1,161l-0.2-0.2v-0.2l0.2-0.3l0.4-0.2l0.1-0.5
		l-0.3-0.5L3,158.8l-0.5-0.4l-0.7-1.2L1.5,157l-0.1-0.3l-0.1-0.2l0.1-0.2l0.5-0.6L1.6,155l0.1-0.3l0.4-0.3l0.3-1L2.1,152l0.3-0.4
		l-0.2-0.3l-0.4-0.2v0.2l0.3-0.2l-0.3-1.2l0.2-0.4l0.7-0.6l0.6-1.5l0.5-0.5l0.5-0.5v-1l-0.2-0.3l-1-0.3l-0.5-0.2l-0.2-0.3v-0.2
		l1.3-1.1l0.4-0.1h0.3l0.8-0.3l0.2-0.8v-0.7l0.7-0.7l1.7-1.5l0.4-0.8l0.4-1.6l-0.2-0.7l0.2-0.6l0.2-0.4l0.2-0.6l-0.5-1.7l-0.6-0.9
		l-0.3-1.4L7,129.9l0.1-0.7l-0.5-0.5l0.1-0.2H7l0.8,0.3h0.3l0.3-0.2l0.1-0.7l-0.2-0.2H8.1L8,127.8l0.2,0.4l-0.1,0.2l-0.3,0.1
		l-0.6-0.4l-0.5-0.2L6,127.6l-0.3-0.2H5.5l-0.9,0.3l-0.1,0.2l0.5,0.7l0.1,0.3l0.2,0.3l0.2,0.8l-0.2,0.2H5l-0.4-0.1H4l-0.2,0.2
		l-0.1,0.3l-0.9,0.3L2,131l-0.8,0.1L1,131.2l-0.1,0.2l0.1,0.3l-0.2,0.1l-0.1,0.1l-0.2-0.1v-0.4l0.2-0.4l0.5-0.3l0.8-0.1l0.5-0.2
		l0.2-0.5l-0.2-0.4l0.2-0.6l-0.5-0.6l-0.5-0.5l-0.1-0.4l0.2-0.5v-0.7l0.2-0.3l-0.2-0.6l-0.2-0.2"/>
</g>
</svg>
