<?xml version="1.0" encoding="utf-8"?>
<!-- Generator: Adobe Illustrator 17.1.0, SVG Export Plug-In . SVG Version: 6.00 Build 0)  -->
<!DOCTYPE svg PUBLIC "-//W3C//DTD SVG 1.1//EN" "http://www.w3.org/Graphics/SVG/1.1/DTD/svg11.dtd">
<svg version="1.1" id="Layer_1" xmlns="http://www.w3.org/2000/svg" xmlns:xlink="http://www.w3.org/1999/xlink" x="0px" y="0px"
	 viewBox="0 0 900 300" enable-background="new 0 0 900 300" xml:space="preserve">
<g>
	<path fill="none" stroke="#77885C" d="M689.3,226.8l-0.4,0.4v0.3l0.4,0.4l0.2,0.1v1.1l0.7,1.5l0.4,0.3l0.1,0.8l0.2,0.5l0.4,0.3
		l0.4,0.6l-0.2,0.7l-0.2,0.3l0.1,0.3l0.8,0.4l0.5,0.5l0.3,0.2l0.6,0.1l0.2,0.1l0.2,0.3l0.2,0.4l0.3,0.3l-0.2,0.8v0.8l-0.2,0.3
		l-0.3,0.1l-2.1,0.6l-0.9,2.2l-1.2,2.4l-3.2,3.2l-7.9,2.5l-1.6,1.3l-0.8,0.9l-0.3,0.4l-2.3,4.1l-1,1.9L672,259l-0.4,0.5l-0.7,0.5
		l-0.7,0.5l-2.4,2.1l-0.5,0.2l-0.5,0.1l-0.3-0.1l-0.4-0.2l-0.4-0.1l-0.7-0.1l-0.6,0.1l-0.6,0.3l-0.3,0.2l-0.7,0.8h-0.1l-0.9,0.9
		l-0.3,0.4l-0.2,0.5l-0.2,0.9l0.3,1.5l-0.5,1.1v0.7l-0.2,0.5l0.1,1.1l-0.1,1l-0.2,1.3l0.3,0.7l-0.1,0.2l-0.3,0.4l-0.3,0.3l-1,1.2
		l-1.1,1.1l-0.9,0.7l-4,3.4l-1.4,0.5l-0.7,0.2l-0.2,0.3l-0.8,1.4l-0.1,0.8l-0.9,1.5l-0.4,0.8l-0.1,0.2l-0.2,0.4l-0.1,1.2l-5.4-2.7
		l-0.3,0.1l-0.3,0.1l-4.6,2.2l-0.7,0.3l-2.1,1l-0.1,0.4l0.5,0.9v0.6l-0.5,0.3l-0.4,0.3l-0.3,0.4l-0.2,0.2l-0.5,0.7l-0.7,0.4
		l-0.1,0.2l-0.2,0.7l-0.3,0.7l-0.2,1l0.1,1.8l-0.3,0.5l-1.5,0.1l-0.5,0.1l-0.2,0.2l-0.2,0.2l-0.2,0.3l-0.7-0.2l-0.3-0.1l-2.3-1.4
		l-0.3-0.2l-0.8-0.4l-0.3-0.1l-0.5-0.1l-1.5-0.3l-0.5-0.1l-0.3-0.2l-0.6-0.7l-0.3-0.3l-0.2-0.3l-0.3-0.2l-1-0.7l-1.3-0.4l-0.5-0.1
		l-1.5-0.2l-0.7-0.1l-0.5-0.1l-0.5-0.1l-0.8-0.2l-0.7-0.2l-0.4-0.1l-0.8-0.2l-0.4-0.1l-0.2-0.1l-0.3-0.4l-0.5-0.7l-0.4-0.1l-1-0.2
		l-1.2-0.2h-0.4l-1.3,0.2l-1.7,0.3l-0.4,0.1l-2.9,1.6l-0.8-1.1l-0.2-1.4l-0.1-2.7l-0.1-0.9l-0.2-0.7l-0.2-0.8l-0.2-0.5l-0.2-0.3
		l-0.7-1.4l-1,0.2l-0.8,0.1l-3.8,0.6l-1,0.2l-1.1,0.3l-0.7,0.2l-1.1-0.1h-0.4l-0.9,0.7l-0.2-0.4l-0.5-0.8l-2.1-2.7l-0.7-0.9
		l-0.5-0.3l-0.4-0.2l-0.3-0.1l-0.2-0.1l-0.7-0.1l-0.3-0.1h-0.8l-1,0.2l-0.7,0.1l-0.8,0.1l-0.8,0.1l-0.6,0.1l-5.9,0.8l-0.6,0.1
		l-1.2,0.3l-0.4,0.1h-0.2l-0.4-0.1l-0.1-0.1l-0.2-0.2l-0.7-0.8l-1.3-1.6l-0.8-1l-0.4-0.5l-0.4-0.4l-0.6-0.8l-0.5-1.1l-0.4-0.6
		l-2.1-2.4l-0.8-0.7l-0.6-0.5l-0.8-0.3l-0.7-0.2l-0.8-0.3l-2.3-0.7l-0.3-0.2l-0.3-0.3l-0.3-0.2l-0.3-0.1l-3.8-0.6l-4-1.4l-0.7-0.1
		l-0.7,0.1l-0.5-2.1v-0.9l0.2-0.8l2.9-6.2l0.2-0.8l0.6-7l0.1-0.2l0.2-0.1l1.8-8.6l-0.1-0.3l-0.2-0.3l-0.1-0.1l-0.1-0.2l-0.2-0.3
		l-0.2-0.5l-0.3-0.8l-0.8-1.7l-0.1-0.4l-0.4-1.1l-0.7-2.1l-0.2-0.7l-0.5-1.2l-0.2-0.5l-0.5-1v-0.1l-0.5-0.9l-0.1-0.4l-0.1-0.6
		l-0.2-0.7l-0.1-0.2l-0.1-0.3l-0.2-1.1l-0.4-1.4l-0.1,0.1v-0.1l-0.5-0.5l-0.3-0.5l-0.5-0.4l-0.3-0.1l-2.4-0.5l-0.9-0.1h-1.2
		l-1.1-0.2l-0.5-0.2l-0.8-0.3l-0.4-0.1L534,221l-1.7-0.3l-1.2-0.2l-1.1-0.4l-1-0.4l-0.4-0.3v-0.1l-0.1-1.7l-0.2-0.9l-0.1-0.9
		l-0.2-0.8l-0.1-0.4l0.1-1.2l-0.4-0.4l-0.2-1.2l-0.4-1.2l0.7-1.1l0.1-0.6l0.4-1l0.4-3.2l-0.7-0.4l-0.7-0.3l-1.7-0.7l-0.3-0.2
		l-0.3-0.8l-0.1-0.3l-0.1-0.5l0.1-0.5l1.2-1.4l-0.5-1.7l-0.9-0.5l-0.3-0.2l-0.3-0.2l-0.3-0.5l-0.3-0.6l-0.2-0.5l-0.2-0.1l-0.4-0.1
		l-2.4-1l-0.3-0.1l-1.2-0.5l-0.3-0.1l-0.4-0.1l-0.9,0.1l-1.2,0.1l-0.6,0.1l-1.1,0.1l-0.1-0.1l-1.1-0.1l-1.2-0.1l-0.8-0.3l-0.8-0.2
		l-1-0.1l-1.7-0.1h-0.3l-1.5-0.1l-0.3-0.1l-0.8-0.4l-0.3-0.1l-0.4-0.1l-1.5,0.1l-0.7,0.1l-1.5,0.1l-1,0.1l-1.1,0.4l-1.1,0.4
		l-0.2,0.2l-1.9,2.2l-0.3,0.3l-0.3,0.4l-2.1,1l-0.2,0.1l-1,0.6l-0.3,0.4l-0.2,0.4l0.2,0.5l0.5,0.7l0.4,0.9l-0.1,0.7l-0.1,0.3
		l-0.2,0.3l-0.3,0.4l-0.2,0.2l-0.2,0.1l-0.2,0.2l-0.1,0.1l-0.6,0.3l-0.3,0.1l-1.8,0.5l-1.4,0.3l-0.1,0.1l-0.7,0.1l-1.2-0.1l-1.3-0.1
		l0.7-2.9l-0.7-0.1l-0.4-0.1l-0.5-0.1l-0.4,0.1h-0.4l-0.5,0.1l-0.5,0.1h-0.4l-0.2-0.1h-0.2h-0.2h-0.2l-0.2-0.1l-0.2-0.1l-0.2-0.1
		l-0.2-0.1l-0.3-0.1l-0.1-0.1l-0.3-0.1l-0.5-0.1h-0.1l-0.6-0.1l-0.5-0.1l-0.3-0.1l-0.1-0.1l-0.2-0.1l-0.3-0.2l-0.3-0.2l-0.5-0.3
		l-0.2-0.1l-0.7-0.3l-0.5-0.3l-0.3-0.2l-1.1-0.7l-0.2-0.1l-0.2-0.1l-0.3-0.2l-0.3-0.2l-0.1-0.1l-0.2-0.1l-0.2-0.2l-0.2-0.1l-0.5-0.4
		l-0.3-0.3l-0.2-0.1l-0.8-0.8l-0.2-0.2l-0.5-0.8l-0.1-0.1l-0.2-0.2l-0.4-0.3l-0.2-0.2l-0.4-0.4l-0.1-0.1l-1-0.9l-0.3-0.3l-0.5-0.5
		l-0.2-0.3l-0.3-0.2L463,190l-0.3-0.1l-2-0.9l-0.1-0.1l-2.3-0.9l-2.7-0.5l-0.7-0.1l-0.5,0.1l-4.6,1.5l-0.1,0.1l-0.7,0.2l-0.4,0.1
		l-0.7,0.2l-0.6,0.1l-0.7-0.1l-0.7-0.2l-1.5-0.4l-2.2-0.5l-0.1-0.1l-5.5-1.4l-3.6-1l-1.7-0.4l-4-1l-4.2-1.1l-2.2-0.6l-3.7-0.9
		l-5.9-1.5l-3.4-0.9l-0.2-0.1l-1.2-0.3l-1.9-0.5l-1-0.2l-0.5-0.2l-0.5-0.2l-0.6-0.1l-0.5-0.1l-1.5-0.4l-9.7-2.4l-0.7-0.2l-4.2-1
		l-4.2-1.1l-0.6-0.1l-1.5-0.4l-4.5-1.1l-1.7-0.4l-0.3-0.1l-0.4-0.2l-0.4-0.2l-1.1-0.7l-0.6-0.3l-0.4-0.1l-0.5-0.1l-0.6-0.1l-0.2-0.1
		l-1.7,0.1h-0.2h-0.1l-0.1,0.1h-0.2l-0.5,0.1l-0.5-0.1l-0.2-0.1h-0.1l-0.2,0.1l-0.1,0.1l-0.1,0.1l-0.5-0.2l-0.2-0.2l-0.5-0.1
		l-1.1-0.3l-0.1,0.1l-3.1,5.7l-1,1.7l-0.3,0.2l-1.5,1l-1.5,0.2l-0.1,1.5l-0.2,1.3l0.3,1.6l-4-0.9h-0.1l-0.8-0.2l-1.4-0.3l-0.7-0.2
		l-1.7-0.2l-2.3-0.8l-0.1-1l-0.7-0.8l-0.2-0.1l-0.2-0.1l-0.7-0.1l-0.7-0.1l-0.2-0.1l-0.2-0.2l-0.3-0.4l-0.3-0.4l-0.2-0.2l-0.8-0.4
		l-1-0.2l-0.6-0.2l-0.8-0.3l-0.5-0.2l-2.5,0.1l-1,0.2l-1.2,0.2l-0.8,0.4l-0.8,0.3l-0.8,0.7l-0.7,0.5l-0.4,0.3h-0.1l-1.5-0.5
		l-0.9-0.4l-0.8,0.7l-0.3,0.2l-0.2,0.1l-3.6,0.1l-0.3,0.1l-0.5,0.3l-2.4,1.5v-0.1l-0.7-0.3l-0.4-0.2l0.1-0.6l-0.1-0.6l-0.1-0.4
		l-0.8-0.5l-0.8-0.1l-0.5,0.1l-0.5,0.2l-1.2,0.4h-0.3l-0.6-0.1l-1.7-0.5l-2.1-0.3l-0.8-0.1l-0.8-0.1l-0.9-0.2l-1.2-0.3l-0.6-0.2
		l-0.7-0.1l-1.5-0.3l-0.4-0.2l-0.7-0.2l-2-0.4l-0.4-0.1l-1.1-0.3l-0.5-0.1l-2.2-0.4l-0.3-0.2l-0.4,0.1l-0.7,0.1l-0.5,0.2l-0.4,0.2
		l-1.2,1l-0.3,0.2l-0.3,0.1l-0.3,0.1l-0.3,0.1l-2,0.2l-2.6,0.3l-0.4-0.4L284,174l-0.1-0.2l-0.2-1l-0.5-0.8l-0.3-0.1l-1.2,0.1h-1.1
		l-1.6-0.2l-1-0.1l-0.5-0.2l-0.8-0.4l-1.7-0.9l-0.8-0.6l0.8-1l0.3-2.2l-0.1-0.2l-0.4-0.9l-0.6-0.5l-0.1-0.1l-0.1-0.4l-0.2-0.4v-1.7
		l-0.1-0.4l-0.1-2.7l-1.7-0.8v-1.4l-0.2-1.2l-0.7-1.6l-0.4-1.2l-0.3-0.7l-0.5-1.7l-0.3-0.5l-0.2-0.5l-0.1-0.3v-0.1L269,149l-0.3-0.5
		l-0.3-0.9l-0.1-0.2l-0.3-0.7l-0.2-0.5l-0.1-0.2v-0.1l2.4-4.2l0.1-9.5l0.7-2.2l1.7-3.2v-1.8l0.3-1.2l1.1-1.6l-0.5-0.3l-0.3-0.5
		l-0.5-0.4l-0.4-0.4l-0.2-0.1l0.2-1.4v-0.7l-0.1-1.7l-0.2-0.7l-0.4-0.4l-0.3-1.3v-0.6l-0.5-0.6l-1.7-1.2l-0.4-0.9l-0.3-1l-0.4-0.5
		l-0.2-0.7l0.4-2.2l0.6-3.3l-0.2-2.6l0.8-1.5l0.2-1.2l0.9-2.6l2.3-2.4l-0.2-1.1l-6.2,0.8l-1.2,0.4l-0.3,0.2l-0.8-1l-0.4-0.4
		l-0.3-0.2l-1.1-0.4l-1-0.7l-0.8-0.3l-0.7-0.3l-1.1-0.5l-0.1-0.1l-0.9-0.7l-2.1-1.7l-1.2-0.5l-1.2-0.5l-0.5-0.2l-0.4-0.2l-1.5-0.7
		l-0.8-0.5l-0.9-1.6l-1.2-0.9l-0.5-0.7l-0.8-1.1l-0.8-1.2l-1.2-1.2l-0.1-0.1l-0.5-0.4l-1-0.7l-0.7-0.3l-1.1-0.5l-0.4-0.3l-0.7-0.9
		l-0.7-1.3l-0.2-0.3l-0.3-0.5l-0.4-0.5l-0.4-1.1l0.1-0.8l-2,0.2H236l-0.5-0.2l-0.2-0.1l-1.6,0.5l-0.2-0.9l-0.2-0.2l-1-0.7l-0.2-0.2
		l-0.4-0.9l-0.4-0.7l-0.4-0.8l-0.2-0.2l-0.8-0.3l-0.9-0.3l-0.9-0.1l0.2-1.4l2.5-2.8l0.3-1.3l-0.4-0.9l0.2-0.9l1.6-3.7l0.2-2
		l-3.3,0.1l-0.2-0.1v-0.3h-1.3v-0.3v-0.7v-0.4l-0.1-0.3l-0.1-0.4l-0.5,0.1v-0.2l-0.1-0.1l-0.6-0.1l-0.4-0.2l-0.7-0.3l-0.4-0.1
		l-0.4-0.1l-0.1-0.1v-0.4l-0.4-0.1v-0.5l-0.1-0.3l-1.3-1.4l-0.9-0.7l-0.7-0.7l-0.2-0.3l-0.4-0.5l-0.4-0.5l-1.2-1l-0.3-0.2l-0.1-0.1
		l-0.2-0.2l-0.1-0.3l-0.1-0.4l-0.2-0.3l-0.8-1l-0.6-0.5l-0.2-0.2l-0.3-0.3l-1.7-1.7l-0.2-0.1l-0.7-0.3l-0.2-0.2l-0.2-0.3l2.2-0.2
		l0.3-1.6l-0.2-0.5l-0.3-0.8h-0.4l-2.9-0.3v-0.7l-0.2-0.7l-0.5-1l-0.2-2l-0.1-1.4l-0.4-0.7l-0.2-1l-0.1-0.5l-0.3-0.4l-0.4-1
		l-0.3-2.2l-0.2-0.3l-1.7-1.6l-0.1-0.1l-0.2-0.4l-0.4-0.8l-0.3-0.4l-0.2-0.4l-0.2-0.4l0.2-0.7v-1.3l0.1-0.6l0.2-0.7l0.2-1.1
		l-0.1-0.7l0.2-1.5L206,8.8l-0.2-1.1l-0.1-0.5l0.1-0.5l0.8-0.9l0.1-1.5l0.5-1.2l0.4-1.6l0.5-1l0.4-0.5"/>
</g>
</svg>
