<?xml version="1.0" encoding="utf-8"?>
<!-- Generator: Adobe Illustrator 17.1.0, SVG Export Plug-In . SVG Version: 6.00 Build 0)  -->
<!DOCTYPE svg PUBLIC "-//W3C//DTD SVG 1.1//EN" "http://www.w3.org/Graphics/SVG/1.1/DTD/svg11.dtd">
<svg version="1.1" id="Layer_1" xmlns="http://www.w3.org/2000/svg" xmlns:xlink="http://www.w3.org/1999/xlink" x="0px" y="0px"
	 viewBox="0 0 900 300" enable-background="new 0 0 900 300" xml:space="preserve">
<g>
	<path fill="none" stroke="#2A8F8E" stroke-miterlimit="10" d="M522.9,299.9l0.7-0.2l1.1-0.3l-0.1-0.2l0-0.1l0.2,0l0.7-0.2l0.4-0.2
		l0.6-0.2l0.1-0.3l0.7-0.7l0.1-0.2l1-3.1l0.2-0.5l0.3-1l0.2-0.3l1.6-4.2l-0.1-0.2l0-0.1l0.2-0.6v-0.5l-0.1-0.2l-0.6-1l-0.2-0.3
		l-0.1-0.3l0.1-2.1l0.2-0.7l-0.1,0l-0.2,0.5l-0.1,0.4l-0.1,0.4l-1.5,0.2h-0.3l-0.2-0.1l-0.2-0.1l-1.1-1.3l-0.1-0.2v-0.2l-0.1-5
		l-0.1-3.2l0.2-0.9l0.1-0.1l0.9-0.4l0.1-0.2l0.1-0.2l0-0.2l-0.4-0.4l-0.7-0.4l-1.3-0.5l-0.6-0.6l-1.4-1.6l-0.3-0.8l0-0.1l0-0.1
		l0.6-0.6l0.1-0.1l0.1-0.3l-0.3-0.6l-0.4-0.2l-0.6-0.4l-0.1-0.1l-0.3-0.6l0-0.1l-0.4-1.9l-0.1-0.2l0-0.1l0-0.1l0-0.1l0.5-1h0.3v-0.1
		l-0.1-0.1l0-0.1l0-0.6l-0.6-1.1l0-0.1l0-0.2l0.1-0.3l0.2-0.2l0.3-0.1l0.1-0.1l0.6-1.1v-0.1l-0.2-1.5l-0.2-2l-0.1-0.6l-0.1-0.4
		l0-0.3l0-0.2l0-0.1l-0.1-0.4l0-0.1l-0.1-0.1l-0.3-0.1l-0.4-0.2l-0.2,0l-0.2,0l-0.3,0.1l-0.2-0.6v-0.4v-0.2v-0.4v-0.6V248l0,2.6
		l0-2.9l-0.1-0.3l0-0.1l-0.1-0.3l-0.1-0.3l-0.2-0.5l-0.1-0.2l-0.3-0.4l-0.9-1.2l-0.8-1l-2.2-3l-0.1-0.1l-1.5-2l-1.2-1.7l-0.7-1.1
		l-0.1,0l-0.2-0.4l-0.1-0.1l-0.1-0.3l0,0h0l-1.7-3.2l-0.3-0.5l-0.7-1.3h-0.1l-0.3-0.6l-0.1,0l-0.2-0.4h-0.1l-0.3-0.5l-0.3-0.5l0,0
		l-0.2-0.3l0,0l0,0l0,0v0L507,227l-0.1-0.2l-1-1.2l-0.1,0l-0.1-0.2l-0.1-0.2l-0.1-0.3h-0.1l-0.6,0.1l-0.7,0.1l-0.3,0.1l-0.3-0.1
		l-0.4-0.4l-1.3-0.8l-0.1-0.1l-0.1-0.3l-0.2-0.3l-0.4-0.4l-0.7-0.6l-0.2-0.3l-0.2-0.3l-0.1-0.2v0l-0.4-0.8v0l-0.4-0.4l-0.3-0.3
		l-0.1-0.3l-0.2-1.1l-0.3-0.7l-1.2-1.8l-0.4-0.5l-0.2-0.3l-0.1-0.1l-0.4-0.3l-0.4,0.4l0,0l-0.2,0.2l-0.4,0.4l-0.3,0.3l-0.3,0.1h-1.1
		l-0.5,0l-0.3,0.1l-0.1,0.1l-0.1,0.1l-0.8,0.9l-1.2,1.3l-0.1,0.2l-0.2,0.3l-0.1,0.1l-0.4,0.4l-0.4,0.3l-0.1,0.1l-0.4,0.1l-0.3,0
		l-0.5-0.2l-0.1-0.1l-0.1,0l-0.5-0.2l0.1-0.3l-0.1-0.4l-0.4-0.3l-1-0.8l-0.9-0.7l-0.7-0.5l-0.4-0.3l-0.4-0.4l-0.3-0.2l-0.6-0.2
		l-0.1-0.1l0-0.1l-0.1-0.1l0-0.1v-0.4l0-0.1l-0.2-0.2l-0.6-0.3l-0.6-0.4l-0.3-0.2l-0.6-0.5l-0.3-0.2l-0.3,0.1l-0.2,0l-1,0.2l-1,0.2
		l-1.1,0.1l-0.3,0l-0.7,0.2l-0.4,0.1l-0.4,0.1l-2,0L471,214l-0.6,0.2l-1,0.4l-0.5,0.2l-0.4,0.1l-0.4,0.1l-1.7,0.3l-0.4,0.1l-0.1,0
		l-0.9,0.1H465l-0.1,0l-0.7,0l-0.3,0l-1.1-0.3l-1-0.3l-1.2-0.4l-0.4-0.1l-0.4-0.1l-0.2,0l-0.9,0.1h-0.1l-0.4-0.1l-0.1,0l-0.3-0.1
		l-0.2-0.1l-0.2-0.2l-0.2-0.2l-0.2-0.3l-0.2-0.3l-0.2-0.2l-0.6-0.5l-0.1-0.1l-0.1-0.1l-0.2-0.1l-0.1,0l-0.5-0.2l-0.3-0.1l-1.3-0.5
		l-0.2-0.1l-0.4-0.1l-0.5-0.1h-0.3l-0.3,0l-0.5,0.1l-0.3,0.1l-0.7,0.2l-0.5,0l-0.4-0.1l-0.8-0.3l-0.4-0.2l-0.4-0.1l-0.4-0.2
		l-0.2-0.2l-0.1-0.2l-0.1-0.1l-0.3-0.5l-1-1.2l-0.4-0.5l-0.6-0.8l-0.2-0.2l-0.5-0.7l-0.5-0.7l-0.2-0.3l-0.3-0.8l-0.2-0.3l-0.4-0.4
		l-0.6-0.7l-0.4-0.4l-0.1-0.1l-0.1-0.1l-0.1-0.2l0-0.2l0.1-0.2l0.1-0.3l0.1-0.4l0-0.4L441,200l-0.1-0.3l-0.2-0.3l-1.3-1.2l-0.3-0.3
		l-0.1-0.3l-0.1-0.3v-0.6l0,0.3l-0.1-0.6l-0.1-0.2l-0.1-0.1l-0.2-0.2l-0.4-0.3l-1.1-0.7l-0.4-0.2l-0.3-0.1l-1.5-0.4l-0.6-0.2
		l-0.9-0.5l-0.1-0.1l-0.4-0.4l-0.2-0.2l-0.2-0.4l-0.1-0.2l-0.1-1.2l-0.1-0.3l-0.1-0.3l-0.2-0.3l-0.3-0.4l-0.2-0.3l-0.3-0.4L431,189
		l-0.1-0.2l-0.5-0.7l-0.1-0.2l-0.1-0.1l-0.3-0.3l-0.1-0.1l-0.5-0.3l-0.3-0.2l-0.3-0.2l-0.2-0.1l-0.1-0.1l-0.1-0.1l-0.1-0.1l-0.1-0.1
		l-0.1,0l-0.1,0l-0.1-0.1l-0.1-0.1l-0.1,0l-0.1-0.1l-0.1-0.1l-0.1-0.1l-0.1-0.1l-0.1-0.1l-0.1-0.1l-0.2-0.2l-0.2-0.2l-0.1-0.1
		l-0.1-0.1l-0.1-0.1l-0.1-0.1l-0.4-0.4l-0.7-0.9l-0.1-0.1l-0.6-0.1l-0.2,0.1l-0.2,0l-0.3,0l-0.3-0.1l-0.1,0l-0.8-0.1l-0.3-0.1
		l-0.4-0.1l-0.1,0l-0.5,0l-1,0.2l-0.5,0.1l-0.7-1l-0.2-0.3l-0.1-0.3l0-0.4l0-0.2l0-0.3l0-0.3l0-0.3l0-0.1l0,0l-0.1-0.1l-0.1-0.2
		l0-0.2l0-0.2l0-0.4l0-0.2l0-0.1l0-0.4l0-0.3l0-0.2l0-0.2l0.1-0.4l0.1-0.5l0-0.2l-0.1-0.1l-0.1-0.1l-0.5-0.3l0,0l-0.2-0.2l-0.1,0
		l-0.4-0.2l-0.6-0.2l-0.2,0l-0.4,0.1l-0.2,0l-0.3,0l-0.3,0l-0.1,0l-0.1,0l-0.4,0.2l-0.4,0.1l-0.1,0l-0.2,0.1l-0.5,0.2l-0.7,0.3l0,0
		l-0.1-0.4l-0.2-0.3l-0.5-0.5l-0.5-0.4l-0.2-0.2l-0.6-0.7l-0.2-0.2l-0.1-0.2v-0.3l0-0.1l0-0.1l0.1-1l-0.1-1l0-0.9l0-0.9l0.1-0.3
		l0.6-1.1l0-0.6l0-0.2l-0.1-0.3l-0.4-0.6l-0.2-0.3l-0.1-0.2l-0.1-0.8l0.1-0.2l0.7-0.6l0.1-0.1l0.1-0.1v-0.1l-0.1-1l0.1-0.3l0.1-0.2
		l1-1l0.4-0.3l0.2-0.1l0.7-0.7l0.3-0.6l0.2-0.5l0.1-0.5l0.5-0.7l0.2-0.2l0.2-0.2l0-0.2l-0.1-0.2l-0.2-0.6v-0.4l0-0.3l-0.1-0.1
		l-1.1-0.6l-0.3-0.2l-0.4-0.4l-0.3-0.4l-0.4-0.4l-0.6-0.5l-0.1-0.1l-0.3-0.2l-0.2-0.2l-0.2-0.1l-0.5,0l-0.2-0.1l-0.2-0.2l-0.2-0.2
		l-0.4-0.3l-0.3-0.3l-1-1.3l-0.5-0.6l-0.2-0.2l-1.2-0.7l-0.3-0.5l-0.3-0.7l0.1-0.4l-0.1-0.3l-0.2-0.2l-0.4-0.2l-0.2-0.1l-0.4-0.3
		l-1-0.4l-0.3-0.4l-0.4-0.3l-0.4-0.3l-0.1-0.2l-0.1-0.4l-0.2-0.2l-0.3-0.3l-2.1-1l-0.6,0.1l-0.2,0l-0.2-0.2l-0.3-0.3l-0.4-0.9
		l-0.3-0.4l-0.7-0.5l-0.3-0.2l-0.3-0.3l-1.3-0.8l-0.7-0.3l-0.3-0.1l-1.6-1l-0.6-0.4l-2.7-2l-0.2-0.2l-0.5-0.7l-1.3-1.8l-0.5-0.5
		l0.1-0.1l0.1-0.1l0.2-0.4l0.1-0.3l0.1-0.1l0.2-0.1l0.6-0.1l1-0.4l0.4-0.3l0.6,0l1.8,0.2l0.6,0l0.2-0.2l0.8-1.5l0.2-0.3l4.1-1.5
		l0.2-0.1l0-0.2l-0.5-1.7l0-0.6l-0.1-0.2l0.2-0.8l-0.2-0.3l-0.1-0.5l-1-0.2l0.2-0.6l-0.1-0.1l0-0.9l0-0.3l0.1-0.6l-0.1-0.4V119
		l0.1-0.1l0.2-0.1l0.3-0.4l0.1-0.2l-0.3-1.5l0.1-0.1l0.6-0.2l0.3-0.5l0-0.1l-0.6-0.7V115l0-0.8l-0.3-0.3l-0.1-0.1l-0.1-0.2l-1-0.8
		l0-0.1l-0.2-2.9l0.2-1v-0.1l-0.7-1.5v-0.1l1.4-1.7l0-0.2l0-0.3l-0.1-0.5l-0.1-0.4l-0.2-0.4l0-1.3l0.3-0.7l-0.3-0.5l-0.3-0.9
		l-0.3-1.1l-0.5-0.5l-0.3-0.4l-0.8-0.9l-0.7-0.1l-0.7-0.2l-0.9-0.3l-0.2-0.1l-0.7,0.3l-0.2,0l0.2-0.2l0.2-0.3l0.4-0.7l0.6-0.9
		l0.8-1.3l0.7-1.2l0.4-1.1l0.1-0.2l0.9-0.8l0.9-0.7l0.3-0.2l0.2-0.2l0.1-0.3l0.3-0.3l0.1-0.3l0-0.3l0-0.1l0.4-0.8l0.1-0.1l0.1-0.2
		l0.4-0.4l0.2-0.1l0.8-0.7l0.1-0.1l0.4-0.8l-0.3-0.8l-0.3-0.3l-0.1-0.3l0.2-1l0.1-1l0-0.1l0.5-0.6l0.1-0.1l0.8-1.5l0-0.1l-0.2-0.8
		v-0.3l0-0.7l0.1-0.5v-1.1l0.1-0.1l0.1-0.1l0.2-0.1l0.2-0.1l0.4-0.2l0.3-0.2l-0.1-0.2l-0.1-0.1l-0.2-0.2l-0.1-0.2l-1-2l-0.5-0.3
		l-0.8-0.6l0-0.4l0.1-0.2l0.3-0.2l0.2-0.1l0.1-0.2l0-0.2l0-1.4l-1.1,0l-0.1,0l-0.5-0.4l-1-0.6l-0.1-0.1l-0.4-0.3l-0.2-0.1l-0.5-0.1
		l-0.2-0.1l-0.2-0.1l-0.3-0.2l-0.2-0.4l-0.2-0.5l-0.2-0.4l-0.6-1.6l-0.1-0.4l-0.2-0.2l-0.1-0.1l-0.4-0.1l-0.1-0.1l-0.1-0.4L391,61
		l-0.2-0.1l-0.6-0.3l-0.2-0.4l-0.2-0.9l0.1-0.2l0.5-0.4l-0.1-0.1l-0.4-0.5l0.1-0.1l0-0.1l0.2-0.6l0.6-0.9l0.3-0.3l0.2-0.3l0.4-0.5
		l0.1-0.3l-0.3-0.1l-0.4,0l-0.2-0.1l-0.9-0.3l-1.7-0.2l0.1-0.4l0.3-0.3l0.1-0.4l0.6-0.6v-0.5l0.1-0.4l0.2-0.5l-0.5-0.1l-0.5-0.2
		l-0.9-0.1l-0.6,0.2l-1.1,0l-1.5,0.2l0.3-0.5l0.2-0.6l0.4-0.5l0.6-0.8l0.1-0.3l0.2-0.8l1.2-2l0-0.4l-0.3-0.6l-0.3-1.1l0.3-1.1
		l0.3-0.3l0.5-0.4l0-0.2l-0.6-2.6l0.1-0.8l-0.4,0L387,38l-2.9-1l-0.8,0l-0.9-0.3l-1.3,0l-0.7,0.2l0.4-3l0.2-0.7l0.2-1.3l0.3-0.6
		l0.1-0.8l-0.2-0.4l0-0.3l0.5-1.6l0.5-0.8l0.3-0.6l-0.5-1.2l-0.1-0.8l-0.2-1.2l-0.1-0.4l0-1l0.1-1.1l-0.2-0.3l-0.2-0.3l0.2-0.9
		l0.1-0.9l-0.2-0.3l0-0.3l-0.9-0.9l-0.3-0.7l0-0.8l0.1-0.9l-0.3-0.4l0-0.4L380,14l-0.1-0.3l-0.4-0.3l-0.2-0.3l-0.4-0.7l-1.1-1.3
		l0.6-0.8l0.3-0.5l-0.2-0.2l-0.2-0.2l-0.2-1.3l0-1.1l0.5-1.8l0-0.5l0-0.3l1.1-1.7l-0.3-0.1L378.9,3l-0.3,0l-0.4,0l-0.3,0.1l-0.6,0.3
		l-0.4,0l-0.3-0.1l-0.7-0.4l-0.3-0.2l-0.4-0.2l-0.2-0.1l-0.3-0.1l-0.2-0.1l-0.2-0.2l-0.1-0.1l-0.2-0.1l-0.3-0.1l-0.4-0.1l0,0l-0.1,0
		l-0.3-0.2l-0.3-0.2L372,0.9l-0.4-0.1l-0.1-0.1l-0.5,0h-0.1l-0.2,0l-0.3-0.1l-0.1,0l-0.2-0.1l-0.9-0.3l-0.1,0l-0.1,0h0"/>
</g>
</svg>
