<svg version="1.1" class="shadow bike" xmlns="http://www.w3.org/2000/svg" xmlns:xlink="http://www.w3.org/1999/xlink" viewBox="3.2 30.7 113.5 66.6">
<g>
	<path fill="#FFFFFF" d="M94.7,51.6c-4.4,0-8.5,1.3-11.9,3.6l-6.4-8.3l0.7-2.6c1.3-0.2,2.6-0.6,3.7-1.5c4.7-3.3,4.7-5.3-0.2-4.9
		c-4.9,0.4-0.6,0-6.6,0.5c-6.9-0.2-12,1.6-8.6,3.2c1.7,0.9,4.3,1.8,7,2.5l-0.2,1.1H42.7c0.1-0.5,0.4-1,0.5-1.5l-0.5-0.1
		c0.9-2.8,1.5-4.8,1.5-4.8l0.2-0.7l-1.3-2.2l1.2-1.1l5.5-0.2c1,0,1.8-0.9,1.7-2c0-1-0.9-1.8-2-1.7L42.7,31l-4.4,4l2,3.4
		c-0.2,0.9-0.7,2.2-1.2,3.9l-0.5-0.1c-1.1,3.7-2.7,8.6-4,13.1c-2.8-1.3-6-2.1-9.3-2.1c-12.1,0-22,9.9-22,22c0,12.1,9.9,22.1,22,22.1
		s22.1-9.9,22.1-22.1c0-7.1-3.4-13.4-8.6-17.4c0.1-0.6,0.4-1.2,0.5-1.8l21.7,22.1c0,0.2-0.1,0.5-0.1,0.9c0,1.7,1.1,3.2,2.7,3.7
		l1.2,5.5c-0.4,0.4-0.6,0.7-0.6,1.1c0,1.1,1.3,2,3.1,2s3.1-0.9,3.1-2c0-0.9-0.7-1.5-1.8-1.7l-1.2-5.4c0.6-0.5,1.1-1.1,1.3-1.8l4.9-1
		c2.6,9.3,11,16.2,21.2,16.2c12.1,0,22.1-9.9,22.1-22.1C116.8,61.5,106.9,51.6,94.7,51.6z M43,75.3c0,9.6-7.9,17.4-17.4,17.4
		S8.1,84.8,8.1,75.3S16,57.9,25.5,57.9c2.8,0,5.5,0.7,8,2c-2.1,5.3-6.1,10.1-8.2,12.3c-1.5,0.2-2.6,1.5-2.6,3.1
		c0,1.7,1.3,3.1,3.1,3.1s3.1-1.3,3.1-3.1V75c2.2-2.5,6.1-7.1,8.5-12.5C40.7,65.7,43,70.2,43,75.3z M77.3,73.7
		c0-4.7,1.8-8.8,4.8-11.9l7.6,9.9l-12.4,2.5C77.3,73.9,77.3,73.8,77.3,73.7z M41.4,49.8h29.6l-5.8,19.9c-0.5-0.6-1.6-1.1-2.8-1.1
		c-1.5,0-2.6,0.6-2.9,1.5L40.9,51.1C41.1,50.6,41.2,50.1,41.4,49.8z M68.1,75.8l6.7-23.4l4.4,5.6c-4,4-6.5,9.6-6.5,15.7
		c0,0.4,0,0.9,0.1,1.2L68.1,75.8z M94.7,91.1c-7.9,0-14.6-5.3-16.7-12.5l19.9-3.8l-12.3-16c2.7-1.6,5.8-2.6,9.1-2.6
		c9.6,0,17.4,7.9,17.4,17.4C112.2,83.3,104.3,91.1,94.7,91.1z"/>
</g>
</svg>
