<svg version="1.1" xmlns="http://www.w3.org/2000/svg" xmlns:xlink="http://www.w3.org/1999/xlink" viewBox="0 0 120 128">
<g>
	<path fill-rule="evenodd" clip-rule="evenodd" fill="#ffffff" d="M45.5,7.3c-0.2,0.4,5,5.6,5.2,5.7c0,0,0.4,0,0.4,0
		c0.2,0.1,0.1,0.1,0.1,0.1c0,0,0.1,0.2,0.1,0.2l0.7,0.5c0.3-0.1,0.6-0.2,0.9,0c0.1,0.1-0.1,0,0.2,0.2c0.4,0.2,0.4,0.1,0.8,0l0.1-0.5
		c0,0,0,0,0.1,0c0,0.1,0,0,0.1-0.1l0.1,0c0.3,0.3,0.1,0,0.4,0.6l0.3-0.1c0.1,0.1,0,0,0,0.2c0.2,0.1,0,0,0.1,0.1
		c-0.1,0.3,0,0-0.1,0.1c-0.2,0.3-0.3,0.2-0.3,0.5c0.2,0.2,0.5,0.7,0.7,0.7l0.1-0.1c-0.1-0.1,0.1,0-0.1-0.1c-0.3-0.2,0.1,0-0.1-0.5
		c0.5-0.3,0.2-0.3,0.6-0.3c0.1,0,0.1,0.1,0.2-0.1l0.2-0.1c0.1-0.1,0.1-0.1,0.3-0.1c0.1,0,0.5,0,0.6,0l0.1-0.3l-0.5,0
		c0.1-0.2,0.1-0.2,0.2-0.3c0.1-0.1,0-0.1,0.1-0.3l0.5,0.1l0.2-0.3c0.1-0.1,0-0.1,0.5-0.1c0,0-0.1-0.1-0.2-0.1l-0.8,0.1l-0.5-0.7
		c-0.1,0.1-0.1,0.1-0.2,0.3l-0.1,0c-0.2-0.1-0.1,0-0.3-0.1l0.3-0.3c0,0,0,0,0,0L56.5,12c-0.2-0.2-0.1-0.1-0.2-0.5l0.4,0
		c-0.2-0.4,0-0.3,0.1-0.7l0,0c0.6,0.1,0.4,0.2,0.5,0.2l0.4-0.1l0.1,0.2c0.4-0.1,0.2-0.1,0.6,0c0.3,0.2,0.8,0.7,0.9,0.8
		c0.1,0.1,0,0,0.1,0.2c0,0,0.1,0.1,0.1,0.1l0,0.3c-0.2-0.1-0.4-0.2-0.5-0.2l-0.2,0.2c0.3,0.2,0.1,0,0.3,0.1L58.5,13
		c0.1,0.3,0.2,0.3,0.2,0.4c0,0,0,0,0,0c0,0.1,0.5,0.3,0.6,0.3c0,0.3,0.1,0.4,0,0.7c0.2,0.1,0.1,0.1,0.1,0.8c0,0,0,0,0.1,0
		c0,0,0,0,0.1-0.1c0.2-0.2,0.1-0.2,0.4-0.1c0.2-0.6,0.3-0.9,0.9-0.8c0.1,0.2,0.2,0.4,0.1,0.7c-0.2,0.3-0.3,0-0.5,0.6l-0.1,0
		c-0.2,0.2-0.2,0.2-0.2,0.5c0.1,0.1,0,0.1,0.2,0.2c0.2,0.3,0.1,0,0.2,0.3l0.5,0.5c0.1-0.1-0.1,0,0.1-0.1c0.2,0,0.1,0,0.2,0
		c0.2-0.1,0.1,0,0.1-0.1c0,0,0-0.1,0.1-0.1c0.1-0.2,0.1-0.1,0.2-0.3c0.3,0,0.4-0.3,0.6-0.4l0.2-0.3l0.3,0c0.2,0,0.2-0.1,0.2-0.3
		c0,0,0,0,0,0c0-0.1,0-0.1,0-0.1c0-0.1,0-0.2,0-0.4c0-0.3,0.1-0.2,0-0.4c0.2,0,0.4,0.1,0.5,0.1c0.2,0.1,0.3,0.2,0.4,0.3
		c0.2,0.1,0.2,0,0.4,0.1c0.4,0.2-0.1,0.1,0.2,0.3l0.1,0.1c-0.1,0.1,0.1,0.1-0.2,0.1c0.1,0.1,0,0.1,0.1,0.3l0.5,0.1
		c0.1,0.2,0,0,0,0.2c-0.2,0-0.1,0-0.4,0.3l0.2,0.3l-0.5,0.4c0.1,0.2,0,0.1,0.1,0.3c0,0.1,0.1,0.1,0.1,0.2c0,0,0,0.1,0,0.1l0,0
		c0,0,0,0,0,0c0,0,0,0,0,0l0.2,0c0,0.5,0,0.6-0.5,0.6l-0.2,0c-0.2-0.1-0.2,0-0.4,0c-0.2,0-0.2,0-0.4,0c-0.1,0.1-0.1,0.1-0.1,0.2
		c-0.1,0-0.2,0.1-0.4,0.1c-0.1-0.1-0.1-0.1-0.1-0.2c-0.1-0.2-0.1,0-0.1-0.2L62,18l0.3,0.4c-0.1,0,0,0-0.2,0c0,0-0.2,0-0.2,0
		c-0.3,0-0.2,0.1-0.6-0.6l-0.5-0.1c0.3,0.5,0,0.4-0.4,0.9c-0.3-0.1-0.2-0.1-0.3-0.3c-0.2-0.3,0-0.1-0.3-0.3
		c-0.7-0.3-0.5-0.1-0.8-0.4c0,0-0.1,0.2-0.1,0.2c0,0,0,0,0,0l0,0.1l-0.6-0.1l-0.1,0.1c0.5,0.1,1.5,0.3,2,0.8l-0.2,0.1
		c-0.1,0-0.1,0-0.2,0.1l0,0.2c-0.2,0.3-0.5,0.3-0.9,0.3c0-0.2-0.3-0.3-0.4-0.4c-0.4,0.1-0.2,0.1-0.4,0.1c-0.2,0-0.2,0-0.3,0.3l0,0.1
		c-0.2,0.1-0.2,0.1-0.5,0.1l0,0.2l0.1,0.1l-1,0.1c0,0,0,0,0,0c0,0,0,0,0,0l0,0.1l-0.2,0.2c-0.4-0.1-0.2-0.2-0.4,0l-0.2,0l-0.2,0.3
		c-0.4,0-0.4,0.1-0.8,0.2l-0.1,0l-0.1,0.4L54,21.3c0,0.5-0.1,0.3-0.3,0.5c-0.1,0.1-0.1,0.1-0.2,0.3c-0.2,0.2-0.1,0-0.2,0.3
		c0.1,0.6,0,0.6,0.2,0.7l0.7,0.2c0,0.2,0.1,0.2,0.1,0.5c0.1,0.5,0.1,0.8,0,1.2c1,0,0.7-0.1,1.6,0.6l0.9,0.6l0,0.7
		c0.3,0.1,0.3,0,0.4,0.2c0.3,0.3-0.1,0.1,0.4,0.4c0.3,0.1,0.1,0,0.2,0.1c0.4,0.4,0.3,0.1,0.3,0.3c-0.2,0-0.6-0.3-0.9,0.2
		c0.2,0.3,0,0.1,0.2,0.3l0.5,0.4c0.1,0.1,0.2,0.3,0.6,0.3c0.4,0,0-0.1,0.3-0.1c0.3,0,0.5,0.1,0.7,0.3l-0.3,0.1
		c0.2,0.2,0.2,0.1,0.4,0.2c0,0.1-0.1,0.2-0.2,0.5l-0.1,0.3c0.4,0.6,0.2,0.3,0.2,0.7c0,0-0.1,0,0.1,0.3c0.2,0.3,0.2,0.1,0.3,0.5
		l0.5,0.4c0.3-0.1,0.2-0.1,0.6-0.1c0.1-0.4,0.2-0.3,0.3-0.5c0.2-0.2,0-0.2,0.1-0.5c-0.1-0.2-0.1,0,0.1-0.5c0.1-0.3,0.1-0.3,0-0.5
		c-0.2-0.4,0-0.8,0.4-0.7c0.2-0.1,0.2-0.1,0.4-0.1c0.2,0,0.7-0.2,0.9-0.4c0.1-0.1,0.1,0,0.1-0.1c0.4,0,0-0.1,0.3-0.2c0,0,0,0,0,0
		l0.3,0l0-0.3c0,0,0,0,0,0c0,0.1-0.2,0.1-0.2,0.1l0.4-0.7c-0.1-0.2-0.1-0.2-0.2-0.4c0-0.2-0.2-0.9-0.2-1c-0.2-0.2-0.3-0.1-0.3-0.4
		l-0.3-0.2l0-0.3c0.3-0.1,0.3-0.1,0.7-0.1l0.1-0.3c0.4,0.2,0.1,0,0.4,0c0.1-0.4,0,0,0-0.2c0-0.1,0,0.1-0.1-0.2c0-0.2,0-0.3,0.1-0.4
		l0-0.1l-0.2-0.1l0.1-0.3c0.2,0,0.1,0,0.3-0.1c0,0,0.1-0.1,0.1-0.1c0.1-0.1,0,0,0.1-0.1l0.1-0.2l-0.2-0.4c0.4-0.1,0.6,0,1,0.2
		l0.2,0.1c0.2,0.1,0.8,0.4,0.9,0.4c0.3,0.1,0.8-0.4,1.2,0.3l0.2,0.3c0.2,0.3,0.1,0,0.3,0.5c0.1,0.3-0.2,0.1,1,0.6l-0.3,0.2
		C69.7,26,69.6,26,70,26c-0.2,0.3-0.3,0.1-0.5,0.4l0.1,0.1c-0.3,0.2-0.3-0.2-0.3,0.2c0,0.3,0.2,0-0.1,0.5l-0.1,0.1
		c0.2,0.4,0.3,0.3,0.7,0.5c0.4,0.3-0.2,0.5,0.5,0.5l0.2,0.5c0.5,0,0.3,0.1,0.7-0.3l0.2,0.2l0.1-0.2c0.3-0.1,0.4,0,0.5-0.3
		c0.1-0.2,0-0.1,0.2-0.2c0.3-0.2,0.1-0.2,0.7-0.3c-0.1,0.5,0.1,0.3,0,0.7c-0.1,0.1-0.1,0-0.1,0.3l0.1,0.3c0.1,0.2,0.3,0,0.4,0.4
		l0.1,0.3L73,29.8c0.1,0.1,0,0,0.1,0.1l0.5,0.2l-0.2,0.2c0.1,0.2,0,0.1,0.2,0.3c0.2,0.2,0.1,0.1,0.2,0.3c-0.1,0.3-0.1,0.2-0.3,0.3
		c0.3,0.1,0.4,0.3,0.5,0.7c0,0,0,0,0,0c0,0-0.6-0.2-0.6-0.2l0.1,0.2L73.3,32c0.2,0,0.2-0.1,0.3,0.3c0,0,0,0,0,0.1c0,0.1,0,0.1,0,0.1
		c0,0,0,0,0,0.1l0.6,0.5l-0.1,0.4c0.7,0.3,0.3,0.3,0.6,0.4l0.3,0.1l0.3,0.6l0.2-0.1c0,0,0.1,0.1,0.1,0.1l-0.1,0.2l0.3,0.2
		c-1.1,0.2-0.5,0-1.1,0c-1,0.1-0.6,0.1-1.2-0.1L73.7,35l0,0.1c0.4,0.1,0.2-0.2,0.7,0c0.4-0.2,1-0.1,1.1-0.1c0.3,0-0.2-0.2,0.3,0
		c0.3,0.1,0.7,0.5,0.7,0.8c0.3-0.1,0.1,0,0.2,0c0.2,0,0.2,0.1,0.2,0.3c-0.1,0.3-0.2,0-0.1,0.5l-0.6,0.2c-0.2,0.1-0.4,0-0.6,0
		c-0.3-0.1-0.1,0-0.3,0c-0.1,0-0.2-0.1-0.4-0.1c-0.1,0.2,0,0-0.4,0.2c-0.3,0.2-0.1,0.1-0.3,0.4c-0.4,0-0.3,0-0.5,0l-0.1,0.1
		c-0.2,0.1-0.2,0-0.4,0c-0.3,0-0.1,0.1-0.4-0.1c-0.4-0.2-0.4,0.3-0.7-0.3c-0.9-0.1-0.4-0.1-0.7-0.3l-0.7-0.1
		c-0.3-0.1-0.2-0.2-0.4-0.2c-0.1,0-0.2,0-0.4,0c-0.4-0.1-1.1-0.6-1.5-0.1c-0.2,0.2-0.3,0.2-0.4,0.2l0.3,0.4c0.6-0.1,0.9,0,1.5,0.2
		c0.3,0.1,0.2,0.2,0.4,0.5c-0.2,0.1-0.1,0.1-0.2,0.1L70,37.8l-0.4-0.1L69.5,38c-0.5-0.1-0.3,0-0.7-0.3c0.1,0.5,0,0.3,0,0.5
		c0.2,0,0.5,0,0.7,0c0.3,0.1,0.1,0,0.1,0.1c-0.1,0.1-0.1,0.2-0.2,0.3c-0.2,0.2-0.2,0.1-0.3,0.2l0.4,0.1c-0.2,0.2-0.2,0.2-0.3,0.4
		c0,0.1,0,0.2,0.2,0.4l0.4,0.2l-0.3,0.2c0.4,0.1,0.5,0.2,0.8,0.5l0.7-0.2c0,0.2-0.1,0.1,0.1,0.4L71,41l-0.1,0.1c0,0,0,0,0,0
		c0,0,0,0,0,0l-0.1,0c-0.6,0.2-0.3,0.2-1.2,0l-0.1,0.2l-0.2-0.3c-0.2,0.1-0.2,0-0.3,0.1c-0.1,0.1-0.1,0.1-0.1,0.3l-0.6,0.1l-0.1-0.2
		l-0.2,0.1c-0.3-0.3-0.4-0.3-0.5-0.6c0.7-0.6,0.4-0.2,0.8-0.4c0.8-0.4,0.7-0.1,1,0.1l0.6-0.2l-1.1-0.3l0.2-0.2c0.1,0,0.2,0,0.3-0.2
		c0,0,0-0.1-0.2-0.1c-0.2-0.1-0.1,0-0.2,0c-0.1,0.3-0.1,0.3-0.4,0.3c-0.1,0.2,0,0.1-0.2,0.1c-0.1,0,0.2,0.1-0.2,0
		c-0.1-0.4,0.1,0,0-0.3c-0.2,0.2-0.2,0-0.3,0.2l0.1,0.1c-0.3,0.2-0.4,0-0.7-0.2l-0.1-0.1l0,0.1l0,0.3c-0.5,0.2-0.5,0.2-1,0.1
		c-0.2-0.2,0-0.5-0.4,0.1c-0.4-0.1,0,0.1-0.8-0.2c-0.1,0.1-0.1,0.1-0.2,0.2c-0.2,0.2,0.1,0-0.2,0.2l-0.3,0.4l-0.3,0
		c0,0.3,0,0.2,0.4,0.5l-0.1,0c0,0-0.1,0-0.1,0c-0.2,0.1-0.1,0.1-0.6-0.3l-0.1,0.3c-0.4-0.2-0.1-0.3-0.7-0.2c-0.3,0-0.8-0.1-1.2,0.3
		c0,0-0.1,0.1-0.1,0.1c0.2,0.1,0.1,0,0.1,0.1c0,0.2-0.1,0.4-0.3,0.5c-0.1,0.1-0.1,0-0.2,0.1c-0.3,0.1-0.2,0.2-0.4,0.3L60,42.6
		c0,0.3,0.1,0.4-0.1,0.8c-0.2,0.4-0.2,0.3-0.3,0.3l0,0.1l0,0.1l-0.2,0l-0.1-0.5l-0.2,0l-0.1-0.1c0.2-0.8,0.2-0.5,0.4-0.7
		c0.2-0.1,0-0.1,0.3-0.3c0.2-0.1,0.2,0,0.3-0.2c-0.3,0.1-0.4,0.1-0.7,0l-0.7,1c0.3,0.1,0,0,0.2,0.2l-0.1,0c-0.1,0.2,0,0,0,0.1
		l0.1,0.3l-0.4,0c0.2,0.4-0.1,0.2,0.4,0.6l-0.1,0.4L58.1,45c0.3,0.2,0.1-0.1,0.5,0.4c-0.1,0.1-0.2,0.1-0.4,0c-0.2-0.1,0-0.1-0.5-0.2
		l0.1,0.3l-0.4,0.1c0.1,0.2,0.1,0.1,0,0.3c-0.4-0.1-0.4,0.2-0.8,0.3l-0.9,0.1l-0.2,0.2c-0.1,0.1-0.1,0-0.1,0.1l-0.3,0.1
		c-0.1,0-0.4,0-0.7,0.2c-0.4,0.2-0.4,0.4-0.7,0.7l-0.4,0.5c0.1,0.3,0.1,0,0.1,0.4c-0.1,0.2-0.1,0.8-0.1,1.1c0,0,0,0,0,0
		c0,0.4,0.1,1.1-0.1,1.5c-0.2,0.2-0.2,0.3-0.3,0.5L52.6,52c-0.3-0.2-0.2-0.3-0.4-0.4c0.1-0.3,0-0.2,0-0.4c-0.1-0.4,0,0.2,0-0.3
		l0-0.1c-0.1-0.2-0.1-0.2-0.3-0.4l0.4-0.7c-0.3-0.1-0.1-0.1-0.5,0.1c0-0.2,0.2-0.6,0.3-1c-0.1-0.1-0.2-0.1-0.2-0.3
		c-0.1-0.2,0-0.3-0.1-0.4c-0.3-0.4-0.5,0.3-1-0.1c-0.3-0.2,0,0-0.5-0.5l0-0.3c-0.5-0.2,0,0.2-0.6-0.2l-0.4,0.1
		c-0.1-0.1,0-0.1-0.1-0.2l0-0.1c-0.4,0.4-0.2-0.1-0.8-0.1c-0.1,0-0.1,0-0.2,0c-0.3,0.1-0.1,0.1-0.6,0c0.1,0.2,0.4,0.3,0.6,0.4
		c-0.1,0.1-0.1,0.1-0.3,0.2l0.1,0.4c-0.1-0.1,0-0.1-0.2-0.2l-0.1,0c-0.3-0.3-0.1-0.1-0.3-0.3l-0.2,0.1c0,0,0.1,0,0.1,0l0,0.3
		c-0.2-0.1-0.3-0.2-0.2-0.2l-0.1,0.1c-0.6-0.4-0.5-0.3-1-0.7c-0.3,0-0.2,0.1-0.5-0.1c-0.2-0.1-0.3-0.2-0.7-0.2
		c-0.4,0,0.1,0.1-0.8-0.1l-0.4,0.3c-0.7,0.5-0.3-0.1-1.1,0.4l-0.2,0.1c-0.2-0.1-0.1-0.1-0.2,0c0,0-0.2,0.1-0.2,0.1
		c-0.3,0.2,0,0.1-0.3,0.3c-0.2,0.1-0.1-0.1-0.2,0.3c-0.1,0.2-0.1,0.3-0.1,0.5l0.1,0.5c-0.2,0.7-0.4,0.2-0.8,0.7c0,0.1-0.4,1-0.3,1.1
		c-0.1,0.4,0,0.5-0.3,0.8c-0.2,0.3,0,0.2-0.4,0.6c0.1,0.1,0.1,0.1,0.1,0.3c0.2,0.2,0.1,0.1,0.1,0.3c0,0.1,0,0,0,0.1c0,0.2,0,0,0,0.1
		c0,0.1,0.2,0.4,0.3,0.4c0,0,0,0,0,0.1c0.1,0.2,0.2,0.7,0.1,1l0.8,0.6c0.1,0,0.9,0.2,1.2,0c0.7-0.3,0.7,0.2,1,0.1l0.5-0.3
		c0.3-0.1,0.2,0,0.4-0.4c0.3-0.1,0.4-0.3,0.6-0.5c0.2-0.1,0.1-0.3,0.3-0.3c0.1,0,0.3,0,0.6,0c0.4,0,0.7-0.2,1.1-0.1
		c0.2,0,0.4,0.1,0.4,0.2c0.1,0.2,0,0.3-0.1,0.5c-0.1,0,0,0-0.1,0.1L46,55.5c-0.2,0.1-0.2,0.2-0.2,0.4c-0.2-0.1,0,0-0.3-0.2l0.1-0.2
		l-0.3,0.2l0.1,0.2c0,0.4-0.2,0.4-0.4,0.8c-0.3,0.6-0.5,0.5-0.7,0.8l1,0.2c1.1,0.3,1,0,1.4,0.2c0.3,0.1,0.7,0.2,0.8,0.4
		c0.1,0.1,0.1,0.1,0.1,0.2c0,0,0,0.1,0,0.1l0.4,0.3c-0.5,1.2-0.3,0.4-0.6,1.1l-0.6,0.9c0.1,0.1,0.1-0.1,0,0.2c0,0.1,0,0.1-0.1,0.1
		c-0.1,0.2-0.1-0.1-0.1,0.2c0.1,0.6,0.1,0.6,0.4,1.1c0.2,0.4,0,0.3,0.1,0.6c0.8,0.3,0.6,0.4,1,0.3c0.2-0.1,0.3-0.1,0.5-0.1
		c0.5,0,0.2,0,0.5-0.1l0.7,0.3c0.1,0.8,0.1,0.2,0.3,0.7c0.1,0.2-0.2-0.1,0.3,0.3c0.2,0.2,0.1,0.1,0.1,0.4l0.1,0c0,0,0,0,0.1,0
		c0.1,0.1-0.1,0,0.1,0.1c0.3-0.5,0.2-0.3,0.5-0.7c0.3-0.1,0-0.1,0.4,0c0.1-0.4,0-0.2,0.3-0.3c0.2-0.5,0.3-0.7,0.8-0.6l0.1,0.1
		c0.3-0.4,0.4,0,0.9-0.2c0.3-0.1,0.1-0.1,0.4-0.1c0.2,0,0.3,0,0.5-0.1c0.2,0,0,0.1,0.2,0c0,0,0,0,0,0c0,0,0,0,0.1,0
		c0.1-0.1,0,0,0.1-0.1c0.5,0.1,0.3,0.1,0.5,0.3c-0.1,0.2,0,0.1-0.2,0.2L55,63.4c0,0.2,0.1,0.1,0.2,0.4l0,0.3l-0.5,0.2
		c-0.1,0.4,0,0.5,0.1,0.9l0.5-0.1c0.2-1-0.3-0.5,0-1c0.1-0.1,0.1-0.1,0.1-0.2c0.1-0.1,0.2,0,0.5-0.1l0.6,0.1
		c-0.1-0.3-0.1-0.1-0.3-0.3l0.2-0.2c0.2,0.2,0,0.2,0.2,0.4c0.2,0.2,0.6,0.1,0.8,0.6c0,0.1,0,0.2,0,0.2c0,0.1,0,0-0.1,0.2
		c0.2,0.1,1.1,0.2,1.4,0.4c0.2,0.1-0.1,0.2,0.3,0.4c0.2,0.1,0.4,0.1,0.6,0.2c0.5,0.1,0.2-0.1,1.1,0.1l0-0.1c0.2,0,0.3,0.1,0.5,0.1
		l0.5,0.2l-0.1,0.1l-0.4,0l0.1,0.4c0,0,0,0.1,0,0c0,0,0,0,0,0c0.2,0.1,0.8,0.2,0.9,0.3c-0.1,0.2-0.1,0.4-0.3,0.5
		c-1.2-0.2-0.7-0.1-1.1,0.1c0.7,0,0.6,0,1.4,0.2l0.3,0.1c0.2,0.1,0.3,0.1,0.7,0.6c0,0.1,0,0.1,0.1,0.1c0.1,0.1,0.1,0.1,0.2,0.2
		l-0.3,0.4c-0.3,0.2-0.2,0-0.3,0.3l0.2,0.1l0.7-0.1c0.1,0.1,0.2,0.1,0.3,0.3c0.2,0.1,0.2,0.1,0.1,0.3c0,0,0,0,0,0.1l0,0.3
		c0.3-0.2,0-0.2,0.6-0.1c0.3,0.3,0.8,0.1,1.2,0.3c0.4,0.2,0.2,0.2,0.4,0.4c0.2,0.1,0.2,0,0.4,0.1c0.2,0.2,0,0,0.1,0.1
		c0.4,0.2,0.4,0.2,0.6,0.6c0.1,0.3,0.2,0.4,0.4,0.6l-0.1,0.1l0.2,0.4c0.1,0.2,0.1,0.6,0.1,0.8c-0.1,0.3-0.1,0.1,0,0.4l-0.1,0.4
		l0.5,0.1l-0.5,0.3l0.1,0.2L68,75c0.5,0.1-0.3-0.1,0.6,0c-0.3,0.6-0.4,0-0.4,0.4c0,0.2,0,0.1,0.1,0.2c-0.1,0.1-0.7,0.2-0.5-0.4
		c-0.6,0.3-0.5,0.1-0.8,0.4c-0.2,0.2-0.1,0.1-0.3,0.2c-0.2,0.1-0.2,0.3-0.9,0.3l0.7,0.1c0.1,0.1,0.1,0,0,0.2
		c-0.1,0.3-0.1,0.3-0.2,0.4l0.2,0c0.1-0.1,0.2-0.3,0.3-0.5c0.2,0,0.3-0.1,0.5,0l-0.1,0.2c0.1,0.1,0,0,0.1,0.2c0,0.1,0,0.1,0.1,0.1
		c0.1,0.3,0,0.2,0.2,0.3c0.3,0,0-0.1,0.4,0c0.1,0,0.4,0.1,0.5,0.2l0.8-0.1c0,0-0.3-0.5,0.2-0.2c0.8-0.5,1.2,0.5,1.5,0.5
		c0.1,0.1,0.2,0,0.1,0.1l0.1,0.1l0.3,0.1c0,0.1,0,0.1,0,0.2l0,0l0.2,0.1c0.1,0.1,0.1,0.1,0.1,0.3c0.1,0.2,0.1,0,0.1,0.3
		c0,0.2,0,0,0,0.3c0,0.1,0,0.1-0.1,0.1l0.4,0.2c0.1-0.1,0.1-0.2,0.4-0.2c0.1,0,0.3,0.1,0.4,0.2c0.1,0.1,0.2,0.2,0.2,0.3l0.2,0l0,0.1
		c0.4,0.1,0.3,0.1,0.8,0.3c0.2,0.1,0.3,0.2,0.5,0.2c0.2,0,0.4,0,0.4,0.2l0.1,0.1l0.3,0.2c0.3,0.2,0.6,0.6,0.7,0.9
		c0.2,0.1,0.1,0,0.2,0.1c0,0,0.1,0.1,0.1,0.1c0.1,0.2,0.1,0.2,0.1,0.3c0.2,0.1,0.1,0.1,0.3,0.2c0.5,0.2,0.1-0.1,0.4,0.2
		c0.3,0.2,0.8,0.2,0.6,0.7l-0.2,0.7l-0.2-0.2l0,0.3c-0.2,0-0.1-0.1-0.3,0.1l-0.3,0.2c-0.2,0.1-0.2,0.1-0.2,0.2
		c-0.1,0.3,0.1,0.2-0.2,0.4l-0.3,0.4c-0.2-0.1-0.3,0-0.5,0.1l-0.1,0.1c0,0,0,0,0,0l-0.2,0.2c-0.1,0.1-0.1,0-0.1,0.1
		c-0.1,0.1,0,0-0.1,0.2c-0.1,0.1-0.1,0.1-0.2,0.2c-0.2,0.2-0.1,0.1-0.3,0.1c-0.2,0.1-0.3,0.2-0.4,0.5c-0.2,0-0.3,0.1-0.6,0.3
		l-0.3-0.3c-0.1,0.1,0,0-0.1,0.1c-0.3,0.2,0,0.1-0.4,0.3c-0.4,0.2-0.1,0.2-0.5,0.3l0,0c0,0,0,0,0,0.1c0,0.2,0.1-0.2,0,0.2
		c0,0.1,0,0-0.1,0.1c0,0.3-0.1,0.6-0.2,0.8l-0.4,0.2c0,0,0,0,0,0c-0.3,0,0-0.1-0.3,0.1l-0.2,0.1l-0.1,0.1c-0.1,0.1-0.3,0.2-0.3,0.3
		c-0.1,0.1-0.2,0.2-0.2,0.4l0.1,0.2l-0.2,0.2l-0.3-0.1l-0.1,0.2l-0.4-0.1l0.1,0.3c-0.3,0-0.1,0-0.3,0.2L69.4,91l-0.1-0.2l-0.1,0.4
		l-0.5,0l0.1-0.3l-0.3,0.5l-0.2,0l-0.1,0.2c-0.3-0.2-0.1-0.1-0.3,0l-0.5,0.2c0,0,0,0-0.1,0c0,0,0,0,0,0l-0.1,0.2l-0.1-0.2
		c-0.1,0.3,0,0.1-0.2,0.2c-0.3,0.3-0.1-0.1-0.7,0.4c-0.4-0.1-0.3,0-0.4-0.3c-0.1,0.4,0.1,0-0.2,0.2c-0.3,0.1-0.2,0.2-0.5,0.3
		c0,0,0,0-0.1,0c-0.3,0-0.1,0-0.3,0.1l-0.2,0.1c0,0,0,0,0,0c-0.4,0.1,0,0-0.5,0.1c-0.1,0-0.2,0-0.2,0l-0.2,0.1c0,0-0.1,0.1-0.1,0.2
		l-0.6,0.2c0,0-0.1,0-0.1,0l-1,0.5l0,0c0.2,0.2,0,0.2,0.1,0.3c-0.1,0.2-0.1,0.1-0.1,0.3c-0.1,0.2,0.1,0,0,0.1c0,0.3,0.1,0.2,0,0.5
		c-0.1,0.2-0.2,0.6-0.4,0.7c-0.2,0.2-0.1,0-0.3,0.2c-0.3,0-0.3,0.1-0.4,0.1c-0.2,0.1-0.1,0-0.2,0.2c-0.2,0-0.4,0.3-0.5,0.4
		c-0.2,0.2-0.4,0.3-0.4,0.6c-0.4,0.1-0.2,0.2-0.5,0.2l0.6-0.7L59,96.3c-0.2,0.3-0.4,0.6-0.8,0.5c0,0,0,0,0,0c0,0.1-0.6-0.1-0.6-0.1
		l-0.2,0.2l-11.8-4.2c0,0,0.2-0.2,0.2-0.2c0.1-0.1,0-0.1,0.1-0.2c0.1-0.2-0.1,0,0.1-0.2c0-0.2,0-0.1,0-0.3c0-0.2-0.1-0.1,0-0.3
		c0.1-0.1,0.1-0.2,0.2-0.2c0-0.1,0-0.1,0.1-0.1c0.1-0.1,0,0,0.1-0.1l0-0.1c0.2-0.3,0.2-0.3,0.3-0.7l0.2,0l0.2-0.4l0,0
		c0-0.1,0-0.1,0.1-0.2c0,0,0-0.1,0.1-0.1c0,0,0,0,0,0l0,0l0.2-0.5c0-0.2,0-0.3,0.2-0.6c0.1-0.2,0.1-0.2,0.2-0.3l0.1-0.3
		c-0.1-0.1-0.1,0.1-0.1-0.1c0-0.3,0.1,0,0.2-0.3l0.2-0.5c0,0,0-0.1,0-0.1l0,0l0.9-2.2l0-0.1c0,0,0,0,0-0.1c0.1-0.4,0-0.4-0.2-0.6
		c-0.1-0.1-0.1-0.2-0.1-0.3c-0.1-0.2-0.1-0.2-0.2-0.3c-0.2-0.1-0.8-0.5-0.9-0.7c-0.4,0-0.9-0.8-1.1-1c-0.3-0.4-0.2-0.1-0.3-0.6
		c-0.2-0.8-0.3-0.3-0.2-0.7l0.1,0c0.2-0.4,0.1-0.6,0-1.1L46,78.6c0,0,0,0,0,0c0.1-0.2,0.1-0.1,0-0.3c0-0.1-0.1-0.3-0.2-0.3
		c0.1-0.2,0.1-0.6,0.1-0.8l-0.1-0.8c-0.1-0.8-0.5-0.7-0.6-1.3c-0.2-0.1,0,0.1-0.2-0.1L45,74.6c0-0.3-0.2-0.2-0.2-0.5l-0.4-0.3
		c0.1-0.4,0.1,0,0.2-0.3c0-0.2-0.2,0,0-0.5c-0.1-0.1-0.1,0-0.1-0.2l0.2-0.3c0.1,0,0.4-0.2,0.5-0.3c0.1,0,0.5-0.2,0.5-0.2
		c0.1-0.2,0-0.1,0.4-0.4l-0.4,0.2l-0.4-0.4l0.3-0.2L45.5,71c0.3-0.3,0.3-0.3,0.2-0.5c0.2-0.1,0.1-0.1,0.3-0.1l0.2-0.1c0,0,0,0,0,0
		c0-0.7,0.1-0.5,0.3-0.5c0.4-0.1,0.1-0.3,0.3-0.7c0.1,0,0.4-0.1,0.5-0.1c0.3-0.1,0.2-0.1,0.3-0.3l0.4,0.1l0-0.1c0,0,0,0,0-0.1
		c-0.1-0.3,0.2-0.4,0.4-0.4c0.3-0.1,0.4,0,0.6-0.1l0.5-0.3L49,67.4c0.3-0.4,0.6-0.6,0.6-1.1c0.3,0.1,0.2-0.1,0.3-0.3l0.2-0.6
		l-0.5-0.4c-0.1-0.2,0.1-0.5,0.3-0.4c0-0.2,0.1-0.1,0-0.2l-0.4-0.2c-0.1-0.2,0-0.2-0.2-0.4c-0.5,0-0.3,0-0.5,0.2
		c-0.2,0.1-0.3,0.1-0.5,0.1l0.2,0.4l-0.2,0.1c-0.1,0.1-0.2,0.1-0.4,0.1l0-0.3l-0.4-0.1l0-0.3c-1.4-0.4-0.8-0.1-1-0.6l-0.1,0.1
		c-0.1,0-0.1,0.1-0.1,0.1c0,0,0,0,0,0c0-1.2,0-0.3-0.4-1.2c-0.1-0.1,0.1,0-0.2-0.2l-0.1,0.2l-0.1,0.1c-0.3-0.2-0.1,0-0.2-0.2
		c0-0.3-0.2-0.1-0.1-0.3c0-0.3,0.4-0.1,0.2-0.6c0.1-0.2,0-0.2-0.1-0.4c-0.2-0.5,0.1-0.3-0.5-1.1l0.1-0.1c0.1-0.1,0,0.1,0.1-0.1
		c0-0.1,0,0,0-0.1c-0.3-0.1-0.1,0-0.2,0.1c-0.3,0.1-0.4-0.1-0.7-0.2c-0.2-0.1-0.3,0-0.5-0.1c-0.3-0.1-0.2,0-0.2-0.3l-0.8-0.4
		c-0.2-0.1-0.1-0.1-0.2-0.3c-0.3-0.4-0.4-0.5-0.6-0.9c-0.1-0.3-0.2-0.3-0.4-0.4c-0.6-0.5-0.7-0.4-1.4-0.5c-0.4,0-0.1,0-0.4,0
		c-0.4,0.1-0.3-0.1-0.8-0.2c-0.2-0.1-0.3-0.1-0.4-0.2c-0.3-0.1-0.1,0-0.3-0.2c0,0,0,0-0.1-0.1c-0.2-0.2-0.4-0.2-0.6-0.4
		c-0.7-0.3-1.2-1-1.5-1.1l-0.1-0.1c-0.2-0.1-0.2-0.1-0.4-0.2c-0.2-0.4-0.3-0.6-0.6-0.9c-0.1-0.2-0.3-0.2-0.4-0.4
		c-0.1-0.2,0-0.3-0.3-0.4c0.1-0.2,0.1-0.1,0-0.3c0.2-0.2,0.1,0,0.2-0.3c0.1-0.2,0-0.1,0.2-0.2c0.3-0.3,0.2-0.2,0.2-0.8l0-0.1
		c0-0.2-0.2-0.6-0.3-0.8c0-0.2,0.1-0.1,0-0.3c-0.1-0.3,0-0.1-0.1-0.2c0.1-0.2,0-0.1-0.1-0.2c-0.1-0.3,0.1-0.1-0.1-0.3
		c-0.2-0.2-0.1,0-0.2-0.3c-0.1-0.2,0-0.1-0.1-0.3c0-0.3-0.1-0.3-0.4-0.7l-0.1-0.1c-0.1-0.1-0.2,0-0.1-0.3c0.1-0.1,0.2-0.1,0.3-0.2
		l-0.1-0.2l-0.3-0.1c-0.3-0.8-0.2-0.3-0.1-0.8l-0.3-0.1c-0.5-0.9-0.3-0.5-0.3-0.8c0-0.2,0-0.1,0-0.2l-0.1-0.2
		c-0.1-0.1-0.1-0.1-0.1-0.2c-0.1-0.2-0.1-0.3,0-0.6c-0.3-0.2-0.1-0.5,0-0.8c-0.2-0.3-0.1-0.2-0.2-0.4c-0.6,0-0.2,0.1-0.4,0
		c-0.2,0-0.1-0.2-0.4-0.2c-0.2,0.2-0.3,0.3-0.3,0.4c0,0,0.1,0.2,0.1,0.2c0,0,0,0.2,0,0.3c0.1,0.8,0.1,0.4,0.3,0.7
		c0.1,0.1,0,0,0.1,0.2l-0.2,0.3l0.3,0.4c0,0.2-0.2,0.3,0,0.5c0.2,0.6,0.2,0.3,0.1,0.7l0.1,0.2c0.1,0.1,0,0,0.1,0.2
		c0,0.2,0,0.2,0.1,0.4c-0.1,0.3-0.1,0.2,0,0.3c0,0,0,0,0,0c0.1,0.3,0.1,0.1,0,0.6l0.1,0.1c-0.1,0.1-0.1,0.2-0.2,0.3
		c0.6,0.7,0,0,0.5,0.8l-0.3,0.5l-0.2-0.1c0.1-0.5,0-0.4-0.2-0.8c-0.1-0.1-0.3-0.4-0.3-0.6L31,47.6c0-0.2,0.1-0.4,0.1-0.7
		c0-0.2,0-0.3,0-0.5c-0.1-0.4-0.5-0.6-0.7-0.7c-0.2-0.2,0.2,0-0.3-0.2c0-0.5-0.3-0.3-0.3-0.6l0.4,0c0.2,0,0.5-0.8,0.4-1.3
		c-0.1,0-0.2-0.2-0.2-0.3c-0.3-0.3-0.3-0.1-0.5-0.7c-0.1-0.2,0-0.1-0.1-0.2c0.2-0.4,0.1-0.2,0.1-0.6c0,0,0,0,0,0c0,0,0,0,0,0
		c-0.1-0.2-0.1-0.1-0.1-0.4c0-0.2,0.1-0.5,0.1-0.8l-0.2-0.1l0-0.2c-0.1-0.1-0.1-0.1-0.1-0.2c-0.1-0.1,0-0.1-0.1-0.1
		c-0.2-0.1-0.1,0.2-0.2-0.1l0-0.2l-0.6-0.3c-0.3-0.2-0.1,0-0.5-0.2c0.1-0.1,0.2-0.3,0.1-0.5l0-0.1C28,37.9,28,38.6,28,38.1
		c0-0.3-0.4-0.9,0.1-0.7l0.1-0.2c-0.5-0.3-0.5-0.3-0.3-0.5c0.3,0,0.2,0.1,0.3,0l0.1-0.4L28,36.2c0,0,0,0,0,0c-0.1,0.1,0,0.1-0.3,0.1
		c0-0.2,0-0.1,0-0.3l-0.1-0.1l0,0c-0.1-0.1-0.1-0.1-0.2-0.2l0.1-0.7c0-0.2-0.1-0.4-0.1-0.6l0.5-0.6c0.2-0.4,0-0.4,0.3-0.6
		c0-0.3-0.2-0.8,0.2-1.1c0.1-0.1,0.3-0.4,0.4-0.6l0.6-1c0.1-0.2,0.1-0.1,0.1-0.3c0.2-0.7,0,0.2,0.2-0.7c0.3,0.1,0.2-0.1,0.2-0.3
		c0-0.2,0-0.3,0-0.4c0-0.5-0.3-0.2,0-0.9l1.3,0.3l0.2,0l-0.2,0.2c-0.1,0.2-0.1,0.2,0,0.2c0,0.3,0,0,0,0.2c0.1-0.2,0.2-0.3,0.2-0.4
		l0.1-0.1c-0.1-0.1,0.2-0.1-0.2-0.1l0-0.3c0.1-0.2,0.1,0,0.3-0.2c-0.1-0.2-0.2-0.1-0.1-0.4L31.4,27c0.1-0.1,0.1-0.1,0.2-0.2
		c-0.4-0.1-0.1,0-0.4,0.1l0-0.2c0.1-0.5-0.4,0.1-0.5-0.6c0,0,0,0,0,0c0-0.1,0,0.1,0-0.1l-0.2,0c-0.2,0.2-0.1,0.1-0.4,0
		c-0.2,0-0.3,0-0.4,0c0.1-0.4,0.2-0.1,0.1-0.3c-0.4-0.2-0.4-0.1-0.8-0.1c-0.1-0.1-0.1-0.1,0-0.3c0.1-0.1,0.2-0.2,0.4-0.2
		c0-0.1,0-0.3,0-0.4c0,0,0,0,0,0l0-0.1c0-0.1-0.1,0,0-0.1l-0.1-0.1c-0.1-0.1-0.2-0.2-0.1-0.5L29,24c0-0.1,0,0-0.1-0.1
		c0-0.1-0.2-0.3,0-0.2l0.1-0.1c0,0,0,0,0,0c0,0,0,0,0.1-0.1c0.2-0.2,0,0,0.2-0.2c-0.6,0-0.3,0.1-0.6,0.2c-0.4-0.5-0.2-0.4-0.1-0.6
		c0.1-0.2,0-0.4,0-0.4c0,0-0.2-0.1,0.4-0.4c0.1-0.1,0.3-0.1,0.4-0.1l0-0.2c-1,0.4-0.8,0.3-0.8,0l0-0.2l0.3,0
		c0.1-0.2,0.1-0.1,0.1-0.4c0-0.3,0,0.2-0.2,0.2c-0.4,0-0.2-0.1-0.2-0.1c-0.1-0.2,0.1-0.3,0.2-0.4l-0.5,0.1c0-0.3,0-0.2,0.1-0.2
		l0.1-0.3l-0.3,0l0.2-0.2l-0.1-0.1c0,0-0.1-0.1-0.1-0.1c-0.2,0.2-0.1,0.2-0.3,0.2l0-0.2c0.3-0.1,0.1,0,0.2-0.2
		c0.1-0.2,0-4.8,0.1-4.9L45.5,7.3z M28.4,20.5l-0.1,0.2c-0.1-0.1-0.2-0.3-0.3-0.5L28.4,20.5z M53.6,13.5c0-0.1,0-0.1-0.1-0.1l0,0
		c0.1-0.2-0.1-0.3,0.2-0.1L53.6,13.5z M61.5,18.6c-0.3-0.1-0.2-0.1-0.2-0.3C61.5,18.4,61.5,18.4,61.5,18.6z M61.4,21.8
		c-0.5,0-0.2,0-0.4,0.1c-0.3,0.1-0.3-0.2-0.3-0.2l0.6-0.1l0.8-0.2l0,0.2C61.6,21.6,62,21.8,61.4,21.8z M62.2,27.7
		c-0.1,0.1-0.2,0.1-0.3,0C62,27.5,62.2,27.7,62.2,27.7z M62,27.9c-0.1,0.1,0,0.1-0.2,0.1C62.1,27.9,61.7,27.9,62,27.9z M62.4,28
		c-0.1,0.1-0.1,0.1-0.2,0.3l-0.1,0l-0.1,0c-0.1-0.1-0.1-0.1-0.2,0c0,0,0-0.1,0-0.2l0.3,0.1c0.1-0.2,0.1-0.4,0.3-0.5
		C62.5,27.8,62.6,27.8,62.4,28z M62.8,21.2c-0.3,0-0.9-0.4-1.1-0.7l0.2-0.4c-0.5-0.4-0.7,0.1-1.2,0.8l-0.4-0.1l0.1-0.4
		c-0.3-0.1-0.4,0-0.5-0.1c0-0.4,0.1-0.3,0.3-0.4l0.5-0.1c0.1-0.8,0-0.4,0.2-0.8c0.2-0.4,0.1-0.5,0.5-0.3c-0.1,0.1-0.2,0.2-0.3,0.3
		c0.3,0.1,0.7,0.2,0.9,0.5c0.3,0.6,0.5,0.6,0.4,1.2l0.7,0.1L62.8,21.2z M63.7,23.2c-0.1,0-0.2-0.1-0.3-0.3c0.2-0.1,0.3-0.2,0.5-0.2
		L63.7,23.2z M62,42c-0.2,0,0,0-0.2,0c-0.3-0.1-0.2-0.1-0.2-0.1c0.3-0.3,1.1,0,1.4,0.1C62.3,42.3,62.8,42.1,62,42z M64.4,41.7
		c0.3-0.1,0.2,0,0.2,0.1C64.4,41.8,64.5,41.8,64.4,41.7z M76.7,40.3c-0.1,0-0.2-0.1-0.2-0.1c0,0,0,0,0,0l0,0.1c-0.1-0.1-0.1,0-0.2,0
		c-0.1,0,0,0-0.2,0c0,0-0.2,0-0.2-0.1c-0.2-0.1-0.3-0.1-0.3-0.2c-0.2-0.1,0,0.1-0.3-0.1c-0.1,0-0.8-0.4-1.2-0.5l-0.2,0
		c-0.3,0-0.3-0.1-0.4-0.3l0.5-0.3c0.2-0.1,0.2,0,0.3,0c-0.2-0.2-0.1-0.1-0.3-0.2L74,38.7c0.7,0,0.2,0,0.6-0.1
		c0.2,0.1,0.2,0.2,0.4,0.1c0.2-0.1,0,0,0.1-0.1l-0.3-0.2c0.4-0.5,0.3-0.3,0.6-1c0.5-0.1,0.2-0.1,0.5-0.2c0.2-0.2,0.8,0.1,0.9,0.1
		l-0.4,0.1l0,0.3l-0.4,0c-0.4,0.5-0.5,0.4-0.4,0.7c-0.1,0.2,0,0.1-0.1,0.2c0.2,0,0.1,0,0.2-0.1c0.1,0,0.4-0.1,0.5-0.1
		c0.2,0.2,0.2,0.1,0.3,0.3l-0.2,0c0,0-0.1,0-0.1,0.3c0.3,0,0.2,0.3,0.5,0.4C76.9,39.6,76.8,39.9,76.7,40.3z M70.6,15.4
		C70.6,15.5,70.6,15.5,70.6,15.4C70.6,15.5,70.6,15.5,70.6,15.4c-0.1-0.1,0-0.1,0-0.1C70.7,15.4,70.7,15.3,70.6,15.4z M66.8,11.1
		c0.5,0,0.4,0.3,0.7,0.3c0.6,0.1,0.4,0.1,0.9,0.3c0,0.2,0.1,0.8,0.1,0.8c-0.1,0.3-0.2,0-0.8,0c-0.3,0-0.4,0.2-0.9,0
		c-0.2-0.1-0.1-0.1-0.4-0.2c-0.8-0.1-0.5-0.5-0.4-0.8C66.3,11.1,66.5,11.1,66.8,11.1z M53.7,13.5c0.2,0.1,0.1,0,0.1,0.2
		C53.6,13.6,53.8,13.7,53.7,13.5z M55.8,13.5c-0.1-0.1-0.3-0.1-0.4-0.1l-0.1,0c-0.2,0.1-0.2,0.1-0.5,0c-0.4-0.8-0.1-0.3-0.2-0.6
		l-0.3,0.1c-0.3-0.5-0.2,0.1-0.3-0.4c0.4-0.2,0.3,0,0.5-0.2c0.2-0.2,0.1-0.3,0.4-0.3l0.1,0.1l0.2-0.2c0.3,0.1,0,0,0.3,0.1
		c0.1,0,0.4,0.2,0.5,0.3l0.2,0.9c0,0.1,0,0,0.1,0.2C56,13.4,56,13.3,55.8,13.5z M62,14.3c-0.1-0.1-0.1-0.1-0.2-0.3l0-0.2
		c0.1,0,0-0.1,0.2,0.2l0.2,0.3L62,14.3z M62.1,13.6c0,0,0,0,0.1,0c0,0,0.1,0,0.1,0C62.3,13.7,62.4,13.9,62.1,13.6z M65.2,22.8
		L65,22.6c0.1-0.1-0.1-0.1,0.1-0.1C65.2,22.7,65.2,22.6,65.2,22.8z M65.1,22.3c0.1,0-0.1-0.1,0.1,0c0.1,0.1,0,0,0.1,0.1
		C65.1,22.4,65.2,22.4,65.1,22.3z M65.8,22.9l-0.1,0l0-0.2l0.2,0.1L65.8,22.9z M69.3,25c-0.2,0-0.1,0-0.1-0.1c0.1,0,0-0.1,0.3,0.1
		C69.4,25,69.6,25,69.3,25z M70.5,26.8c0.1-0.1,0-0.2,0.3,0C70.6,26.8,70.7,26.8,70.5,26.8z M72.9,26.7L72.9,26.7
		c-0.3-0.1-0.2,0-0.3-0.2c0.1-0.1,0.1,0,0.3,0C72.9,26.6,72.9,26.5,72.9,26.7z M73.9,25.8l-0.4-0.1c-0.1-0.2,0.1-0.1-0.1-0.2
		c0.2-0.2-0.1-0.1,0.2-0.1c0.1,0,0.2,0.1,0.4,0.2L73.9,25.8z M66.2,11.2L66,11.5c-0.1,0.2,0.1,0.1-0.2,0.2c-0.2,0.4-0.1,0.2,0,0.4
		c0.1,0.2,0,0.4,0,0.4l0,0.1c0,0,0,0.1-0.1,0.2l-0.3,0.2c0.1,0.1,0.2,0.2,0.4,0.2l0.1-0.4l0.7,0l0,0.2l0.4,0l-0.2,0.7
		c0.2,0,0.1,0.1,0.2-0.3l0.2,0l0.1-0.3l0.8,0.5c-0.3-0.5-0.3-0.2-0.6-0.7c0.2-0.1,0.3-0.2,0.7,0.1c0.3,0.2,0.8,0.7,1.1,0.8
		c0.3,0.1,0.5,0,0.8,0.3c-0.1,0.3,0.1,0,0,0.3c-0.1,0.3,0,0-0.1,0.2l0.2,0.6l-0.4,0c0.2,0.6,0.1,0.1,0.2,0.4l0.4-0.2
		c0.2,0.6-0.1,0.2,0.3,0.5c0,0,0,0.1,0.1,0.1l0.2-0.3l0.3,0.3c0.2,0.3,0.1,0,0.3,0.3l-0.3,0.2c0.3,0.2,0.2,0.1,0.5,0l0.3,0.2
		l-0.4,0.3c0.3,0,0.3-0.1,0.6,0l-0.3,0.2c0.9,0.1,0.5,0,0.8,0.3c0,0,0.2,0.2,0.2,0.2c-0.3,0-0.3,0-0.5,0.1l0.3,0.1l0.1,0.3l0.3-0.2
		c0.3,0.2,0.4,0.4,0.2,0.7c-0.2-0.1-0.4-0.1-0.6-0.1c0.3,0.5,0.3,0.2,0.6,0.6c0.2,0.3,0.1,0,0.1,0.3l-0.7-0.3l0.2,0.4l-0.2,0.2
		l-0.4-0.1l0.1,0.1c0,0,0,0,0,0c0.2,0.2,0,0.1,0.5,0.3c0,0.2,0,0.1,0.1,0.2c0.2,0.2,0.2-0.1,0.2,0.3l-0.1,0c0.2,0,0.1,0,0.5,0.4
		l-0.2,0.3c0.2,0.1,0,0,0.2,0c0.2,0,0.1,0,0.1,0l0.1,0.3c0,0,0,0,0,0c0,0,0,0,0,0c0.1,0.2,0.2,0.1,0.3,0.3l0.2,0.3
		c0,0,0.1,0.1,0.1,0.1l0,0c0.3,0.2,0.2,0.1,0.5,0.4L74.8,22c0.1,0,0.2,0.1,0.3,0.2c0.2,0.2,0.1,0.1,0,0.3c0.3,0.2,0,0,0.2,0.2
		c0.2,0.2,0.2,0.1,0.2,0.3c0,0,0,0,0,0.1c0,0,0,0-0.1,0.1l0.1,0c-0.2,0.5-0.1,0.1,0,0.3l0,0.3c-0.9-0.2-0.3-0.2-0.6-0.3l0.1,0.7
		c-0.4-0.2-0.4-0.1-0.6-0.3c-0.1-0.1-0.1,0-0.3-0.1c0.2-0.2,0.2-0.1,0.3-0.2l-0.5-0.2l0.2-0.2l-0.5-0.3l0.3-0.1L73,22.3
		c-0.1-0.1-0.1-0.5-0.3-0.7l-0.2,0.2c0,0,0,0,0,0l-0.1-0.3l-0.1,0.1c0,0.3,0.2,0.2,0.1,0.6c-0.4-0.2-0.1-0.1-0.3-0.2L72,22.1
		c0.2,0.4,0,0.2,0.4,0.4c0,0.2,0,0.3,0.1,0.4c0.1,0.2,0.1,0.2,0.2,0.4c0.3,0,0.3,0.1,0.4,0.3c0.1,0.2,0.1,0,0.2,0.3c0,0,0,0,0,0
		l0.1-0.1l0.2,0.6l-0.2,0l0,0.2l-0.3,0l0.1,0.1c0,0,0,0,0,0l0,0.1c0.1,0.1,0,0,0.1,0.1c0,0.1,0,0,0.1,0.2l-0.1,0.1l0,0
		c-0.1-0.4,0-0.2-0.3-0.5c-0.7-0.6-0.8,0-0.9-0.6c-0.1,0-0.1-0.1-0.3-0.1l0,0.2c-0.4-0.3-0.6-0.6-0.8-0.5c0.2,0.4,0.4,0.7,0.8,1
		c0.2,0.2,0.4,0.2,0.5,0.4c0.1,0.3-0.1,0.1,0.1,0.3c0,0,0.3,0.2,0.4,0.2c0.1,0.2,0.1,0.1-0.1,0.4l-1-0.6l-1-0.4
		c-0.2-0.1-0.4-0.2-0.5-0.2c-0.2,0-0.1,0.2-0.5,0c-0.1-0.1-0.1-0.1-0.2-0.1c-0.2-0.1-0.5-0.2-0.5-0.5l0.5,0
		c-0.3-0.4-0.2-0.2-0.4-0.2l-0.1-0.2c0,0,0,0,0,0c-0.1-0.1-0.1,0.1-0.1-0.1l0.1-0.3c-0.2-0.2-0.2,0-0.3-0.7c-0.4-0.1-0.1,0-0.3,0
		l-0.3,0l0.2-0.3l0-0.1c0,0,0,0,0,0c0,0.1-0.2,0-0.3,0L67.4,22L67.2,22l0.2,0.4c-0.2,0-0.2,0-0.3-0.1C67,22.3,67,22.3,67,22.3
		l-0.1-0.2c-0.4,0.4-1.1,0.3-1.4,0l-0.3-0.4c0.1-0.1,0.1-0.1,0.2-0.1l0.4-0.6c0.4,0.1,0.4,0.2,0.7,0.3c0.2,0.1,0.2,0.1,0.3,0.1
		c0.6,0,0.6,0.2,1,0.2c0.2,0,0.5,0,0.7,0.1c0.1,0,0.1,0.1,0.2,0c0,0,0,0,0,0c-0.1-0.3-0.1-0.3-0.2-0.5c-0.1-0.4-0.3-0.3-0.3-0.7
		l0.2,0c0,0,0,0,0,0c0,0,0,0,0.1,0c0.1-0.1,0.3-0.1,0.4-0.3c0.1,0,0.2,0,0.4,0.1l0.1-0.1l-0.2-0.2l0.1-0.3l0.2,0l0.2,0
		c0-0.3-0.2-0.1,0-0.4c-0.1-0.1-0.1-0.2-0.1-0.3c0-0.2,0-0.1,0.1-0.2l-0.2-0.1c-0.2-0.7-0.5,0-0.1-1l-0.2,0c-0.3,0-0.5,0.1-0.9,0.2
		c-0.1-0.3,0-0.1-0.2-0.4l0.2-0.3c0.3,0.1,0.2,0.2,0.3,0c-0.1-0.1-0.6-0.3-0.4-0.5c0.1-0.1,0,0,0.3-0.1l-0.6-0.1
		c0.1-0.4,0.1,0,0.1-0.2L68,15.9l-0.3-0.1C67.6,16,67.7,16,67.5,16l0-0.7l-0.4,0l-0.1-0.4l-0.4,0.1c0.1,0.1,0,0,0.1,0.1
		c0.1,0.1,0.1-0.2,0.2,0.4c-0.6,0-0.6-0.2-0.8-0.4l-0.8-0.3l0.1,0.7l-0.2,0c0.1-0.3-0.1-0.3-0.3-0.6c-0.3-0.4,0-0.1-0.4-0.5
		c0.3,0.2,0.2,0.1,0.3,0.3c0,0,0,0,0,0c0,0,0,0,0,0L65,15c-0.8-0.2-0.4-0.4-1.1-0.5c-0.4-0.1-0.6-0.3-0.9-0.6L62.8,14l-0.2,0
		c0,0,0,0,0,0l-0.1-0.2c-0.1-0.2-0.2-0.3-0.3-0.5c-0.4,0,0,0-0.3,0.1c-0.4,0-0.2-0.1-0.2-0.1c0-0.2,0.2,0.1,0-0.2
		c-0.1-0.2-0.1-0.1-0.3-0.2c0-0.1,0-0.2,0-0.3c0.2,0,0.1,0,0.4,0.1l0-0.1c-1.1-0.4-0.8-0.2-0.9-0.7c0-0.1-0.2-0.3-0.3-0.4
		c0.1-0.2,0.3-0.3,0.4-0.4 M62.9,11.7l0.2,0.7l-0.2,0.1c-0.2,0.1-0.1,0-0.2,0.1c0.6,0,0.3-0.1,0.8,0.3l0-0.5
		c0.1-0.1,0.1-0.1,0.2-0.1c0.1-0.3,0-0.1-0.2-0.4c-0.1-0.1-0.1-0.1,0-0.3L64,12l0-0.2l-0.5-0.3L64,11 M65.8,16.7l0-0.2l0.2,0.1
		c0.1,0.1,0.2,0.1,0.2,0.3L65.8,16.7z M66.9,16c-0.2,0.2,0.1,0.2-0.3,0.1l0,0C66.8,15.9,66.5,15.9,66.9,16z M68.2,18.3L68,18.7
		c-0.2,0-0.3,0-0.5-0.1c0-0.1-0.1-0.4,0-0.5c0.1-0.2,0.3-0.2,0.4-0.2C68.1,18,68.1,18,68.2,18.3z M67.9,16.7
		c0.1-0.1-0.1-0.1,0.1-0.1c0.3,0,0.1,0,0.2,0.1C68.1,16.8,68.1,16.9,67.9,16.7z M68.6,18.7l0-0.2c0.3,0,0.4,0,0.3,0.4L68.6,18.7z
		 M69.1,18c0.1,0.2,0.1,0.1,0,0.3C69,18.2,68.9,18.2,69.1,18z"/>
	<path fill-rule="evenodd" clip-rule="evenodd" fill="#ffffff" d="M40.3,16.7c-0.4,0.1,0.2,0.1,0,0.2c0,0,0,0-0.1,0l0,0l0.3-0.2
		C40.5,16.7,40.5,16.7,40.3,16.7z"/>
	<path fill-rule="evenodd" clip-rule="evenodd" fill="#ffffff" d="M40,17.8L40,17.8C40,17.8,39.8,17.9,40,17.8z"/>
	<path fill-rule="evenodd" clip-rule="evenodd" fill="#ffffff" d="M41.2,16.4L41,16.5c0.1,0,0.1,0,0.2,0
		C41.2,16.5,41.2,16.4,41.2,16.4z"/>
	<path fill-rule="evenodd" clip-rule="evenodd" fill="#ffffff" d="M40.6,16.6l0,0.2l0.4-0.2C40.9,16.5,40.7,16.5,40.6,16.6z"/>
	<path fill-rule="evenodd" clip-rule="evenodd" fill="#ffffff" d="M67.6,26.7c-0.1-0.1,0,0-0.2-0.1c-0.2-0.1-0.1,0.1-0.4-0.4
		L67,26.2c-0.1,0.1-0.1,0.2-0.2,0.3l0.2,0.6c0.1,0,0.1,0,0.3-0.1c0.1,0.1,0.1,0,0.1,0.1c0.4,0.1,0-0.1,0.6,0.1
		C68,27,67.7,26.9,67.6,26.7z"/>
	<path fill-rule="evenodd" clip-rule="evenodd" fill="#ffffff" d="M68.1,24L68.1,24l0,0.1C68.2,24,68.2,24.1,68.1,24z"/>
	<path fill-rule="evenodd" clip-rule="evenodd" fill="#ffffff" d="M68.4,24.4c-0.1-0.1-0.2-0.1-0.3-0.1c0.1,0.2,0.2,0.2,0.4,0.2
		C68.5,24.5,68.5,24.5,68.4,24.4z"/>
	<path fill-rule="evenodd" clip-rule="evenodd" fill="#ffffff" d="M66.3,28c0,0.1-0.1,0.2-0.2,0.2c0.5,0.2,0.4,0.1,0.6,0.3
		c0.1-0.2,0.1-0.4,0-0.7l-0.5-0.2C66.2,28,66.2,27.7,66.3,28z"/>
	<path fill-rule="evenodd" clip-rule="evenodd" fill="#ffffff" d="M40.6,16.8L40.6,16.8C40.6,16.8,40.6,16.8,40.6,16.8L40.6,16.8z"
		/>
	<path fill-rule="evenodd" clip-rule="evenodd" fill="#ffffff" d="M63.3,16c0.1,0.2,0,0.2,0.2,0.3c0-0.2,0.1-0.1,0-0.2
		C63.3,16,63.3,16,63.3,16z"/>
	<path fill-rule="evenodd" clip-rule="evenodd" fill="#ffffff" d="M64.3,15.9c0.1,0,0.1,0,0.2,0c-0.1-0.2-0.2-0.2-0.3-0.2
		C64.2,15.8,64.2,15.8,64.3,15.9z"/>
	<path fill-rule="evenodd" clip-rule="evenodd" fill="#ffffff" d="M60.1,11.5c-0.1-0.1-0.1-0.1-0.2,0C59.9,11.5,59.8,11.6,60.1,11.5
		C60.1,11.5,60,11.6,60.1,11.5z"/>
	<polygon fill-rule="evenodd" clip-rule="evenodd" fill="#ffffff" points="68.3,73.6 69,73.8 69,73.7 	"/>
	<path fill-rule="evenodd" clip-rule="evenodd" fill="#ffffff" d="M62.7,13.9c0.1-0.1,0.2,0,0.3,0.1c0.2,0.1,0.2,0.1,0.4,0.2
		l0.8,0.4c0-0.1,0.1,0-0.1-0.1c0,0-0.4-0.2-0.6-0.3l-0.1-0.1c0,0,0,0,0,0l0.4,0.1c-0.1-0.3-0.1-0.2-0.3-0.3l0-0.1
		c-0.2-0.2,0-0.3-0.2-0.4c0.1,0.4,0.1,0.3,0,0.5l-0.2,0c0,0-0.1,0-0.2,0c-0.1,0-0.1,0-0.2,0C62.6,13.9,62.5,13.8,62.7,13.9z"/>
	<path fill-rule="evenodd" clip-rule="evenodd" fill="#ffffff" d="M40,16.9L40,16.9L40,16.9C40.1,16.9,40.1,16.9,40,16.9z"/>
	<polygon fill-rule="evenodd" clip-rule="evenodd" fill="#ffffff" points="67.9,72.9 68,73.5 67.9,72.9 	"/>
	<path fill-rule="evenodd" clip-rule="evenodd" fill="#ffffff" d="M57,17.7c0.1,0.1,0,0.1,0.2,0.1C57.1,17.7,57.1,17.6,57,17.7z"/>
	<path fill-rule="evenodd" clip-rule="evenodd" fill="#ffffff" d="M67.5,12.8c0.1-0.2,0.1-0.1-0.1-0.3
		C67.4,12.8,67.3,12.6,67.5,12.8z"/>
	<path fill-rule="evenodd" clip-rule="evenodd" fill="#ffffff" d="M36.1,20.2L36.1,20.2L36.1,20.2C36.2,20,36.1,20.2,36.1,20.2z"/>
	<path fill-rule="evenodd" clip-rule="evenodd" fill="#ffffff" d="M32.5,24.1l0.1-0.1l0,0.1l0,0L32.5,24.1z"/>
	<path fill-rule="evenodd" clip-rule="evenodd" fill="#ffffff" d="M31.7,24.3c0.2,0.1,0.2,0,0.3,0.2l0-0.3l-0.2-0.2
		C31.7,24.1,31.7,24.2,31.7,24.3z"/>
	<polygon fill-rule="evenodd" clip-rule="evenodd" fill="#ffffff" points="67.4,81.9 67.5,81.9 67.5,81.8 	"/>
	<path fill-rule="evenodd" clip-rule="evenodd" fill="#ffffff" d="M47.3,59.3c0-0.3-0.2-0.4-0.4-0.7C46.7,59.1,46.9,59.2,47.3,59.3z
		"/>
	<path fill-rule="evenodd" clip-rule="evenodd" fill="#ffffff" d="M71.5,41.5C71.5,41.5,71.5,41.5,71.5,41.5
		C71.4,41.5,71.4,41.4,71.5,41.5L71.5,41.5z"/>
	<path fill-rule="evenodd" clip-rule="evenodd" fill="#ffffff" d="M59.6,85.4c0.1,0,0.1,0.1,0.3,0l0.2-0.2L59.6,85.4z"/>
	<path fill-rule="evenodd" clip-rule="evenodd" fill="#ffffff" d="M46.8,58.5c0.1-0.2,0-0.2-0.3-0.2l0.1,0.1l0.1,0.1
		C46.7,58.5,46.5,58.5,46.8,58.5z"/>
	<path fill-rule="evenodd" clip-rule="evenodd" fill="#ffffff" d="M46.9,85.2L46.9,85.2c0.2,0,0.5,0.1,0.6,0.1c0,0,0.1,0,0.1,0
		l-0.8-0.4l0.8-1.9l0.4-1L46.9,85C47,85.1,46.9,85,46.9,85.2z"/>
	<path fill-rule="evenodd" clip-rule="evenodd" fill="#ffffff" d="M48.3,17.5c0.2-0.1,0.1,0,0.2-0.2l0.1-0.1l-0.1-0.1
		c-0.2,0-0.3,0.2-0.4-0.1c0,0-0.1-0.1-0.1-0.1c-0.2,0-0.3,0.1-0.3,0.1l0,0.4C48,17.5,48.1,17.6,48.3,17.5z"/>
	<path fill-rule="evenodd" clip-rule="evenodd" fill="#ffffff" d="M47.2,23.3C47.1,23.3,47.1,23.3,47.2,23.3L47.2,23.3
		C47.2,23.4,47.2,23.4,47.2,23.3L47.2,23.3z"/>
	<path fill-rule="evenodd" clip-rule="evenodd" fill="#ffffff" d="M35,33.5c0.2,0,0.3,0,0.4-0.2c-0.1,0-0.1,0-0.2,0
		C35,33.5,35.1,33.3,35,33.5z"/>
	<path fill-rule="evenodd" clip-rule="evenodd" fill="#ffffff" d="M60.8,40.9C60.8,40.8,60.8,40.8,60.8,40.9c0-0.1,0-0.1-0.1-0.1
		c0,0,0,0,0,0l0,0l-0.2,0L60.8,40.9L60.8,40.9z"/>
	<path fill-rule="evenodd" clip-rule="evenodd" fill="#ffffff" d="M63,40.2c-0.1,0-0.1,0-0.4,0.1c0.3,0,0.5-0.1,0.7-0.2L63,40.2z"/>
	<path fill-rule="evenodd" clip-rule="evenodd" fill="#ffffff" d="M60.1,24.5c0.1-0.1,0.1-0.1,0.1-0.1c-0.3-0.1,0-0.2-0.3-0.2
		l0.1,0.1c0,0,0,0,0,0L60.1,24.5z"/>
	<polygon fill-rule="evenodd" clip-rule="evenodd" fill="#ffffff" points="68.3,81.2 68.3,81.2 67.8,81.1 67.8,81.2 68.3,81.3 	"/>
	<polygon fill-rule="evenodd" clip-rule="evenodd" fill="#ffffff" points="68.3,73.6 68.3,73.6 68.3,73.6 	"/>
	<path fill-rule="evenodd" clip-rule="evenodd" fill="#ffffff" d="M69.2,74.5l0.1-0.5l0,0c0,0,0,0,0,0l0,0l0,0L69.2,74.5L69.2,74.5z
		"/>
	<path fill-rule="evenodd" clip-rule="evenodd" fill="#ffffff" d="M76.8,30.6l0.2,0.1c0.1-0.1,0,0,0.1,0c0-0.2,0-0.1,0.1-0.2
		L77,30.3L77,30.6l-0.3-0.1C76.7,30.6,76.7,30.5,76.8,30.6C76.8,30.6,76.8,30.6,76.8,30.6z"/>
	<path fill-rule="evenodd" clip-rule="evenodd" fill="#ffffff" d="M77.3,31.2l-0.2,0.1l0.5,0.1c0,0,0-0.1,0-0.1c0,0,0,0,0-0.1
		L77.3,31.2z"/>
	<polygon fill-rule="evenodd" clip-rule="evenodd" fill="#ffffff" points="69,73.8 69.1,73.9 69,73.8 	"/>
	<path fill-rule="evenodd" clip-rule="evenodd" fill="#ffffff" d="M67.8,72.8L67.8,72.8l0-0.1C67.8,72.7,67.8,72.8,67.8,72.8z"/>
	<polygon fill-rule="evenodd" clip-rule="evenodd" fill="#ffffff" points="67.7,81.2 67.7,81.2 67.7,81.7 67.8,81.2 	"/>
	<path fill-rule="evenodd" clip-rule="evenodd" fill="#ffffff" d="M52.1,19.8C52.4,19.6,52,19.8,52.1,19.8L52.1,19.8z"/>
	<path fill-rule="evenodd" clip-rule="evenodd" fill="#ffffff" d="M77.2,30.3l0-0.2c-0.8-0.1-0.3,0-0.8-0.2
		C76.5,30.1,76.9,30.1,77.2,30.3z"/>
</g>
<path fill="#ffffff" d="M53.7,1.1c-6.8-0.4-13.4,0.6-19.8,3S21.9,9.7,17.2,14S8.5,23.4,5.7,29.5c-3,6.1-4.7,12.5-5,19.4
	s0.6,13.4,3,19.8c2.3,6.4,5.7,11.9,9.9,16.6C17.7,90,23,94,29,96.9c6.1,3,12.5,4.7,19.4,5c10.6,0.6,19.7-1.3,29-7.3l30.4,32.4
	l11.7-10.5L91.2,82.2c6.9-8.6,9.7-17.4,10.2-28.1c0.4-6.8-0.6-13.4-3-19.8c-2.3-6.4-5.7-11.9-9.9-16.6C84.3,13,79.1,9,73,6.1
	C67,3.2,60.5,1.5,53.7,1.1z M53.1,13.6c10.5,0.5,19.3,4.7,26.3,12.5c7,7.8,10.3,17,9.7,27.5C88.6,64,84.4,72.9,76.6,79.9
	s-17,10.3-27.5,9.7s-19.3-4.7-26.3-12.5s-10.4-16.9-9.7-27.5c0.5-10.5,4.7-19.3,12.5-26.3S42.6,12.9,53.1,13.6z"/>
</svg>
