<svg version="1.1" xmlns="http://www.w3.org/2000/svg" xmlns:xlink="http://www.w3.org/1999/xlink" viewBox="0 0 23.3 23.3">
<g>
	<circle fill="#EF4738" cx="11.7" cy="11.7" r="11.7"/>
	<g>
		<circle fill="#FFFFFF" cx="12.9" cy="5.6" r="1.2"/>
		<path fill="#FFFFFF" d="M12.1,14.1c0-1.9,1.6-3.5,3.5-3.5c1.9,0,3.5,1.6,3.5,3.5s-1.6,3.5-3.5,3.5C13.7,17.6,12.1,16,12.1,14.1z
			 M12.8,14.1c0,1.6,1.3,2.8,2.8,2.8c1.6,0,2.8-1.3,2.8-2.8s-1.3-2.8-2.8-2.8C14,11.3,12.8,12.5,12.8,14.1z"/>
		<path fill="#FFFFFF" d="M3.5,14c0-1.9,1.6-3.5,3.5-3.5c1.9,0,3.5,1.6,3.5,3.5c0,1.9-1.6,3.5-3.5,3.5C5.1,17.5,3.5,15.9,3.5,14z
			 M4.2,14c0,1.6,1.3,2.8,2.8,2.8s2.8-1.3,2.8-2.8c0-1.6-1.3-2.8-2.8-2.8S4.2,12.4,4.2,14z"/>
		<path fill="#FFFFFF" d="M15.2,8.6h-2l-1.4-2.1c0,0-0.5-0.6-1.3,0C9.6,7.1,8.3,8.8,8.3,8.8s-0.7,0.8,0,1.6c0.6,0.4,2.5,1.3,2.5,1.3
			l0,2.8c0,0,0.4,0.9,1.1,0c0-1.3,0-3.2,0-3.2s0-0.4-0.6-0.9c-0.6-0.5-1.1-0.9-1.1-0.9l1.4-1.5L12.3,9c0,0,0.3,0.2,0.6,0.2
			c0.3,0,2.3,0,2.3,0S15.7,8.9,15.2,8.6z"/>
	</g>
</g>
</svg>
