<svg version="1.1" class="icon-navigation" xmlns="http://www.w3.org/2000/svg" xmlns:xlink="http://www.w3.org/1999/xlink" viewBox="0 0 121.4 99.5">
<g>
	<g>
		<path fill="#231f20" d="M43.6,66.2c3.2-0.9,5.7-2.5,7.4-4.7c1.8-2.2,3.2-4.8,4.3-7.8c1.1-3,2.1-6.1,3-9.4c0.9-3.3,2.1-6.5,3.5-9.5
			c1.4-3.1,3.4-5.8,5.8-8.2c2.4-2.4,5.8-4.2,10-5.4c3.4-1,6.8-1,10.3-0.2c3.5,0.8,6.7,2.3,9.8,4.6c3.1,2.2,5.8,5.2,8.2,8.8
			c2.4,3.6,4.3,7.7,5.6,12.4c1.8,6.5,2.8,11.6,3,15.4c0.1,3.8-0.2,7.3-1,10.6l-12.3-1.5c1.4-5.7,1-12.8-1.4-21.2
			C98.3,45,96.1,41,93,38.3c-3.1-2.8-6.8-3.5-11.2-2.3c-2.6,0.7-4.6,2.2-6,4.3c-1.4,2.1-2.7,4.7-3.7,7.6c-1,2.9-2,6.1-3,9.4
			c-1,3.3-2.3,6.5-3.8,9.6c-1.6,3.1-3.7,5.9-6.3,8.3c-2.6,2.5-6,4.3-10.1,5.4c-9.5,2.7-17.7,1.5-24.5-3.5
			c-6.8-5-11.7-12.9-14.7-23.7C8,47.9,7.2,42.7,7,37.8c-0.2-4.9,0.2-9,1.1-12.3l13,1.9c-0.9,2.9-1.3,6.5-1.3,10.8
			c0,4.3,0.6,8.6,1.8,12.9c1.7,6,4.4,10.4,8,13.3C33.3,67.2,38,67.8,43.6,66.2z"/>
	</g>
	<path fill="#231f20" d="M30.3,13.8C29.4,5.6,22-0.3,13.9,0.7C5.7,1.6-0.1,8.9,0.8,17S9,31,17.1,30.1C25.3,29.2,31.2,21.9,30.3,13.8
		z M16.3,22.8c-4.1,0.5-7.7-2.5-8.2-6.6c-0.5-4.1,2.5-7.7,6.6-8.2c4.1-0.5,7.7,2.5,8.2,6.6C23.3,18.6,20.4,22.3,16.3,22.8z"/>
	<path fill="#231f20" d="M120.6,82.5c-0.9-8.1-8.2-14-16.4-13.1c-8.1,0.9-14,8.2-13.1,16.4c0.9,8.1,8.2,14,16.4,13.1
		C115.6,98,121.5,90.6,120.6,82.5z M106.7,91.5c-4.1,0.5-7.7-2.5-8.2-6.6c-0.5-4.1,2.5-7.7,6.6-8.2c4.1-0.5,7.7,2.5,8.2,6.6
		C113.7,87.4,110.7,91,106.7,91.5z"/>
</g>
</svg>
