<?xml version="1.0" encoding="utf-8"?>
<!-- Generator: Adobe Illustrator 17.1.0, SVG Export Plug-In . SVG Version: 6.00 Build 0)  -->
<!DOCTYPE svg PUBLIC "-//W3C//DTD SVG 1.1//EN" "http://www.w3.org/Graphics/SVG/1.1/DTD/svg11.dtd">
<svg version="1.1" id="Layer_1" xmlns="http://www.w3.org/2000/svg" xmlns:xlink="http://www.w3.org/1999/xlink" x="0px" y="0px"
	 viewBox="0 0 800 305" enable-background="new 0 0 800 305" xml:space="preserve">
<path opacity="0.2" fill="none" stroke="#3E956D" stroke-linecap="round" stroke-linejoin="round" d="M740.2-0.6L740.2-0.6
	L740.2-0.6l0.1,0.2v0.1v0.2l0,0l0.3,0.2h0.1h0.1l1.2-0.2h0.2h0.1l0.2,0.1l0.4,0.1h0.4l0.7,0.2l0,0l0.4-0.1h0.1l0.6,0.1h0.4h0.2h0.2
	l0,0v0.1v0.1l0,0v0.1l0,0v0.3v0.2v0.2v0.1l0,0v0.2l-0.1,0.2l0,0V2v0.1v0.1l0,0l0,0l0,0l0,0l0,0h0.1h0.2h0.1h0.1v0.1v0.1v0.1
	l-0.1,0.1v0.1v0.1L746.1,3l0,0H746l0.5,0.4l0.1,0.2l-0.4,0.1l0,0 M735.8,11L735.8,11L735.8,11h-0.2h-0.1h-0.3h-0.1l-0.4-0.2h-0.1
	l-0.2-0.1h-0.1h-0.2H734h-0.5h-0.6h-0.7h-0.1H731h0h-0.1h-0.1h-0.3h-0.2h-0.1h-0.1H730l-0.3,0.8l-0.1,0.1l-0.1,0.1l-0.6,0.3h-0.1
	l0,0l0.2,0.4l-0.1,0.9l-0.1-0.3v0.8v0.3l0,0l0,0l-0.1,0.1h-0.1l-0.2,0.1l-0.2,0.1h-0.1l-0.6,0.2l-0.6,0.2l-0.4,0.1h-0.1l-0.3,0.2
	l-0.2,0.1l-0.9,0.4l-0.6,0.3l-0.5,0.2l-0.2,0.1l-1,0.7l-0.4,0.3H722l-0.4,0.2l-0.5,0.2l-0.2,0.1l-0.6,0.2l-0.6,0.1l0.2,0.2l0.5,0.8
	l0.5,0.2l0.3,0.2l0.5,0.1l0.1,0.1h0.2l-0.2,0.2l-0.1,0.3l-0.3,0.4l-1.6,1.1l-0.2,0.1h-0.2h-0.5h-0.4H718h-0.2v0.1l0,0l0,0v0.1v-0.1
	l-0.1,0.1h-0.1h-0.1l0,0h-0.1h-0.1l0.1,0.2l-0.2-0.1l-0.2,0.1h-0.1h-0.1l-0.1,0.1l-0.2,0.1h-0.1l0,0l0,0h-0.1h-0.1l-0.1,0.1
	l-0.1,0.1l0,0l0,0l-0.2,0.2l-0.1,0.1l-0.1,0.2l-0.4,0.5l-0.2,0.3l-0.4,0.4l-0.3,0.5h-1.1h-0.1h-0.2h-0.3l-0.9-0.1h-0.2h-0.2l-1-0.2
	l-0.6-0.1l0,0l-0.4-0.1l-0.4-0.2l-0.4-0.3l-0.2-0.1l-0.2-0.1H708l-0.3-0.2h-0.1h-0.2l-0.7,0.1l0,0l-0.9,0.1l-0.6,0.2H704h-0.3
	l-0.8,0.2l-0.4,0.1h-0.4h-0.4h-0.1h-0.1l-0.2,0.2l-0.1,0.1h-0.1H701l-0.2-0.1l-0.3-0.1h0.5l-1,0.3h-0.1h-0.1l-0.3,0.3v0.2v-0.2V25
	l-0.6,0.7h-0.1h-0.1l-0.2,0.1h-0.1h-0.1l-0.4,0.3h-0.1l-0.4,0.1h-0.1l-0.3-0.7l-0.1-0.1h-0.1h-0.1l-0.3-0.2l-0.2-0.1h-0.1l-0.3-0.1
	l-0.4-0.1l-0.5-0.3l-0.3-0.2l-0.2-0.1l-0.2-0.1l-0.3-0.1l-0.5-0.2h-0.2l-0.9-0.3h-0.2l-0.4-0.2l-0.6-0.3l0.2-0.5l0.1-0.1l0.1-0.1
	l-0.1-1.3l-0.1-0.4v-0.3h0.1l0.2-0.1l0.1-0.1l0.1-0.3l0.4-0.2l0.1-0.1l-0.1-0.2l0.1-0.2l-0.2-0.4l-0.4-0.2l-0.6-0.2l-0.6-0.3
	l-0.4-0.2l-0.3-0.1l-0.4-0.2h-0.2H689h-0.1l-0.2-0.2l-0.1-0.1h-0.1l-0.4-0.2l-0.2-0.1l-0.3-0.1l-0.3-0.2h-0.5h-0.1h-0.6h-0.2h-0.2
	l-0.9-0.1l-1-0.1l-0.6,0.1H683h-0.4l-0.4,0.1l0,0H682h-0.1l-0.1,0.1h-0.1h-0.2H681l-0.2-0.1h-0.3l0,0h-0.6H679l-0.3-0.5h-0.1
	l-0.1-0.1l-0.9-0.6h-0.1h-0.1h-0.3l-0.7-0.1h-0.2H676h-0.5h-0.4h-0.6h-0.7h-0.3h-0.6h-0.3l-0.6-0.1l-0.5-0.1l-1.3-0.3l-0.9-0.4
	l-0.1-0.1l-0.1-0.1l-0.1-0.2h-0.1l0,0h-0.1h-0.1h-0.1h-0.2h-0.2H668h-0.3h-0.1h-0.3l0,0H667l-1.1-0.1h-0.5l-0.9-0.1l-1.4-0.2H663
	h-0.1l-0.5-0.5l-0.1-0.1h-0.2h-0.4h-0.4l-0.5-0.1l-0.5-0.2h-0.2H660h-0.2l0,0h-0.1h-0.2h-0.1l-0.1,0.1l-0.1,0.1h-0.1H659h-0.2h-0.2
	h-0.3l-0.4-0.1l-0.4-0.2l-0.3-0.1h-0.1l-0.2-0.1l-0.2-0.1l-0.4-0.2l-0.2,0.1l-0.4,0.1h-0.1l-0.3,0.2l-0.1,0.1h-0.1l-0.2,0.1
	l-0.4,0.3h-0.1l-0.4,0.2l-0.3,0.2l-0.7,0.4l-0.9,0.5l-0.7,0.4l-0.2,0.1l-0.2-0.1l-0.2-0.1l-0.2-0.1h-0.2h-0.5l-1.5-0.2h-0.3
	l-0.6-0.2h-0.1h-0.6h-0.2h-0.2l-0.4-0.1l-0.3-0.1h-0.2h-0.1l-0.3,0.1H645h0.1H645h-0.2h-0.2l-0.1-0.1l-0.3-0.3l-0.3-0.3l-0.4-0.3
	l-0.3-0.3h-0.1h-0.2h-0.5l-0.9,0.1h-0.3h-0.9h-0.2h1.9l0,0l0,0l-0.2-0.3l-0.2-0.2l-0.2-0.2l-0.2-0.1h-0.1V12l-0.4-0.2h-0.1h-0.1
	h-0.1l0,0h-0.1h-0.2H640h-0.2h0.2h-0.1h-0.1h-0.1h-0.1h-0.1h-0.1l0,0h-0.1l0,0v-0.4v-0.1l0,0h-0.1l-0.5-0.8l-0.3-0.2l-0.2-0.2
	l-0.5-0.1l0.4-0.4l0.2-0.3l0,0l0,0h-0.1h-0.1H638l-0.2-0.1h-0.1V9.1V8.9V8.4l0,0h-0.1h-0.2h-0.1l-0.2-0.2l-0.2-0.1L636.6,8h-0.2
	h-0.1l-0.2-0.1l-0.3-0.1l-0.6-0.1H635h-0.1h-0.4l-0.2-0.1l-0.4-0.2l-0.1-0.1l-0.1-0.1l-0.1-0.1l0.1-0.2l-0.1-0.1l-0.1-0.1l-0.1-0.1
	l0,0l-0.1-0.1L633,6.4l-0.1-0.1h-0.1l-0.1-0.1h0.3h-0.1h-0.1h-0.2h-0.1h-0.1l-0.1-0.1L632.2,6h-0.1h-0.2h0.1l0.1,0.1l0.1,0.3v0.1
	l-0.1,0.1L632,6.7h-0.1h-0.1l0,0h-0.1h-0.2h-0.1h-0.1h-0.1h-0.1L631,6.6l-0.1-0.1h0.1l-0.2-0.1l-0.2-0.2h-0.1h-0.1h-0.2h-0.4h-0.1
	h-0.5H629h-0.1h-0.1l-0.2,0.1l-0.3,0.1h-0.1h-0.3h-0.2l-0.5-0.1h-0.3h-0.2h-0.2h-0.2h-0.2l-0.9,0.1h-0.3h-0.2l-0.4,0.1H624l0,0h-0.3
	h-0.2h-0.3l-0.3-0.1h-0.3h-0.1h-0.4h-0.2h-0.3h-0.1h-0.2L621,6.3h-0.2h-0.1h-0.2h-0.1h-0.2h-0.1h-0.2l-0.6,0.1h-0.2h-0.3h0.2
	l-0.4,0.1l0,0l-0.2-0.1V6.1l-0.1-0.2l0,0h-0.1l-0.1-0.1L618,5.7h-0.1l-0.2-0.1h-0.1h-0.2h-0.2l-0.3,0.1h-0.1h0.2l0,0h-0.1h-0.3h-0.1
	h-0.1h-0.2h-0.3h-0.3h-0.2h-0.1l-0.5-0.1V5.5h-0.2h-0.2h-0.1l-1-0.3H613h-0.3h-0.3H612h0h-0.2h-0.1l-0.3-0.1h-0.2L611,5l-0.2-0.1
	h-0.2h-0.1L610.4,5h-0.1l-0.5,0.1h-0.2h-0.1h-0.2l-0.5,0.1h-0.3h-0.2h-0.2L608,5.3l-0.3,0.2h-0.1h-0.3h-0.1H607h-0.3h0.3l-0.3-0.1
	h-0.1l-0.2,0.1l-0.2,0.1h-0.1H606h-0.2h-0.2h-0.1l-0.3,0.3L605.1,6H605l-0.3,0.1h-0.2h-0.4h-0.3l-0.3,0.1l0,0l-0.4,0.1H603h0h-0.3
	h-0.1h-0.1h-0.1l-0.3,0.1l-0.4,0.4L601.5,7h-0.1h-0.2l-0.4,0.1l-0.4,0.2l-0.2,0.1h-0.5h-0.2l0,0h-0.4h-0.3h-0.3h-0.3H598h-0.2h-0.5
	h-0.4h-0.3h-0.2l-0.2-0.1H596l-0.3-0.1h-0.3l-0.1-0.1L595,6.9h-0.2h-0.1l-0.4-0.1L594,6.7h-0.1h-0.1h-0.2h0.4h-0.2h-0.3h-0.2
	l-0.1-0.1h-0.1H593l-0.3,0.1h-0.2l-0.6,0.2h-0.1h-0.2h-0.2h-0.1h-0.1l0,0H591h-0.1h-0.2h-0.1h-0.1l0,0h-0.1h-0.1h-0.1h-0.1h-0.2
	h-0.2h-0.2h-0.3h-0.1H589l-0.2-0.1l-0.2-0.1h-0.1h0.5h-0.1h-0.2l-0.5-0.1h-0.1h-0.2h-0.1l-0.5,0.1h-0.1H587l-0.2-0.1l-0.3-0.1h-0.2
	H586l-0.2-0.1l0,0h-0.2l-0.3-0.1h-0.2H585h-0.2h-0.5h-0.4l-0.5,0.2h-0.1h-0.1H583l-0.3,0.1l-0.2,0.1l-0.2,0.1h-0.1h-0.1h-0.2h-0.1
	h-0.2h-0.1h-0.1l-0.3-0.1l-0.2-0.1l-0.4-0.2h-0.3h-0.1H580h-0.1l-0.3-0.3h-0.1L579.4,6l-0.1-0.1l0,0l-0.1-0.1l-0.3-0.3l-0.2-0.1
	l-0.2-0.1l0,0l0,0h-0.1h-0.2H578h-0.1l-0.2-0.1h-0.1L577.4,5l0,0l0,0h-0.1h-0.1L577,4.9L576.6,5h-0.2h-0.3h-0.5h-0.1h-0.3h-0.4h-0.2
	h-0.2H574h-0.4h-0.2h-0.3l0,0H573h-0.2l-0.2,0.1l-0.2,0.1l-0.2,0.3l-0.1,0.1l-0.2,0.1l-0.2,0.1h-0.2l-0.7,0.3h1.2h-0.2h-0.2h-0.2
	h-0.2h-0.1h-0.2h-0.2h-0.1h-0.1L570.4,6h-0.2h-0.1H570l0,0h-0.2h-0.2h-0.1h-0.1h-0.1h-0.1H569h-0.1h-0.1l-0.2-0.1h-0.1h-0.2
	l-0.4-0.2h-0.2h-0.1h0.4h-0.1l-0.2,0.1l-0.1,0.1L567.5,6h-0.1l-0.1,0.1l0,0h-0.1L567,6.2h-0.2h-0.1h-0.3h-0.2h-0.3h-0.2h-0.1h-0.1V6
	l0,0v0.1V5.9l-0.1-0.1h-0.1h-0.1l-0.5-0.1h-0.1h-0.2h-0.1h-0.2l-0.3,0.1L563.2,6h-0.1l-0.2,0.1l-0.1,0.1l-0.1,0.1l-0.2,0.3l-0.3,0.6
	l-0.1,0.3V7.3v0.1l0.1,0.4l-0.1,0.1L561.9,8l-0.5,0.2l-0.6,0.2l0,0h-0.1l-0.3,0.2l-0.1,0.2l-0.6,1l0.3,0.3l0.2,0.3v0.2l-0.3,0.1l0,0
	l-0.1,0.2l0.2-0.5l-0.2,0.2l-0.1,0.1l-0.1,0.1l-0.1,0.1l-0.1,0.2l-0.1,0.1l-0.1,0.1l-0.3,0.3l-0.3,0.4v0.1h0.2l0.3,0.3v0.1l-0.1,0.1
	l0,0l-0.8-0.3h-0.1l-1.6,0.1h-0.2h-0.2l-0.6-0.2v0.2l0.1,0.2v0.1l-0.4,0.1h-0.1H555h0h-0.2h-0.4H554l-0.4-0.1h-0.1h-0.3h-0.4h-0.2
	h-0.2h-0.3h-0.4h-0.1h-0.2h-0.3h-0.2h-0.3h-0.1h-0.1h-0.2h-0.1H550l-0.5,0.1l0,0l-1,0.2h-0.2h-0.2l-0.3-0.2h-0.4h-0.3l0,0h-0.3
	l-0.4,0.1h-0.6h-0.2l0,0l0,0V13l0,0l-0.1,0.1v0.1l-0.1,0.1l-0.1,0.3l0.1,0.1l0.1,0.2l-0.1,0.1h-0.1h-0.2h-0.2h-0.2l-0.2-0.1h-0.1
	h-0.3h-0.5h-0.5h-0.2h-0.1l-0.2-0.1l-0.1-0.1l-0.1-0.1h-0.1l-0.3-0.2h-0.1h-0.3h-0.1h-0.3h-0.4h-0.3h-0.1l-0.1-0.1h-0.1l-0.1-0.1
	l-0.2-0.1h-0.1h-0.3h-0.1l-0.1-0.1l-0.2-0.2l-0.1-0.1l0,0l-0.1-0.1l0,0l-0.1-0.1l-0.1-0.1l-0.1-0.1l-0.1-0.2l0,0l0,0l-0.3,0.1
	l-0.5,0.1l-0.3-0.3l-0.1-0.1l-0.1-0.3l-0.1-0.1H537h-0.3h-0.1l-0.3-0.1h-0.2l-0.3-0.1h-0.4h-0.1l-0.4-0.1h-0.1h-0.2h-0.1h-0.1h-0.1
	h-0.1l0,0h-0.1H534h-0.2h-0.1h-0.5h-0.3h-0.2h-0.2h-0.3h-0.3h-0.3h-0.1h-0.4H531l0,0h-0.3h-0.2h-0.1l-0.3-0.1l-0.2,0.3l-0.5,0.7v0.3
	l-0.2,0.4l-0.2,0.1l-0.4,0.2l-0.2,0.1l-0.2,0.3l-0.1,0.1l0.1,0.2l-0.1,0.2v0.6h0.1h1.8l-0.2-0.1l-0.3-0.1l-0.3-0.1h-0.3h-0.2h-0.2
	l0.1-0.1l-0.1-0.1H528h-0.2l-0.7,0.4H527h-0.2h-0.2v0.2l-0.1,0.2l-0.6-0.1h-0.4h-0.4h-0.2l-0.9-0.1h-0.2h-0.3l-0.5,0.2h-0.3h-0.2
	l-0.6,0.3l-0.5,0.2h-0.3h-0.2l-0.9,0.3h-0.1l-0.1,0.1h-0.1h-0.3l-0.2,0.1H519h-0.2l-0.4,0.1l-0.3,0.2l-0.2,0.2l-0.3,0.1l-0.2,0.2
	l-0.2,0.2l-0.3,0.1l-0.1,0.1l-0.1-0.3l-0.1-0.1l-0.1-0.1v-0.1l-0.1-0.3l-0.1-0.2l-0.5-0.2l-0.2-0.2h-0.1l-0.2-0.2h-0.1l-0.1-0.1
	v-0.2l0,0L515,15l-0.1-0.1v-0.2l-0.1-0.3l-0.1-0.2l-0.2-0.3l-0.1-0.3l-0.1-0.1l-0.1-0.1l-0.1-0.1l0.1-0.2V13l0,0l-0.1-0.1l-0.1-0.1
	l-0.1-0.1h-0.1h-0.3h-0.1h-0.1h-0.1h-0.1h0.9h-0.4h-0.2l-0.3,0.1H513l0,0h-0.3h-0.3h-0.2H512l-0.2-0.1l-0.3-0.2l-0.3-0.2H511
	l-0.4-0.1l-0.3-0.2l-0.3-0.6l-0.4-0.2l-0.6-0.1l0,0h-0.1l0,0h-0.1h-0.1h-0.1h-0.3h-0.2l-0.2-0.1h-0.4h-0.2h-0.4h-0.1h-0.1h-0.1
	l-0.2,0.2h-0.1h-0.1h-0.3h-0.4h-0.3H505h0h-0.1l-0.3-0.2l-0.3-0.1l-0.2-0.1h-0.3h-0.1h-0.2h-0.3h-0.5l-0.3,0.1l-0.6,0.2h-0.5
	l-0.1-0.1l-0.1-0.1h-0.9H500l-0.5,0.1h-0.2l-0.3,0.1h-0.2l-0.3,0.1l-0.6,0.3h-0.1l-0.1,0.1l-0.1,0.1l0.1,0.1v0.6v0.1l-0.2,0.3
	l-0.2,0.2v0.3l-0.3-0.1l-0.2-0.1l-0.6-0.3l-0.2-0.1h-0.1l-0.1-0.2l-0.3-0.4l-0.1-0.1l0,0h-0.1l-0.1,0.1l-0.2,0.1h-0.1l-0.1,0.1v0.1
	l-0.1,0.1l-0.2,0.1l-0.1,0.1l-0.5,0.3l-0.4,0.1l-0.4,0.1l-0.1,0.4l-0.1,0.1l-0.6,0.4h-0.1H492h-0.2h-0.3l-0.1,0.1h-0.2l-0.5,0.3
	l-0.3,0.3l-0.4,0.3l-0.3,0.2l-0.3,0.3l-0.1,0.1l-0.2,0.1l-0.1,0.1l-0.7,0.7l-0.1-0.1h-0.1l-0.3-0.1l-0.3-0.2h-0.2h-0.2H487h-0.1
	l-0.2-0.1v-0.3l0,0l-0.1,0.2v-0.3l-0.2-0.1h-0.1h-0.1h-0.3l-0.4,0.1h0.5h-0.4h-0.2l-0.5-0.2h-0.2l-0.5-0.2l-0.2-0.1h-0.2h-0.1h-0.4
	H483h-0.6h-0.3h-0.3l-0.8,0.1h-0.2h-0.3h-0.1l-0.3-0.2l-0.2-0.1h-0.3l-0.5-0.1h-0.2h-0.2h-0.6h-0.2h-0.1h-0.1l-0.2-0.2l-0.1-0.1
	h-0.2h-0.1H477h-0.3l0,0l-0.5,0.3L476,15l-0.2,0.1h-0.1h-0.4h-0.4l0,0h-0.1h-0.2h-0.4H474h-0.5H473h-0.1l-0.3-0.1h-0.3h0.7h-0.2
	h-0.2h-0.2h-0.1h-0.2H472h-0.1l-0.1-0.1h-0.1h-0.2h-0.1l0,0l-0.1-0.1l-0.1-0.1l-0.1-0.1l-0.1-0.1l-0.1-0.1h-0.1l-0.1-0.1l-0.1-0.1
	l-0.1-0.2l-0.1-0.1h-0.1l-0.3-0.2h-0.1h-0.1l-0.1-0.1v-0.2l0.1-0.3l0.1-0.3l0.1-0.1h-0.2h-0.3l-0.3-0.1l0,0l-0.2-0.1l-0.1-0.1l0,0
	l-0.2-0.1l-0.3-0.1h-0.2l-0.1-0.2l0,0l-0.1-0.1l-0.1-0.1l-0.2-0.1l-0.2-0.1h-0.1h-0.1h-0.5h-0.1l-0.1-0.1h-0.1h-0.2H466h-0.1h-0.1
	h0.1l-0.1-0.1l-0.1-0.1l-0.2-0.4l-0.1-0.1l-0.2,0.1h-0.1h-0.2h-0.1l-0.2,0.1l-0.2,0.2h-0.2H464l-0.2,0.1l-0.2,0.1l-0.2-0.2l-0.4-0.4
	l-0.1-0.1l-0.1-0.2h-0.1h-0.1l-0.4-0.1l-0.2-0.1h1h-0.3h-0.1h-0.3l-0.4-0.1h-0.2l-0.3-0.1l-0.5-0.2l-0.1-0.1l-0.1-0.1l-0.3-0.3
	l-0.2,0.1l-0.1,0.1L460,9.7l0,0h-0.1l-0.2,0.1h-0.1h-0.1h-0.2h-0.1h-0.1l-0.4,0.2h-0.3h-0.1l-0.3,0.2h-0.2l-0.2,0.1h-0.2h-0.1
	l-0.2,0.1l-0.2,0.1l-0.2,0.1h-0.1h-0.1h-0.1l-0.2,0.1l-0.1,0.1L456,11l-0.1,0.1l-0.2,0.2h-0.1l-0.3-0.3h-0.1H455l0,0h-0.1h-0.1
	l-0.3-0.3h-0.1h-0.2H454h-0.1l-0.1-0.1l-0.1-0.1l-0.2-0.3l-0.1-0.2l-0.1,0.2h-0.1h-0.1l-0.3,0.2h-0.1h-0.1l-0.2,0.1h-0.1l-0.5,0.2
	h-0.1l-0.3,0.2l-0.1,0.1l0.2,0.3l0,0h-0.1l-0.3,0.1v0.1l0,0v-0.1v0.2H451l-0.4,0.1h-0.2l-0.3,0.1H450l-0.1,0.1l-0.1,0.1l0,0h-0.1
	h-0.2l-0.3,0.1h-0.1H449l-0.1-0.1l-0.1-0.1l-0.1-0.3l0,0h-0.1h-0.1h-0.4l-0.3-0.1h-0.1h-0.1v-0.2v0.1v0l-0.2-0.2h-0.1l-0.5-0.1h-0.1
	h-0.2h-0.1h-0.1h-0.1l-0.1-0.1H446h-0.4l-0.3-0.1H445h-0.1h-0.1l-0.5,0.1h-0.2v0.1v0.1l-0.1,0.1l-0.1,0.2l-0.2,0.2l-0.1,0.4h-0.1
	l-0.2,0.1H443l-0.3,0.1h-0.1l-0.1,0.1l-0.1,0.1l-0.2,0.2l-0.1,0.1v0.1V13H442h-0.1h-0.1h-0.3h-0.2h-0.1h-0.1l-0.2,0.1l-0.1,0.1h-0.2
	l-0.2,0.1l-0.2,0.1l-0.1,0.1l-0.3,0.2l-0.2,0.1h-0.1h-0.1h-0.1h-0.5h-0.1h-0.1h-0.1h-0.1h-0.2h2.8h-0.1h-0.1h-0.2h-0.2h-0.1h-0.1
	h-0.1l-0.2-0.2h-0.1l-0.1-0.1l-0.1-0.1l-0.1-0.1h-0.1h-0.1h-0.1h-0.1H439h-0.1h-0.2h-0.3h-0.1h-0.2l-0.7,0.1h-0.1l-0.3,0.2h-0.1
	h-0.3h-0.1h-0.1h-0.1l-0.1,0.1h-0.1l-0.2,0.1h-0.1l-0.3,0.1h-0.1l-0.3-0.1l-0.3-0.1l-0.5-0.1l-0.3-0.1h-0.2l-0.3-0.2h-0.1h-0.2h-0.3
	l-0.4,0.1h-0.1l-0.1,0.1l-0.3,0.3l-0.2,0.2h-0.1l-0.2,0.1l-0.2,0.1l-0.4,0.2l-0.2,0.1h-0.2l-1,0.3h-0.1h-0.1l-0.1,0.3l-0.1,0.1
	l-0.2,0.1h-0.1l-0.2,0.1l-0.7-0.2h-0.1h-0.3h-0.2h-0.2H427l-0.2,0.1h-0.1h-0.1h-0.2l-0.4-0.2h-0.1h-0.3h-0.5h-0.3h-0.2l-0.3-0.3
	v-0.3l0.2-0.2l0.1-0.1l0.3-0.1h0.1l0.1-0.1v-0.1l0.1-0.1H425l-0.1-0.1h-0.1h-0.1h-0.1l-0.1-0.1l-0.1-0.5l-0.1-0.1l-0.1-0.1l-0.1-0.1
	l0,0v-0.2v-0.1l-0.1-0.1l-0.2-0.2l-0.1-0.1V12v-0.2l-0.1-0.1l-0.2-0.1l-0.1-0.1l-0.1-0.2l-0.1-0.1H423h-0.2h-0.1h-0.1l-0.3-0.1h-0.1
	h-0.4h1.2h-0.3h-0.2l-0.2-0.1v-0.1l0,0h-0.1h-0.5h-0.1h-0.2h-0.1l-0.2-0.1l0,0l-0.2-0.1l-0.2-0.1l-0.1-0.1l-0.1-0.1h-0.1h-0.1h-0.1
	h-0.1H420h-0.1l0.1,0h-0.1h-0.1h-0.3h-0.2l-0.3-0.1h-0.1h-0.3h-0.3H418h-0.4l-0.2,0.1l-0.3,0.2l-0.2,0.1h-0.1h-0.2h-0.1l-0.4,0.1
	l-0.5,0.2h-0.4H415h-0.3h-0.1h-0.2h-0.1h-0.2H414h-0.2h0.2l-0.5,0.1h-0.1l-0.1,0.1l0,0l-0.1-0.1l-0.1-0.1h-0.2h-0.4h-0.1h-0.2H412
	h-0.3h-0.2h-0.1h-0.1l-0.2-0.1h-0.3h-0.1l-0.2-0.1h-0.1H410h-0.2h-0.2h-0.3h-0.1H409h-0.1l-0.2-0.1l-0.3-0.1l-0.2-0.1l-0.1-0.1H408
	h-0.2h-0.3l-0.6-0.1h-0.1h-0.1l-0.2,0.1l-0.2,0.1l-0.3,0.3h-0.2h-0.1h-0.2h-0.3h-0.3h-0.1h-0.2l0,0h-0.1l-0.3-0.1l-0.3-0.3l-0.1-0.1
	h-0.1h-0.1l-0.2-0.3l-0.1-0.1h-0.1L403,9.7l-0.1-0.1l-0.1-0.1l-0.1-0.1l-0.1-0.2h-0.1l-0.1-0.1h-0.1h-0.2h-0.2h-0.2h-0.1l0,0l0,0
	L401.4,9l-0.2-0.1l-0.1-0.1H401h-0.1l-0.1-0.1l0,0h-0.1l-0.2-0.1h-0.1l-0.1-0.1h-0.1h-0.1H400h-0.1h-0.1h-0.1h-0.1l-0.3-0.1h-0.2
	H399h-0.1l-0.2,0.1h-0.1h-0.1h-0.1h-0.1l-0.1-0.1h-0.1h1.9h-0.2h-0.3h-0.7h-0.1h-0.2h-0.3h-0.1h-0.2h-0.1h-0.1h-0.1h-0.1h-0.1
	l-0.1-0.1h-0.1h-0.1H397h-0.1l-0.3,0.2h-0.2h-0.2h-0.3h-0.1h-0.1l-0.1,0.1h-0.1l-0.1,0.1h-0.1h-0.1h-0.1H395h-0.4h-0.2h-0.3h-0.4
	h-0.1h-0.4h-0.1h-0.4l-0.2-0.1l-0.2-0.1h-0.2h-0.4h-0.3l-0.1,0.2h0.4l-0.1,0.2l-0.2,0.2l0.6-0.7h-0.1h-0.3h-0.1h-0.1l-0.1,0.1
	L391,8.7l-0.1,0.1l-0.2,0.1L390.6,9l-0.1,0.1l-0.1,0.1l-0.1,0.2l-0.1,0.1v0.1H390h-0.1h-0.1h-0.1l0,0l0,0h-0.2h-0.1l-0.3,0.1
	l-0.2,0.1h-0.1h-0.2h-0.1h0.5h-0.2h-0.1l-0.3-0.2h-0.1l0,0h-0.1l0,0h-0.1l-0.3-0.1h-0.1h-0.3h-0.5h-0.3h-0.2h-0.3h-0.3h-0.5h-0.6
	h-0.2h-0.2H384h-0.2h-0.2h-0.2l-0.7,0.1h0.3h-0.1l-0.1-0.1h-0.1l-0.3-0.1h-0.1h-0.1l-0.1-0.2H382h-0.1h-0.4h-0.3L381,9.1l-0.3-0.2
	h-0.1h-0.1l-0.1-0.1l-0.1-0.2h-0.2h-0.3l-0.4-0.1h-0.1H379h-0.1h-0.2h-0.1l-0.2-0.1h-0.1l-0.1-0.1l0,0V8.2l-0.1-0.1H378h-0.1h-0.2
	h-0.2h-0.1h-0.1L377,7.9h-0.1h-0.1h-0.2h-0.1L376.4,8l-0.2,0.3h-0.1H376h-0.5h-0.2h-0.5h-0.1h-0.1l-0.4,0.2h-0.1h-0.2h-0.3h-0.1
	l-0.1,0.1h-0.2h-0.3h-0.2h-0.1h-0.1l0.1,0.3L372.5,9l-0.2,0.1l0,0l-0.4,0.2h-0.1l-0.1,0.2l0,0h-0.2h-0.1l-0.2,0.1h-0.1H371h-0.2
	h-0.2h-0.2h-0.1l-0.2,0.1H370l-0.2,0.1l-0.1,0.1l-0.2,0.1l-0.2,0.1l-0.1,0.1l-0.1,0.1H369l-0.1,0.1l-0.1,0.1v0.1l0.1,0.1v0.1h-0.1
	l-0.1,0.1h-0.3h-0.1h-0.2H368l-0.1,0.2V11v0.1l-0.2,0.1l-0.1,0.1l-0.1,0.1l-0.2,0.1h-0.1H367h2h-0.1l-0.1-0.1h-0.1h-0.2h-0.4H368
	l-0.2,0.1l-0.2,0.1h-0.1h-0.1h-0.1l-0.1,0.1l-0.1,0.1v0.1l0.1,0.2l-0.1,0.1l-0.1,0.1l-0.3,0.1h-0.1l-0.1,0.1h-0.1l-0.2,0.1l-0.3,0.2
	h-0.1h-0.1l-0.3,0.3h-0.1H365h-0.2h-0.1l-0.2,0.1h-0.1h-0.1h-0.1h-0.3h-0.1h-0.1l-0.1,0.2l-0.2,0.1l-0.1,0.2l-0.1,0.1h-0.1h-0.2
	h-0.2l-0.1-0.1h-0.1h-0.1h-0.1h-0.1H362h-0.1h-0.1h-0.1l-0.2-0.1h-0.2h-0.1h-0.1H361h-0.1h-0.1h-0.1l-0.2-0.1l-0.1-0.1h-0.1H360
	h-0.2h-0.1l0,0l-0.1,0.2h-0.1h-0.1h-0.5h-0.1l-0.1-0.1h-0.1h-0.3H358h-0.1h-0.1h-0.2h-0.1l-0.2-0.1h-0.1h-0.1l0,0v-0.1l0,0l-0.3-0.2
	h-0.1h-0.1l-0.3-0.1h-0.1h-0.1H356h-0.1h-0.2h-0.2h-0.2h-0.2h-0.3h-0.1h-0.1l-0.4-0.2h-0.1H354l-0.2,0.1h-0.2h-0.2h-0.1l-0.4,0.1
	l-0.1,0.1l-0.3,0.1h-0.1l-0.2,0.1H352l-0.1,0.1h-0.1l-0.3,0.1l0,0l0,0l0,0l-0.1,0.1l-0.2,0.1l-0.1,0.2l0.1,0.2l-0.1,0.2v0.1v0.2H351
	l-0.2,0.1v-0.1v-0.1l0,0h-0.1h-0.1l0,0l-0.1-0.1l0,0l0,0l0,0h2.5h-0.2h-0.1h-0.1h-0.1h-0.1h-0.1l0,0l0.1-0.1h0.1l0,0l0,0h-0.1h-0.1
	h-0.1h-0.1h0.1l0.1-0.1v0.2l0,0l0.2-0.1h0.1h-0.1h-0.1h-0.1v-0.1v-0.1l0,0h0.1h0.2h0.1l0,0h-0.1h-0.1h-0.1h-0.1h-0.1h-0.1H352l0,0
	l0,0h0.1h0.1l0,0h-0.1l0,0l0,0l-0.2-0.1l-0.2-0.1h0.3h-0.1l0,0h0.1h0.1h0.1l0,0h-0.1l0,0h0.1l0,0l-0.1-0.1l0,0H352l0,0h-0.2h-0.1
	h-0.2h-0.1h-0.2h-0.1h-0.2h-0.1h0.2h-0.4h-0.2l-0.2-0.1h-0.1h-0.3h-0.2l-0.5,0.2l-0.3,0.2h-0.1h-0.2h-0.1h-0.1h-0.1h-0.1l-0.2,0.1
	h-0.1h-0.1h-0.1h-0.1h-0.1h-0.1l-0.2,0.1l-0.3,0.1h-0.2h-0.2h-0.3h-0.4h0.3h-0.1h-0.2h-0.4h-0.2H345l-0.1-0.1h-0.1h-0.1h-0.3h-0.1
	h-0.1l0,0l-0.2,0.2h-0.1h-0.1h-0.1l0,0h-0.3h-0.1l-0.1,0.1l-0.2,0.3l0.1,0.2v0.1l-0.2,0.1l-0.1,0.1l-0.2,0.4l-0.1,0.1h-0.1h-0.1
	h-0.1H342h-0.1h-0.1h-0.1l-0.4,0.2h-0.1L341,16h-0.1l-0.3-0.1h-0.1h-0.1h-0.1l-0.3-0.1l-0.2,0.2h-0.1h-0.1h-0.1l-0.1,0.1l0,0h-0.1
	l-0.3,0.1h-0.1h-0.1l-0.2,0.1h-0.1h-0.2l-0.3,0.1h-0.1h-0.1l0,0h-0.1l-0.3,0.1l-0.4,0.1h-0.2h-0.1h-0.1h-0.1h-0.3H336h-0.1l0,0
	l-0.6-0.1l0,0h-0.1l-0.4-0.1h-0.1h-0.2l-0.1-0.1l-0.1-0.1l-0.1-0.1l-0.1-0.1l-0.1-0.1h-0.1h-0.2l-0.1-0.1l0,0h-0.1l0,0l-0.1-0.1
	h-0.1h-0.2l-0.2-0.1h-0.1l0.1-0.2l-0.1-0.1h-0.1h1.3h-0.1h-0.1h-0.2l0,0h-0.1h-0.1h-0.1l0.1-0.1v-0.1l0,0l0,0h-0.1l0,0h-0.1H333
	h-0.1h0.1l-0.2,0.1h-0.3l-0.2,0.1h-0.1h-0.1H332h-0.1h-0.1h-0.1h-0.1h-0.1h-0.1h-0.1l-0.2,0.1l-0.1,0.1v0.1l0,0l-0.1,0.2h-0.1h-0.1
	h-0.1l-0.1,0.1l-0.1,0.1h-0.1l-0.1,0.1h-0.1H330h-0.1l-0.2,0.1h-0.2h-0.1h-0.1h-0.2H329h-0.1h-0.2h-0.2h-0.1h-0.1l-0.2-0.2H328h-0.2
	l-0.5-0.1h-0.2H327l-0.2-0.1l-0.4-0.1H326h-0.1h-0.3v0.1l-0.1,0.1l-0.1,0.1l-0.2,0.1l0.1,0.3v-1h-0.1l-0.1,0.1v0.1h-0.3h-0.2h-0.1
	h-0.2l-0.2-0.1H324h-0.1h-0.3h-0.2h-0.1l-0.3-0.1h-0.2h-0.1h-0.1h-0.3h-0.2h-0.2h-0.2h-0.1h-0.1h-0.1h-0.1h-0.1h-0.1h-0.2h-0.3h-0.1
	h-0.1l-0.2,0.1h-0.1l-0.3,0.1h-0.1h-0.3h-0.1l-0.3,0.1h-0.1h-0.1l-0.1-0.1h-0.1h-0.1l-0.1-0.1h-0.1h-0.1H318h-0.2h-0.1l-0.1-0.2
	h-0.1h-0.1h-0.1h-0.2H317h-0.1h-0.2h-0.2h-0.1l0,0l0,0h-0.1h-0.1h-0.1H316h-0.1l-0.4-0.1h-0.1h-0.1h-0.1h-0.1H315h-0.2h-0.2h-0.1
	l-0.1,0.1h-0.1l-0.1,0.1l0,0h-0.1l-0.2,0.3h-0.1l-0.2,0.2l-0.1,0.1h-0.1l-0.6,0.1l0,0h-0.1h-0.2h-0.2L312,16h-0.1h-0.3h-0.2h-0.1
	h-0.1h-0.1H311l-0.2,0.1h-0.1h-0.1h-0.1l-0.1,0.1l-0.3,0.1l-0.1-0.1l-0.1-0.1h-0.1l-0.1-0.1h-0.1h-0.1l-0.1-0.1l-0.2-0.1l-0.2-0.2
	l0.2-0.4L309,15l-0.1-0.1l-0.1-0.1l-0.1-0.1h-0.2l0,0h-0.1h-0.1h-0.2H308l-0.3-0.1h-0.3h-0.1h-0.1l0,0H307h-0.1l-0.3,0.2h-0.1h-0.2
	h-0.1l-0.2,0.1h-0.1h-0.1h-0.1h-0.1l0,0l-0.1,0.3v0.1l0,0v0.1l-0.1,0.1l-0.1,0.1h-0.1h-0.1l0.2,0.3l-0.1,0.2v0.2v0.1h-0.1H305h-0.2
	h-0.2h-0.2h-0.1h-0.1l-0.2-0.1h-0.1h-0.2h-0.1l-0.1-0.1l-0.5-0.1h-0.2l-0.3-0.1h-0.1h-0.1l-0.3,0.1h-0.2h-0.2l-0.5,0.1H301h-0.1
	l-0.2-0.1h-0.1h4.4l-0.1,0.1l-0.1,0.1l-0.1,0.1v0.1h0.1l-0.1,0.1l-0.1,0.1h-0.2h-0.1v0.1l0,0v-0.1l-0.1,0.1l-0.3,0.2l-0.3,0.1
	l-0.4,0.1h-0.1h-0.2h-0.2l-0.5,0.1l-0.3,0.1l0,0l-0.1-0.2l-0.1-0.2l-0.2-0.2l-0.2-0.2h-0.1h-0.1H301h-0.1l-0.2-0.1l-0.2-0.1h-0.1
	h-0.1h-0.2H300h-0.1h-0.1h-0.1h-0.2h-0.2h-0.2H299h-0.1h-0.1h-0.1l-0.3-0.2h-0.1h-0.1h-0.1l-0.3,0.1h-0.1h-0.2l-0.1,0.1h-0.1h-0.2
	H297l0,0h-0.1h-0.1h-0.1l0,0l0,0v0.1h-0.1h-0.1l-0.2-0.1l-0.1-0.1l-0.1-0.1l-0.1-0.1l-0.2-0.3l-0.1-0.1l0,0l-0.1-0.2l-0.1-0.3h-0.1
	h-0.2l0,0H295h-0.2h-0.2h-0.1h-0.1h-0.1h-0.1h-0.1H294h-0.1l-0.1,0.1l0,0l0,0h0.1h0.1l0,0h-0.1h-0.2h-0.1l-0.1,0.1v0.1h0.1l0,0h-0.1
	h-0.1h1.6l-0.1,0.1h-0.1h-0.1h-0.1l0.1,0.1l0,0h-0.1h-0.1l-0.1-0.1h-0.1h-0.1h-0.1l0,0l0.1-0.1l0.2-0.1l0,0l-0.1-0.2h-0.1h-0.1
	l-0.1-0.1h-0.2h-0.1h-0.1l0,0h-0.1l-0.1-0.1h-0.1l-0.1-0.1h0.1h0.1h0.1h0.1v-0.3l0.1-0.4v-0.1V14h-0.1h-0.1l-0.2-0.1h-0.1H293
	l-0.2-0.1h-0.1l-0.2-0.1h-0.1l-0.1-0.1h-0.1l-0.2-0.1l-0.2-0.1h-0.1h-0.2h-0.1l-0.1-0.1l-0.1-0.1v-0.1h-0.1H291l-0.2-0.1l-0.1-0.1
	l-0.1-0.1v-0.4v-0.2v-0.1h-0.1h-0.1h-0.1h-0.1H290h-0.1l-0.2-0.1h-0.2h-0.1l-0.1-0.1l-0.2,0.1H289l-0.1,0.1h-0.1h-0.1h1.3h-0.1h-0.2
	h-0.2h-0.1h-0.1h-0.1h-0.1H289h-0.1h-0.1h-0.1l-0.3,0.1h-0.1h-0.1H288h-0.3l-0.2-0.1l-0.2-0.1H287l-0.2-0.1h-0.1h0.3l-0.2,0.1h-0.1
	h-0.1h-0.1h-0.1h-0.1h-0.1v-0.1l-0.1-0.1l0.1-0.1v-0.3l-0.1-0.1H286h0h-0.3h-0.1l-0.1,0.1h-0.1h-0.1h-0.1h0.1v-0.1l0.1-0.3h0.1l0,0
	h-0.1h-0.2l-0.2-0.1l-0.1-0.1l0,0l0.1-0.1l0.1-0.1l0.1-0.1l-0.1-0.1l-0.1-0.1l0,0l0,0l-0.1-0.1l-0.2-0.2h-0.1h-0.2l-0.2-0.1l0,0
	l-0.3-0.1l-0.2-0.2h-0.1V9.5l-0.1-0.1l-0.1-0.1h-0.1V9.2V9.1h-0.1l0,0h0.1h0.1l0.2-0.2l-0.2-0.3h-0.1h-0.1h-0.1l-0.2-0.1l-0.1-0.1
	l-0.1-0.1l-0.2-0.2V8h-0.1h-0.1h-0.1h0.8l-0.1-0.1h-0.1h-0.1h-0.2h-0.1h-0.1l-0.2-0.1L282,7.7l0,0l-0.2-0.1l-0.1-0.1l-0.1-0.1h-0.1
	h-0.1h-0.1h-0.1h-0.1h-0.2h-0.1l0,0h-0.1h-0.1l-0.1-0.1h-0.1h-0.1h-0.1h-0.1h-0.2h-0.2h-0.2h-0.2h-0.1h-0.1H279h-0.2l-0.2-0.1h-0.2
	h-0.1h-0.1l0.8-1.8l-0.4-0.1h-0.1l-0.1-0.1h-0.1h-0.1h-0.1H278l-0.3,0.1h-0.2h-0.1h-0.1h-0.1h-0.1l-0.2-0.1h0.1h-0.2h-0.1h-0.1h-0.2
	l-0.2-0.1l-0.4-0.3h-0.1h-0.1h-0.2h-0.1h-0.1h-0.1h0.3L275,4.7h-0.1h-0.3h-0.1h-0.1l-0.1-0.1l-0.2-0.2H274h-0.2h-0.2l-0.1,0.1h-0.1
	l-0.3-0.1H273h-0.1l-0.1-0.1h-0.1h-0.1h-0.3H272h-0.2h-0.2h-0.1h-0.1h-0.1l0.6-0.9h-0.1h-0.2h-0.4h-0.1H271l0,0.2l0,0l-0.1,0.1
	l-0.2,0.2h-0.1h-0.1h-0.1h-0.1h-0.1h-0.1h-0.2h-0.2h-0.1h-0.2h-0.2h-0.1h-0.2h-0.2h-0.1h-0.1l-0.2-0.1l0,0l0.1-0.1l0,0h-0.1h-0.1
	h-0.1L268,3.9h-0.1h-0.1h-0.1l-0.2-0.2h-0.1l-0.5-0.1h-0.1h-0.1l0.6-0.2l-0.2-0.2L266.8,3l-0.1-0.1l-0.2-0.3l-0.1-0.1l0-0.1h-0.1
	h-0.1H266l-0.2-0.1l-0.1-0.1L265.6,2V1.8l0,0"/>
<g opacity="0.4">
	<path fill="#F1F1F2" d="M28,135.1l0.3-0.3l0.3-0.3l0.3-0.5l-0.5-1.1l-0.5-0.3h-0.3l0.3-0.5l0.3-1.1v-0.3l0.3-0.3v-0.3l-0.3-0.3
		l-0.5-1.3l0.3-0.3l1.1-0.5l0.5-0.3l0,0l0.5-0.5l0.5-0.8v-0.8V125v-0.3h-0.3l0.3-0.3l0.3-0.3v-0.3l-0.5-0.8h-0.3l-0.3-0.3l-0.3-0.5
		v-0.3l0.3-0.3l0.3-0.3h0.3l0.3-0.3l0.5-0.8h0.2l0.3-0.3v-0.3l0.3-0.5l0.3-0.3l0.3-0.5l0.8-0.3l0.5-0.8H34v-0.3l0.3-0.3v-0.3
		l0.3,0.3h0.3l0.3-0.5v-0.5h0.3h0.2l0.3,0.5l0.3-0.3l0.8-0.3v-0.3l0.5-0.5h0.8v-0.3h0.3l0.5,0.3h0.3l0.5-0.3l0.3-0.5v-0.5l0.3-0.5
		h0.5v-0.3v-0.3v0.3l0.5-0.5h0.3l0.8-1.1l0.3-0.5l0.3-0.3l0.5-0.3h0.8h0.5h0.3l0.3,0.3h0.5H47l0.8-0.5l0.3,0.3h0.3l1.3-1.1l0.3-0.3
		l0.5-0.5l1.6-0.5l0.5-0.5l0.8-0.5v-0.5h0.8h0.3l0.3-0.3l0.8,0.3l0.7,0.3l0.3,0.3H57h0.3l1.3-0.5h0.3h0.3h0.3h1.3h0.5h0.3h0.6h0.3
		l0.3,0.3l0.3-0.3l0.3,0.3l0.8,0.3h0.5H65v-0.3h0.5L67,106l0.5-0.5h0.3l0.3,0.3l0.8,0.5l0.5,0.8v0.3h0.3H70h0.5l0.3-0.3h0.5l0.8,0.3
		h0.5h1.1h0.8h1.1l0.3,0.3l1.8,0.3l0.5-0.5h0.5l0.5-1.1l0.3-0.3v-0.3v-0.3h0.3l0.3-0.3v-0.6l0.3-0.3h0.8l0.5-0.8l0.5-0.5l0.5-0.5
		v-0.3h0.5l0.8,0.3h0.3l0.5-0.3h0.3v-0.3l0.8-0.3l0.5-0.3l0.3-0.3h0.5l0.5-0.3l0.3-0.8v-0.1h0.8h0.3v-0.3l0.5-0.3l0.3,0.3H90
		l0.8-0.8v-0.1l0.3-0.3v-0.2v-0.3l0.3-0.3l0.3-0.3v-0.3l0.3,0.3l0.8-0.3l0.3-0.3l1.3,0.3l0.3,0.5l0.5,0.5h0.3l0.8-0.3h0.3l0.5-0.5
		l0.3-0.5v-0.8l0.8-0.5h0.5l0.5-0.3l0.3-0.5l0.3-0.3h0.3l0.3-0.3l0.3-0.3v-0.2l0.3-0.5l-0.3-0.3l0.3-0.5v-0.3v-0.2v-0.3V91l0.3-0.3
		l0.8-0.3l-0.1,0.2v-0.3h0.8l0.8,0.3l0.3-0.3l0.3,0.3h0.3h1.1h0.3h0.3l0.8-0.3h0.3l0.5-0.8v-0.3l0.3-0.5l0.5-0.3h0.3l0.5-1.1V87
		v-0.3l0.3-0.3l0.3-0.3h0.5l0.5,0.3v-0.3l1.8-0.3l0.8,0.3l0.5-0.3l0.3-0.3l0.5-0.3h0.3h0.3v-0.3h0.3l1.1-0.8v-0.3l0.5-0.3h0.5
		l0.8,0.3h0.3h0.3l0.5-0.3l0.5,0.3v0.3h0.3h0.3h0.3l0.3-0.3l0.5,0.3l0.5,0.3l0.5,0.3l0.5,0.3l0.5,0.3l0.5,0.5h0.5h0.3l-0.7-0.4
		l0.5-0.5l0.3-0.5l0.5-0.3h0.5l0.3-0.3l-0.3-0.3l0.3-0.5l0.3-0.3v-0.3l0.3-0.3v-0.3l0.3-0.8l0.8-0.8v-0.3h0.8l0.3-0.8l0.3-0.3
		l0.3-0.3h0.3h0.3l0.3-0.3v-0.3v-0.8l0.3-1.1v-0.5h0.3l0.5-0.5h0.5l0.3-0.3l0.3-0.3l0,0v-0.3h-0.3v-0.3l-0.3-0.3v-0.3l0.3-0.3v-0.3
		v-0.2l-0.3-0.3v-0.5l-0.5-0.5v-0.3v-0.3v-0.3v-0.3v-0.5h0.3h0.3l0.3-0.3h0.3v-0.3V68l0.3-0.8l0.3,0.3l0.3-0.3l0.8-0.3l1.1-0.5
		l0.3,0.3l0.8,0.5l0.8-0.3l0.3,0.3l0.8,0.8l0.5,0.5l0.5,0.3l0.3,0.5l0.3,0.8l0.5-0.3l0.5-0.3h0.3h0.3l0.3-0.3l-0.3-0.5v-0.2l0.5-0.8
		l1.1-0.8h0.3v-0.8v-0.5h0.3v0h0.5l0.3-0.5v-0.3l-0.3-0.3h-0.3l-0.3-0.3v-1.1l0.3-0.3l0.3-0.3V62l0.3-0.3l1.1-0.3l0.5-0.3h0.5
		l0.3-0.3l1.8-1.1l0.3-0.3l0.3,0.3l0.8-0.5l0.3-0.3v-0.3v0h0.3h0.3l0.5-0.3l0.3-0.3l1.1-0.5l0.3-0.3v-0.3l0.3-0.3l1.1-0.3l0.3-0.3
		l0.5-0.3l0.5-0.3h0.3h0.5l0.3-0.3l0.3-0.3l0.5-0.3h0.5l0.3,0.3V56l0.3,0.3v0.3l-0.3,0.5h0.5l-0.9,0.5l0.3,0.3l0.5,0.3v0.3l0.3,0.3
		l0.3,0.3v0.3v0.3V60l-0.5,0.5l-0.3,0.3l-0.5,0.8l-0.3,0.5l-0.3,0.3v0.4v0.5l0.3,0.3h0.3l0.3,0.5l-0.3,0.3l-0.3,1.3V66v0.5h0.3
		l0.5,0.3h0.5l0.3-0.3l1.1,0.3h0.3v0.4l0.3,0.3l0.5,0.3l1.1,0.3l0.3-0.8l0.5-0.3l0.5-0.5h0.3h0.5l0.3-0.3l0.8-0.3h0.3l0.3-0.3h0.5
		h0.5l0.5-0.5l0.8-0.8l0.5-0.3l0.3-0.3v-0.3l0.3-0.3l0.5-0.3l1.1-0.5l0.3-0.3l0.3-0.3l3.4-5.7l0.5-1.1l0.8-1.1l0.5-0.5l1.3-1.1h0.3
		l0.5-0.3l0.3-0.3l0.3-0.3h0.3l0.5-0.3l0.5-0.3v-0.1l0.5-0.3l0.5-0.3v0.3h0.3h0.8h0.5l0.3-0.3h0.3h0.5l0.3-0.3l0.8-0.5l0.3-0.3
		l0.3-0.3l0.5-0.3L189,48l0.3,0.3l0.5,0.5h0.3h0.3h0.3v0.3h0.3h0.3l0.3-0.3l0.3-0.5h0.3h0.3l0.3,0.3l0.3,0.3l0.3-0.3l0.3-0.3V48
		l0.5-0.3h0.3v-0.1l0.5-0.5l0.3-0.3l0.3-0.5V46l0.5-0.3h0.3h0.3l0.5,0.3l0.3,0.3l-0.5,0.3l0.5,0.3l0.3,0.3h0.3l0.3,0.3v0.1h0.3h0.3
		h0.3l0.3-0.3h0.3h0.8l0.5-0.3h0.5h0.3l0,0.6l0.3,0.5v0.3l0.3,1.1V50v0.6l0.3,0.5l0.3,0.8l0.3,0.3h1.1l0.5-0.3h0.3h0.3l0.3,0.3h0.3
		h1.3h0.3h0.3l0.8-0.6l0.5-0.3l0.5-0.7v-0.3l0.3-0.5l0.5,0.3h0.3l0.5,0.5h0.3h0.3l0.3-0.3h0.3V50v-0.3l0.8-1.1l0.3-0.5l1.6-2.6v-0.3
		l1.1-1.3l1.3-2.3l0.3-0.8l1.1-1.8l2-2.9l0.5-1.1l1.6-2.3l0.8-1.6l1.1-0.8l0.3,0.3l0.8-0.3l0.5-0.5l0.1-0.2l0.3-0.3l0.3-0.5l0.8-0.8
		l0.5-0.5h0.3l0.3-0.3l0.5-0.3l0.5-0.3l0.8-0.5h0.8l1.1-0.3l0.3-0.5l0.8-0.3h0.3h0.3l0.3,0.3v0.3v0.3l0.3,0.3h0.3h0.3l0.5,0.3
		l0.8,0.5v0.3h0.5v0.3h0.3h0.3h0.3h0.3h0.3h0.3l0.3-0.3h0.3h0.3h0.5h0.3l0.5,0.3l0.3,0.3l0.5,0.3l0.5-0.3v-0.3v-0.3v-0.5l-0.5-0.5
		h-0.5l-0.3-0.3v-0.4l-0.3-0.5l0,0v-0.3v-0.5l-0.5-0.5l-0.3-0.3v-0.2l0.3-0.3v-0.3l0.3-0.5l-0.3-0.3v-0.3l-0.3-0.3l-0.3-0.3
		l-0.3-0.5V20l0.3-0.5l0.3-0.3l0.5-0.3l0.8-0.8l0.3-0.5v-0.5l0.3-0.5v-0.3V16v-0.3l0.3-0.3v-0.5l-0.3-0.3v-0.3l0.8-0.5l0.5-0.3h0.3
		l0.3-0.3v-0.3l0.3-0.5l0,0h-0.3v-1.1v-0.5v-0.2v-0.1v-0.2l-0.3-0.3V9.7l0.3-0.3V8.9l-0.3-0.3V8.4V8.1V7.7H244V7.4l-0.3-0.3V6.9V6.4
		V5.8h0.5l0.3-0.3V5l0.5-0.5l0.3-0.3V3.8V3.2L245,2.9V2.7l0.3-0.3V2.2l0.3,0.3h0.8V2.2h0.3V1.9V1.7l-0.3-0.5V0.9V0.4l0.3-0.3
		l6.3,0.5l6,0.5l1.1,0.3h2l0.3,0.3h0.5l1.3-0.3l1.6,0.3l1.1,0.3h0.3l6,0.5h2h2.6h1.3l3.4,0.3h0.8h0.3h0.8l2.8,0.3h1.3h2.3l0.5,0.3
		h1.6h0.3l0.3,0.3h0.5h0.5h1.1h1.3l0.5,0.3h1.8h1.3h0.5h0.3l4.4,0.5h0.5h1.8h0.5l2.8,0.3h0.3l3.6,0.3h0.3l5.4,0.3h1.3h1.6h0.3h0.3
		h0.5h1.8h2.6l1.3-0.3l2.3,0.3h0.3h0.5l2,0.3h0.8h0.8l1.8,0.3h0.8h1.1l2.6,0.3h1.8h0.3l1.8,0.3h2.6l2.6,0.3l3.6,0.3h0.8l4.4,0.3
		l0.3,0.3h2.8l1.1,0.3h1.3l2.3,0.3h6h0.3h2.8h0.8h0.3h0.8h0.3l4.2,0.3h1.8h0.5h2.8h1.1h2.3h3.1h0.3h1.8l4.2,0.3h1.1h0.5h0.3h1.3h1.8
		h2h0.3h0.8h2h2h0.8h0.3h3.1h0.5h1.6l4.2,0.3h3.4h2h7.6h0.3h0.8h1.3h2.3h0.3h1.8h0.5h3.4h1.1h2.3h1.8l7,0.3h1.3l2.8-0.3h0.5h0.3h0.3
		h1.8h4.2h1.1h0.3h6.2h6.8h0.5h0.3h0.5h1.8h2h0.5h1.1h2.8h2h4.4h1.1h1.1h0.5h0.3h0.5h2.3h5.7h0.5h0.8h0.3h2.3h0.3h1.5h0.8h4.9h0.8
		h0.3h1.8h2.3h0.5h0.5h1.3l1.3-0.3h0.5h4.7h5.2h1.1l4.4-0.3h1.6h1.1h3.1h6h0.3h1.3h0.8h5.2h0.8l12.4-0.3h1.1h0.5h0.5h0.5l9.1-0.3
		h0.3h1.3h1.1h6h2.3h4.2l1.1-0.3h0.3h0.5h7h2h5.4h3.6l5.2-0.3h1.6h3.9h2.3h2l1.3-0.3l1.8-0.3l0.3,0.3l1.3,0.3l2.3-0.3h2h0.3h0.3h1.3
		h1.1h5.2l8-0.3h0.5l-3.9-0.4V5.6h0.3h1.6l8-0.3h2.3h2.3h0.5h0.8l2.3-0.3h3.9h3.4l4.9-0.3h3.1h4.4l2.3-0.3h7h0.8l5.7-0.3l7-0.3h3.6
		h3.6l2.6-0.3l7.8-0.3h0.8h6.2h0.3l2.8-0.3h1.1h0.3h0.3h0.3h0.8h0.5h0.5h0.3h1.1l1,5.7l2.3,8.6v0.5l1.6,6.5l1.6,5.2l0.8,2.1l0.8,2.3
		l0.3,0.8l1.1,3.1V38l0.3,0.3l1.1,2.6l2,5.4l0.3,0.3v0.3l0.8,1.6l0.3,0.5l0.8,1.8l0.8,1.6l1.3,2.6l1.3,2.3l0.5,0.5l1.1,1.8l0.8,1.3
		l1.3,2.9l0.5,1.3l1.1,1.8v0.3h0.3l3.4,7l1.8,3.4v0.3l0.3,0.3v0.3l0.5,1.6l1.1,2.6l0.3,0.3l1.1,2.3v0.3l0.5,0.8l0.3,0.3h-0.3
		l-0.3,0.8h-0.5L792,87v-0.3l-0.5-1.1l-0.3-0.3l-0.5-0.5l-0.5-1.1l-0.8-1.6l-1.3-1.6l-0.3-0.3l-1.1-2.3l-0.3-0.3l-1.6-2.3v-0.7
		l0.3-0.5v-0.8l-0.3-0.8l-0.3-1.3l-1.1-1.6l-1.5-2.9l-0.5-0.3l-1.3-1.1l-0.3-0.5v-0.3l-0.3-0.3l-0.3-0.3l-0.3-0.3l-0.5-0.3l-3.4-0.8
		l-0.5-0.8v-1.1l0.5-1.3v-0.5l-0.5-0.3H774h-1v-0.3l-0.3-0.5v-1.1v-0.5v0.1v-0.3v-0.8l-0.5-1.8l-0.5-3.1v-1.1v-0.3l-0.3-1.1
		l-0.5-1.3l-1.8-5.2l-0.8-1.6l-0.8-1.3h-0.3l-0.3-0.3l-0.5-0.5l-0.8-1.1v-0.3l0.3-1.3l-0.8-2.9l-0.8-0.8h-0.8l-0.5-0.3l-0.5-1.3
		l0.3-2.3l0.8-1.3v-0.8l-0.5-1.8l-0.8-0.8l-0.3-0.3l-0.5-0.8v-0.5v-3.1v-0.3l-1.3-1.6l-1.3-0.5l-0.8-0.8l-0.3-2.1l-0.8-2.3h-0.3
		l-0.7-0.1l-0.5-0.3l-0.3,0.3l-0.8,0.3h-0.3l-0.7-0.8l-2-0.5L750,9.3L747.4,8l-0.8,0.3h-0.8l-0.3,0.5L745,9.3l-0.3,1.3l1.3,2.6
		l0.5,1.3l0.8,0.5l1.3,0.5l1.1,0.3l1.6,1.8h0.8l1.1-0.3l0.5-0.3l0.3-0.5l0.3-0.3l0.5,0.3l0.8,4.2v0.5l-0.3,0.8l-0.3,0.8v0.3v0.5
		l0.5,1.1h0.3l1.8,3.7l0.5,1.8l0.3,1.1l0.5,1.1h0.8h0.8l0.5,0.3l-0.3,1.6l-0.3,1.6l0.3,1.8l0.5,1.6l1.1,0.5l0.8,1.6v0.3v0.5v0.3v0.3
		v1.6l0.3,0.3l0.3,0.5l1.1,1.3l0.3,1.3l0.8,1.1l1.3,2.6l0.8,3.4v0.3l-0.3,0.8h-0.5l-3.1-2.1l-1.3-1.1l-1.8-2.9l0.3-1.6l-0.3-1.1
		l-0.3-0.3l-0.5-0.3l-1.1-0.3l-1.5-0.5h-1.3l-0.5,0.3l-1.3-0.3l-4.9-1.3l-2-0.8l-0.3-0.3h-1.1l-1.3,0.8h-0.5l-1.1,1.1v0.3v0.5
		l0.5,1.3v0.5l-0.5,0.5l-0.5,0.5l-1.8,0.5l-2,0.5l-5.7,1.1l-0.5,0.3l-0.5,0.5v0.8v0.5l-2,1.3l-2-0.3l-2.3-0.5h-2l-1.1,0.5l-0.5,0.8
		l-1.5,1.1h-0.8l-0.5-0.3L718,56l-4.7,0.8l-0.3,0.3v0.3l-0.3,0.3l-0.5,1.3l-2,2.1l-0.8,0.5l-0.5,1.1v0.5l-2.8,0.8l-2,1.3L701,65
		h-1.3l-1.1,0.5l-0.5-0.3l-0.8-0.8l-0.5-0.8l-0.8-1.3l-1.1-0.3l-1.5-0.3l-1.8,0.5l-1.3,1.6l-0.3,0.3l-1.3,1.1l0.3,1.1l0.3,0.8
		l-0.5,1.1l-0.5,0.4l-0.5,1.1l0.3,1.6l0.5,0.5v0.3l1.8,1.1h0.5l0.8-0.3l4.4-0.3l0.5-0.3l1.6-0.3h1.5l1.1-0.3h2.6l1.1-0.5l0.8-0.3
		l0.8-0.5l2-0.8l1.3-1.1l5.4-1.8l0.8,0.5l0.8,1.1v0.8l1.6,2.1l0.3,0.3l2-0.3l1.3-0.3l0.5-0.3l4.2-2.9l5.2-1.8l3.4-0.8h1.1h6.2
		l1.1,0.3l1.8-0.5l3.4,2.3l1.1,1.3v0.3l-0.5,2.6l1.1,2.1l0.5,1.1l0.5,0.3l1.8,0.5l1.1-0.3l0.5-0.3l1.1-2.1l1.3-0.8l0.3-0.3l0.3-0.3
		v-0.7l-1.1-1.1l-0.5-0.3l-0.3-0.3v-0.5l0.8-0.5l3.4-1.6h1.8h1.3h0.5h0.8l3.9,1.8l0.3,0.5l0.5,1.1l1.5,1.1v0.8l0.5,1.1l0.8,1.8
		l1.8,2.6l-0.3,0.8l0.5,2.1l1.3,1.3l0.8,1.8v1.3l-0.3,2.3l-0.5,1.3l-0.3,0.8l0.3,0.3l0.3,0.3l1.1,2.6v0.3v0.5l0.5,2.3l0.3,0.3
		l0.3,0.5l0.3,1.1l-0.3,0.5l-2.3,2.3v1.8l0.3,1.1l0.3,0.8l0.8,1.1v0.5l-1.6,1.6l-0.3,0.3l-0.8,0.3l-0.3,0.3l-0.3,0.3l-0.3,0.3
		l-0.8,0.8l0.3,1.6l-2,0.5l-3.6,0.5l-1.3-0.8l-0.8-0.8l-0.8,0.3l-2.3,1.3l-1.1,1.6v0.5v0.8l-0.8,1.1l-2.6,0.5l-0.3,0.3l-0.5,0.5
		l-1.5,1.7v0.8l0.3,0.8v0.3l-2.3,1.1l-0.5,1.1v0.8v0.5l-0.3,1.3l-1.2,1.3l-0.3,1.1l0.3,1.1l-0.3,0.5l-0.9,0.1l-0.5,0.3l-1.1-0.5
		l-1.3-0.3l-0.8,0.8l-0.3,0.5v0.8l0.3,0.5l0.3,1.1l-1,1.2l-2,1.3l-2.6,1.1l-0.8,0.3l-1.1,1.3v1.1l-0.5,0.3l-1.6-0.3l-0.3-0.3
		l-1.1-0.5h-2.3l-2.6-1.3h-1.3H729l-0.5,0.8H728l-1.6-0.3l-2-1.1h-2l-0.8,0.3l-0.5,0.8l-0.8,0.3l-1.3-0.3l-1.1-0.8l-0.5-0.3
		l-0.5,0.3l-1.1,0.8H715l-0.3-0.5l-1.1-0.5l-0.5-0.3h-0.5l-0.3-1.8l-1.3-0.5h-0.5L710,134l-1.1,1.1h-0.5l-1.3-1.1l-2-1.1l-2.3,0.3
		l-2.8,0.3l-2.3,0.3l-1.3,1.1l-0.8,1.1l0.8,2.3l1.3,0.8l0.3,0.3l1.3,0.3l3.1,0.3l0.5,0.3l4.4,0.5l1.6,1.1l1.1,2.1l0.5,1.8v1.8
		l-0.8,2.1l-0.5,0.3l-0.5,0.8l-0.3,1.3l-0.3,1.1l-0.5,0.3l-0.3,0.3l-1.5,1.5l-1.3,2.1v0.5l-0.3,0.5l0.3,1.8v0.8l-0.8,2.1l-1.1,0.8
		l-0.3,0.8l-0.5,1.3l-0.8,0.5h-1.1l-0.5,1.1v1.1l-0.5,0.8l-1.3,0.8h-0.8l-0.8,0.5l-0.8,0.5l-0.5,1.1v1.3v0.8l0.3,0.5l0.3,0.8
		l1.3,1.8l3.4,0.3h0.3l1.8-0.8l2.6-0.3l3.4-0.8l0.5-0.5l0.3-0.5l0.3-2.1l0.8-1.8l0.5-2.1l0.5-0.5l0.5-0.3l2.3,2.1l0.5,1.1v1.8
		l0.8,3.4l0.5,0.5h0.3l0.3,0.3l0.5,0.5h0.3l0.5,1.3l0.3,0.3l6,0.3l0.5-0.8l-0.5-1.1l-1.8-3.4l-1.1-0.8l-0.3-0.8v-0.3l1.1,0.3
		l3.1,1.3l2.3,1.1l0.3,0.5v0.8v0.3l-0.3,0.3l-0.3,0.8v1.1l0.5,0.8l1.3,0.8l0.3,0.8l-0.3,1.6l-0.5,0.5l-2,2.3l-0.3,0.5L725,188
		l-1.3,1.6l-1.3,1.3h-1.6H720l-0.8,0.5l-0.2,0.2l-1.3,0.8h-0.5l-0.3,0.5l-0.8,1.1l-0.3,1.8v1.3l0.8,0.5l0.5,0.3h1.1l0.5-0.3l1.1-1.1
		l0.3-0.3l0.8-0.5l1.8-2.1l0.3-0.5l1.1-1.3l0.3-0.3l3.4-3.1l1.1-1.1l3.6-3.1l3.4-4.2l2.8-3.4l4.4-4.7l1.5-1.8l2-2.9l0.5-0.3l1.8,0.8
		l0.5,0.5l0.3,0.5l-3.4,3.4l-5.7,4.9l-8.3,9.4l-3.6,3.1l-3.1,2.9l-0.3,0.3L724,194l-2.8,3.4l-2.3,2.3v0.3l-0.3,0.5l-2.6,3.4
		l-0.3,0.3l-2.6,3.9l-3.4,5.2l-0.5,0.5l-1.1,2.3l-1.3,2.9h-0.3v0.3l-0.3,1.1l-0.5,1.5l-0.3,0.3l-0.8-1.6l-1.1-1.6l0.3-1.3l0.3-0.3
		v-1.6l-0.3-0.3l-1.8-1.1l-0.8-0.3l-1.1-0.5l-1.1-0.3l-1.3-0.5l-2.3-0.5l-1.8-0.8v-0.3l-0.8-0.3l-0.5-0.3h-1.5H690l-1.8-0.3h-0.5
		h-0.1h-3.1h-0.3h-0.3h-0.5H683l-1.3,0.3l-1.8,0.3l-4.2,0.5h-0.4l-0.8,0.3l-1.3,0.3h-0.3h-0.3l-0.8,0.3h-0.5l-2.3,0.5l-4.2,0.8
		l-0.8,0.3l-0.5,0.3h-0.3l-2.8,0.8h-0.5l-0.3,0.3l-4.7,1.6l-0.8,0.3l-1.1,0.5h-0.3h-0.3l-1.8,0.8l-1.8,0.8l-1.1,0.3l-0.5,0.5H647
		l-1.5,0.8l-1.1,0.5l-0.3,0.3v-0.5l-0.8,0.3l-0.8,0.8l-0.3,0.3l-0.8,0.5h-0.3l-0.5,0.5l-2.3,1.8l-4.2,3.4l-0.5,0.3l-0.5,0.3
		l-0.5,0.3l-1.1,0.8l-10.1,5.7l-2.6,1.8l-1.3,1.1h-0.3l-0.8,0.8h-0.3l-1.6,1.1l-1.8,1.6l-0.5,0.3l-1.8,1.6l-0.8,0.8l-3.9,3.7
		l-1.6,1.6l-0.8,0.5l-0.5,0.5l-1.8,1.8l-1.3,1.8l-1.1,1.1l-0.3,0.3l-2,2.3l-2.3,2.9v0.3l-0.3,0.3l-1.8,3.1l-0.5,0.5l-1.5,2.6v0.3
		l-1.6,2.3l-1.3,2.3l-1.3,3.7l-1.1,3.1l-0.3,0.3l-0.3,0.3l-0.3,0.8l-0.3,0.8l-1.1,3.4l-0.3,0.8l-0.8,2.6l-0.3,0.5l-0.3,1.1l-0.5,1.6
		l-1.1,3.1l-0.8,1.5l-1.1,2.1l-0.8,3.7l-0.3,2.3v0.5l-1.1,0.8l-3.4-1.3l-0.3-0.5v-0.5v-0.5l-0.5-1.3l-0.3-0.5l-0.8-0.3h-0.5h-0.3
		l-3.1-1.1h-0.5l-1.1-0.3l-0.3-0.3h-0.5l-0.5-0.3h0.2h-1.1l-1.3-0.3l-0.8-0.3h-0.3h-0.3h-1.8h-0.8h-0.5h-1.3H554h-2.8h-0.5l-3.6,0.3
		l-7,0.8l-2.6,0.3h-0.3h-0.3l-6.5,2.6l-1.1,0.3l-0.5,0.3h0.8l-0.5,0.3h-0.3l-2.3,0.8l-0.8,0.5h-0.3l-0.5,0.5l-1.3,0.5l-1.6-1.6
		l-1.3-1.6h-0.3l-0.5-0.5l-0.5-0.5l-0.5-0.5v-0.9l-2-2.1l-0.5-0.5l-0.8-0.8l-2-1.8v-0.3H513l-0.8-1.1l-3.6-3.7l-0.8-0.8h-0.3l-2-2.3
		l-0.3-0.3l-2.8-2.9l-1.6-1.6l-0.5-0.7l-0.3-0.1l-1.3-1.3l-1.3-1.6l-2.6-2.6l-1.8-1.6v-0.3h-0.3l-0.4-0.4l-0.8-1.1l-1.8-1.6
		l-0.3-0.5l-1.6-1.5l-1.8-1.6l-0.3-0.5l-0.8-0.5l-0.3-0.3l-0.3-0.5l-0.5-0.5l-1.3-1.3h-0.3l-0.5-0.8l-1.1-1.1l-2.8-2.9l-0.3-0.3
		l-2.6-2.9l-3.6-3.4l-3.1-3.1l-0.8-0.8l-3.4-3.7l-0.3-0.3l-0.5-0.5l-0.3-0.3l-1.3-1.3l-0.3-0.5l-1.6-1.6l-0.5-0.3l0.1-0.2l-0.5-0.5
		l-1.1-1.1l-1.3-1.3l-1.1-1.3l-1.1-1.1l-0.8-0.8v-0.1l-1.1-0.8l-0.5-0.5l-0.3-0.3l-0.5-0.5l-2.3-2.6l-0.8-0.8l-4.9-4.9l-2.6-2.9
		l-1.1-0.8v-0.2l-0.8-0.5h-0.3l-0.8-1.1l-0.8-1.1l-1.3-1.3l-1.3-1.3h-0.3l-1.1-1.1l-2-2.1l-0.5-0.5L427,207l-1.3-1.1l-1.1-1.1
		l-1.1-1.1l-0.3-0.3l-0.8-0.8l-1.3-1.3l-1.1-1.1l-0.5-0.5h-1.1h-0.3h-2H415l-1.8-0.3h-1.6h-0.4h-8.8h-1.8h-3.4l-3.6-0.3H392h-0.8
		h-0.8l-0.5-0.3h-0.5h-1.2h-0.8h-0.5h-2.6H384h-0.3l-2-0.3h-2.3h-0.5h-1.1h-0.5h-1.1h-0.4l-2.3-0.3h-3.6h-0.3l-4.2-0.3h-0.5h-0.8
		H363h-1.4h-1.8l-0.8-0.3h-4.4H353h-0.3h-0.8l-0.8-0.3h-0.8H350h-0.5h-1.3h-0.3h-1.3h-0.1H346h-0.5l-2.6-0.3h-3.1h-2.6l-2.8-0.3
		h-0.5h-1.5H332h-1.5H330h-1.1h-0.3h-0.8l-2.3-0.3h-0.3h-0.5h-4.2H320h-1.8l0.3-0.5v-0.1v-0.5v-0.5l1.1-7l0.3-2.1l0.3-1.5l-0.5-0.8
		l-1.8-2.3l-1.3-1.8l-1.6-2.6l-1.1-1.3l-1.1-1.6l-0.5-1.1l-1.3-1.8l-1.3-1.5l-0.8-1.1l-1.1-1.5l-1.1-1.3l-0.3-0.5l-1.3,0.8l-0.3,0.3
		l-0.3,0.3l-0.3,0.3l-2,1.3l-0.5,0.3l-0.3,0.3l-4.9,3.4l-0.8-1.3l-0.5-0.5v-0.3v-1.3v-0.3v-1.1v-0.3l0.3-0.8h0.3l0.3-0.3v-0.3h0.3
		l0.3-0.3h0.3h0.3h0.3v-0.3l0.3-0.3v-0.3v-0.5l-0.5-0.8v-0.5l-1.1-0.5H296v-0.3l0.5-1.1v-0.3l0.3-0.3v-0.3h-1.1l-1.8-0.3l-1.9,0.2
		h-1.6h0.1l-1.1-0.3h-0.5h-0.8l-2.8-0.3h-0.8l-2.8-0.3l-2.6-0.3h-0.3h-2l-0.3-0.3h-2h-1.3l-0.8-0.3H272h-0.8l-3.4-0.3l-6.5-0.5H261
		h-0.3h-0.3h-0.3h-0.3H259h-0.5l-0.3-0.3h-2H256l-2-0.3h-1.8h-0.5h-0.2l-1.6-0.3H249h-0.8l-2.6-0.3h-0.4h-0.8l-2-0.3l-2.6-0.3h-0.5
		H238l-0.5-0.3h-1.3h-0.3h-0.5h-1.3l-0.3-0.3H232h-0.5h-0.3h-0.3l-2.6-0.3l-3.6-0.3h-0.5h-0.8l-1.6-0.3l-3.9-0.3H217l-3.9-0.3h-0.5
		h-0.8l-1.6-0.3h-0.5l-2.8-0.3H206l-3.9-0.3h-0.4h-0.5l-3.1-0.3l-2.6-0.3h-0.8h-0.8l-1.1-0.3h-1.1H191l-0.5-0.3h-0.3h-0.5h-0.4
		l-1.3-0.3h-0.5l-1.6-0.3H185l-0.5,0.3L184,151l-1,1.6l-0.8,0.3H182v0.3h-0.3l-0.3,0.3h-0.3l-0.5-0.3v-0.3h-0.3v-0.3l-0.3,0.3h-0.3
		v-0.3l-0.5-0.3H179l-0.4,0.3h-0.5l-0.3,0.3v0.3v0.3h-0.3l-0.3,0.3H177h-0.2l-0.3-0.3l-0.3-0.3v-0.6v-0.3V152l0.3-0.3l-0.3-0.5
		l-0.3-0.5v-0.5l-0.5-0.3v-0.3h-0.3l-0.3,0.3L174,151l-0.8,0.3h-0.5l-0.3,0.3l-0.3,0.5l-0.5,1.1v0.3l-0.3,0.5l-0.3,0.8l-0.3,0.3
		l-0.3,0.3h-0.5h-0.3h-0.3l-0.3-0.5v-0.4h0.3l-0.3-0.3v-0.3l-0.5-0.3l-0.8,0.5h-0.1l-0.5-0.3l-0.5,0.3h-0.5l-0.2,0.3l-0.5,0.8h-0.3
		h-0.5h-1.1l-0.3,0.3l-0.3,0.3h-0.3v0.3h-0.3H162h-0.3v-0.3h-0.3v-0.3h-0.2h-0.5h-0.3h-0.3l-0.3,0.3v0.3v0.3h-0.3l-0.3,0.3v-0.3
		h-0.3l-0.3,0.3l-0.3,0.3l-0.3,0.3h-0.3l-0.5,0.3h-0.3h-0.3h-0.3l-0.5,0.3l-0.5,0.3l-0.3-0.3h0h-0.3v0.3l-0.5,0.3H154l-0.3,0.3v0.4
		h-0.3h-0.3h-0.3l-0.3-0.3h-0.3h-0.3l-0.2,0.3l-0.3,0.3h-0.3v0.3l-0.5,0.3h-0.3h-0.8h-0.3v-0.3l-0.3-0.3v-0.3h0.1h-0.3h-0.3h-0.3
		v0.3v0.3l-0.3,0.3v0.3l-0.3,0.3l0.3,0.3v0.3v0.3v0.3l-0.5,0.5l-0.3,0.3l-0.3-0.3h-0.3l-0.3,0.3l-0.8,0.3H145h-0.3h-0.3h-0.3v0.3
		v0.3l-0.3,0.3l-0.5,0.3v0.5H143h-0.3h-0.3l-0.3,0.3v0.3l-0.3,0.5h-0.3h-0.8l-0.5,0.3h-0.3l-0.3,0.3l-0.3-0.3l-0.3-0.3l0.3-0.3v-0.3
		l0.3-0.5v-0.5v-0.3h-0.3l-0.3-0.3l-0.3,0.3h-0.3l-1.4-0.3l-8,2.1l-9.3,2.6l-1.1,0.3l-0.8,0.3l-1.8,0.5l-1.8,0.5l-4.7,1.3l-7.3-0.3
		h-0.8h-3.6h-4.5h-0.8h-2.3h-1.1h-0.3h-1.3h-0.3l-1.3-0.3h-1.3l-9.1-0.3h-6l-4.4-0.3h-2v0.5l-8.8-0.5h-0.1h-0.3l-2.3-0.3h-2.3H48
		h-1.1l-2.3-0.3h-0.3h-2.6H41l-0.5-0.3h-1.8h-2.6l-1.3-0.3h-2.3H31l-2.3-0.3H27h-0.8l-5.4-0.3h-0.5l-2.8-0.3H16l-3.1-0.3l-2.3-0.3
		H9.4H7.8L5.5,167L0,167.1l0.5-3.4v-0.3v-0.5l0.3-1.1l0.5-3.9l0.3-0.8l0.3-1.5l0.5-3.1l0.8-4.9v-0.3l0.3-1.6l0.5-2.6l0.3-2.1
		l0.3,0.3l0.3-0.3l0.3-0.3l0.5-0.8l1.6-0.5l0.3-0.5l0.3-0.3l1.1-0.5l0.3-0.3l0.8-0.8l0.5-0.5h0.3h0.8l0.3,0.3v0.3l0.5,0.5v0.3
		l0.3,0.3v0.8l0.3,0.5h0.5l0.5,0.5h0.4l0.3-0.3l0.5-0.3h0.3l0.5,0.3l0.3-0.3h0.3h0.5H18h0.3l0.3,0.3h0.3h0.2h0.3v-0.3l0.3-0.3H20h0
		h0.3h0.5l0.5,0.3h0.3h0.3h0.3v-0.3h0.3l0.5-0.5h0.2v-0.3V138h0.3l0.5-0.3h0.3l0.7-0.1l0.5-0.3H26l0.8-1.1l0.8-1.1L28,135.1z
		 M774.5,152l0.8-0.5l1.1-0.3l1.6-0.5l0.8-0.5l0.8-0.8l0.5-0.3l0.5-0.8l0.3-0.3h0.3l0.5,0.5h1.1l2-0.8l0.5-0.3l0.5-0.3l1.1-1.1
		l0.3-0.3l1.3-0.8l0.3-0.5v-0.8v-0.3l0.3,0.3h0.8l0.3,0.3l2-0.3l1.3-0.5l0.8-0.3l0.3-0.5l0.3-1.3l0.5-3.1l0.3-2.1l0.5-2.9l0.5-2.9
		l0.3-4.2l0.5-3.1l0.5-3.7l-0.3-1.3v-1.1v-1.7l0.5-1.3l0.3-1.6l-0.3-5.2l-0.3-2.6l-0.8-2.9l-0.5-1.1l-0.3-0.8H796l-0.3-0.8l-0.5-0.8
		l-0.3-1.3l-0.5-2.1v-1.3l-0.3-0.8v-0.5l-0.5-1.1l-0.3-1.1l-0.3-0.5l0-0.5l-0.3-0.8l0.3-0.5l0.5,0.3l1.8,3.1l0.3,0.3v0.3l0.5,1.3
		l1.8,5.4l0.5,2.1l0.8,3.9l0.8,3.1v1.1v0.5v0.3v0.8l-0.3,2.1v0.5v1.3l-0.3,6.5l-1.1,8v1.1l-0.3,0.5l-1.1,8l-1.1,5.4v0.3v0.3
		l-0.3,0.5v0.8l-0.5,1.2v0.3l-0.3,0.8l-0.5,1.1h-0.3l-0.7-0.4l-1.5-0.3h-1.8l-2.6,0.5l-2.3,1.1l-3.1,1.3l-5.2,2.1l-1.8,0.8l-0.8,0.3
		l-0.5,0.3h-0.5l-1.8,1.1l-4.4,2.3l-6.5,3.7l-2.8,1.8l-1.6,1.6l-1.8,1.1l-1.5,1.8h-0.5v0.3l-0.5,0.3l-0.3-0.3l0.3-0.5l1.1-1.8
		l0.8-0.8l0.3-1.1l-0.3-0.8v-0.8h0.3l0.3-0.3v-0.3h0.3h0.5l0.3-0.3l0.5,0.5l1.1-0.3l2.8-1.8l1.3-0.8l1.3-1.1l4.9-2.6l1.8-0.5
		l0.5-0.3l1.1-0.5l0.8-0.5l0.5-0.8L774.5,152z M781.5,73.5l0.3,0.3l0.3,0.5l0.3,0.3l0.3,0.3l0.8,1.3l1.3,3.1l-0.3,0.8v0.3v0.8
		l0.3,1.1v0.3l0.3,1.3l-0.5,0.8h-0.3l-1.6-1.1l-2.6-0.5l-0.5-0.8l1.3-0.8v-0.3v-0.3v-0.3v-0.3v-0.9l-0.3-1.1l-0.3-0.8l-0.8-1.3h-0.8
		l-1.5-2.1v-0.8v-0.2l-0.5-0.5l-1.8-1.1l-0.5-0.8v-0.3l0.8-0.5h1.3l1.3,0.3l0.3,0.5l1.1,0.3l0.3,0.3l1.1,0.8h0.3l-0.3,0.5v1.1h0.8
		L781.5,73.5z"/>
</g>
<g opacity="0.2">
	<path fill="none" stroke="#694C7D" stroke-linecap="round" stroke-linejoin="round" d="M507.2,198l-0.8-0.3l-0.7,0.1h-0.2l-0.3-0.1
		l-0.3-0.2l-0.2-0.1l-0.3-0.1l-0.2-0.1l0,0L504,197l-0.2-0.1l-0.4-0.2l-0.1-0.1l-0.2-0.3l-0.1-0.1l0,0l-0.5-0.1l-0.4-0.1H502
		l-0.2,0.2l-0.1,0.1h-0.1h-0.1h-0.1l-0.5,0.3l-0.3,0.2l-0.4,0.2l-0.1,0.1l-0.1,0.1l-0.2,0.3l-0.1,0.2l-0.4,0.2l-0.1,0.1l-0.4,0.7
		v0.1h-0.1h-0.1h-0.2h-0.1l-0.1,0.1l-0.3,0.2l0,0l0,0l0,0l0,0l-0.1,0.1h-0.1l-0.1,0.2v0.1h-0.1h-0.1h-0.1h-0.2H497l-0.4,0.1
		l-0.3,0.1h-0.2h-0.3h-0.1h-0.2h-0.2l0,0h-0.1h-0.1h-0.3h-0.3l-0.4,0.3H494l-0.3-0.1l0,0l-0.3-0.1l-0.4-0.2l-0.2-0.2l-0.1-0.1
		l-0.2-0.2l0,0l-0.2-0.2l-0.2-0.3l-0.2-0.2l-0.2-0.2l-0.3-0.2l-0.3,0.5l-0.5,0.6l-0.3,0.4l-0.4,0.5v0.1l-0.2,0.2l-0.1,0.1l-0.2,0.1
		l-0.3,0.1l-0.1,0.1l-0.3,0.2l0,0l0,0l-0.3,0.2l-0.2,0.1H488l-0.8-0.6l-0.1-0.1l-0.2-0.1l-0.1-0.1l-0.2-0.2l-0.1-0.2l0,0l-0.1-0.2
		l-0.1-0.1l0,0l-0.3-0.1l-0.3-0.2l-0.1-0.1l-0.2-0.1l-0.2-0.4v-0.1l-0.3-0.5l-0.1-0.2l-0.2-0.4l-0.2-0.4l-0.2-0.3l-0.1-0.2v-0.2l0,0
		V196v-0.1v-0.3v-0.3V195l-0.2-0.3l0,0l-0.2-0.3H483l-0.1-0.1l-0.1-0.2V194l-0.1-0.1l-0.1-0.1l-0.1-0.2l-0.2-0.2l-0.1-0.2l-0.1-0.3
		l-0.1-0.4v-0.2l-0.1-0.1l-0.1-0.1l0,0l-0.2-0.2l-0.3-0.3l-0.1-0.1l-0.4-0.9v-0.1l-0.2-0.4l-0.1-0.1l-0.1-0.1v-0.1l-0.1-0.1
		l-0.2-0.2l-0.2-0.3v-0.1l-0.1-0.3l0.1-0.3v-0.1l-0.2-0.4v-0.1l0.1-0.6l0.1-0.3l0.2-0.4l0.7-0.5l0.2-0.3v-0.2l0.1-0.3l-0.4-0.8
		l-0.1-0.1l-0.1-0.2l-0.4-1.1V183l-0.1-0.3l-0.2-0.3v-0.1l-0.2-0.3v-0.2l0.1-0.2v-0.1v-0.2v-0.1l-0.2-0.2l-0.1-0.1l-0.3-0.3l0,0
		l-0.2-0.2l-0.1-0.1l-0.1-0.1v-0.1l0,0V180l-0.1-0.1l-0.1-0.1l-0.5-0.3l-0.1-0.1l0,0l-0.1-0.1l-0.2-0.3l-0.3-0.4l-0.1-0.1l-0.2-0.2
		l0,0l-0.1-0.1l-0.1-0.2v-0.1l0,0l-0.1,0.1l-0.1,0.2l-0.1,0.1l-0.2,0.4l-0.1,0.1l0,0v0.1l0,0l0,0v0.1v0.1l0,0l0,0l-0.1,0.1l-0.1,0.1
		l-0.2,0.1l-0.3,0.1l-0.1,0.1v0.1l-0.1,0.1l0,0l-0.1,0.2v0.1l-0.1,0.1l-0.3,0.1l-0.5,0.2l-0.1,0.1l-0.1,0.1l0,0l-0.3,0.3l-0.1,0.2
		l-0.1,0.1l-0.2,0.2l-0.1,0.1l-0.1,0.2l-1.1,0.8l-0.2,0.2h-0.2h-0.2h-0.2H471h-0.1h-0.2l0,0h-0.1l-0.1,0.1l-0.1,0.1l-0.1,0.2
		l-0.1-0.1l0,0l-0.1-0.1l0,0l-0.5-0.3l-0.7-0.3l-0.9-0.3l-0.6-0.2l-0.2-0.2l-0.4-0.2l0,0l0,0l-0.2-0.2l0,0l-0.6-0.5l-0.4-0.3h-0.1
		l0,0h-0.1l-0.1-0.1h-0.1l-0.2-0.1l-0.5-0.2l-0.2-0.1h-0.1l-0.1-0.1l-0.1-0.1l0,0l-0.4-0.6l-0.2-0.4h-0.2l-0.3-0.1h-0.1h-0.2l0,0
		l-0.3-0.1l-0.4-0.1h-0.3h-0.2h-0.2l-0.3-0.2h-0.1l-0.4-0.1l-0.3,0.1l0,0l0,0h-0.2h-0.1l-0.2-0.1l-0.3-0.2l-0.2-0.1l-0.2-0.1
		l-0.2-0.1l0,0l-0.3-0.1l-0.3-0.1l-0.3-0.1h-0.4l-0.4-0.1h-0.5l0,0h-0.1L456,177l-0.1-0.1l0,0l-0.4-0.1h-0.4h-0.3h-0.3h-0.1
		l-0.2,0.1L454,177l-0.5,0.2h-0.1l-0.2-0.2l-0.3-0.3l-0.2-0.1l-0.1-0.1l-0.1-0.2l-0.2-0.3l-0.2-0.3l0,0l0,0l0,0l-0.1-0.1l-0.1-0.1
		l-0.1-0.1l0,0l0,0l-0.1-0.1h-0.1l0,0h-0.1h-0.1h-0.1h-0.2V175v0.1v-0.2v-0.1l0,0h-0.2h-0.2h-0.1h-0.2h-0.1h-0.1l0,0l0,0h-0.1
		l-0.2-0.1h-0.1l-0.1-0.1l-0.4-0.1l-0.2-0.1l-0.5-0.2h-0.1v0.1h-0.2h-0.2l-0.3,0.1l-0.2,0.1l-0.2,0.1h-0.2h-0.3h-0.2h-0.1h-0.1h-0.1
		l-0.1-0.1h-0.1h-0.3l-0.4-0.1l-0.3,0.1l-0.2,0.1h-0.1l-0.2,0.1l-0.3,0.1h-0.3h-0.6h-0.2h-0.1l-0.5,0.2l-0.2,0.1l-0.7,0.3l-0.4,0.2
		h-0.1h-0.2l-0.5-0.1h-0.2h-0.1l-0.2-0.1l-0.3-0.2h-0.1l-0.1-0.1l-0.4-0.2l-0.1-0.1l0,0l-0.1-0.1l-0.2-0.1l-0.8-0.1h-0.1l0,0
		l0.1-0.5l1.2-1.5l0.1-0.1v-0.1V172v-0.2l-0.1-0.2l-0.1-0.4l-0.8-1.2l-0.1-0.3l-0.2-0.6l-0.7-1l-0.2-0.5l-0.3-1l0.1-0.3v-0.6
		l-0.1-0.4l-0.5-2.2l0.3-0.3l0.7-1l-0.5-0.5l0,0l-0.1-0.1l0,0l-0.1-0.1h-0.1h-0.1h-0.1L436,161l0,0l-0.3-0.1l-0.3-0.1h-0.2H435h-0.1
		h-0.3h-0.1h-0.1h-0.1H434h-0.2h-0.2h-0.2l-0.1-0.1l-0.1-0.1v-0.1l0,0l0,0l-0.2,0.2l0,0h-0.1h-0.1l0,0h-0.3l-0.2-0.1l-0.2-0.1
		l-0.4-0.1l-0.4,0.1l-0.2,0.1H431h-0.1h-0.1l-0.1-0.1l0,0h-0.1l0,0l-0.2-0.1l0,0l-0.1-0.1l-0.1-0.1l0,0l-0.2-0.1h-0.1h-0.1h-0.2
		l-0.7-0.1h-0.4h-0.2l-0.1-0.1l-0.4-0.2l0,0l-0.4-0.1l-0.4-0.1h-0.2l0,0h-0.1h-0.1l-0.5-0.1l-0.3-0.1h-0.1l-0.3-0.1l-0.4-0.1
		l-0.8-0.2h-0.1H424l-0.5-0.3h-0.1h-0.1l-0.4-0.2l-0.4-0.2l-0.5-0.1h-0.4h-0.3l-0.1-0.4l-0.1-0.3l-0.1-0.3l0.1-1.4v-0.1l-0.1-0.1
		l0,0l-0.1-0.2v-0.1v-0.1V155v-0.1l-0.1-0.2l-0.3-0.4l0,0l-0.1-0.1l-0.1-0.1l-0.1-0.1l-0.1-0.1h-0.2l-0.3-0.1l-0.2-0.1h-0.1h-0.1
		l-0.4,0.1h-0.1h-0.3h-0.3h-0.5l0,0h-0.1l-0.7-0.2h-0.1l0,0l0,0v-0.2l-0.2-0.5v-0.3l0.1-0.2v-0.1l-0.1-0.1l-0.1-0.1h-0.2h-0.1H416
		h-0.3h-0.2l-0.7-0.2h-0.2l-0.9,0.1h-0.5l-0.4,0.1h-0.1l0,0l-0.1-0.2v-0.2v0.1v-0.2l0,0h-0.1l0,0l-0.1-0.2l-0.1-0.2l-0.1-0.1
		l-0.1-0.1l-0.1-0.3l0.1-0.2l0,0h-0.5h-0.2h-0.1l-0.1-0.1l-0.1-0.1l-0.2-0.1l-0.2-0.1l-0.2-0.1h-0.1h-0.1l-0.3-0.1h-0.2h-0.1h-0.1
		h-0.1l-0.3-0.1H409h-0.3h-0.1l-0.2,0.1h-0.1h-0.1l-0.5-0.1l-0.5-0.1l-0.4-0.1h-0.7h-0.7h-0.2H405l-0.2,0.1h-0.2h-0.3H404h-0.2h-0.1
		l-0.1,0.1l-0.2,0.1h-0.1h-0.1l-0.3-0.1h-0.2l-0.2-0.1l-0.3-0.1v-0.2l0.1-0.1v-0.1v-0.1l-0.1-0.1v-0.1l-0.4,0.1l-0.2,0.1l-0.4,0.2
		l-0.2,0.1l-0.8,0.6l-0.1,0.1H400l-0.4,0.1h-0.1l-0.2,0.1l-0.2,0.2H399l-0.2,0.1l-0.4,0.1l-0.3,0.2h-0.2h-0.2h-0.2l-0.3,0.1H397
		h-0.3h-0.1h-0.1l-0.4-0.3h-0.2h-0.4l0,0h-0.3h-0.1H395l-0.3-0.1h-0.1h-0.2h-0.2l-0.4,0.1l-0.7,0.2h-0.3h-0.3h-0.2H392h-0.3
		l-0.3,0.1h-0.5h-0.1h-0.4H390h-0.1l-0.2,0.1l-0.1,0.1h-0.1h-0.3h-0.1l-0.2,0.1l-0.2,0.1h-0.2h-0.1l-0.2-0.1h-0.1H388l-0.3,0.1
		l-0.2,0.1h-0.1l-0.8-0.1h-0.1h-0.1l-0.2-0.1l-0.3-0.2l-0.1-0.1l-0.3-0.2l-0.4-0.3H385l-0.1-0.1l-0.3-0.1h-0.1l-0.2-0.1l-0.2-0.1
		L384,150l-0.4-0.2l-0.2-0.1h-0.2h-0.1l-0.4-0.1h-0.1h-0.7l-0.5-0.1h-0.1h-0.2H381h-0.3h-0.1l-0.2,0.1h-0.1h-0.1h-0.5h-0.1h-0.2l0,0
		h-0.3H379l0,0l-0.3,0.1l-0.3,0.1l0,0l-0.5,0.2h-0.2h-0.3h-0.3v-0.1v-0.2v-0.1l0,0v-0.1v-0.1l-0.1-0.3v-0.5v-0.2l-0.1-0.1h-0.1h-0.2
		l-0.2,0.1h-0.2h-0.1l-0.1-0.1l-0.3-0.3l-0.1-0.1v-0.2v-0.2v-0.1v-0.1h-0.1l-0.1-0.1l-0.1-0.1l-0.2-0.5l-0.2-0.3l-0.1-0.2V146v-0.2
		v-0.2v-0.1v-0.1v-0.1l-0.1-0.2l-0.1-0.1v-0.1v-0.4v-0.1l-0.1-0.4v-0.1v-0.1l0.1-0.2v-0.1l-0.1-0.3l0,0l0.1-0.3v-0.1v-0.1l-0.2-0.5
		l0,0v-0.1l0.2-0.4l0.1-0.1l0.3-0.3v-0.1v-0.1v-0.5l-0.1-0.1l-0.2-0.3l-0.1-0.1V140l0,0"/>
</g>
<g opacity="0.2">
	<path fill="none" stroke="#77875C" stroke-linecap="round" stroke-linejoin="round" d="M725,174.9c-4.5,23.7-21.6,33.2-42.1,23.4
		c-6.6-6.7-8.4-13-7.9-23.4c-4.2-4.1-7.5-7.9-10.6-12.2c-4.8-0.6-9.5,0.5-9.8,4.4c-0.8-0.1-1.5-0.4-3.1-1.2c-1.8-0.8-5-3.2-6.7-4.2
		c-1.2-0.7-2.5-0.7-3.8,0c-0.8,0.3-1.6,0.1-2.5-0.2c-6.4-2.7-16.9-7.9-24.8-8.2c-2.9-0.1-4.3,3.9-5.7,4.3c-3.6-2.6-7.4-2.9-11.5-1
		c-21.9,0-14.8-24.5-19.7-35.7c-7.4-5.4-11.2-10.4-11.9-15.6c-4.8-5.3-6.7-10.6-6.6-18.3"/>
</g>
<g opacity="0.2">
	<path fill="none" stroke="#AC4C5F" stroke-linecap="round" stroke-linejoin="round" stroke-miterlimit="10" d="M266.8,118.4h-0.2
		l0,0l0,0l-0.1,0.1l0,0h-0.1H266l-0.5-0.1h-0.2h-0.4h-0.1l-0.1,0.1l-0.1,0.2l-0.1,0.1v0.1v0.1l-0.1,0.1h-0.1h-0.4h-0.1h-0.2h-0.3
		h-0.1h-0.1l-0.3-0.2l-0.1-0.1h-0.1h-0.5h-0.3l-0.5,0.3h-0.1l0,0H261l-0.3,0.2h-0.1h-0.1h-0.1h-0.1l-0.1,0.1h-0.1h-0.3h-0.1
		l-0.2,0.1l0,0l0,0l0,0l-0.4,0.3l-0.1,0.1l-0.2,0.1h-0.1h-0.1h-0.2l-0.1,0.1h-0.1l-0.1,0.1l-0.1,0.1l-0.2,0.2h-0.1h-0.2l-0.1,0.1
		l-0.2,0.2h-0.1h-0.2h-0.1l-0.1,0.1l-0.1,0.1l-0.2,0.2h-0.1h-0.1h-0.3h-0.2l-0.3-0.1l-0.3-0.1H255l-0.3,0.1h-0.2h-0.1l-0.2-0.2h-0.1
		H254l-0.2,0.2l-0.1,0.1h-0.1h-0.1h-0.1l-0.4,0.1h-0.1l-0.1,0.1l-0.1,0.2l-0.1,0.2l-0.1,0.1L252,122h-0.2h-0.1h-0.1l-0.6,0.1h-0.1
		l-0.1,0.1h-0.1h-0.1h-0.1l-0.1-0.2l-0.1-0.2l-0.2-0.1l0,0l-0.1-0.1h-0.3l-0.3-0.1h-0.1h-0.1h-0.1l-0.2,0.1h-0.3l-0.2,0.1h-0.2H248
		l0,0l-0.2,0.1h-0.1h-0.1h-0.1h-0.1l-0.1-0.1l-0.1-0.1l0,0h-0.1l-0.3-0.1h-0.1h-0.1h-0.1h-0.1l-0.2,0.1l0,0h-0.1l-0.2,0.1l-0.5,0.1
		h-0.1l-0.7,0.4l-0.3,0.1l-0.2,0.1l-0.2,0.1h-0.1h-0.1h-0.2h-0.4h-0.3h-0.3h-0.2h-0.1H242l-0.2,0.1l0,0h-0.1l0,0h-0.1l-0.1,0.1v0.1
		l0,0v0.1l0,0l0,0h-0.1h-0.1l0,0h-0.1l0,0h-0.1h-0.2l0,0h-0.1h-0.1h-0.1h-0.3h-1h-0.1h-0.1l-0.1-0.1l-0.2-0.1l-0.1-0.1h-0.2h-0.6
		h-0.4l0,0H237h-0.4l-0.4,0.1h-0.3h-0.2l-0.5,0.1h-0.6h-0.1h-0.1h-0.2v-0.2v-0.1l0,0v-0.1l-0.1-0.2l-0.1-0.1l-0.1-0.1h-0.1l-0.3-0.1
		l-0.2-0.1h-0.1H233h-0.1l-0.3-0.2h-0.1h-0.4H232l-0.1-0.1h-0.1h-0.1h-0.1l-0.3,0.1h-0.1h-0.1h-0.2h-0.1l-0.8-0.2l-0.2-0.3l-0.1-0.1
		l-0.4-0.2l-0.2-0.2l-0.1-0.2l-0.1-0.1h-0.1h-0.1l-0.2,0.1h-0.1l0,0h-0.1l-0.4,0.1h-0.1h-0.1h-0.1l-0.1,0.1l-0.2,0.1h-0.2H227
		l-0.2-0.1l-0.3,0.1h-0.1h-0.1l-0.1-0.1h-0.3l0,0l-0.1,0.1h-0.1l0,0l0,0l0,0v0.6l0.1,0.2v0.1l-0.1,0.2v0.2v0.3v0.3v0.2l-0.1,0.1l0,0
		l0,0l0,0l-0.2,0.1l-0.1,0.1v0.1v0.1v0.1l-0.1,0.1H225h-0.1h-0.1l-0.3,0.2l-0.1,0.1l-0.2,0.1l-0.3,0.2h-0.1h-0.1l-0.2-0.1h-0.1h-0.2
		h-0.1H223l-0.2,0.1l-0.4,0.1h-0.1h-0.2h-0.2h-0.1h-0.1l-0.2-0.1l-0.5-0.2l0,0h-0.2h-0.4h-0.1l-0.3-0.1h-0.3h-0.1h-0.1l-0.4,0.3H219
		h-0.2l-0.1,0.2l-0.2,0.2l0,0l-0.1,0.1l-0.1,0.3l-0.4,0.9l-0.1,0.2l-0.1,0.1l0,0l-0.3,0.4l-0.1,0.1l-0.1,0.1l-0.4,0.3l0,0v0.1v0.2
		v0.1h-0.2v0.1l0,0l0,0l-0.1-0.1l-0.2-0.1l0,0h-0.2H216l0,0l-0.1,0.1h-0.1l-0.2,0.3v0.1v0.1l-0.1,0.1v0.1v0.1l-0.1,0.1l-0.2,0.1
		l-0.1,0.1l-0.1,0.1v0.1l-0.1,0.1l-0.1,0.1l-0.1,0.1v0.1v0.1l-0.1,0.1l-0.1,0.2v0.1v0.1l0,0v0.1h-0.1h-0.1h-0.1v0.1v0.1v0.1l0,0v0.1
		v0.1l0,0l0,0v0.1l-0.1,0.2l0,0v0.1l-0.1,0.1l-0.1,0.1h-0.1l0,0l-0.2,0.1l-0.1,0.1l-0.1,0.1l-0.1,0.1l0,0l-0.1,0.2l-0.1,0.1
		l-0.1,0.1l-0.2,0.3l-0.1,0.1l0,0l0,0l-0.1,0.1l-0.1,0.1l-0.1,0.1v0.1v0.1v0.1l-0.1,0.1h-0.1l-0.7,0.2l-0.4,0.1l-0.2,0.1l-0.1,0.1
		l-0.1,0.1l0,0h-0.2h-0.4h-0.3h-0.6h-0.5l-0.2-0.1l-0.2-0.1h-0.2H208h-0.1h-0.1l-0.1,0.1h-0.1h-0.1l-0.1-0.1h-0.1h-0.1l-0.2,0.1
		h-0.1h-0.3l-0.6-0.1h-0.1l-0.2-0.2l0,0l0,0l-0.2,0.1l0,0h-0.1l0,0h-0.1h-0.1H205h-0.1l-0.1,0.1l-0.1,0.1h-0.2l-0.1,0.1l0,0
		l-0.4,0.1l0,0l0,0h-0.1l0,0l-0.3,0.1h-0.1l0,0l-0.1,0.1h-0.1l-0.2,0.1H203h-0.1l-0.4,0.1h-0.4h-0.3h-0.2l0,0l-0.2,0.1l-1.4,1.4v0.1
		l-0.1,0.1h-0.1h-0.1l-0.2-0.1l-0.3-0.1H199h-0.1h-0.1l-0.2,0.1l-0.1,0.1v0.1v0.2l-0.1,0.1h-0.2l0,0l0,0l0,0v0.1v0.2v0.1v0.1h-0.1
		h-0.2l-0.1,0.1l0,0l-0.1,0.2v0.1l0,0h-0.1l-0.3-0.1h-0.1h-0.1H197h-0.1l-0.3-0.1h-0.1h-0.1h-0.1h-0.1v0.1l-0.2,0.4l-0.1,0.1l0,0
		l-0.1,0.1h-0.1l-0.3,0.1l-0.2,0.1l-0.2,0.1l-0.1,0.1l-0.2,0.1h-0.1h-0.2l-0.1,0.1l-0.2,0.2l-0.2,0.1h-0.1l0,0l-0.2,0.3l-0.1,0.2
		l-0.4,0.5l-0.2,0.2l-0.2,0.3l-0.1,0.1l0,0l-0.2,0.2l-0.2,0.4l-0.1,0.2l-0.1,0.1h-0.1h-0.1l0,0l0,0l0,0l-0.1,0.2v0.1l-0.2,0.2
		l-0.2,0.1l-0.1,0.2l0,0l-0.3,0.1l0,0l-0.2,0.2l-0.2,0.1l-0.1,0.1l-0.2,0.5l-0.1,0.2l-0.1,0.1l-0.2,0.2l-0.2,0.2l-0.1,0.1l-0.1-0.1
		l-0.2-0.1v-0.1l-0.1-0.2l-0.1-0.1l-0.2-0.4l-0.1-0.2l-0.1-0.1l-0.1-0.2l-0.1-0.1l-0.1-0.1v-0.1l-0.3,0.3l-0.1,0.3l-0.2,0.1
		l-0.1,0.1v0.1v0.1v0.2v0.1v0.1l0,0l-0.3,0.1l-0.1,0.1l-0.1,0.1l-0.1,0.1l-0.1,0.1v0.1l0,0l0,0l0,0h-0.1h-0.3h-0.3h-0.1l0,0v-0.1
		v-0.1l0.2-0.2l0.1-0.2l0,0l-0.2-0.3l-0.1-0.1l-0.1-0.1l-0.1-0.1l-0.1-0.1h-0.1l0,0l-0.1-0.1h-0.1l-0.1-0.1l0,0l0,0h-0.1h-0.1
		l-0.1,0.1l0,0l0,0l-0.1-0.1h-0.2h-0.2l0,0v0.1l-0.1,0.1h-0.1h-0.1h-0.1h-0.1l0,0H184h-0.1h-0.1h-0.1l-0.2,0.1h-0.1h-0.1l-0.1,0.1
		h-0.1H183h-0.1H182h-0.1v0.1l0,0l-0.1,0.1l-0.1,0.1l0,0l-0.1,0.1l-0.2-0.1l-0.2-0.3l-0.1-0.1l-0.1-0.2h-0.1l0,0h-0.1l0.1-0.1v-0.2
		l-0.2-0.1h-0.1h-0.1h-0.1v0.1v0.1v0.1h-0.1h-0.1h-0.1l0,0H180l0,0l0,0V142l0,0h-0.1l-0.2-0.1v-0.1v-0.1v-0.1v-0.1l-0.1-0.2l0,0
		v-0.1h-0.1l-0.2-0.1h-0.1l-0.2-0.2h-0.2l-0.1-0.1h-0.1h-0.1l-0.1-0.1l0,0l0,0h-0.1h-0.2h-0.4h-0.1H177h-0.2h-0.2h-0.2H176h-0.5
		l-0.3,0.1l-0.2,0.6h-0.4l-0.1,0.1h-0.2h-0.1h-0.1H174h-0.2l0,0l-0.1,0.1h-0.1h-0.1h-0.1h-0.2v-0.1l0,0h-0.1h-0.2h-0.1l-0.2,0.1l0,0
		h-0.2l-0.1-0.1l0,0l0,0l0,0l0,0l0,0l0,0h-0.1l-0.1-0.1l0,0l-0.1,0.1h-0.1l0,0l0,0h-0.1h-0.1l0,0v-0.1v-0.1v-0.1l0,0v-0.1V141
		l0.1-0.2v-0.1h-0.1l0,0l0,0l0,0h-0.1h-0.1l-0.1,0.1l-0.1,0.1l0,0l0,0v-0.1v-0.1v-0.1v-0.1l-0.1-0.1l0,0h-0.1l-0.3,0.1l0,0h-0.1l0,0
		l-0.1-0.1l0,0h-0.1l0,0l0,0l0,0h-0.1h-0.2l0,0h-0.3h-0.1h-0.2h-0.1h-0.2h-0.2H169h-0.3l-0.3-0.1h-0.2l-0.2-0.1h-0.1h-0.1h-0.1
		l-0.2,0.1h-0.2l-0.3,0.1h-0.1l-0.2,0.1h-0.1h-0.1l-0.1-0.1l0,0h-0.1l-0.1-0.1h-0.1l0,0l0,0v-0.1v-0.1V140l0,0l0,0v-0.1v-0.1l0,0
		h-0.2l0,0l0,0v-0.1v-0.1v-0.2l-0.1-0.2l0,0l-0.1,0.1l0,0l-0.1,0.1h-0.1l0,0l0,0l0,0v-0.1l-0.1-0.1V139v-0.2v-0.1v-0.1l0,0v-0.1l0,0
		v-0.1l0,0v-0.3V138v-0.3v-0.1h-0.1h-0.1h-0.1H165l-0.2-0.1h-0.1l-0.2-0.1l-0.2-0.1h-0.1h-0.1l-0.1-0.1h-0.1h-0.1l0,0l-0.1,0.1l0,0
		h-0.1h-0.1h-0.1h-0.1l0,0l-0.1-0.1l-0.1-0.1H163l0,0l-0.1,0.1l0,0l0,0l0,0l0,0l-0.1,0.1h-0.1h-0.1l0,0h-0.1v-0.1l0,0h-0.1h-0.1
		h-0.1h-0.1H161h-0.1h-0.1l-0.4,0.1l0,0l0,0h-0.1h-0.1v0.1l0,0l0,0H160h-0.1l-0.1,0.2l0,0h-0.1l0,0h-0.1h-0.1h-0.1h-0.1h-0.1
		l-0.1,0.1l-0.1,0.1l0,0l-0.1,0.1h-0.1v0.1v0.1l-0.1,0.1h-0.1l0,0h-0.1h-0.2l-0.2,0.1H158l-0.1-0.1l0,0h-0.1l0,0l0,0h-0.2h-0.1h-0.1
		l-0.1-0.1V138l-0.1-0.1l-0.1-0.1v-0.1v-0.1l0,0h-0.2h-0.1h-0.1h-0.1h-0.1l-0.2,0.3v0.1v0.1l0.1,0.1l0.2,0.3v0.1v0.2v0.1l-0.2,0.1
		h-0.2h-0.1l-0.2,0.1l-0.1,0.1l-0.1,0.1l0,0l-0.2,0.2l-0.1,0.1l-0.4,0.3l-0.1,0.1l0,0h-0.1l-0.2,0.1h-0.2h-0.1h-0.2H154h-0.1h-0.2
		h-0.3h-0.1h-0.1h-0.1H153h-0.1h-0.1l-0.1,0.1h-0.1h-0.1l0,0h-0.1h-0.1l0,0v0.1h-0.1l0,0l0,0h-0.1h-0.2l0,0h-0.1l0,0h-0.3h-0.3
		l-0.1,0.1l0,0H151l-0.1,0.1h-0.1h-0.1l-0.7,0.1h-0.2h-0.1l0,0h-0.2h-0.1h-0.3H149l0,0h-0.2h-0.3l-0.1,0.1l-0.2,0.1h-0.3h-0.2h-0.1
		h-0.1l0,0h-0.1H147h-0.1l0,0h-0.3h-0.1h-0.1l-0.2,0.1h-0.1H146h-0.3l0,0h-0.3l-0.3-0.1l-0.3-0.1h-0.1l-0.1-0.1v-0.1v-0.1l0,0
		l-0.1-0.1v-0.1v-0.1V140v-0.1l-0.1-0.1l-0.1-0.1v-0.1v-0.1v-0.2h-0.6h-0.2h-0.1l-0.2,0.2l0,0h-0.1l-0.3-0.1l0,0h-0.1l-0.4-0.1
		l-0.4-0.1l-0.2-0.1h-0.1h-0.2h-0.1l-0.2,0.1l0,0v0.1l0,0l-0.1,0.1l-0.1,0.2l-0.2,0.2h-0.2l0,0l-0.1-0.1h-0.1l-0.1-0.1l-0.2-0.1l0,0
		l0,0h-0.1h-0.1l-0.4-0.1l-0.4-0.2l0,0h-0.1h-0.1v-0.1v-0.2v-0.1v-0.3l-0.1-0.1V138l0.2-0.1l0.2-0.1h0.1l0,0H139l-0.2-0.1l-0.2-0.1
		l-0.4-0.1l0,0l0,0h-0.1l0,0h-0.2l-0.3-0.1l-0.1-0.1l-0.1-0.1V137l-0.2-0.2h-0.1H137l-0.4-0.1l0,0h-0.1l-0.3-0.1l-0.2-0.1l-0.2-0.1
		h-0.1l-0.2-0.2h-0.1h-0.1h-0.1l-0.4,0.1h-0.2h-0.2l-0.3-0.1H134h-0.1l-0.1,0.1l-0.1,0.1l-0.1,0.1l0,0l0,0l0.1,0.1l0.1,0.1v0.1l0,0
		v0.1h-0.1h-0.1h-0.1h-0.1h-0.1l-0.1-0.2l-0.1-0.1l0,0l0,0v-0.1l0.1-0.1v-0.1h-0.1H133h-0.1h-0.2l-0.3-0.1l-0.1-0.1v-0.2l0.1-0.1
		l0.1-0.1h0.1h0.1l0,0l0,0h-0.2l0,0v-0.1l-0.1-0.2l-0.1-0.1l-0.1-0.2l0,0l0,0l0,0v0.1v0.1l0,0h-0.1l0,0l-0.1-0.1l-0.1-0.1h-0.2
		l-0.1-0.1h-0.1l0,0l-0.2-0.3l-0.1-0.1l-0.1-0.1l0,0l0,0l0,0h0.1v-0.1v-0.1H131l-0.1-0.1l-0.1-0.2l0,0l0,0l0,0l0,0l0.1-0.1v-0.1l0,0
		h0.1v-0.2v-0.2v-0.1l0,0h-0.1l0,0l0,0v-0.2V133l0.1-0.1l0.1-0.2l0.1-0.1l0.1-0.1v-0.2l0,0h-0.2H131l0,0l0,0l0.2-0.2h0.1l0,0h0.1
		V132v-0.1l0.1-0.1l0.3-0.2l0.1-0.1l0.1-0.3v-0.1V131v-0.1v-0.1l-0.1-0.3l-0.1-0.1v-0.2h-0.1v-0.1l-0.1-0.1l0,0l0,0h0.1l0,0l0,0
		v-0.1l0,0l0,0l0,0v0.1l0,0l0,0l-0.1-0.1h-0.1h-0.1l0,0l0,0h-0.1l0,0l0.1,0.1l0,0l0,0v0.1l0,0l0,0h-0.1h-0.1l0,0l0,0h-0.1H131h-0.1
		l0,0l0,0l0,0l0,0l0,0l0,0V130v-0.1h0.1h0.1h0.1v-0.1v-0.1v-0.1l-0.1-0.1l-0.1-0.1v-0.1v-0.1v-0.1l0,0V129l0,0"/>
</g>
<path opacity="0.2" fill="none" stroke="#64A869" stroke-linecap="round" stroke-linejoin="round" d="M658.5,117.9l0.1-1.1l0.1-0.2
	l0.1-0.2v-0.1V116v-0.1v-0.1l0.1-0.6V115v-0.3l-0.1-0.4l-0.2-0.8v-0.2v0.1v-0.1l0.2-0.4l0.1-0.3l0.5-1.3l-0.1-0.1l-0.2-0.2H659h-0.1
	h-0.3h-0.1l-0.2-0.2v-0.1v-0.1l0.1-0.1l0.2-0.2l0.1-0.1l0.2-0.5v-0.3v-0.3l-0.1-0.4l-0.4-0.5l-0.1-0.3l-0.1-0.5l-0.1-0.1l-0.1-0.2
	l-0.3-0.2l-0.1-0.1h-0.3l-0.2-0.5v-0.5l0.3-0.5l0.1-0.2l0.1-0.3v-0.3l0.1-0.5l0.1-0.1l0.3-0.2l0.1-0.3v-0.1v-0.2l0.1-0.4v-0.1
	l-0.2-0.2l-0.1-0.3V102v-0.1l0.1-0.1l0.1-0.2l0.3-0.7l0.1-0.3l0.1-0.7l0.1-0.3l0.1-0.3l0.2-0.4l-0.1-0.2l0.1-0.2l0.1-0.3l0.2-0.6
	v-0.2l-0.1-0.2v-0.3v-0.1l-0.1-0.1l-0.4-0.3v-0.1l0.1-0.1l0.7-0.3v-0.1v-0.2l0.4-0.7v-0.3l0.1-0.2l0.2-0.4l0.1-0.2l0.1-0.2l0.1-0.3
	l0.1-0.2v-0.2l0.3-0.8v-0.2l0.2-0.5l0.3-0.7l0.1-0.3v-0.2l0.2-0.5l0.2-0.4l0.3-0.6l0.3-0.6l0.2-0.3v-0.1v-0.1v-0.1l0.1-0.2l0.2-0.4
	l0.3-0.5l0.1-0.2l0.2-0.5l0.3-0.6l0.1-0.1l0.2-0.2l0.1-0.2l0.1-0.3l0.1-0.4l0.1-0.6v-0.2v-0.2v-0.3v-0.1l0.1-0.1l0.4-0.2l0.1-0.2
	l0.1-0.2l0.1-0.5v-0.1l0.1-0.4l0.1-1l0,0l0.1-0.1l0.1-0.1l0,0v-0.1l0.1-0.8v-0.1l0.1-0.2v-0.1v-0.1l0.1-0.2l0.1-0.1l0.2-0.4v-0.1
	l0,0l0.1-0.2V77v0.4v-0.1v-0.1l0,0V77l0.1-0.1l0.1-0.1l0.1-0.1l-0.1-0.1l0.1-0.1l0.1-0.1l0.2-0.1h0.1l0.2-0.1h0.1l0.2-0.1h0.1
	l0.4-0.1h0.1l0.1,0.1l0.2,0.2l0.4-0.2l0.5-0.4l0.5-0.3l0.1-0.2l0.2-0.3l0.2-0.4l0.1-0.2l0,0l0.3-0.5l0.1-0.1l-0.2-0.3l-0.1-0.2
	l-0.4-0.7v-0.1l-0.2-0.3l-0.1-0.2l-0.2-0.3l-0.2-0.2l-0.3-0.3l-1.7-1.8l-0.1-0.2l-0.1-0.1l-0.1-0.6v-0.1l-0.1-0.4l-0.1-0.8l-0.1-0.4
	v-0.1v-0.2v-0.2l-0.3-1.2l-0.3-0.3l-0.5-0.5l-0.1-0.2v-0.2l-0.7-1.5l-0.2-0.4l-1.3-4.8l1.4-0.4l0.7,0.1l1.1-0.3l2.4,0.4l0.6-0.2
	l0.2-0.1h0.1l0.1-0.1l0.2-0.1l0.1-0.1l1.3-0.8l0,0l1.2-0.7l0.7-0.4l0.3-0.1l0.4,0.1l0.1-0.1l0.1,0.1l0.4,0.1l0.6,0.1h0.8l1.4,0.1
	l0.5-0.2l0.1-0.1l0.3-0.3l0.1-0.1h0.1l1,0.2l0.1-0.3v-0.1v-0.1v-0.1v-0.1v-0.2v-0.1v-0.1V53H680l-0.2-0.1h-0.1l-0.1-0.1l-0.1-0.1
	l-0.1-0.1l-0.1-0.1l-0.1-0.1l0,0l-0.1-0.1l-0.1-0.1l-0.4-0.4l-0.2-0.1l-0.1-0.1l-0.3-0.2l-0.1-0.1l-0.1-0.1v-0.1V51l0.1-1.4l0.1-0.2
	l0.1-0.2l0.9,0.2v-0.2V49l-0.1-1v-0.2l0,0v-0.1l-0.1-0.3v-0.3v-0.2l-0.3-1v-0.2v-0.1l-0.1-0.1h-0.5h-0.1h-0.2l-0.4-0.4l-0.5-0.5
	l-0.1-0.2l-0.1-0.2l-0.1-0.1l0.1-0.3v-0.6V43l-0.1-0.3l0.3-0.4l0.3-0.2l0.5-0.9l0.2-0.2l0.3-0.6v-0.1l0,0.1l0.1-0.3v-0.2v-0.1l0,0
	l0.1-0.2l0.2-0.2l0.3-0.2l0.4-0.7l0.9-1.1l0.1-0.2l0.2-0.3l0.3-0.1l0.1-0.1l0.1-0.1l0.1-0.1l0.6-0.8l0.1-0.3v-0.1v-0.2v-0.4l0.1-0.2
	l0.3-0.3l0.1-0.1l0.1-0.1l0,0l0,0v-0.1l0.1-0.3v-0.3l0.1-0.3l0,0v-0.1v-0.1l0.4-0.2l0.1-0.1l0.4-0.3l0.4-0.3l0.1-0.1v-0.2v-0.1v-0.1
	l0.1-0.4v-0.1l0,0v-0.1l0.1-0.4l0.1-0.2l0.1-0.2v-0.2v-0.1v-0.2v-0.4V29l0,0v-0.1v-0.1v-0.3l0.2-0.6v-0.1v-0.1v-0.1l-0.1-0.2
	l-0.1-0.1l0,0l0,0v-0.1v-0.1V27v-0.1v-0.1v-0.2v-0.2l-0.1-0.4v-0.2v-0.1l0,0l0.1-0.5l0.2-0.3l0.3-0.4l0,0v-0.1v-0.1l-0.1-0.2V24
	v-0.1l0.2-0.6l0.1-0.4v-0.1v-0.1l-0.1-0.2v-0.2l-0.1-0.6l0.1-0.4v-0.1V21l0,0l0,0v-0.2v-0.2v-0.1v-0.1l0.1-0.4l0.2-0.3l0.1-0.2
	l0.1-0.2l0.1-0.3v-0.3v-0.2l0.2-0.4l0.1-0.3l0.1-0.2l0.2-0.7l0.1-0.8l0.2-0.4v-0.1l0.1-0.7v-0.1v-0.2v-0.1v-0.1l-0.1-0.2V14l0.1-0.8
	l0.1-1l-0.4-1.2l-0.1-0.2l-0.1-0.3l-0.2-0.5l-0.1-0.4l-0.1-0.3l-0.1-0.2l-0.3-0.3V8.7L685,8.4l-0.4-0.7l-0.1-0.2l-0.1-0.2L684.3,7
	l-0.1-0.1V6.7V6.5V6.4l-0.1-0.1l-0.8-0.7l0.4-1.2l0,0l0.3,0l0.1-0.3V3.9L684,3.6l-0.3-0.9l-0.1-0.2l-0.2-0.4l-0.1-0.3V1.7V0.9V0.6
	l0,0l0,0h0.1l0.6-0.1l0.2-0.1l0.2-0.1l0.2,0.1l0.1-0.1V0.2L684.6,0v-0.1v-0.1l0.2-0.3l0.1-0.1v-0.1v-0.1l0.1-0.3v-0.4 M673.6,126.8
	l-0.3,2.6h-0.2l0,0l-0.6,0.1h-0.1h-0.1l-0.2,0.1l-0.1,0.1l-0.1,0.1v0.1h-0.1l-0.1-0.2l0.1-0.2l0.1-0.1l0.1-0.1v-0.1v-0.1V129
	l-0.3-0.1h-0.1l-0.1,0.1l-0.1,0.1l-0.1,0.1v0.3l0.1,0.2l0.1,0.5v0.1l-0.1,0.1v0.1l-0.1,0.2l-0.2,0.1L671,131l0.7,0.9l-0.4,0.4v0.1
	v0.3v0.2l-0.1,0.3l-0.2,0.1l-0.1,0.1l-0.2,0.2l-0.2,0.2l-0.2,0.3l-1,0.9l-0.3,0.3l-0.1,0.1l-0.1,0.2h-0.1l0.1,0.2v0.9v1.4L668,138
	l-0.8-0.1l-4,1h-0.3l-0.2-0.1l-0.2-0.1h-0.2l-0.6-0.1h-0.2l-0.6,0.1l-0.7-0.1l-0.2-0.2l-0.2,0.2l-0.3,0.2l-0.7,0.3l-0.1,0.1
	l-0.4,0.1l-1.5,0.5l-0.6,0.2l-0.6,0.4l-0.8,0.5l-0.2,0.3l-0.1,0.5l-0.1,0.1l-0.1,0.1l-0.4,0.1l-0.2,0.1l-0.2,0.1l-0.2,0.1l-0.4,0.2
	h-0.2h-0.2l-0.2,0.1l-0.2,0.1l-0.2,0.3l-0.5,0.6l-0.2,0.4l-0.1,0.1l-0.2,0.2l0.8,1.2l0.2,0.2l0.2,1.1l-0.1,0.5l0.2,0.5l-0.2,0.3
	l-0.2,0.1l-0.2,0.2l-0.2,0.2l-0.3,0.5l-0.1,0.4v0.4v0.2l0.1,0.5l0.1,0.5v0.2v0.3l0.1,0.3l-0.7,1.8v0.5l-0.2,0.5v0.8l-0.2,0.2
	l-0.2,0.2l-0.2,0.1l-0.3,0.1l0.6,0.4l0.2,0.2l0.2,0.1l0.5,0.3l0.1,0.4l0.4,0.4l-0.1,0.2l-0.9,0.5l-0.2,0.2l-0.1,0.2l0.1,0.3l0.2,0.5
	v0.5l-0.1,0.3l-0.2,0.2l-0.2,0.1l-1.2,0.4l-0.9-0.1l0,0l-0.1,0.3h-0.1l-0.1,0.1l0,0v0.1l-0.1,0.3l-0.2,0.1l-0.1,0.1l-0.3,0.7
	l-0.4,0.2v0.2l0.2,0.5v0.1l-0.1,0.1l-0.1,0.1l-0.1,0.1l-0.2,0.2l-0.5,0.1l-0.2,0.1l-0.3,0.1H645l0,0l0,0l-0.1,0.1l-0.2,0.2l-0.1,0.1
	l-0.1,0.1l-0.1,0.1l-0.1,0.1l-0.1,0.1h-0.1h-0.2h-0.1l-0.1,0.1l-0.1,0.2l-0.1,0.1l-0.1,0.3v0.1l-0.1,0.3v0.1l-0.2,0.1l-0.2,0.1
	l-0.3,0.3l-0.1,0.1l-0.1,0.2v0.1v0.5v-0.3l-0.1,0.9v0.2v0.1l-0.1,0.1l-0.1,0.1l0,0H642h-0.2h-0.1l-0.4-0.2h-0.2h-0.2l-0.2,0.1
	l-0.3,0.2l-0.1,0.1l-0.4,0.1l-0.4,0.2h-0.1l-0.3,0.1l-0.3,0.1l-0.1,0.1l-0.1,0.1l-0.1,0.2l-0.1,0.1l-0.4,0.3l-0.2,0.1h-0.3h-0.2
	h-0.1l-0.4,0.2l-0.3,0.1l-0.2,0.1h-0.2l-0.1,0.1l-0.1,0.1l-0.1,0.1l-0.2,0.3l0,0h-0.1l-0.4,0.1l-0.3-0.1h-0.3H634l-0.3-0.1h-0.1
	l-0.1,0.1l-0.3,0.3l-0.5,0.5l-0.2,0.2h-0.1h-0.1h-0.2l-0.2-0.1h-0.1h-0.1h-0.1l-0.3-0.1h-0.1l0,0l-0.2-0.1v0.1l-0.1,0.2l-0.1,0.3
	l-0.6-0.1h-3l-0.7-0.2l-0.6,0.6v0.7l0.3,0.6l-0.1,1.1v0.2l0.1,0.3l0.3,0.7v0.3l0.2,0.6l-0.1,0.8l0.1,0.2l0.1,0.2l0.1,0.2l-0.1,0.6
	l0.7,0.2l1.3,1.6l0.2,0.3l0.5,0.7l0.3,0.3l0.4,0.5h0.1v1.1l-0.1,0.3l-0.1,0.3v0.2v0.6v0.4v0.1l0.4,0.9v0.1v0.5l0.1,0.4l-0.1,0.7v1.5
	l0.1,0.9v0.2v0.3v0.5v0.2l-0.1,0.1l-0.3,0.9l-0.1,0.3l-0.1,0.1l-0.2,0.3l-0.1,0.1l-0.2,0.1l-0.3,0.3l-0.2,0.2l-0.1,0.1v0.1l-0.1,1
	h-0.2l-0.1,0.1l-0.7-0.3l-0.3-0.1h-0.2h-0.1H627l-0.4,0.1h-0.1l-0.3-0.1l-0.4,0.1l-0.5,0.1l-0.1,0.1l-0.1,0.2l-0.1,0.1v0.2v0.1
	l0.1,0.5l-0.1,0.2l-0.3,0.3l-0.1,0.1l-0.5,0.5l-0.1,0.2l-0.1,0.3h-0.2h-0.1l-0.2,0.1h-0.1H623h-0.1h-0.3l-0.4-0.1v-0.2v-0.1
	l-0.2-0.2l-0.2-0.3l-0.2-0.2l-0.1-0.2v-0.1v-2.3v0.2v-0.3v-0.1v-0.1l-0.3-0.2l-0.5-0.1l-0.2-0.2l-0.2-0.1l0.1-0.4l0.1-0.3v-0.2
	l-0.2-0.8v-0.3l0.1-0.3l-0.6,0.3l-0.2,0.1l-0.2,0.1l0,0l-0.1,0.2l0,0l0,0v-0.2h-0.2l-0.5-0.2l-0.3-0.1l-0.2-0.1l-0.3-0.1h-0.2h-0.2
	l-0.2,0.1h-0.1H617l-0.4-0.1l-0.3,0.1l-0.3,0.1h-0.1l-0.5-0.1l0,0l-0.9-0.3l-0.4-0.4l-0.1-0.2l-0.2-0.1l0,0l-0.2-0.1l-0.4-0.1H613
	h-0.1l-0.1-0.1l-0.1-0.1l-0.1-0.2l0,0l-0.1-0.1l-0.1-0.1h-0.1h-0.1h-0.1h-0.2l-0.2,0.1l0,0h-0.1h-0.1h-0.1l-0.1-0.1h-0.1H611h-0.1
	l-0.2,0.1l0,0h-0.2h-0.1l-0.1-0.4V190l-0.1-0.2l-0.1-0.1v-0.1v-0.1v-0.1l-0.1-0.1l-0.1-0.2l-0.1-0.1l-0.2-0.2h-0.1l-0.2-0.2
	l-0.3-0.3v-0.1h-0.1h-0.1h-0.1l-0.1-0.1l-0.1-0.1l-0.1-0.2l-0.2-0.5v-0.1L608,187l-0.2-0.4l-0.2-0.4l0,0l-0.3-0.4l-0.1-0.3l-0.1-0.2
	v-0.2H607l-0.1,0.1l-1.4,1.2l-0.1,0.1v0.2l-0.2,0.4l-0.2,0.2l-0.1,0.2l-0.1,0.1l-0.3,0.2l-0.4,0.2l-0.4-0.2v0.1h-0.1h-0.2h-0.1l0,0
	l-0.1,0.6l-0.1,0.5l-0.1,0.3v0.7v0.3l-0.1,0.3l-0.1,0.3h-0.1h-0.2h-0.2h-0.1H602l-0.3,0.1h-0.1l-0.2,0.1h-0.2H601v0.8l-0.4,0.3
	l-0.6,0.6l-0.1,0.1l-0.1,0.1l-0.1,0.2l-0.2,0.2l-0.1,0.1l-0.6,0.2v0.3l-0.1,0.3l-0.3,0.7l-0.2,0.3l-0.1,0.2l-0.2-0.1l-0.3-0.2
	l-0.5-0.2l-0.1-0.1h-0.1h-0.2l-0.3,0.2l-0.3,0.1l-0.1,0.1l-0.2,0.3l-0.1,0.1l-0.1,0.2l-0.1,0.2l-0.1,0.1l-0.5,0.3l-0.3,0.3l-0.1,0.1
	l-0.3,0.1l-0.1,0.1l-0.4,0.3l-0.1,0.1l-0.5,0.3l-0.2,0.1l-0.3-0.2l-0.3-0.1h-0.1l-0.1,0.1l-0.1,0.1l-0.1,0.1l-0.1,0.1h-0.2h-0.3
	l-0.2,0.1l-2.2,1l0,0v0.1l0.3,1.2l0.1,0.3v0.3l0.1,1.5l0.1,0.2l0.6,1.3v0.4l-0.3,0.7l0.5,0.9v0.2v0.1v0.1l0.1,0.5l0.1,1.5v0.1
	l-0.2,0.4l-0.8,0.4l-0.2,0.1l-0.2,0.1h-0.2l-0.1,0.1l-0.3,0.3l-0.6,0.9l-0.4,0.4l-0.1,0.1l-0.4,0.1l-0.2,0.1l-0.1,0.1H586l0,0l0,0
	v0.2v0.1l0.1,0.1v0.1l-0.1,0.1v0.2v0.5l-0.1,0.5l-0.1,0.1l-0.3,0.3l-0.2,0.4l-0.2,0.2H585h-0.1l-0.1-0.1l-0.3-0.3h-0.1h-0.1
	l-0.5,0.3h-0.1l-0.4-0.1h-0.1v0.1v0.2l-0.1,0.1l-0.1,0.1l-0.1,0.2l-0.1,0.1l-0.1,0.1h-0.1l-0.1-0.1h-0.1l-0.8,0.7l-0.3,0.1l-0.1,0.1
	L581,216l-0.1,0.1l-0.1,0.2v0.2l-0.1,0.1l-0.2,0.3l0.2,0.3v0.1l-0.1,0.3l0.1,1v0.1l-0.6,0.8l-0.7,1l-0.3,1.5v1.1l-0.1,0.3l0.1,0.8
	l-0.3,1.4v0.5v0.2l0.1,0.4v0.2l-0.5,1.1l-0.4,1l-0.1,0.2l-0.2,0.4l-0.2,0.5v0.5v0.5l0.1,0.8v0.2l0.1,0.1l0.3,0.3v0.1l0.1,0.5v0.2
	l-0.1,0.6l0.8-0.5h0.1l0.8,0.2l0.1,0.1l0.1,0.3l0.1,0.2l0.4,0.6l0.3,0.7l0.5,0.7l0.3,0.8l0.1,0.2l0.4,0.4l0.4,0.8l0.2,1.1l0.1,0.2
	v0.1l-0.1,0.4l0.1,0.9v0.2v0.2l-0.2,0.2l-0.4,0.4l-0.2,0.1l-0.3,0.2l-0.6,0.3l-0.5,0.3l-0.7,0.3l-0.2,0.1l-0.3,0.1l-0.3-0.1
	l-0.2-0.1l0,0l-0.3-0.2l-0.2-0.1h-0.1h-0.1l-0.2,0.1l-0.5,0.2l-1,0.4l-0.9,0.4l-0.2,0.1l-0.3,0.1h-0.1l-0.3,0.1l-0.4,0.2l0.1,0.7
	l-0.1,0.2l-0.1,0.3L574,246l-0.1,0.2v0.1v0.1l-0.2,0.5v0.1v0.2l0.3,0.4l0.2,0.1l0.1,0.1l-1.1,0.3l-0.1,0.1l0,0l-0.1,0.1l-0.1,0.1
	l-0.1,0.1l-0.1,0.1l-0.4,0.3l-0.3,0.2l-0.1,0.1l-0.1,0.2l-0.1,0.1l-0.1,0.1l-0.1,0.1l-0.5,1v0.1l-0.1,0.3l-0.1,0.3l-0.1,0.2
	l-0.1,0.2l-0.1,0.3l-0.1,0.2v0.1l-0.2,0.4l-0.2,0.4l-0.1,0.1l-0.1,0.1l-0.1,0.1l-0.1,0.1l-0.1,0.2l-0.3,0.7l0,0l0.2,0.4l0.1,0.2v0.3
	l-0.1,1.4v0.4v0.1l0.1,0.4l-0.4,0.1H569v0.1l-1.1,0.1l-1,0.1l0.2,2.7l0,0l-0.1,0.3l-0.2,0.2l-0.1,0.1l-0.1,0.2v0.2l0.3,0.7v0.4
	l0.1,0.2h-0.1l-0.3,0.6v0.2l0.1,0.2l0.2,1.3l0.2,0.4l0.6,0.4l0.2,0.4v0.3l-0.3,0.4v0.1 M562.7,289.8l-0.4,0.2h-0.1H562l-0.4-0.1
	l-0.1,0.3v0.2l0,0l-0.1,0.4v0.1v0.1l0,0l-0.1,0.1l-0.3,0.2l-0.1,0.1l-0.1,0.1l-0.1,0.1h-0.1h-0.1v-0.1v-0.1v-0.1v-0.1v-0.1V291v-0.2
	v-0.2l0,0v-0.1v-0.1v-0.1v-0.1l-0.1-0.2v-0.1v-0.1l-0.1-0.4v-0.1l-0.1-0.3l-0.1-0.2l-0.1-0.1l-0.2-0.3l-0.1-0.1l-0.1-0.1l-0.1-0.1
	h-0.1l0,0l-0.1-0.1l-0.1-0.1l-0.2-0.1l0,0l-0.3-0.1l-0.3-0.1l0,0l0,0l0,0l-0.4-0.1l0,0h-0.1h-0.1l-0.4-0.1l-2-0.6l-0.2-0.1l-0.2-0.1
	l-2-0.6l-1.2-0.3l-0.6-0.2l-0.3-0.1l0,0l0,0l-0.9-0.3l0,0l-0.1-0.1h-0.1l-0.1-0.1l-0.4-0.1l-1.2-0.4l-0.5-0.1l-0.3-0.1l-0.1-0.1
	l-1-0.3l-0.5-0.2l0,0l-0.6-0.2H545l-1.5-0.5l0,0l-0.2-0.1l-1.3-0.4l-0.5-0.1l-0.6-0.2l-0.4-0.1l-0.4-0.1l-0.5-0.2l-0.2-0.1l-0.1-0.1
	l-0.1-0.1l-0.1-0.1l-0.1-0.5l-0.1-0.2l-0.1-0.2l-0.4-0.3l-0.2,0.3l-0.4,0.3l-0.8,0.7l0,0v0.1l-0.1,0.3l0.1,0.2v0.2h-0.2l-0.1,0.1
	l-0.1,0.1l-0.2,0.1l-0.2,0.3l-0.1,0.1L536,283h-0.3l-0.1,0.1l-0.1,0.1l-0.2,0.3l-0.1,0.1v0.4v0.1l-0.2,0.1l-0.2,0.1l-0.2,0.1
	l-0.2,0.1h-0.1l-0.2,0.2l-0.2,0.3l-0.1,0.1l0,0l-0.4,0.1l-0.2,0.1l-0.1,0.1v0.1l0.1,0.4v0.1v0.1l-0.1,0.2v0.1l-0.1,0.2v0.1l-0.1,0.1
	l-0.1,0.1l-0.2-0.3l0,0l-0.1-0.1v-0.1l-0.1-0.1l-0.7-0.4l-0.2-0.1l-0.1-0.1h-0.1h-0.2l0,0H531h-0.1l-0.2-0.1l-0.3-0.1h-0.1l-0.2-0.1
	H530h-0.2h-0.1h-0.1h-0.1h-0.1h-0.1l-0.4-0.3l0,0l-0.2,0.2l-0.1,0.1l-0.1,0.1l-0.1,0.1l-0.1,0.1l-0.1,0.1l-0.1,0.1l-0.3,0.3
	l-0.1,0.1l-0.1,0.1v0.1l-0.1,0.3v0.1l-0.1,0.2l-0.1,0.1l-0.1,0.1l-0.2,0.2l-0.1,0.2l-0.1,0.1l-0.3,0.3l-0.2,0.3l0,0l0,0l-0.1,0.1
	l-0.1,0.1l-0.4,0.8l-0.1,0.2l0,0l-0.1,0.1v0.1l-0.1,0.2l-0.1,0.1l-0.2,0.3v0.1l-0.1,0.2l-0.1,0.3l0,0l-0.1,0.2v0.1l-0.1,0.3v0.3v0.1
	l-0.1,0.1l-0.1,0.1l-0.1,0.1l-0.1,0.1l-0.2,0.1l-0.1,0.2l-0.1,0.1v0.1v0.1l0.1,0.4l-0.2,0.1l-0.3,0.2l-0.2,0.2l-0.1,0.1l-0.4,0.3
	l-0.1,0.1l-0.2,0.2l-0.1,0.1l-0.1,0.1h-0.1l0,0l0,0h-0.1h-0.3h-0.1H521l0,0h-0.1h-0.1h-0.1l-0.4,0.1h-0.1H520h-0.1l0,0h-0.1h-0.1
	h-0.1l0,0l0,0h-0.1h-0.1h-0.1h-0.1H519l0,0h-0.1h-0.1h-0.1h-0.1h-0.1h-0.1h-0.1h-0.1h-0.1H518h-0.1l-0.4,0.1l-0.6,0.2l-0.5,0.2l0,0
	l0,0l-0.5,0.2l0.1-1.2v0.1v0.1v0.2v0.4v-0.1v0.2l-0.2,0.1l0,0l-0.3,0.1h-0.1l-0.4,0.1l-0.6,0.1h-0.2h-0.1H514l-0.4,0.2h-0.1h-0.1
	l0,0l0,0l-0.1,0.1l-0.1-0.1l-0.1-0.1l-0.1-0.1l-0.1-0.1l-0.1-0.2l-0.1-0.1v-0.1v-0.1V295v-0.9l0,0v0.7v-0.6v0.4V294l-0.1-0.1
	l-0.1-0.2l0,0l-0.1-0.1l-0.1,0.1l-0.1,0.1l-0.1,0.1l-0.2,0.1l-0.4,0.3l-0.1,0.1l-0.1,0.1l0,0l-0.1,0.1l0,0h-0.1h-0.3h-0.3h-0.2
	l-0.2,0.1l0,0h-0.2l-0.4-0.1H509"/>
<g opacity="0.2">
	<path fill="none" stroke="#C1B164" stroke-linecap="round" stroke-linejoin="round" d="M222.4,78.4"/>
	<path fill="none" stroke="#C1B164" stroke-linecap="round" stroke-linejoin="round" d="M428.1,76.1l-0.2,0.2l-0.1,0.1l-0.1,0.1
		l-0.2,0.2l-0.1,0.1v0.1v0.3l-0.1,0.3l-0.1,0.3l0,0v0.1l-0.1,0.3l-0.1,0.3v0.2l0.1,0.2l0.2,0.3l0.1,0.6v0.1l-0.3,0.3l-0.3,0.4
		l-0.1,0.1h-0.1l-0.5,0.1l0,0l-0.5,0.3l-0.3,0.1l-0.1,0.1l-0.2,0.4v0.1l-0.1,0.2v0.1l-0.1,0.3l0,0l-0.1,0.3v0.2l0,0l-0.1,0.2
		l-0.1,0.1l-0.3,0.3l-0.4,0.3l-0.3,0.2l-0.1,0.2l-0.1,0.1l-0.3,0.1l-0.5,0.2l-0.1,0.1l0,0l-0.3,0.2l-0.2,0.1l-0.2,0.1l0,0v0.1v0.1
		l-0.1,0.1h-0.1l0.1,0.2v0.1v0.1v0.1V86l0.1,0.3v0.4V87v0.1l-0.1,0.1v0.1l-0.1,0.4l-0.2,0.3l-0.2,0.3l-0.3,0.2v0.1v0.1v0.2l-0.1,0.1
		l-0.1,0.1l-0.1,0.1l-0.3,0.1v0.1v0.1v0.2v0.1v0.1v0.3l-0.1,0.2l-0.2,0.4l-0.3,0.3l-0.2,0.2l0,0l-0.1,0.2l-0.2,0.4L419,92l-0.3,0.3
		l-0.3,0.2l-0.2,0.2l-0.3,0.3l-0.2,0.2v0.1l-0.2,0.4v0.1l0.1,0.2v0.1v0.2l-0.2,0.5v0.1l-0.1,0.1v0.1l-0.1,0.4v0.6l-0.1,0.4v0.4
		l-0.2,0.7v0.1l-0.5,0.5l-0.1,0.2l-0.2,0.2l-0.1,0.2l-0.1,0.1V99h-0.1h-0.2l-0.3,0.1l-0.1,0.1v0.1l-0.3,0.9l-0.1,0.1l-0.1,0.1h-0.4
		h-0.4h-1H412l-0.1,0.1l-0.3,0.4l-0.2,0.2l-0.4,0.1l-0.4,0.3l-0.5,0.4l0,0l-0.5,0.4v0.1h-0.1h-0.2h-0.1h-0.1l-0.4-0.2h-0.1h-0.2
		h-0.3h-1v0.1v0.1l-0.1,0.3l0.1,0.3l0.5,0.5v0.1v0.1v0.1l-0.2,0.3l-0.1,0.2l-0.1,0.2l-0.1,0.1l-0.1,0.1l-0.4,0.2l-0.5,0.1l-0.2,0.1
		l-0.1,0.1v0.1l-0.1,0.2l-0.1,0.2l0,0l-0.7,0.3l-0.2,0.1l-0.1,0.1l-0.1,0.1l-0.2,0.1h-0.1H404h-0.3h-0.1l-0.1,0.1v0.1v0.1v0.5v0.1
		l-0.1,0.1l-0.3,0.1H403l-0.5-0.2h-0.1h-0.1l-0.1,0.1l-0.1,0.1L402,108v0.3l-0.2,0.3l-0.4,1l-0.1,0.1l0.1,0.3l0.1,0.9v0.1v0.1
		l-0.1,0.4l-0.1,0.4l-0.1,0.2l-0.1,0.4l0.1,0.1l0.2,0.5l0.3,0.5v0.1l-0.3-0.1H401h-0.2h-0.1h-0.1l-0.1,0.1l-0.2,0.1l-0.1,0.1
		l-0.1,0.1l-0.1,0.1l0,0l-0.1,0.1l-0.1,0.1l-0.4,0.1l-0.2,0.1h-0.1h-0.3l-0.3-0.1l-0.3-0.1h-0.1H398l0,0l-0.1,0.1l-0.1,0.2l-0.1,0.1
		l-0.1,0.1l-0.2,0.1v0.2v0.5v0.3l-0.1,0.3l-0.2,0.5v0.1l-0.1,0.1v0.1l-0.2,0.2l-0.2,0.5l-0.3,0.5v0.3l-0.1,0.3v0.2l-0.1,0.4v0.9v0.2
		l-0.3-0.1l-0.6-0.2h-0.1l-0.2,0.1l0,0l-0.1-0.1l0,0h-0.1h-0.1h-0.1v-0.1v-0.2v-0.1l0,0h-0.1l-0.2,0.1h-0.1l0,0l-0.6-0.4l-0.1-0.1
		l-0.1-0.1h-0.1h-0.1l-0.2,0.1l0,0v-0.1v-0.1v-0.1V119l-0.1-0.1l-0.1-0.1h-0.1l-0.1,0.1l-0.1,0.1H392h-0.1l-0.1,0.1l-0.1,0.1
		l-0.4-0.1v0.1v0.1l-0.3,0.4l-0.1,0.3l-0.2,0.4l-0.1,0.2l-0.2,0.1h-0.1h-0.1l-0.2-0.1h-0.1l-0.3,0.1h-0.1h-0.1h-0.1l-0.3-0.2
		l-0.2-0.1h-0.1l-0.2,0.1h-0.2H388l-0.1-0.1l-0.3-0.2l-0.1-0.1l0,0l-0.1,0.1h-0.1l-0.2,0.1l-0.3,0.1l0,0l0,0v-0.1v-0.1l0,0h-0.1
		h-0.1h-0.1l-0.1,0.1l-0.3,0.2l-0.1,0.1h0l-0.2-0.1h-0.1h-0.1l-0.1,0.1l0,0l-0.3,0.1h-0.1l-0.1-1.3l0,0h-0.1h-0.1v-0.1v-0.2l0,0
		l-0.1-0.1l-0.2-0.1h-0.1l-0.2,0.1l-0.3,0.1h-0.2h-0.1l-0.2,0.1h-0.1h-0.1l0.1,0.5v0.1v0.1l-0.2,0.2l-0.4,0.6l-0.2,0.2l-0.1,0.1
		l-0.1,0.3l-0.3,0.4l-0.3,0.6v0.1v0.1v0.3l-0.1,0.4v0.3l-0.1,0.4v0.2v0.1v0.1l0.1,0.2l0.2,0.1v0.1v0.6l-0.1,0.2l-0.1,0.3l-0.1,0.2
		h-0.1h-0.1l0,0l-0.3,0.3v0.3l0.1,0.3l-0.1,0.2l-0.2,0.6v0.1v0.3v0.2l-0.2,0.4v0.1l-0.6,0.3l-0.1,0.2l-0.2,0.2l-0.3,0.4v0.1v0.3l0,0
		l-0.1,0.1l-0.1,0.1l-0.2,0.1l-0.1,0.1v0.1v0.2l-0.2,0.6l-0.1,0.2l-0.4,0.5l-0.1,0.2l-0.1,0.2l-0.2,0.2v0.1l-0.3,0.4l-0.1,0.1
		l-0.3,0.3l-0.1,0.3v0.2v0.2v0.4v0.2l-0.1,0.2v0.2v0.7l-0.1,0.2v0.1l-0.1,0.2l-0.3,0.6v0.3l0.1,0.3v0.6l-0.2,0.1h-0.2l-0.6,0.1h-0.1
		l-0.2-0.1l0,0l0,0l0,0h-0.1l0,0l0,0l-0.3-0.1l0,0l-0.3-0.1l0,0l-0.1-0.1l0,0l-0.2-0.1l-0.2-0.1l-0.2-0.1l-0.2-0.1l-0.6-0.1
		l-0.3-0.1l-0.5-0.2l-0.3-0.1l-0.7-0.1l-0.2-0.1l-0.1-0.1l-1-0.9l-0.1-0.3l0.4-0.3l0.2-0.2l0.1-0.2V135l0.2-0.4l0.1-0.2l0.1-0.2
		l-0.1-0.1l-0.3-0.1l-0.1-0.1v-0.1l-0.1-0.2v-0.1l-0.3-0.2l-0.3-0.3l-0.1-0.1l-0.2-0.1l-0.3-0.2l-0.1-0.1h-0.1l-0.2-0.1v-0.1l0,0
		v-0.1v-0.1l-0.2,0.1l-0.3,0.1l-0.3,0.1l-0.2,0.1l-0.7-0.1l-0.1,0.1l-0.1,0.3v0.1l-0.1,0.1v0.1v0.1v0.1v0.1v0.1l-0.1,0.1l0,0h-0.1
		l-0.1-0.1l0,0h-0.1l-0.1-0.1h-0.1l0.1-0.1l-0.3-0.1h-0.1h-0.1l0,0h-0.2h-0.2H365h-0.2h-0.1l-0.1,0.1l0,0h-0.1l-0.2,0.1H364h-0.1
		h-0.2h-0.1h-0.1l0,0h-0.1h-0.1l0,0h-0.1h-0.1H363h-0.1l0,0h-0.1h-0.1h-0.1l0,0l-0.1,0.1v0.1v0.1v0.1l-0.1,0.1l-0.1,0.1v0.1
		l-0.1,0.2v0.1l0,0l-0.1,0.1l0,0l-0.1,0.1l-0.1,0.1l-0.1,0.1l-0.2,0.1l0,0l-0.1,0.1l-0.3,0.2l0,0l-0.1,0.1l0,0l-0.1,0.1l0,0l0,0l0,0
		l0,0h-0.1h-0.1h-0.1h-0.1h-0.2h-0.2l-0.1,0.1l-0.1,0.1l-0.2,0.2l-0.1,0.1l0,0h-0.4h-0.4h-0.3h-0.1h-0.4H358l-0.2-0.1l-0.1-0.1
		l-0.7,0.2l-0.2,0.1l-0.2,0.1h-0.2l-0.2-0.1l-0.2-0.1l-0.2-0.1l-0.8-0.2h-1l-0.1-0.1l-0.2-0.1l-0.1-0.1l-0.2-0.2l-0.3-0.1l-0.1,0.2
		l-0.1,0.1l-0.1,0.1l-0.3,0.1l-0.3-0.1h-0.1l-0.2,0.1l-0.1,0.1l0,0l-0.2-0.2l-0.1-0.1h-0.1h-0.1l0,0l-0.1,0.1l0,0l-0.2,0.1l-0.2,0.1
		l-0.2,0.1l-0.1,0.1l-0.2,0.1l-0.4,0.2l-0.1,0.1l-0.3,0.3l-0.2,0.2v0.1l-0.3,0.3l-0.1,0.1l-0.3,0.2l-0.3,0.3v0.1h-0.1l0,0l-0.3-0.2
		l-0.1-0.1l-0.2-0.3v-0.1l-0.3-0.3v-0.1l-0.2-0.1l-0.2-0.1h-0.1h-0.1h-0.1l-0.1-0.1l-0.2-0.1h-0.1V136l0.2-0.2l0.1-0.1l-0.1-0.3
		l-0.4,0l-0.1-0.1h-0.1l-0.4-0.2l-0.1-0.1l-0.3-0.1l-0.1-0.1l-0.2-0.1l-0.1-0.1l-0.1-0.2l-0.1,0.1l-0.3,0.3l-0.4,0.2l-0.1,0.1
		l-0.1,0.1v0.1l-0.1,0.1v0.1l-0.1,0.4l-0.1-0.1l-0.2-0.1l-0.1-0.1v-0.1v-0.1v-0.1l-0.2-0.3l-0.2-0.3l-0.2-0.1l-0.2,0.3l-0.2,0.3v0.3
		v0.1v0.1l-0.1,0.1l-0.1,0.1l-0.2,0.3l-0.1,0.3l-0.2,0.3l-0.1,0.2l-0.1,0.1l-0.2,0.2l-0.1,0.2v0.1l-0.3-0.1l-0.4-0.1l-0.3-0.1h-0.3
		l-0.3-0.1l-0.2-0.1l0,0v0.1l-0.1,0.3l-0.1,0.1l-0.1,0.1l-0.3,0.2l-0.2,0.2v0.1l-0.2-0.1l-0.2-0.1l-0.5-0.1l-0.3,0.1l-0.3,0.1
		l-0.5,0.1H336l-0.2-0.1l-0.1,0.1v0.4v0.4l-0.4,0.1l-0.2,0.1l-1-0.3l-0.4-0.1h-0.2h-0.3l-0.1-0.1l-0.2-0.2h-0.1h-0.2h-0.3l-0.4,0.3
		l-0.2,0.2l-0.1,0.1l-0.2,0.2l-0.2,0.2l-0.1,0.2l-0.1,0.1l-0.2,0.2l-0.5-0.3l-0.2-0.1l-0.4-0.2l-0.1-0.1l0,0l-0.3-0.1l-0.5-0.1
		l-0.3-0.1v-0.1l-0.2-0.3l-0.1-0.1l-0.1-0.1l-0.1-0.1l-0.1-0.1v-0.1v0.1l-0.1,0.1v-0.1v-0.1l-0.1-0.1l-0.1-0.1v-0.1v-0.1l-0.1-0.2
		l-0.1-0.2l-0.1-0.2V137l0,0l-0.2-0.1H327l-0.1-0.1l-0.2-0.5l-0.2-0.4l-0.1-0.2v-0.1v-0.3v-0.1l0.1-0.3l0.1-0.3v-0.1l-0.3,0.2
		l-0.1-0.1l-0.2-0.3l-0.1-0.1l-0.1-0.1h-0.1h-0.3l-0.1-0.1l-0.1-0.2l-0.1-0.1v-0.1l-0.1-0.2v0.2l-0.1,0.4l-0.1,0.1l-0.5-0.2
		l-0.1-0.1l-0.2-0.1h-0.1l-0.5-0.2l-0.2-0.1v-0.1l-0.1-0.3v-0.1v-0.2l-0.1-0.2v-0.3l0.1-0.5l-0.1-0.4v-0.1l0,0l-0.1-0.1l-0.3-0.3
		l0,0l-0.2-0.1l-0.2-0.2l-0.1-0.1l-0.3-0.2l-0.1-0.1l-0.1-0.1l0,0l-0.1-0.1l0,0l-0.2-0.2l-0.5-0.4l-0.1-0.1l0,0l-0.1-0.1l-0.2-0.1
		l-0.1-0.1v-0.1v-0.3v-0.3l-0.2-0.7v-0.3H320h-0.1l0,0h-0.1l-0.2-0.1l-0.3-0.1l-0.5-0.3l-0.3-0.1l-0.2-0.1l-0.2-0.1l-0.3-0.1H317
		h-0.1l-0.3,0.1h-0.2l0,0h-0.2h-0.1l-0.2-0.3l-0.2-0.1l-0.1-0.1l-0.1-0.1l-0.1-0.1l-0.2-0.2l-0.2-0.1l-0.5-0.2l-0.1-0.1l-0.1-0.1
		l-0.1-0.2v-0.1l-0.1,0.1l0,0H314l-0.1-0.1l-0.3-0.1l0,0l-0.1,0.1l-0.3,0.2l-0.4,0.2h-0.1l-0.2-0.1l-0.1-0.1l-0.1-0.1l-0.3-0.1h-0.1
		h-0.3h-0.2l-0.4-0.2l-0.5,0.6l-0.2,0.5l-0.1,0.1l-0.3,0.1l-0.6,0.1L309,126l-0.3-0.1h-0.6H308l-0.2-0.1l-0.3-0.2h-0.1h-0.1H307l0,0
		l-0.1,0.1v0.1l-0.1,0.1v0.1v0.1h-0.1h-0.2l0,0h-0.1h-0.2H306h-0.3h-0.1h-0.1l0,0h-0.1l-0.2,0.1l-0.1,0.1l0,0l0,0H305l0,0h-0.1l0,0
		l-0.1,0.1l0,0h-0.1l-0.1,0.1l0,0l0,0l0,0l0,0l-0.3,0.1l-0.3,0.1h-0.1h-0.1l0,0l-0.2-0.1h-0.1h-0.1l-0.1,0.1l-0.2,0.1h-0.2l-0.1-0.1
		l-0.3-0.2h-0.4h-0.2l-0.2,0.1h-0.2l-0.3-0.1l-0.1-0.1v-0.1v-0.1l-0.2-0.1h-0.1V126l-0.5-0.6v-0.2l-0.1-0.2v-0.1v-0.1l-0.1-0.1
		l-0.2-0.1v-0.1v-0.1l-0.1-0.2v-0.1V124h-0.2l-0.2-0.1l-0.3-0.1h-0.3h-0.1h-0.2h-0.2h-0.2l-0.4,0.1l-0.6,0.1h-0.2l0,0l-0.5-0.1h-0.3
		l-0.1-0.1l0,0l-0.1-0.1l-0.2-0.2l-0.7,0.9l-0.3-0.2l-0.6-0.5l-0.1-0.1v-0.1l-0.1-0.1l-0.2-0.1l-0.2-0.1l-0.3-0.1L293,123l-0.3-0.2
		l-0.1-0.1l-0.6-0.4l-0.2-0.1l-0.3-0.1l-0.3-0.1h-0.1l-0.7-0.1l-0.3-0.1h-0.2l0,0l-0.9-0.1h-0.1l-0.5-0.1h-0.1l-0.3-0.1l-0.7-0.2
		h-0.2h-0.2h-0.1l-0.5,0.1h-0.1H286l-0.3-0.1l-0.2-0.1l0,0l-0.2-0.1l-0.1-0.1l-0.2-0.3l-0.2-0.3l-0.1-0.1l-0.2-0.2l0,0l-0.1-0.1
		l-0.2-0.2l-0.2-0.2l-0.1-0.1l-0.1-0.2l-0.5-0.5l-0.1-0.1h-0.3l0,0h-0.1l-0.3,0.2l-0.1,0.1v0.1l-0.2,0.5l-0.1,0.1l-0.1,0.1l-0.1,0.1
		l-0.3,0.2l-0.2,0.1l-0.1,0.1l-0.2,0.1h-0.2l-0.4-0.1l0,0h-0.1l0,0h-0.3h-0.2h-0.2l-0.3-0.1l-0.2-0.1h-0.1H279l-0.5-0.1l-0.3-0.1
		H278h-0.2h-0.1h-0.1h-0.2h-0.1h-0.1l0,0l-0.1-0.1l-0.4-0.3l0,0l-0.1-0.1l0,0l-0.1-0.1v-0.1l-0.2-0.2l-0.2-0.2l-0.1-0.1l-0.2-0.1
		l-0.2-0.1l-0.1-0.1h-0.1l0,0h-0.1h-0.1h-0.1l-0.5-0.1h-0.1l-0.2,0.1h-0.1l0,0l0,0l-0.1,0.1l0,0l0,0l0,0l-0.2,0.1h-0.1h-0.1h-0.1
		h-0.1h-0.1l0,0h-0.1l-0.3,0.1h-0.1h-0.2H272h-0.1h-0.2l0,0h-0.2l-0.4,0.1H271l0,0l0,0l0,0h-0.1l-0.2,0.1h-0.1l-0.1,0.1l-0.2,0.1
		l-0.1,0.1l-0.1,0.1l-0.1,0.1l-0.2,0.1l0,0h-0.1l-0.1,0.1l0,0v-0.1h-0.1l0,0l0,0h-0.1l-0.1,0.1l-0.2,0.1v-0.1v-0.1v-0.1v-0.1v-0.1
		l-0.1-0.1V119l-0.1-0.1h-0.1l0,0l-0.1-0.1l-0.2-0.1l0,0l-0.1-0.1h-0.1l-0.3-0.1h-0.2h-0.1l-0.1-0.1l-0.1-0.2l-0.1-0.1l-0.1-0.5
		l-0.1-0.4l-0.1-0.4l-0.1-0.3l-0.1-0.2l-0.1-0.1l-0.1-0.1l-0.1-0.1l-0.1-0.2v-0.1l-0.2-0.3l-0.1-0.1v-0.1l0,0l-0.6-0.7l-0.2-0.1
		h-0.3h-0.3l-0.1-0.1l-0.4-0.2l0,0l-0.2,0.1l-0.3,0.1l-0.2,0.1l-0.2,0.2l-0.1,0.1h-0.1l-0.3-0.1h-0.1l-0.2,0.1l-0.2,0.1h-0.3
		l-0.3,0.1h-0.2h-0.1h-0.1l-0.2-0.1l-0.4-0.2l-0.1-0.1l-0.7,0.9l-0.1-0.1l-0.1-0.1l-0.2-0.2l-0.3-0.4l-0.3-0.3l-0.1-0.1l-0.2-0.1
		l-0.3-0.1l-0.1-0.1l-0.2-0.1l-0.3-0.3l-0.3-0.3l-0.4-0.4l0,0l-0.1-0.1h-0.1l-0.4,0.1h-0.6l-0.3,0.1l-0.2,0.2l0,0h-0.1L255,113h-0.1
		l-0.1,0.1l-0.2,0.2h-0.1h-0.1v-0.1l-0.1-0.1V113v-0.1l-0.1-0.1h-0.8h-0.3h-0.3l-0.1,0.1l-0.1,0.1l-0.1,0.1l-0.1,0.1l-0.4,0.2h-0.1
		l-0.1-0.1l-0.1-0.3l-0.1-0.1l-0.1-0.1l-0.2-0.1l-0.3-0.2l-0.2-0.1h-0.1h-0.1h-0.3l-0.3-0.1v-0.1v-0.4v-0.3v-0.1v-0.1l-0.2-0.2
		l-0.1-0.1h-0.1l0,0v-0.2l-0.1-0.2l-0.3,0.3v0.1l-0.1,0.1H249h-0.1h-0.1h-0.1h-0.1l0,0l-0.2,0.2h-0.1h-0.1l-0.7-0.3l-0.2-0.1h-0.1
		h-0.3l-0.2,0.3l-0.6-0.4l0,0l-0.5-0.2l-0.5,0.1H245l-0.2,0.1h-0.1h-0.1l-0.1-0.1v-0.1v-0.1v-0.1l-0.1-0.1v-0.2l-0.1-0.2l-0.2-0.1
		l-0.1-0.1l-1-0.3v-0.1v-0.2V109l-0.3-0.2l-0.2-0.1l-0.1-0.1v-0.1v-0.1v-0.1v-0.1l-0.1-0.1h-0.1H242l-0.1-0.1l-0.1-0.1v-0.1v-0.1
		v-0.1v-0.3v-0.1l0.2-0.1v-0.2v-0.1l-0.1-0.1v-0.1l-0.1-0.1l-0.1-0.2v-0.2l-0.1-0.2l-0.1-0.3l-0.1-0.1l-0.1-0.1v-0.2v-0.1v-0.2v-0.1
		v-0.2v-0.1l-0.2-0.1v-0.2v-0.1l-0.1-0.2l0,0v-0.1l-0.2-0.2l0.1-0.4l0,0v-0.1V103v-0.1l-0.1-0.2l-0.1-0.1l0,0l0,0l-0.3-0.2l-0.1-0.1
		l-0.1-0.1h-0.1h-0.2h-0.1l-0.1-0.1V102v-0.1l-0.1-0.1v-0.1l-0.2-0.1v-0.2l-0.1-0.1v-0.1l-0.1-0.1l-0.1-0.1l-0.1-0.1v-0.1l-0.1-0.1
		l-0.1-0.1l-0.2-0.2l-0.1-0.1v-0.1v-0.1l-0.2-0.2l-0.1-0.1v-0.2v-0.2l-0.1-0.2l-0.1-0.1V99v0.4l-0.1-0.1l-0.3-0.3v-0.1v-0.1l0,0l0,0
		l-0.2-0.1l-0.1-0.1v-0.1l-0.1-0.1l-0.4-0.2l-0.3-0.1l-0.1-0.1h-0.1h-0.1l-0.2-0.1h-0.1l-0.2-0.1h-0.1l0,0l-0.1-0.1h-0.1l0,0
		l-0.2-0.1l-0.2-0.3l-0.1-0.2V97v-0.1v-0.1l-0.1-0.1v-0.1l-0.1-0.1l-0.1-0.1l-0.1-0.1v-0.1l-0.1-0.1l0,0V96v-0.1v-0.5v-0.1v-0.4
		v-0.1l0,0l0,0l0,0v-0.1v-0.1l-0.1-0.2l0,0l0,0l0,0l0.1-0.8v-0.1l0,0l0,0l-0.2-0.2h-0.1l0,0l0,0l-0.2-0.1h-0.2l-0.1-0.1l-0.1-0.1
		l-0.1-0.2v-0.1v-0.1l0.1-0.4l0.1-0.3l0,0v-0.1l-0.1-0.2l-0.1-0.1v-0.1l-0.1-0.1l-0.1-0.2l-0.1-0.1l0,0v-0.1l-0.1-0.1l-0.1-0.1
		l-0.1-0.1l0,0v-0.1v-0.1v-0.1l-0.1-0.1l-0.1-0.1l-0.1-0.1l-0.1-0.1l-0.1-0.1l-0.1-0.1H232h-0.1l0,0h-0.2l0,0h-0.1l-0.2-0.1h-0.1
		H230h-0.1h-0.3h-0.1l-0.2-0.1l-0.6-0.3l-0.2-0.1l-0.2-0.1l-0.4-0.2h-0.1l-0.2-0.1l-0.2-0.1l0,0l-0.3-0.1l-0.2-0.1l0,0l-0.2-0.2
		l-0.4-0.4l-0.1-0.1l-0.1-0.1l-0.3-0.3l-0.2-0.2l-0.2-0.2l-0.1-0.2l-0.1-0.2l-0.2-0.3v-0.1V86v-0.1v-0.2v-0.1v-0.1v-0.1l-0.1-0.2
		l-0.1-0.1l-0.1-0.1l-0.2-0.1l-0.2-0.1l-0.3,0.6l-0.4-0.5l-0.1-0.1l-0.1-0.1l-0.7-0.1h-0.1h-0.1l-0.1-0.1l-0.1-0.1v-0.1v-0.1
		l-0.1-0.5l-0.1-0.3v-0.1v-0.1v-0.1v-0.3l-0.1-0.2l-0.2-0.2l0.1-0.1v-0.1V82v-0.1l0.3-0.2l0.5-0.3l0.5-0.4l0.1-0.1v-0.1l0.1-0.8
		v-0.1l0.3-0.4v-0.1v-0.1v-0.1l0,0l-0.5-0.2l-0.1-0.1v-0.1v-0.1v-0.1"/>
</g>
<g opacity="0.2">
	<path fill="none" stroke="#AF7556" stroke-linecap="round" stroke-linejoin="round" d="M419.3,202.8l0.1-0.1l0.3-0.2l0.1-0.1
		l0.2-0.2l0.4-0.8l0.2,0.3l0.2,0.2l0.3,0.1h0.4l0.3-0.1l0.6-0.5l0.4-0.3l0.1-0.1l0.2-0.1l0.4-0.3l0.2-0.2l0.2-0.2l0.1-0.1l0.1-0.1
		l0.5-0.3l0.3-0.2l0,0l0.3-0.1h0.1l0.9-0.3l0.2-0.1l0.3-0.1l0.1-0.4l0,0l0,0l0.1-0.2v-0.2l0,0l0.1-0.2l0.2-0.2l0.1-0.2v-0.2l0.1-0.4
		l0.4,0.2l0.2,0.1h0.2h0.1v-0.1l0,0l0.2-0.3l0.2-0.2l0,0l0.2-0.4h0.1v-0.1l0,0V196v-0.2v-0.1v-0.1l-0.7-0.9l-0.1-0.2h-0.1l-0.6-0.4
		l-0.1-0.1l-0.3-0.6v-0.1l-0.2-0.4l-0.4-0.8l-0.2-0.3l-0.5-0.8l0,0v-0.1l0.1-0.4l0.1-0.5l0.1-0.6v-0.3l0.1-0.2l0.1-0.4l0.1-0.1
		l0.1-0.1v-0.2v-0.4v-0.1l0.1-0.2l0.3-0.2l0.3-0.2v-0.1v-0.1v-0.1l0.1-0.1h0.1l0.3-0.1h0.1l0.2-0.2l0.3-0.3l0,0l0.1-0.3l0.1-0.2
		v-0.1l0,0l0.1-0.1h0.2l0.4,0.1l0.7,0.1h0.2h0.1l0.2-0.1l0.1-0.3l0.1-0.3h0.2l0,0l0,0l0.1-0.1l0.2-0.3l0.1-0.2l0,0l0,0l0.1-0.2l0,0
		l0.1-0.2l0.2-0.3l0.1-0.1l0,0l0.1-0.1l0.2-0.2l0,0l0,0l0.1-0.1l0.2-0.3l0.2-0.2l0.1-0.1v-0.1l0.1-0.1l0.1-0.1l0.1-0.1l0,0l0,0
		l0.1-0.1l0,0l0.1-0.2l0.1-0.1l0.1-0.1l0.1-0.2l0.2-0.3l0.1-0.2l0.1-0.1l0.2-0.3l0,0l0.2-0.4l0.1-0.2l0.2-0.3l0.1-0.3l0.2-0.4
		l0.1-0.1l0,0l0.3-0.5l0,0l0,0l0,0l0.3-0.4l0.2-0.2l0,0l0.3-0.3l0.1-0.2l0.3-0.3l0.1-0.1l0.1-0.1l0.1-0.5l0.1-0.1l0.2-0.2l0.2-0.3
		l0.1-0.2l0.1-0.1l0.4-0.2l0.1-0.6l0.1-0.1l0.1-0.2l0.5-0.9l0.1-0.2l0.3-0.5v-0.1v-0.2v-0.5l0,0v-0.1v-0.1l-0.1-0.5l-0.3-0.5
		l-0.3-0.5l-0.2-0.3l-0.2-0.3l-0.1-0.1l-0.2-0.5l0,0l-0.1-0.2l-0.1-0.1l-0.1-0.1l-0.1-0.1l-0.1-0.2l-0.2-0.3l0,0l-0.1-0.2l-0.1-0.1
		l-0.2-0.5v-0.1v-0.2l-0.1-0.3v-0.2l-0.1-0.3l-0.1-0.2v-0.1v-0.2v-0.1v-0.2V165l0,0v-0.3l-0.1-0.4l-0.2-0.7v-0.1l-0.1-0.4l-0.1-0.5
		l-0.1-0.5l0,0l-0.1-0.4v-0.1l0.3-0.3l0.1-0.1l0.1-0.1l0.1-0.2l0.1-0.2l0.1-0.1l0.1-0.3l0.1-0.2l-0.1-0.1l0.1-0.4v-0.1l0.1-0.1
		l0.2-0.1l0,0l0.2-0.1l0.1-0.1l0,0l0.2-0.3l0.1-0.1v-0.1l-0.4-1.2v-0.1v-0.1l-0.2-0.3l-0.1-0.4v-0.3V156v-0.1v-0.1l-0.2-0.3
		l-0.1-0.3v-0.1v-0.3v-0.2v-0.1v-0.1l-0.1-0.2l-0.1-0.1l-0.1-0.1l-0.1-0.1l-0.1-0.1l-0.1-0.1l-0.1-0.1l-0.1-0.1l0.2-0.2l0.1-0.1
		l0.1-0.1l0.1-0.1l0.1-0.1l0.1-0.1l0.1-0.1l0.1-0.1l0.1-0.1l0.1-0.1l0.1-0.1l0.1-0.1l0.2-0.2l0.1-0.1l0.1-0.1l0.2-0.3l0.1-0.1
		l0.2-0.3l0.1-0.1l0.1-0.1l0.1-0.1l0,0l0.1-0.1l0.2-0.3l0.2-0.4l0,0l0.1-0.2l0,0l0.2-0.3l0.1-0.1h-0.1l0,0l0,0l0,0v-0.1v-0.1
		l0.1-0.1l0.1-0.1v-0.1v0.1v-0.1l-0.1-0.1l-0.4-0.3l-0.1-0.1v-0.1v-0.2V148v-0.1l-0.1-0.3l-0.1-0.3l-0.2-0.7l-0.1-0.1l-0.1-0.1v-0.1
		v-0.1l0.2-0.3v-0.3v-0.3l-0.2-0.7l0.1-0.2v-0.2v-0.1l0.1-0.1l0.2-0.2l0.1-0.2l0.2-0.1l0.1-0.1l0,0l0,0v-0.1v-0.1l0,0l-0.1-0.2v-0.1
		v-0.1l-0.1-0.3v-0.1v-0.3V142h0.1h0.1l0.2-0.2l0.1-0.1v-0.2l-0.1-0.3v-0.1l-0.2-0.2v-0.1v-0.2v-0.1v-0.2v-0.1l0.1-0.2l0.6-0.3
		l0.1-0.1l0.1-0.4V139v-0.3l-0.1-0.2l0,0v-0.1l0.1-0.1l0.1-0.1l0.3-0.4l-0.1-0.1l-0.1-0.1l-0.2-0.2l-0.1-0.1l-0.1-0.1l-0.2-0.2
		l-0.1-0.1v-0.3l-0.1-0.4v-0.1l-0.1-0.1h-0.1l-0.2-0.1l-0.4-0.2l0,0l-0.1-0.1h-0.2h-0.2l-0.2-0.2l-0.1-0.1l0,0l-0.1-0.1l-0.2-0.3
		l-0.1-0.1h-0.2h-0.2v-0.1v-0.1v-0.1l0.1-0.1v-0.2l0,0v-0.1V134v-0.1v-0.2l0.1-0.1l0.1-0.1v-0.1v-0.1l-0.1-0.2l-0.2-0.2l-0.4-0.3
		l0,0v-0.1l0.1-0.1l0.3-0.5l0.2-0.2l0.1-0.2h0.1l0.3-0.2l0.6-0.3h0.3l0.4,0.1l0.3-0.1l0,0l0.2-0.1h0.5l0.2,0.3h0.1l0.2-0.1h0.2
		l0.2-0.1l0.1-0.1h0.2h-0.1h0.2l0.1-0.1l0.1-0.1l0.1-0.1l0.1-0.1l0,0h0.2l0.1-0.1l0.1-0.2l0.2-0.3h0.1h0.2h0.4h0.6l0.2-0.1l0.2-0.1
		l0.4-0.2h0.1l0.3,0.1h0.3l0.2-0.2l0.2,0.5l0.2-0.1l0.1-0.1l0.3-0.2l0.1-0.1l0.1-0.1l0.1-0.3l0.1-0.1h0.1h0.4h0.4h0.2h0.1l0.2-0.1
		l0.2-0.2l0.3-0.2l0.3-0.1h0.2l1.1-0.2h0.1l0.1-0.1l0.2-0.3l0.1-0.2l0.1-0.1l0.3-0.1h0.2l0.1-0.1l0.2,0.1h0.1h0.2h0.2h0.7l0.4-0.1
		h0.2h0.2h0.1l0.3-0.2l0.1-0.2l0.1-0.2v-0.3v-0.1l0.1-0.2l0.1-0.2v-0.2l0.4-0.2l-0.1-0.3l-0.1-0.4l-0.2-0.5v-0.1V124l0.1-0.4v-0.5
		l-0.2-0.3l0.1-0.1l0.2-0.3v-0.2l0,0v-0.3l0.1-0.3v-0.1v-0.1v-0.1l0,0l0.1-0.1l0,0l0.1-0.1l0.1-0.1h0.1l0.3-0.2l0.1-0.1l0,0h0.1l0,0
		l0,0h0.2h0.1h0.1h0.1h0.1h0.2h0.1h0.1h0.1h0.1v-0.1v-0.2l0,0l0.3-0.3l0.2-0.1l0.1-0.1l0.1-0.1l0.1-0.2l0.1-0.2l0.4-0.1h0.2h0.1h0.2
		l0.1-0.1l0.3-0.1l0.2-0.1h0.1v-0.1v-0.1v-0.1l0,0h0.2l0.1-0.1l0.3-0.4l0.2-0.2l0.1-0.1l0.2-0.1l0.1-0.1v-0.1v-0.1l-0.1-0.2v-0.1
		l0,0l0.1-0.2l0.1-0.2l0.2-0.2v-0.1v-0.3V116v-0.1l-0.1-0.4v-0.1v-0.1l0.1-0.1h0.1h0.2h0.2l0.3,0.1h0.1l0.5-0.2l0.2-0.1l0.2-0.2
		l0.1-0.1l0.2-0.2l0.2-0.3l0.2-0.3l0.1-0.3v-0.1v-0.1l-0.2-0.4l-0.1-0.3l-0.1-0.2v-0.1v-0.1l0.1-0.2l0.1-0.3l0.1-0.2v-0.1l0.1-0.3
		v-1.8v-0.3l0.1-1.1l-0.1-0.8l-0.1-0.7l-0.1-0.4v-0.2v-0.1l-0.1-0.1l-0.1-0.1v-0.2l-0.1-0.7v-0.1l0.2-0.1l0.1-0.1l0.2-0.1l0.3-0.2
		l0.3-0.1h0.1h0.1h0.1h0.1h0.1h0.4l0.6,0.3l0.3,0.2l0.2,0.3l1.1,0.2h0.8l0.5-0.4l0.4-0.7l0.4-0.6l0.1-0.2l0.1-0.1l0.1-0.1l0.6-0.4
		l0.5-0.3l0.2-0.1l0.2-0.2l0.2-0.1l0,0h0.1l0,0h0.1l0.9-0.6l0.2-0.2l0.7-0.5l0.2-0.1h0.1l0.2-0.2l0.1-0.1l0,0h0.1l0.1-0.1l0.4-0.2
		l0.2-0.1l0.2-0.1l0.6-0.4L475,99l0.4-0.3l0.1-0.1l0.1-0.1l0.1-0.1l0.2-0.1l0.4-0.1l0.2-0.1l0.2-0.2l0.1-0.1h0.1l0.4-0.2l0.3-0.1
		l0.5-0.3l0.3-0.2l0,0l0.5-0.3l0.2-0.1l0.2-0.1l0.7-0.4h0.2l0.2-0.1h0.1l0.4-0.1l0.2-0.1l0.2-0.1l0.1-0.1l0,0l0.2-0.2l0.2-0.2
		l0.1-0.2l0.4-0.4l0.1-0.2l0.1-0.2l0.1-0.2l0.2-0.2l0.2-0.1h0.1h0.1h0.2h0.3h0.2l0.2-0.1l0.1-0.1l0.1-0.1l0,0l0.2-0.3l0.1-0.2
		l0.1-0.1l0.1-0.1l0.1-0.1l0.1-0.1l0,0l0.1-0.2v-0.1v-0.1v-0.3v-0.1v-0.1l-0.1-0.3l0,0l-0.1-0.3l0,0v-0.1v-0.1v-0.1l0,0l0,0l0,0
		l0.1-0.2v-0.1l0,0l0.2-0.1l0.2-1l0.1-0.4l0,0l-0.1-0.1v-0.1l-0.1-0.2v-0.2v-0.1l-0.2-0.2v-0.2v-0.2v-0.2v-0.1l-0.1-0.9v-0.1l0,0
		v-0.1V86v-0.2v-0.1l0.2-0.1l0.6-0.1l0.4,0.2h0.3l0.1,0.2l0.3-0.2l0.4-0.1l0.1-0.1v-0.1v-0.1v-0.1v-0.6v-0.1l0,0l0,0l0,0l0,0l0,0
		l0,0l0.1-0.1h0.1l0.2-0.1v-0.1l0.1-0.2l0.1-0.3l0.1-0.1l0.1-0.1l0.2-0.2h0.1l0.2-0.1l0.2-0.1L489,83l-0.1-0.1l-0.1-0.1l-0.1-0.1
		v-0.1v-0.2l-0.1-0.3V82l-0.1-0.1l0,0h0.1h0.1h0.2l0.2-0.1l0,0l0.2-0.2l0,0h0.1h0.1l0.2,0.1h0.3h0.2l0.3-0.2h0.2h0.2l0,0l-0.1-0.1
		l0,0l0,0l0.1-0.2v-0.1v-0.2l0,0l-0.1-0.1l0,0v-0.1l0,0l0.1-0.1l0.2-0.2l0,0l0.1-0.1v-0.2l0,0h0.2l0.1-0.1v-0.2l0.1-0.1l0.1-0.3
		v-0.1l0.1-0.5v-0.2l0,0l0,0h0.1l0.4,0.2l0.2,0.1l0.1,0.1l0.1,0.2l0.1,0.2l0.2,0.1l0.3,0.2l0.2,0.1h0.1h0.3l0.2,0.1v-0.2v-0.1v-0.1
		l0,0l0.1-0.1v-0.1l-0.1-0.1l-0.1-0.1l-0.1-0.1l-0.1-0.1v-0.1l0.1-0.2l0.1-0.1v-0.1l0.1-0.5v-0.1v-0.2l0,0v-0.1l0.1-0.1v-0.1v-0.1
		v-0.1v-0.2v-0.1l0,0v-0.1l0.1-0.2l0.1-0.1l0.1-0.1v-0.1l0,0v-0.3v-0.2v-0.2v-0.1v-0.1l0,0v-0.1V75v-0.1l0.2-0.4l0.1-0.1h0.2h0.3
		h0.1h0.1l0.1-0.1l0.1-0.2V74l0.1-0.2l-0.2-0.1v-1.3l0,0v-0.1v-0.2l-0.1-0.3v-0.1l-0.1-0.2h0.1h0.1l0,0l0.1-0.3v-0.1V71v-0.1
		l0.1-0.1l0.3-0.2l0.1-0.1l0.2-0.3l0,0l0.1-0.1h0.1h0.1h0.4h0.5h0.1l0.1-0.1l0.1-0.3l0,0v-0.1l0,0l0.1-0.1l0,0l0.2-0.1h0.1h0.4h0.3
		h0.1l0.3-0.3l0.2-0.1l0.4-0.1h0.1l0.5,0.1h0.1l0.1-0.1h0.1h0.2h0.3h0.2h0.1l0.1,0.1l0.2,0.2h0.1h0.6h-0.1h0.2h0.1h0.2h0.1l0.1-0.1
		h0.2l0.1-0.1l0.1-0.1v-0.1v-0.2v-0.2v-0.3V68v-0.1l-0.1-0.2l-0.1-0.2l-0.2-0.5l-0.1-0.3l0,0h-0.1l-0.2-0.2v-0.1l-0.1-0.1l0,0
		l-0.1-0.1l-0.1-0.1l-0.1-0.1l-0.1-0.2l-0.1-0.3v-0.2l-0.1-0.2l-0.1-0.2v-0.2l0.1-0.4l-0.1-0.4v-0.2l-0.1-0.1l-0.2-0.1h-0.1v-0.1
		l-0.1-0.4v-0.1v-0.5v-0.1l0.1-0.1l0.2-0.1l0.2-0.1l0.1-0.1v-0.1v-0.2v-0.3v-0.1v-0.1v-0.2l0.2-0.3l0.2-0.3v-0.1V60v-0.2v-0.1v-0.2
		v-0.1l0.2-0.1l0.2-0.2h0.1h0.1l0.2-0.1h0.1l0,0v-0.1l0,0l0.1-0.5v-0.2l0.1-0.1l0.2-0.2l0.4-0.3l0.1-0.1l0.2-0.2l0,0l0.1-0.2l0,0
		l0.1-0.1l0.1-0.1l0.4-0.3l0.2-0.2l0.2-0.2l0.1-0.1l0.2-0.3l0.1-0.2h0.1l0.1-0.1l0.2-0.1l0.1-0.1l0,0l0.2-0.1l0.3-0.1l0.4-0.2
		l-0.1-0.1v-0.1v-0.2l-0.1-0.3l-0.1-0.7l-0.1-0.4l-0.3-0.5v-0.1l0,0l0.1-0.1h0.1l0.3-0.1l0.5-0.3l0.1-0.1l0.1-0.2l0.1-0.1h0.3h0.1
		h-0.2h-0.2h0.5l0.1-0.1l0.2-0.2l0.1-0.1l0.2-0.2l0.1-0.1l0.1-0.1l0.1-0.2v-0.2v-0.1v-0.1l-0.1-0.5l0.1-0.7v-0.1l-0.1-0.2l0,0
		l0.1-0.3l0.2-0.3V48l-0.1-0.2l-0.1-0.2l-0.1-0.1l0,0l-0.3-0.6l-0.2-0.3v-0.1v-0.2V46v-0.2v-0.2v-0.1l0.3-0.4v-0.2l0,0l0.1-0.3v-0.2
		l0.4-0.1h0.1l0.2-0.9l0.2-0.2l0.2-0.2l0.1-0.1v-0.3v-0.1l0.1-0.1h0.1l0.2-0.2h0.1l0.2-0.3v-0.1v-0.1v-0.3v-0.1L511,41v-0.1v-0.4
		v-0.1l0.1-0.1l0.1-0.1l0.3-0.2l0,0v-0.1l0.1-0.2v-0.1v-0.2l-0.1-1.1v-0.2l-0.1-0.4v-0.2l0.1-0.4l0.1-0.3v-0.2v-0.5l0.1-0.4v-0.6
		l0.1-0.4l-0.1-0.1l-0.1-0.2v-0.1v-0.2l0,0l0.1-0.4l0.1-0.3l0.1-0.2l0.1-0.1l0.1-0.4v-0.5V32l-0.2-0.5l-0.2-0.3l0.2-0.3v-0.1
		l0.1-0.1l0.1-0.4v-0.1l0.1-0.2v-0.1v-0.1v-0.1l0,0v-0.2v-0.2v0.1v-0.2v-0.1V29l0.1-0.2l0.4-0.5h-0.2h-0.1l0,0h-0.1h-0.2l-0.1-0.1
		v-0.1v-0.2l-0.1-0.3l0,0v-0.1v-0.1l0.2-1l0.3-0.6v-0.2l0.1-0.2v-0.5l0.2-0.1h0.2l0.4-0.2l0.7-0.3h0.2h0.1l0.1,0.1h0.2l0.6,0.2
		l0.4,0.1h0.2l0.5-0.2l0.2-0.1l0.2-0.2l0.1-0.1l0.3-0.1h0.2l0.3-0.1h0.3h0.3h0.4h0.1l0.3,0.2l0.3,0.1l0.5,0.2h0.1h0.3h0.5l0,0
		l0.1,0.1v-0.1l-0.1-0.1l0.2-0.1h0.4h0.2h0.3h0.1h0.1l0.2-0.2l0.4-0.2l0.3,0.1h0.3l0.3,0.1l0.2,0.1v0.2l0.1,0.2l0.4,0.4l0.1,0.1
		l0.3,0.7l0.1,0.4l0.2,0.2l0.4,0.3l0.1,0.1l0.1,0.2l0.2,0.3l0.1-0.1l0.1-0.1l0,0l0.2-0.3v-0.1l0,0v-0.1v-0.1v-0.1v-0.1V26v-0.1
		l0.1-0.1l0.1-0.1l0.2-0.1l0.1-0.1l0.2-0.1h0.1l0.2-0.1l0.1-0.1l0.2-0.1h0.1h0.1l0.1-0.1l0.1-0.1l0.9-1.1l0.1-0.1l0.2-0.1l0,0h0.1
		l0.1-0.1l0,0l0,0l0.5-0.5l0.5-0.5l0.1-0.1l0.1-0.2l0.1-0.3l0.2-0.4l0.2-0.4l0.2-0.3l0.1-0.1l0.2-0.1h0.1l0.2-0.1l1.7-1l0.6-0.4
		l0.4-0.3h0.1l0.1-0.1h0.1l0.1-0.1l0,0h0.1l0.1-0.1l0.1-0.1l0.2-0.2l0.2-0.3l0.2-0.1l0.2-0.1l0.2-0.1h0.1h0.1l-0.1-0.1l-0.3-0.2
		l-0.2-0.1l-0.2-0.1l-0.2-0.1l-0.1-0.1l-0.1-0.2v-0.1v-0.1l-0.2-0.4l-0.1-0.2v-0.2v-0.1l0,0l-0.1-0.2l-0.2-0.8v-0.2v-0.1V14v-0.1
		l0,0l-0.1-0.1l-0.4-1.4h-0.1l-0.2-0.1v-0.2v-0.2v-0.2v-0.2v-0.2l-0.1-0.3v-0.1l-0.1-0.3l-0.1-0.4V9.8V9.5l0.1-0.2l0.1-0.1l0.1-0.2
		V8.6V8.5l0.3-0.1l0.1-0.2V8.1V8V7.7V7.5V7.3l0.2-0.3l0.1-0.3l0.2-0.3l0.1-0.1h0.1l0.5-0.2h0.1l0.1-0.1l0.1-0.2V5.6l-0.1-0.4V5.1V5
		V4.9V4.8l0.1-0.1l0.3-0.2l0.1-0.1l0.4-0.2l0.2-0.1l0.1-0.1l0.2-0.2l0,0l0.2-0.1l0.4-0.4l0.1-0.2l0.1-0.1 M533.6,12.4l-0.1,0.4
		l-0.3,0.6l-0.2,0.4v0.5l-0.3,0.6l-0.1,0.1l-0.6,0.4l-0.2,0.5l0.1,0.4l-0.1,0.3v0.3v0.4l0.1,0.1h-0.2l-0.1-0.1l-0.4-0.2l-0.5-0.2
		h-0.2h-0.2v-0.1v-0.1h-0.6h-0.1l-0.7,0.7h-0.1h-0.2h-0.1v0.3l-0.1,0.3l-1-0.2l-0.5,0.1l-1-0.2h-0.2l-0.5,0.2L525,18l-0.4,0.1
		l-0.8,0.6l-0.4,0.2H523l-0.8,0.5l-0.2,0.1l-0.1,0.3l-0.2,0.1h-0.2l-0.4,0.1h-0.2l-0.5,0.2l-0.3,0.3l-0.1,0.2l-0.2,0.2l-0.2,0.4
		l-0.2,0.2l-0.2,0.1l-0.1,0.2v0.3l-0.1,0.1h-0.2l-0.3,0.2l-0.2,0.2v0.2V23l-0.1,0.4"/>
</g>
<g opacity="0.2">
	<path fill="none" stroke="#6598A9" stroke-linecap="round" stroke-linejoin="round" stroke-miterlimit="10" d="M672.6,126.8"/>
	<path fill="none" stroke="#6598A9" stroke-linecap="round" stroke-linejoin="round" stroke-miterlimit="10" d="M22.3,156"/>
	<path fill="none" stroke="#6598A9" stroke-linecap="round" stroke-linejoin="round" stroke-miterlimit="10" d="M769.5,74.4
		c-0.2,0-0.3,0-0.5,0.1c-3.2,1-6.7,1.2-9.8,0.8l0,0l0,0c2.3,19.5-3.2,29.4-18.2,39.3c-2,1.5-2.4,2.5-4.4,3.7c-0.7,0.4-2.4,1-3.3,1.1
		c-7.6,1.3-25,7.7-30.8,2.6c-2.8-2.4-7.8-8.4-11.3-9.3c-2.6-0.7-5.9,0-7.7,1l0,0c-3.4,2.7-4.9,6.3-4.3,9.7c-0.2,0.1-0.4,0.1-0.6,0.1
		c-6.3,1.1-11-0.6-16.7-5l0,0c-0.7-1.1-1.6-1.6-2.8-1.5c-2.4,0.8-4.3-1.2-5.7-2c-1.9-1-6.6-1.2-8.5-2.2c-2.9-1.6-8.4-5.4-11.3-7.1
		c-0.6-0.4-1.4-0.4-2.1-0.5c-2-0.3-5.3-2.9-7.4-2.7c-1.1,0.1-3.3,0.8-4.3,1.3c-1,0.5-2.5,0.9-3.5,0.6c-1.2-0.4-2.2-0.4-3.3-0.9
		c-2.2-1.1-5.8-4.6-7.3-6.6c-0.6-0.8-1.7-2.6-2.2-3.5c-0.9-1.5-2.2-2.7-3-3.3c-1.6-1.2-3.2-3.6-6.5-3.7c-5.5-0.1-16.4,1.3-21.9,1.5
		c-5.8,0.2-7.4,0.3-12.5,0c-0.7,0-2.2,0-2.8-0.3c-4.9-2.2-14.7-6.7-19.1-9.8c-1.3-0.9-3.8-2.6-5-3.6c-1.6-1.4-3.7-2.2-5.7-3
		c-1.6-0.7-4.2-3.1-5.7-4.1c-1.6-1.1-5.1-2.4-6.9-3c-2.5-0.8-3.8-0.1-3.1,1.8c-1.9-0.8-4.3-1.1-6.4-0.7c0.4,2.9-0.5,4.3-2.9,4
		c-0.3,0-0.8-0.7-1.9-0.2c-3.6,1.7-4.7,1.9-5.8,4.7c0.5-1.2,0,1.7-1.3,1.4h0.1c-4.8,0.1-6.4,2-7.1,6c-0.3,1.7-1.1,5.6-2.7,6.3
		c-1.7,0.7-5.4,2.3-7.1,1.6c-1.8-0.8-1.7-3.3-3.4-3.2c-2.4,0.1-3.3-0.3-3.7-2.6c-0.4-2.1-3.2-5.6-5.5-6.7c-1.6-0.7-5.3,0.7-7,1
		c-1.5,0.3-3.2,0.5-4.8,0.4c-0.8,0-1.5-0.1-2.2-0.2c-1.6,0.3-3.4,0.1-5-0.5l0,0c-1.8-0.6-3.3,0-5.2,0.1c-0.7,0.1-2.1-0.6-2.8-0.5
		c-6.2,0.5-9.8-1.1-15.1-4.9c-0.3-0.2-1-0.4-1.3-0.5c-3.4-1.3-5.3,1.7-9.9,3.7c-1,0.5-3.4,0.4-4.5,0.4c-3-0.1-6.1-0.1-8.9-1
		c-4.2-1.3-6.5-0.5-9.5-3.9c-0.6-0.7-0.5-2.6-0.9-3.4c-0.5-0.9-1.1-2.5-2.9-3.1c-1.6-0.5-4.9-0.4-6.5-0.9c-1.8-0.6-3.3-0.9-5.2-0.2
		c0,0-1.9,0.8-2.5,1.1c-3,1.3-7.9,4.3-11.7,5.4c-1.5,0.4-3-1.6-5-1.2c-2.2,0.5-4,0.6-5.2-1.5c-0.3-0.6-0.1-2.4-0.7-2.7
		c-1.1-0.6-3.4-0.3-3.8-1.1c-0.8-1.8-1.4-5.4-2.9-6.8c-1-1-4,0.5-5.1,1.3c-0.5,0.4-1.6,1.2-2.3,1.3c-1.6,0.2-3.4-0.6-4.5,0.5
		c-0.3,0.3-0.6,1.3-1,1.6c-0.7,0.6-3,0-3.6-0.7c-0.7-0.8-1.9-3.2-2.8-3.1c-2.8,0.5-5.1,7.9-7.9,8.3c-1.8,0.3-5.4-0.7-7.1-1.1
		c-6.4-1.7-13.5-4.9-17.9-2.1c-1.9,1.2-3.8,5.6-5.2,7.4c-1.3,1.7-3.4,2.4-5.6,2.6c-1.7,0.2-4.9,1.1-6.6,1.4
		c-1.2,0.3-3.4-0.7-5.2-0.6c-3,0.1-2.6,2.7-5.3,2.9c-4.3,0.3-7.3,0.8-10.6-2.2c-3.8-0.1-8.6,2.3-11.2,1.5c-2.8-0.9-5.1-2.5-8-2.1
		c0.7-0.6-5.5,5.7-5.1,5.2c-0.8,0-1.7,0.2-2.4,0.7c-2.1,2.3-4.1,1.3-4-1.6c-0.5-1.1-3.3-1.8-3.7-2.4c-1.2-2-0.8-4-2-6.8
		c-0.2-0.5-2.6-1.3-3.2-1c-1.4,0.4-2.3,0.9-3.8,2c-5,3.6-4.5,6.6-6.5,9.7c-4.2,0-8.9,2.9-8.9,2.9c-0.8,1.1-1.7,2.8-2.7,3.4
		c-0.9,2.3-0.9,2.3-2.3,4.6c0,0-4.4,0.8-5.7,1.5c-1.4,0.7-1.2,4.2-2.8,4.4c-1.2,0.2-7.5-5.8-7.7-4.6c0,0-3.3,3.1-4.6,4
		c-2,1.4-7.1,2.8-8.8,4.6c-2.5,2.7-2.9,11.3-5.9,13.5c-1.5,1.1-4.3,4-6.2,4.1c-1.5,0.1-5-2-6.1-0.9c-1,1.1-0.3,4.4-1.6,6
		c-0.9,1-2.4,3.2-3.3,4.2c-0.7,0.7-2,2.2-2.7,2.9c-2.9,3-9.5,11.7-13.4,10.1c-3-1.2-0.9-4.9-3-6.8c-1.2-1.1-5.7-1.9-5.6-3.6
		c0.1-1.3,1-3.8,0.6-5c-1.2-4-5.6-1.8-10,1.6c-1.3,1-5.5,1.3-5.8,2.9c-0.4,2.1,2.3,6.6,1.3,8.5c-0.6,1.1-3.2,1.4-4.7,2.1
		c-3.1,1.5-5.1,8.2-8.4,7.7c-1.5-0.2-3.8-3-5.4-3.1c-2.2-0.1-3.9,1.4-6.1,1.8c-3.7,0.7-11.9,5.5-14.9,3c-1.2-1-1-4.6-1.4-6.1
		c-1.1-4-4.9,1.6-11.5,1.9c-1.3,0.1-3.2-2.1-4.5-2.5c-0.2-0.1-1.2,2.3-1.8,2.7c-1.4,0.9-4.8,1-6.4,1.2c-1.8,0.2-2.6,1.9-2.6,4.7
		c-1,1.9-1.3,4-3,4.6c-1.4,0.5-6,0.6-6-0.9"/>
</g>
<g>
	<path fill="none" stroke="#298F8D" stroke-width="5" stroke-linecap="round" stroke-linejoin="round" stroke-miterlimit="10" d="
		M568.6,286.8c2.2-3.2,4.8-6.4,3.8-11.7c0.4,0.9-2.8-8.8-4.6-11.4c0.3-3.6,0.1-7.6-0.5-11v1.7c-0.5-3.7-2.3-7.5-4.8-10.5
		c-0.7-1.6-1.5-3.3-2.2-4.9l0,0l0,0c-2.8-5.4-5.9-8.5-10.7-4.9c-2.9-3.4-6.8-4.4-11.9-2.7c-0.2,0-0.3,0.1-0.5,0.1
		c-7.4-1-12.3-5.1-14-12.3v0.2c-2-2.3-4.1-4.6-6.2-6.8l0,0c0,0-0.1,0-0.1,0l0,0l0,0l0,0l0,0c-0.3-1.1-1-1.8-2-1.8
		c-2.5-0.3-3.2-2-3.1-4.6c-0.5-0.3-1-0.3-1.6-0.2c-0.4,0.2-0.8,0.4-1.3,0.6c3.8-21-17.3-24.2-11-45.2v0c-1.5-6.6-0.5-11.6,3.1-19.1
		v0.1c-5.9-17.2-7-32.1-13.8-50.1l0,0c-0.5-0.3-1-0.5-1.6-0.5c-0.2,0-0.4-0.1-0.6-0.2l0,0l0,0l0,0"/>
</g>
</svg>
