<svg version="1.1" xmlns="http://www.w3.org/2000/svg" xmlns:xlink="http://www.w3.org/1999/xlink" viewBox="0 0 900 342.8">
<g>
	<path fill="#F5EBA5" d="M31.5,151.4l0.3-0.3l0.3-0.3l0.3-0.6l-0.6-1.2l-0.6-0.3h-0.3l0.3-0.6l0.3-1.2v-0.3l0.3-0.3v-0.3l-0.3-0.3
		l-0.6-1.5l0.3-0.3l1.2-0.6l0.6-0.3V143l0.6-0.6l0.6-0.9v-0.9v-0.3v-0.3h-0.3l0.3-0.3l0.3-0.3v-0.3l-0.6-0.9h-0.3l-0.3-0.3l-0.3-0.6
		v-0.3l0.3-0.3l0.3-0.3h0.3l0.3-0.3l0.6-0.9H35l0.3-0.3v-0.3l0.3-0.6l0.3-0.3l0.3-0.6l0.9-0.3l0.6-0.9h0.6v-0.3l0.3-0.3v-0.3
		l0.3,0.3h0.3l0.3-0.6v-0.6h0.3H40l0.3,0.6l0.3-0.3l0.9-0.3v-0.3l0.6-0.6h0.9v-0.3h0.3l0.6,0.3h0.3l0.6-0.3l0.3-0.6v-0.6l0.3-0.6
		h0.6v-0.3v-0.3v-0.3l0.6-0.6h0.3l0.9-1.2l0.3-0.6l0.3-0.3l0.6-0.3h0.9h0.6h0.3l0.3,0.3h0.6h0.9l0.9-0.6l0.3,0.3h0.3l1.5-1.2
		l0.3-0.3l0.6-0.6l1.8-0.6l0.6-0.6l0.9-0.6v-0.6h0.9h0.3l0.3-0.3l0.9,0.3L63,119l0.3,0.3h0.9h0.3l1.5-0.6h0.3h0.3h0.3h1.5h0.6h0.3
		H70h0.3l0.3,0.3l0.3-0.3l0.3,0.3l0.9,0.3h0.6h0.3V119h0.6l1.7-0.6l0.6-0.6h0.3l0.3,0.3l0.9,0.6l0.6,0.9v0.3h0.3h0.3h0.6l0.3-0.3
		h0.6l0.9,0.3h0.6h1.2h0.9h1.2l0.3,0.3l2,0.3l0.6-0.6h0.6l0.6-1.2l0.3-0.3v-0.3v-0.3h0.3l0.3-0.3v-0.3l0.3-0.3h0.9l0.6-0.9l0.6-0.6
		l0.6-0.6v-0.3h0.6l0.9,0.3h0.3l0.6-0.3h0.3v-0.3l0.9-0.3l0.6-0.3l0.3-0.3h0.6l0.6-0.3l0.3-0.9V112h0.9h0.3v-0.3l0.6-0.3l0.3,0.3
		h0.3l0.9-0.9v-0.3l0.3-0.3V110v-0.3l0.3-0.3l0.3-0.3v-0.3l0.3,0.3l0.9-0.3l0.3-0.3l1.5,0.3l0.3,0.6l0.6,0.6h0.3l0.9-0.3h0.3
		l0.6-0.6l0.3-0.6v-0.9l0.9-0.6h0.6l0.6-0.3l0.3-0.6l0.3-0.3h0.3l0.3-0.3l0.3-0.3V105l0.3-0.6l-0.3-0.3l0.3-0.6v-0.3V103v-0.3v-0.3
		l0.3-0.3l0.9-0.3l0.3-0.3v-0.3h0.9l0.9,0.3l0.3-0.3l0.3,0.3h0.3h1.2h0.3h0.3l0.9-0.3h0.3l0.6-0.9v-0.3l0.3-0.6l0.6-0.3h0.3l0.6-1.2
		v-0.3v-0.3l0.3-0.3l0.3-0.3h0.6l0.6,0.3v-0.3l2-0.3l0.9,0.3l0.6-0.3l0.3-0.3l0.6-0.3h0.3h0.3v-0.3h0.3l1.2-0.9v-0.3l0.6-0.3h0.6
		l0.9,0.3h0.3h0.3l0.6-0.3l0.6,0.3v0.3h0.3h0.3h0.3l0.3-0.3l0.6,0.3l0.6,0.3l0.6,0.3l0.6,0.3l0.6,0.3l0.6,0.6h0.6h0.3L140,96
		l0.6-0.6l0.3-0.6l0.6-0.3h0.6l0.3-0.3l-0.3-0.3l0.3-0.6l0.3-0.3v-0.3l0.3-0.3v-0.3l0.3-0.9l0.9-0.9v-0.3h0.9l0.3-0.9l0.3-0.3
		l0.3-0.3h0.3h0.3l0.3-0.3v-0.3v-0.9l0.3-1.2v-0.6h0.3l0.6-0.6h0.6l0.3-0.3l0.3-0.3V84v-0.3h-0.3v-0.3l-0.3-0.3v-0.3l0.3-0.3v-0.3
		V82l-0.3-0.3v-1.5l-0.6-0.6v-0.3v-0.3v-0.3v-0.3v-0.6h0.3h0.3l0.3-0.3h0.3v-0.3v-0.9l0.3-0.9l0.3,0.3l0.3-0.3l0.9-0.3l1.2-0.6
		l0.3,0.3l0.9,0.6l0.9-0.3l0.3,0.3l0.9,0.9l0.6,0.6l0.6,0.3l0.3,0.6l0.3,0.9l0.6-0.3l0.6-0.3h0.3h0.3l0.3-0.3l-0.3-0.6V77l0.6-0.9
		l1.2-0.9h0.3v-0.9v-0.6h0.3v-0.3h0.6l0.3-0.6v-0.3l-0.3-0.3h-0.3l-0.3-0.3v-1.2l0.3-0.3l0.3-0.3v-0.6l0.3-0.3l1.2-0.3l0.6-0.3h0.6
		l0.3-0.3l2-1.2l0.3-0.3l0.3,0.3l0.9-0.6l0.3-0.3v-0.3v-0.3h0.3h0.3l0.6-0.3l0.3-0.3l1.2-0.6l0.3-0.3v-0.3l0.3-0.3l1.2-0.3l0.3-0.3
		l0.6-0.3l0.6-0.3h0.3h0.6l0.3-0.3l0.3-0.3l0.6-0.3h0.6l0.3,0.3L178,63l0.3,0.3v0.3l-0.3,0.6h0.6l0.3,0.3l0.3,0.3l0.6,0.3v0.3
		l0.3,0.3l0.3,0.3v0.3v0.3v0.3l-0.6,0.6l-0.3,0.3l-0.6,0.9l-0.3,0.6l-0.3,0.3V70v0.6l0.3,0.3h0.3l0.3,0.6l-0.3,0.3l-0.3,1.5v0.3v0.6
		h0.3l0.6,0.3h0.6l0.3-0.3l1.2,0.3h0.3V75l0.3,0.3l0.6,0.3l1.2,0.3l0.3-0.9l0.6-0.3l0.6-0.6h0.3h0.6l0.3-0.3l0.9-0.3h0.3l0.3-0.3
		h0.6h0.6l0.6-0.6l0.9-0.9l0.6-0.3l0.3-0.3v-0.3l0.3-0.3l0.6-0.3l1.2-0.6l0.3-0.3l0.3-0.3l3.8-6.4l0.6-1.2l0.9-1.2l0.6-0.6l1.5-1.2
		h0.3l0.6-0.3l0.3-0.3l0.3-0.3h0.3l0.6-0.3l0.6-0.3v-0.3l0.6-0.3l0.6-0.3v0.3h0.3h0.9h0.6l0.3-0.3h0.3h0.6l0.3-0.3l0.9-0.6l0.3-0.3
		l0.3-0.3l0.6-0.3l0.9-0.3l0.3,0.3l0.6,0.6h0.3h0.3h0.3v0.3h0.3h0.3l0.3-0.3l0.3-0.6h0.3h0.3l0.3,0.3l0.3,0.3l0.3-0.3l0.3-0.3v-0.3
		l0.6-0.3h0.3v-0.3l0.6-0.6l0.3-0.3l0.3-0.6v-0.3l0.6-0.3h0.3h0.3l0.6,0.3l0.3,0.3l0.3,0.3l0.6,0.3l0.3,0.3h0.3l0.3,0.3v0.3h0.3h0.3
		h0.3l0.3-0.3h0.3h0.9l0.6-0.3h0.6h0.3l0.3,0.6l0.3,0.6v0.3l0.3,1.2v0.6v0.6l0.3,0.6l0.3,0.9l0.3,0.3h1.2l0.6-0.3h0.3h0.3l0.3,0.3
		h0.3h1.5h0.3h0.3l1.2-0.6l0.6-0.3l0.6-0.9v-0.3l0.3-0.6l0.6,0.3h0.3l0.6,0.6h0.3h0.3l0.3-0.3h0.3V56v-0.3l0.9-1.2l0.3-0.6l1.8-2.9
		v-0.3l1.2-1.5l1.5-2.6l0.3-0.9l1.2-2l2.3-3.2l0.6-1.2l1.8-2.6l0.9-1.8l1.2-0.9l0.3,0.3l0.9-0.3l0.6-0.6l0.3-0.3l0.3-0.3l0.3-0.6
		l0.9-0.9l0.6-0.6h0.3l0.3-0.3l0.6-0.3l0.6-0.3l0.9-0.6h0.9l1.2-0.3l0.3-0.6l0.9-0.3h0.3h0.3l0.3,0.3v0.3v0.3l0.3,0.3h0.3h0.3
		l0.6,0.3l0.9,0.6v0.3h0.6v0.3h0.3h0.3h0.3h0.3h0.3h0.3l0.3-0.3h0.3h0.3h0.6h0.3l0.6,0.3l0.3,0.3l0.6,0.3l0.6-0.3v-0.3v-0.3v-0.6
		l-0.6-0.6h-0.6l-0.3-0.3v-0.3l-0.3-0.6V28v-0.3v-0.6l-0.6-0.6l-0.3-0.3V26l0.3-0.3v-0.3l0.3-0.6l-0.3-0.3v-0.3l-0.3-0.3l-0.3-0.3
		l-0.3-0.6v-0.6l0.3-0.6l0.3-0.3l0.6-0.3l0.9-0.9l0.3-0.6v-0.6l0.3-0.6v-0.3v-0.3v-0.3l0.3-0.3v-0.6l-0.3-0.3v-0.3l0.9-0.6l0.6-0.3
		h0.3l0.3-0.3v-0.3l0.3-0.6V14h-0.3v-1.2v-0.6V12v-0.3v-0.3l-0.3-0.3v-0.3l0.3-0.3V9.9l-0.3-0.3V9.3V9V8.5h-0.3V8.2l-0.3-0.3V7.6V7
		V6.4h0.6l0.3-0.3V5.5l0.6-0.6l0.3-0.3V4.1V3.5l-0.3-0.3V2.9l0.3-0.3V2.3l0.3,0.3h0.9V2.3h0.3V2V1.8l-0.3-0.6V0.9V0.3l0.3-0.3
		l7.6,0.6l6.7,0.6l1.2,0.3h2.3l0.3,0.3h0.6l1.5-0.3l1.8,0.3l1.2,0.3h0.3l6.7,0.6h2.3h2.9h1.5l3.8,0.3h0.9h0.3h0.9l3.2,0.3h1.5h2.6
		l0.6,0.3h1.8h0.3l0.3,0.3h0.6h0.6h1.2h1.5l0.6,0.3h2h1.5h0.6h0.3l5,0.6h0.6h2h0.6l3.2,0.3h0.3l4.1,0.3h0.3l6.1,0.3h1.5h1.8h0.3h0.3
		h0.6h2h2.9l1.5-0.3l2.6,0.3h0.3h0.6l2.3,0.3h0.9h0.9l2,0.3h0.9h1.2l2.9,0.3h2h0.3l2,0.3h2.9l2.9,0.3l4.1,0.3h0.9l5,0.3l0.3,0.3h3.2
		l1.2,0.3h1.5l2.6,0.3h6.7h0.3h3.2h0.9h0.3h0.9h0.3l4.7,0.3h2h0.6h3.2h1.2h2.6h3.5h0.3h2l4.7,0.3h1.2h0.6h0.3h1.5h2h2.3h0.3h0.9h2.3
		h2.3h0.9h0.3h3.5h0.6h1.8l4.7,0.3h3.8h2.3h8.5h0.3h0.9h1.5h2.6h0.3h2h0.6h3.8h1.2h2.6h2l7.9,0.3h1.5l3.2-0.3h0.6h0.3h0.3h2h4.7h1.2
		h0.3h7h7.6h0.6h0.3h0.6h2h2.3h0.6h1.2h3.2h2.3h5h1.2h1.2h0.6h0.3h0.6h2.6h6.4h0.6h0.9h0.3h2.6h0.3h1.7h0.9h5.5h0.9h0.3h2h2.6h0.6
		h0.6h1.5l1.5-0.3h0.6h5.3h5.8h1.2l5-0.3h1.8h1.2h3.5h6.7h0.3h1.5h0.9h5.8h0.9l14-0.3h1.2h0.6h0.6h0.6l10.2-0.3h0.3h1.5h1.2h6.7h2.6
		h4.7l1.2-0.3h0.3h0.6h7.9h2.3h6.1h4.1l5.8-0.3h1.8h4.4h2.6h2.3l1.5-0.3l2-0.3l0.3,0.3l1.5,0.3l2.6-0.3h2.3h0.3h0.3h1.5h1.2h5.8
		l9-0.3h0.6L750,6.7V6.1h0.3h1.8l9-0.3h2.6h2.6h0.6h0.9l2.6-0.3h4.4h3.8l5.5-0.3h3.5h5l2.6-0.3h7.9h0.9l6.4-0.3l7.9-0.3h4.1h4.1
		l2.9-0.3l8.8-0.3h0.9h7h0.3l3.2-0.3h1.2h0.3h0.3h0.3h0.9h0.6h0.6h0.3h1.2l1.2,6.1l2.6,9.6v0.6l1.8,7.3l1.8,5.8l0.9,2.3l0.9,2.6
		l0.3,0.9l1.2,3.5v0.3l0.3,0.3l1.2,2.9l2.3,6.1l0.3,0.3v0.3l0.9,1.8l0.3,0.6l0.9,2l0.9,1.8l1.5,2.9l1.5,2.6l0.6,0.6l1.2,2l0.9,1.5
		l1.5,3.2l0.6,1.5l1.2,2v0.3h0.3l3.8,7.9l2,3.8v0.3l0.3,0.3v0.3l0.6,1.8l1.2,2.9l0.3,0.3l1.2,2.6v0.3l0.6,0.9l0.3,0.3h-0.3l-0.3,0.9
		h-0.6l-0.3-0.6v-0.3l-0.6-1.2l-0.3-0.3l-0.6-0.6l-0.6-1.2l-0.9-1.8l-1.5-1.8l-0.3-0.3l-1.2-2.6l-0.3-0.3l-1.8-2.6v-0.6l0.3-0.6
		v-0.9l-0.3-0.9l-0.3-1.5l-1.2-1.8l-1.7-3.2l-0.6-0.3l-1.5-1.2l-0.3-0.6v-0.3l-0.3-0.3l-0.3-0.3l-0.3-0.3l-0.6-0.3l-3.8-0.9
		l-0.6-0.9v-1.2l0.6-1.5v-0.6l-0.6-0.3h-0.6H870v-0.3l-0.3-0.6v-1.2v-0.6V63v-0.3v-0.9l-0.6-2l-0.6-3.5v-1.2v-0.3l-0.3-1.2l-0.6-1.5
		l-2-5.8l-0.9-1.8l-0.9-1.5h-0.3l-0.3-0.3l-0.6-0.6l-0.9-1.2v-0.3l0.3-1.5l-0.9-3.2l-0.9-0.9h-0.9l-0.6-0.3l-0.6-1.5l0.3-2.6
		l0.9-1.5v-0.9l-0.6-2l-0.9-0.9l-0.3-0.3l-0.6-0.9v-0.6v-3.5v-0.3l-1.5-1.8l-1.5-0.6l-0.9-0.9l-0.3-2.3l-0.9-2.6h-0.3l-0.6-0.3
		l-0.6-0.3l-0.3,0.3l-0.9,0.3h-0.3l-0.9-0.9l-2.3-0.6l-1.5,0.3l-2.9-1.5l-0.9,0.3h-0.9l-0.3,0.6l-0.6,0.6l-0.3,1.5l1.5,2.9l0.6,1.5
		l0.9,0.6l1.5,0.6l1.2,0.3l1.8,2h0.9l1.2-0.3l0.6-0.3l0.3-0.6l0.3-0.3l0.6,0.3l0.9,4.7v0.6l-0.3,0.9l-0.3,0.9v0.3v0.6l0.6,1.2h0.3
		l2,4.1l0.6,2l0.3,1.2l0.6,1.2h0.9h0.9l0.6,0.3l-0.3,1.8l-0.3,1.8l0.3,2l0.6,1.8l1.2,0.6l0.9,1.8v0.3v0.6v0.3v0.3v1.8l0.3,0.3
		l0.3,0.6l1.2,1.5l0.3,1.5l0.9,1.2l1.5,2.9l0.9,3.8v0.3l-0.3,0.9h-0.6l-3.5-2.3l-1.5-1.2l-2-3.2l0.3-1.8l-0.3-1.2l-0.3-0.3l-0.6-0.3
		l-1.2-0.3l-1.7-0.6h-1.5l-0.6,0.3l-1.5-0.3l-5.5-1.5l-2.3-0.9l-0.3-0.3h-1.2l-1.5,0.9h-0.6l-1.2,1.2v0.3v0.6l0.6,1.5v0.6l-0.6,0.6
		l-0.6,0.6l-2,0.6l-2.3,0.6l-6.4,1.2l-0.6,0.3l-0.6,0.6v0.6v0.6l-2.3,1.5l-2.3-0.3l-2.6-0.6h-2.3l-1.2,0.6l-0.6,0.9l-1.7,1.2h-0.9
		l-0.6-0.3l-1.8,0.3l-5.3,0.9l-0.3,0.3v0.3l-0.3,0.3l-0.6,1.5l-2.3,2.3l-0.9,0.6l-0.6,1.2v0.6l-3.2,0.9l-2.3,1.5l-3.5-0.3h-1.5
		l-1.2,0.6l-0.6-0.3l-0.9-0.9l-0.6-0.9l-0.9-1.5l-1.2-0.3l-1.7-0.3l-2,0.6l-1.5,1.8l-0.3,0.3l-1.5,1.2l0.3,1.2l0.3,0.9l-0.6,1.2
		L774,77l-0.6,1.2l0.3,1.8l0.6,0.6v0.3l2,1.2h0.6l0.9-0.3l5-0.3l0.6-0.3l1.8-0.3h1.7l1.2-0.3h2.9l1.2-0.6l0.9-0.3l0.9-0.6l2.3-0.9
		l1.5-1.2l6.1-2l0.9,0.6l0.9,1.2v0.9l1.8,2.3l0.3,0.3l2.3-0.3l1.5-0.3l0.6-0.3l4.7-3.2l5.8-2l3.8-0.9h1.2h7l1.2,0.3l2-0.6l3.8,2.6
		l1.2,1.5v0.3l-0.6,2.9l1.2,2.3l0.6,1.2l0.6,0.3l2,0.6l1.2-0.3l0.6-0.3l1.2-2.3l1.5-0.9l0.3-0.3l0.3-0.3v-1.2l-1.2-1.2l-0.6-0.3
		l-0.3-0.3v-0.6l0.9-0.6l3.8-1.8h2h1.5h0.6h0.9l4.4,2l0.3,0.6l0.6,1.2l1.7,1.2v0.9l0.6,1.2l0.9,2l2,2.9l-0.3,0.9l0.6,2.3l1.5,1.5
		l0.9,2v1.5l-0.3,2.6l-0.6,1.5l-0.3,0.9l0.3,0.3l0.3,0.3l1.2,2.9v0.3v0.6l0.6,2.6l0.3,0.3l0.3,0.6l0.3,1.2l-0.3,0.6l-2.6,2.6v2
		l0.3,1.2l0.3,0.9l0.9,1.2v0.6l-1.8,1.8l-0.3,0.3l-0.9,0.3l-0.3,0.3l-0.3,0.3l-0.3,0.3l-0.9,0.9l0.3,1.8l-2.3,0.6l-4.1,0.6l-1.5-0.9
		l-0.9-0.9l-0.9,0.3l-2.6,1.5l-1.2,1.8v0.6v0.9l-0.9,1.2l-2.9,0.6l-0.3,0.3l-0.6,0.6l-0.9,2v0.9l0.3,0.9v0.3l-2.6,1.2l-0.6,1.2v0.9
		v0.6l-0.3,1.5l-1.2,1.5l-0.3,1.2l0.3,1.2l-0.3,0.6L844,145l-0.6,0.3l-1.2-0.6l-1.5-0.3l-0.9,0.9l-0.3,0.6v0.9l0.3,0.6l0.3,1.2
		L839,150l-2.3,1.5l-2.9,1.2l-0.9,0.3l-1.2,1.5v1.2l-0.6,0.3l-1.8-0.3l-0.3-0.3l-1.2-0.6h-2.6l-2.9-1.5h-1.5h-0.3l-0.6,0.9h-0.6
		l-1.8-0.3l-2.3-1.2h-2.3l-0.9,0.3l-0.6,0.9l-0.9,0.3l-1.5-0.3l-1.2-0.9l-0.6-0.3l-0.6,0.3l-1.2,0.9h-0.9l-0.3-0.6l-1.2-0.6
		l-0.6-0.3h-0.6l-0.3-2l-1.5-0.6h-0.6l-0.6,0.3l-1.2,1.2H797l-1.5-1.2l-2.3-1.2l-2.6,0.3l-3.2,0.3l-2.6,0.3l-1.5,1.2l-0.9,1.2
		l0.9,2.6l1.5,0.9l0.3,0.3l1.5,0.3l3.5,0.3l0.6,0.3l5,0.6l1.8,1.2l1.2,2.3l0.6,2v2l-0.9,2.3l-0.6,0.3l-0.6,0.9l-0.3,1.5l-0.3,1.2
		l-0.6,0.3l-0.3,0.3l-1.7,1.7l-1.5,2.3v0.6l-0.3,0.6l0.3,2v0.9l-0.9,2.3l-1.2,0.9l-0.3,0.9l-0.6,1.5l-0.9,0.6h-1.2l-0.6,1.2v1.2
		l-0.6,0.9l-1.5,0.9h-0.9l-0.9,0.6l-0.9,0.6l-0.6,1.2v1.5v0.9l0.3,0.6l0.3,0.9l1.5,2l3.8,0.3h0.3l2-0.9l2.9-0.3l3.8-0.9l0.6-0.6
		l0.3-0.6l0.3-2.3l0.9-2l0.6-2.3l0.6-0.6l0.6-0.3l2.6,2.3l0.6,1.2v2l0.9,3.8l0.6,0.6h0.3l0.3,0.3l0.6,0.6h0.3l0.6,1.5l0.3,0.3
		l6.7,0.3l0.6-0.9l-0.6-1.2l-2-3.8l-1.2-0.9l-0.3-0.9v-0.3l1.2,0.3l3.5,1.5l2.6,1.2l0.3,0.6v0.9v0.3l-0.3,0.3l-0.3,0.9v1.2l0.6,0.9
		l1.5,0.9l0.3,0.9l-0.3,1.8l-0.6,0.6l-2.3,2.6l-0.3,0.6l-0.9,1.8l-1.5,1.8l-1.5,1.5h-1.8h-0.3l-0.9,0.6l-0.3,0.6l-1.5,0.9h-0.6
		l-0.3,0.6l-0.9,1.2l-0.3,2v1.5l0.9,0.6l0.6,0.3h1.2l0.6-0.3l1.2-1.2l0.3-0.3l0.9-0.6l2-2.3l0.3-0.6l1.2-1.5l0.3-0.3l3.8-3.5
		l1.2-1.2l4.1-3.5l3.8-4.7l3.2-3.8l5-5.3l1.7-2l2.3-3.2l0.6-0.3l2,0.9l0.6,0.6l0.3,0.6l-3.8,3.8l-6.4,5.5l-9.3,10.5l-4.1,3.5
		l-3.5,3.2l-0.3,0.3l-1.5,1.5l-3.2,3.8l-2.6,2.6v0.3l-0.3,0.6l-2.9,3.8l-0.3,0.3l-2.9,4.4l-3.8,5.8l-0.6,0.6l-1.2,2.6l-1.5,3.2h-0.3
		v0.3l-0.3,1.2l-0.6,1.7l-0.3,0.3l-0.9-1.8l-1.2-1.8l0.3-1.5l0.3-0.3v-1.8l-0.3-0.3l-2-1.2l-0.9-0.3l-1.2-0.6l-1.2-0.3l-1.5-0.6
		l-2.6-0.6l-2-0.9v-0.3l-0.9-0.3l-0.6-0.3h-1.7h-0.9l-2-0.3h-0.6H774h-3.5h-0.3h-0.3h-0.6h-0.6l-1.5,0.3l-2,0.3l-4.7,0.6H760
		l-0.9,0.3l-1.5,0.3h-0.3H757l-0.9,0.3h-0.6l-2.6,0.6l-4.7,0.9l-0.9,0.3l-0.6,0.3h-0.3l-3.2,0.9h-0.6l-0.3,0.3l-5.3,1.8l-0.9,0.3
		l-1.2,0.6h-0.3h-0.3l-2,0.9l-2,0.9l-1.2,0.3l-0.6,0.6h-0.3l-1.7,0.9l-1.2,0.6l-0.3,0.3L725,248l-0.9,0.3l-0.9,0.9l-0.3,0.3
		l-0.9,0.6h-0.3l-0.6,0.6l-2.6,2l-4.7,3.8l-0.6,0.3l-0.6,0.3l-0.6,0.3l-1.2,0.9l-11.4,6.4l-2.9,2l-1.5,1.2h-0.3l-0.9,0.9h-0.3
		l-1.8,1.2l-2,1.8l-0.6,0.3l-2,1.8l-0.9,0.9l-4.4,4.1l-1.8,1.8l-0.9,0.6l-0.6,0.6l-2,2l-1.5,2l-1.2,1.2l-0.3,0.3l-2.3,2.6l-2.6,3.2
		v0.3l-0.3,0.3l-2,3.5l-0.6,0.6l-1.7,2.9v0.3l-1.8,2.6l-1.5,2.6l-1.5,4.1l-1.2,3.5l-0.3,0.3l-0.3,0.3l-0.3,0.9l-0.3,0.9l-1.2,3.8
		l-0.3,0.9l-0.9,2.9l-0.3,0.6l-0.3,1.2l-0.6,1.8l-1.2,3.5l-0.9,1.7l-1.2,2.3l-0.9,4.1l-0.3,2.6v0.6l-1.2,0.9l-3.8-1.5l-0.3-0.6v-0.6
		v-0.6l-0.6-1.5l-0.3-0.6l-0.9-0.3h-0.6h-0.3l-3.5-1.2h-0.6l-1.2-0.3l-0.3-0.3h-0.6l-0.6-0.3h-0.3h-1.2l-1.5-0.3l-0.9-0.3h-0.3h-0.3
		h-2h-0.9h-0.6h-1.5h-0.9h-3.2h-0.6l-4.1,0.3l-7.9,0.9l-2.9,0.3h-0.3h-0.3l-7.3,2.9l-1.2,0.3l-0.6,0.3H596l-0.6,0.3h-0.3l-2.6,0.9
		l-0.9,0.6h-0.3l-0.6,0.6l-1.5,0.6l-1.8-1.8l-1.5-1.8h-0.3l-0.6-0.6l-0.6-0.6l-0.6-0.6V337l-2.3-2.3l-0.6-0.6l-0.9-0.9l-2.3-2v-0.3
		h-0.3l-0.9-1.2l-4.1-4.1l-0.9-0.9h-0.3l-2.3-2.6l-0.3-0.3l-3.2-3.2l-1.8-1.8L563,316l-0.3-0.3l-1.5-1.5l-1.5-1.8l-2.9-2.9l-2-1.8
		v-0.3h-0.3L554,307l-0.9-1.2l-2-1.8l-0.3-0.6l-1.8-1.7l-2-1.8l-0.3-0.6l-0.9-0.6l-0.3-0.3l-0.3-0.6l-0.6-0.6l-1.5-1.5h-0.3
		l-0.6-0.9l-1.2-1.2l-3.2-3.2l-0.3-0.3l-2.9-3.2l-4.1-3.8l-3.5-3.5l-0.9-0.9l-3.8-4.1l-0.3-0.3l-0.6-0.6l-0.3-0.3l-1.5-1.5l-0.3-0.6
		l-1.8-1.8l-0.6-0.3L517,269l-0.6-0.6l-1.2-1.2l-1.5-1.5l-1.2-1.5l-1.2-1.2l-0.9-0.9V262l-1.2-0.9l-0.6-0.6l-0.3-0.3l-0.6-0.6
		l-2.6-2.9l-0.9-0.9l-5.5-5.5l-2.9-3.2l-1.2-0.9V246l-0.9-0.6h-0.3l-0.9-1.2l-0.9-1.2l-1.5-1.5l-1.5-1.5h-0.3l-1.2-1.2l-2.3-2.3
		l-0.6-0.6l-3.5-3.8l-1.5-1.2l-1.2-1.2l-1.2-1.2l-0.3-0.3l-0.9-0.9l-1.5-1.5l-1.2-1.2l-0.6-0.6h-1.2h-0.3h-2.3h-1.2l-2-0.3h-1.8H463
		h-9.9h-2h-3.8l-4.1-0.3h-1.8h-0.9h-0.9l-0.6-0.3h-0.6H437h-0.9h-0.6h-2.9h-0.3h-0.3l-2.3-0.3h-2.6h-0.6h-1.2h-0.6h-1.2H423
		l-2.6-0.3h-4.1H416l-4.7-0.3h-0.6h-0.9h-1.2H407h-2l-0.9-0.3h-5h-1.8h-0.3h-0.9l-0.9-0.3h-0.9h-0.3h-0.6h-1.5h-0.3h-1.5H390h-0.6
		h-0.6l-2.9-0.3h-3.5h-2.9l-3.2-0.3h-0.6H374h-0.3H372h-0.6h-1.2h-0.3H369l-2.6-0.3h-0.3h-0.6h-4.7h-0.6h-2l0.3-0.6V220v-0.6v-0.6
		l1.2-7.9l0.3-2.3l0.3-1.7l-0.6-0.9l-2-2.6l-1.5-2l-1.8-2.9l-1.2-1.5l-1.2-1.8l-0.6-1.2l-1.5-2l-1.5-1.7l-0.9-1.2l-1.2-1.7l-1.2-1.5
		l-0.3-0.6l-1.5,0.9l-0.3,0.3l-0.3,0.3l-0.3,0.3l-2.3,1.5l-0.6,0.3l-0.3,0.3l-5.5,3.8l-0.9-1.5l-0.6-0.6v-0.3v-1.5v-0.3v-1.2v-0.3
		l0.3-0.9h0.3l0.3-0.3v-0.3h0.3l0.3-0.3h0.3h0.3h0.3v-0.3l0.3-0.3v-0.3v-0.6l-0.6-0.9v-0.6l-1.2-0.6h-0.3v-0.3l0.6-1.2v-0.3l0.3-0.3
		v-0.3h-1.2l-2-0.3l-1.8-0.3h-1.8H327l-1.2-0.3h-0.6h-0.9l-3.2-0.3h-0.9l-3.2-0.3l-2.9-0.3h-0.3h-2.3l-0.3-0.3h-2.3h-1.5l-0.9-0.3
		H306h-0.9l-3.8-0.3l-7.3-0.6h-0.3h-0.3h-0.3h-0.3h-0.3h-0.9h-0.6l-0.3-0.3h-2.3h-0.3l-2.3-0.3h-2h-0.6H283l-1.8-0.3h-0.9h-0.9
		l-2.9-0.3H276h-0.9l-2.3-0.3l-2.9-0.3h-0.6h-1.5l-0.6-0.3h-1.5h-0.3h-0.6h-1.5l-0.3-0.3h-2h-0.6h-0.3h-0.3l-2.9-0.3l-4.1-0.3h-0.6
		h-0.9l-1.8-0.3l-4.4-0.3h-0.9l-4.4-0.3h-0.6h-0.9l-1.8-0.3h-0.6l-3.2-0.3h-0.9l-4.4-0.3H227h-0.6l-3.5-0.3l-2.9-0.3h-0.9h-0.9
		l-1.2-0.3h-1.2H215l-0.6-0.3h-0.3h-0.6H213l-1.5-0.3h-0.6l-1.8-0.3h-0.9l-0.6,0.3l-0.6,0.3L206,171l-0.9,0.3h-0.3v0.3h-0.3
		l-0.3,0.3h-0.3l-0.6-0.3v-0.3H203V171l-0.3,0.3h-0.3V171l-0.6-0.3h-0.3L201,171h-0.6l-0.3,0.3v0.3v0.3h-0.3l-0.3,0.3h-0.3H199
		l-0.3-0.3l-0.3-0.3V171v-0.3v-0.3l0.3-0.3l-0.3-0.6l-0.3-0.6v-0.6l-0.6-0.3v-0.3h-0.3l-0.3,0.3l-0.9,1.2l-0.9,0.3h-0.6l-0.3,0.3
		l-0.3,0.6l-0.6,1.2v0.3l-0.3,0.6l-0.3,0.9l-0.3,0.3l-0.3,0.3h-0.6h-0.3h-0.3l-0.3-0.6V173h0.3l-0.3-0.3v-0.3l-0.6-0.3l-0.9,0.6H189
		l-0.6-0.3l-0.6,0.3h-0.6L187,173l-0.6,0.9h-0.3h-0.6h-1.2l-0.3,0.3l-0.3,0.3h-0.3v0.3h-0.3h-0.3h-0.3v-0.3h-0.3v-0.3H182h-0.6h-0.3
		h-0.3l-0.3,0.3v0.3v0.3h-0.3l-0.3,0.3v-0.3h-0.3l-0.3,0.3l-0.3,0.3l-0.3,0.3h-0.3l-0.6,0.3h-0.3h-0.3h-0.3l-0.6,0.3l-0.6,0.3
		l-0.3-0.3h-0.9h-0.3v0.3l-0.6,0.3h-0.3l-0.3,0.3L173,178h-0.3h-0.3h-0.3l-0.3-0.3h-0.3h-0.3L171,178l-0.3,0.3h-0.3v0.3l-0.6,0.3
		h-0.3h-0.9h-0.3v-0.3l-0.3-0.3V178h-0.3h-0.3h-0.3h-0.3v0.3v0.3l-0.3,0.3v0.3l-0.3,0.3l0.3,0.3v0.3v0.3v0.3l-0.6,0.6l-0.3,0.3
		l-0.3-0.3h-0.3l-0.3,0.3l-0.9,0.3h-0.6h-0.3h-0.3h-0.3v0.3v0.3l-0.3,0.3l-0.6,0.3v0.6H161h-0.3h-0.3l-0.3,0.3v0.3l-0.3,0.6h-0.3
		h-0.9l-0.6,0.3h-0.3l-0.3,0.3l-0.3-0.3l-0.3-0.3l0.3-0.3v-0.3l0.3-0.6v-0.6v-0.3h-0.3l-0.3-0.3l-0.3,0.3h-0.3l-2,0.6l-9,2.3
		l-10.5,2.9l-1.2,0.3l-0.9,0.3l-2,0.6l-2,0.6l-5.3,1.5l-8.2-0.3h-0.9h-4.1H105h-0.9h-2.6h-1.2h-0.3h-1.5h-0.3l-1.5-0.3h-1.5
		l-10.2-0.3h-6.7l-5-0.3h-2.3v0.6l-9.9-0.6H61h-0.3l-2.6-0.3h-2.6H54h-1.2l-2.6-0.3h-0.3H47h-0.9l-0.6-0.3h-2h-2.9l-1.5-0.3h-2.6
		h-1.7l-2.6-0.3h-1.8h-0.9l-6.1-0.3h-0.6l-3.2-0.3h-1.7l-3.5-0.3l-2.6-0.3h-1.2H8.8l-2.6-0.3L0,187.3l0.6-3.8v-0.3v-0.6l0.3-1.2
		l0.6-4.4l0.3-0.9l0.3-1.7l0.6-3.5l0.9-5.5v-0.3l0.3-1.8l0.6-2.9l0.3-2.3l0.3,0.3l0.3-0.3l0.3-0.3l0.6-0.9l1.8-0.6l0.3-0.6l0.3-0.3
		l1.2-0.6l0.3-0.3l0.9-0.9l0.6-0.6h0.3h0.9l0.3,0.3v0.3l0.6,0.6v0.3l0.3,0.3v0.9l0.3,0.6h0.6l0.6,0.6H16l0.3-0.3l0.6-0.3h0.3
		l0.6,0.3l0.3-0.3h0.3H19h0.9h0.3l0.3,0.3h0.3H21h0.3v-0.3l0.3-0.3h0.3h0.6h0.3h0.6l0.6,0.3h0.3h0.3h0.3v-0.3h0.3l0.6-0.6H26v-0.3
		v-0.3h0.3l0.6-0.3h0.3l0.9-0.3l0.6-0.3h0.6l0.9-1.2l0.9-1.2L31.5,151.4z M871.7,170.4l0.9-0.6l1.2-0.3l1.8-0.6l0.9-0.6l0.9-0.9
		l0.6-0.3l0.6-0.9l0.3-0.3h0.3l0.6,0.6h1.2l2.3-0.9l0.6-0.3l0.6-0.3l1.2-1.2l0.3-0.3l1.5-0.9l0.3-0.6v-0.9v-0.3l0.3,0.3h0.9l0.3,0.3
		l2.3-0.3l1.5-0.6l0.9-0.3l0.3-0.6l0.3-1.5l0.6-3.5l0.3-2.3l0.6-3.2l0.6-3.2l0.3-4.7l0.6-3.5l0.6-4.1l-0.3-1.5v-1.2V129l0.6-1.5
		l0.3-1.8l-0.3-5.8l-0.3-2.9l-0.9-3.2l-0.6-1.2l-0.3-0.9h-0.3l-0.3-0.9l-0.6-0.9l-0.3-1.5l-0.6-2.3v-1.5l-0.3-0.9v-0.6l-0.6-1.2
		l-0.3-1.2l-0.3-0.6l-0.3-0.9l-0.3-0.9l0.3-0.6l0.6,0.3l2,3.5l0.3,0.3v0.3l0.6,1.5l2,6.1l0.6,2.3l0.9,4.4l0.9,3.5v1.2v0.6v0.3v0.9
		l-0.3,2.3v0.6v1.5l-0.3,7.3l-1.2,9v1.2l-0.3,0.6l-1.2,9l-1.2,6.1v0.3v0.3l-0.3,0.6v0.9L895,164v0.3l-0.3,0.9l-0.6,1.2h-0.3L893,166
		l-1.7-0.3h-2l-2.9,0.6l-2.6,1.2l-3.5,1.5l-5.8,2.3l-2,0.9l-0.9,0.3l-0.6,0.3h-0.6l-2,1.2l-5,2.6l-7.3,4.1l-3.2,2l-1.8,1.8l-2,1.2
		l-1.7,2h-0.6v0.3l-0.6,0.3l-0.3-0.3l0.3-0.6l1.2-2l0.9-0.9l0.3-1.2l-0.3-0.9v-0.9h0.3l0.3-0.3v-0.3h0.3h0.6l0.3-0.3l0.6,0.6
		l1.2-0.3l3.2-2l1.5-0.9l1.5-1.2l5.5-2.9l2-0.6l0.6-0.3l1.2-0.6l0.9-0.6l0.6-0.9L871.7,170.4z M879.6,82.3l0.3,0.3l0.3,0.6l0.3,0.3
		l0.3,0.3l0.9,1.5l1.5,3.5l-0.3,0.9v0.3v0.9l0.3,1.2v0.3l0.3,1.5l-0.6,0.9h-0.3l-1.8-1.2l-2.9-0.6l-0.6-0.9l1.5-0.9v-0.3v-0.3v-0.3
		v-0.3V89l-0.3-1.2l-0.3-0.9l-0.9-1.5h-0.9l-1.7-2.3v-0.9V82l-0.6-0.6l-2-1.2l-0.6-0.9v-0.3l0.9-0.6h1.5l1.5,0.3l0.3,0.6l1.2,0.3
		l0.3,0.3l1.2,0.9h0.3l-0.3,0.6v1.2h0.9L879.6,82.3z"/>
</g>
</svg>
